<?xml version="1.0" encoding="utf-8" standalone="no"?>
<!DOCTYPE svg PUBLIC "-//W3C//DTD SVG 1.1//EN"
  "http://www.w3.org/Graphics/SVG/1.1/DTD/svg11.dtd">
<svg xmlns:xlink="http://www.w3.org/1999/xlink" width="129.6pt" height="162pt" viewBox="0 0 129.6 162" xmlns="http://www.w3.org/2000/svg" version="1.1">
 <metadata>
  <rdf:RDF xmlns:dc="http://purl.org/dc/elements/1.1/" xmlns:cc="http://creativecommons.org/ns#" xmlns:rdf="http://www.w3.org/1999/02/22-rdf-syntax-ns#">
   <cc:Work>
    <dc:type rdf:resource="http://purl.org/dc/dcmitype/StillImage"/>
    <dc:date>2025-12-04T16:42:16.961134</dc:date>
    <dc:format>image/svg+xml</dc:format>
    <dc:creator>
     <cc:Agent>
      <dc:title>Matplotlib v3.10.7, https://matplotlib.org/</dc:title>
     </cc:Agent>
    </dc:creator>
   </cc:Work>
  </rdf:RDF>
 </metadata>
 <defs>
  <style type="text/css">*{stroke-linejoin: round; stroke-linecap: butt}</style>
 </defs>
 <g id="figure_1">
  <g id="patch_1">
   <path d="M 0 162 
L 129.6 162 
L 129.6 0 
L 0 0 
z
" style="fill: #ffffff"/>
  </g>
  <g id="axes_1">
   <g id="patch_2">
    <path d="M 34.4 124 
L 119.88 124 
L 119.88 12.96 
L 34.4 12.96 
z
" style="fill: #ffffff"/>
   </g>
   <g id="FillBetweenPolyCollection_1">
    <defs>
     <path id="m7cb2273e49" d="M 38.285455 -117.525845 
L 38.285455 -93.52 
L 38.675952 -92.869108 
L 39.06645 -92.219268 
L 39.456948 -91.570572 
L 39.847446 -90.923109 
L 40.237944 -90.276968 
L 40.628442 -89.632239 
L 41.01894 -88.989012 
L 41.409438 -88.347376 
L 41.799936 -87.707422 
L 42.190434 -87.069239 
L 42.580932 -86.432917 
L 42.97143 -85.798545 
L 43.361928 -85.166213 
L 43.752426 -84.536011 
L 44.142924 -83.908029 
L 44.533422 -83.282356 
L 44.92392 -82.659082 
L 45.314418 -82.038297 
L 45.704915 -81.42009 
L 46.095413 -80.804552 
L 46.485911 -80.191771 
L 46.876409 -79.581838 
L 47.266907 -78.974843 
L 47.657405 -78.370875 
L 48.047903 -77.770023 
L 48.438401 -77.172378 
L 48.828899 -76.578029 
L 49.219397 -75.987066 
L 49.609895 -75.399579 
L 50.000393 -74.815658 
L 50.390891 -74.235391 
L 50.781389 -73.658869 
L 51.171887 -73.086182 
L 51.562385 -72.517419 
L 51.952883 -71.95267 
L 52.343381 -71.392025 
L 52.733878 -70.835573 
L 53.124376 -70.283405 
L 53.514874 -69.735609 
L 53.905372 -69.192276 
L 54.29587 -68.653495 
L 54.686368 -68.119356 
L 55.076866 -67.589949 
L 55.467364 -67.065364 
L 55.857862 -66.545689 
L 56.24836 -66.031016 
L 56.638858 -65.521433 
L 57.029356 -65.01703 
L 57.419854 -64.517898 
L 57.810352 -64.024125 
L 58.20085 -63.535802 
L 58.591348 -63.053018 
L 58.981846 -62.575863 
L 59.372344 -62.104427 
L 59.762841 -61.638799 
L 60.153339 -61.179069 
L 60.543837 -60.725327 
L 60.934335 -60.277663 
L 61.324833 -59.836166 
L 61.715331 -59.400926 
L 62.105829 -58.972032 
L 62.496327 -58.549575 
L 62.886825 -58.133644 
L 63.277323 -57.724329 
L 63.667821 -57.32172 
L 64.058319 -56.925905 
L 64.448817 -56.536976 
L 64.839315 -56.155022 
L 65.229813 -55.780132 
L 65.620311 -55.412396 
L 66.010809 -55.051904 
L 66.401307 -54.698746 
L 66.791804 -54.353011 
L 67.182302 -54.014789 
L 67.5728 -53.68417 
L 67.963298 -53.361243 
L 68.353796 -53.046098 
L 68.744294 -52.738826 
L 69.134792 -52.439515 
L 69.52529 -52.148255 
L 69.915788 -51.865137 
L 70.306286 -51.590249 
L 70.696784 -51.323682 
L 71.087282 -51.065525 
L 71.47778 -50.815868 
L 71.868278 -50.574801 
L 72.258776 -50.342413 
L 72.649274 -50.118794 
L 73.039772 -49.904034 
L 73.43027 -49.698223 
L 73.820767 -49.50145 
L 74.211265 -49.313805 
L 74.601763 -49.135378 
L 74.992261 -48.966258 
L 75.382759 -48.806535 
L 75.773257 -48.656299 
L 76.163755 -48.51564 
L 76.554253 -48.384647 
L 76.944751 -48.26341 
L 77.335249 -48.150862 
L 77.725747 -48.040124 
L 78.116245 -47.930051 
L 78.506743 -47.820653 
L 78.897241 -47.71194 
L 79.287739 -47.603921 
L 79.678237 -47.496605 
L 80.068735 -47.390002 
L 80.459233 -47.28412 
L 80.84973 -47.178971 
L 81.240228 -47.074562 
L 81.630726 -46.970904 
L 82.021224 -46.868005 
L 82.411722 -46.765875 
L 82.80222 -46.664524 
L 83.192718 -46.563961 
L 83.583216 -46.464195 
L 83.973714 -46.365236 
L 84.364212 -46.267093 
L 84.75471 -46.169776 
L 85.145208 -46.073294 
L 85.535706 -45.977656 
L 85.926204 -45.882872 
L 86.316702 -45.788951 
L 86.7072 -45.695903 
L 87.097698 -45.603737 
L 87.488196 -45.512462 
L 87.878693 -45.422088 
L 88.269191 -45.332624 
L 88.659689 -45.24408 
L 89.050187 -45.156465 
L 89.440685 -45.069788 
L 89.831183 -44.984059 
L 90.221681 -44.899288 
L 90.612179 -44.815483 
L 91.002677 -44.732655 
L 91.393175 -44.650811 
L 91.783673 -44.569963 
L 92.174171 -44.490119 
L 92.564669 -44.411289 
L 92.955167 -44.333482 
L 93.345665 -44.256707 
L 93.736163 -44.180974 
L 94.126661 -44.106293 
L 94.517159 -44.032673 
L 94.907656 -43.960122 
L 95.298154 -43.888651 
L 95.688652 -43.81827 
L 96.07915 -43.748986 
L 96.469648 -43.68081 
L 96.860146 -43.613752 
L 97.250644 -43.54782 
L 97.641142 -43.483024 
L 98.03164 -43.419374 
L 98.422138 -43.356878 
L 98.812636 -43.295547 
L 99.203134 -43.235389 
L 99.593632 -43.176414 
L 99.98413 -43.118632 
L 100.374628 -43.062051 
L 100.765126 -43.006682 
L 101.155624 -42.952534 
L 101.546122 -42.899615 
L 101.936619 -42.847936 
L 102.327117 -42.797506 
L 102.717615 -42.748335 
L 103.108113 -42.700431 
L 103.498611 -42.653804 
L 103.889109 -42.608463 
L 104.279607 -42.564419 
L 104.670105 -42.52168 
L 105.060603 -42.480256 
L 105.451101 -42.440155 
L 105.841599 -42.401389 
L 106.232097 -42.363965 
L 106.622595 -42.327894 
L 107.013093 -42.293184 
L 107.403591 -42.259846 
L 107.794089 -42.227888 
L 108.184587 -42.197321 
L 108.575085 -42.168152 
L 108.965582 -42.140393 
L 109.35608 -42.114051 
L 109.746578 -42.089138 
L 110.137076 -42.065661 
L 110.527574 -42.043631 
L 110.918072 -42.023057 
L 111.30857 -42.003948 
L 111.699068 -41.986313 
L 112.089566 -41.970163 
L 112.480064 -41.955506 
L 112.870562 -41.942352 
L 113.26106 -41.93071 
L 113.651558 -41.92059 
L 114.042056 -41.912002 
L 114.432554 -41.904953 
L 114.823052 -41.899455 
L 115.21355 -41.895516 
L 115.604048 -41.893145 
L 115.994545 -41.892353 
L 115.994545 -50.2004 
L 115.994545 -50.2004 
L 115.604048 -50.201375 
L 115.21355 -50.20429 
L 114.823052 -50.209135 
L 114.432554 -50.215898 
L 114.042056 -50.224569 
L 113.651558 -50.235137 
L 113.26106 -50.24759 
L 112.870562 -50.261917 
L 112.480064 -50.278107 
L 112.089566 -50.296149 
L 111.699068 -50.316032 
L 111.30857 -50.337745 
L 110.918072 -50.361276 
L 110.527574 -50.386615 
L 110.137076 -50.413751 
L 109.746578 -50.442671 
L 109.35608 -50.473366 
L 108.965582 -50.505824 
L 108.575085 -50.540034 
L 108.184587 -50.575984 
L 107.794089 -50.613665 
L 107.403591 -50.653064 
L 107.013093 -50.69417 
L 106.622595 -50.736973 
L 106.232097 -50.781461 
L 105.841599 -50.827623 
L 105.451101 -50.875449 
L 105.060603 -50.924926 
L 104.670105 -50.976044 
L 104.279607 -51.028791 
L 103.889109 -51.083158 
L 103.498611 -51.139131 
L 103.108113 -51.196701 
L 102.717615 -51.255856 
L 102.327117 -51.316586 
L 101.936619 -51.378878 
L 101.546122 -51.442722 
L 101.155624 -51.508107 
L 100.765126 -51.575021 
L 100.374628 -51.643454 
L 99.98413 -51.713395 
L 99.593632 -51.784832 
L 99.203134 -51.857753 
L 98.812636 -51.932149 
L 98.422138 -52.008008 
L 98.03164 -52.085319 
L 97.641142 -52.164071 
L 97.250644 -52.244252 
L 96.860146 -52.325851 
L 96.469648 -52.408858 
L 96.07915 -52.493261 
L 95.688652 -52.57905 
L 95.298154 -52.666212 
L 94.907656 -52.754737 
L 94.517159 -52.844614 
L 94.126661 -52.935832 
L 93.736163 -53.028379 
L 93.345665 -53.122245 
L 92.955167 -53.217418 
L 92.564669 -53.313887 
L 92.174171 -53.411641 
L 91.783673 -53.51067 
L 91.393175 -53.610961 
L 91.002677 -53.712504 
L 90.612179 -53.815287 
L 90.221681 -53.9193 
L 89.831183 -54.024532 
L 89.440685 -54.130971 
L 89.050187 -54.238606 
L 88.659689 -54.347426 
L 88.269191 -54.45742 
L 87.878693 -54.568576 
L 87.488196 -54.680885 
L 87.097698 -54.794334 
L 86.7072 -54.908913 
L 86.316702 -55.02461 
L 85.926204 -55.141414 
L 85.535706 -55.259314 
L 85.145208 -55.3783 
L 84.75471 -55.498359 
L 84.364212 -55.619481 
L 83.973714 -55.741655 
L 83.583216 -55.864869 
L 83.192718 -55.989113 
L 82.80222 -56.114375 
L 82.411722 -56.240644 
L 82.021224 -56.367909 
L 81.630726 -56.49616 
L 81.240228 -56.625384 
L 80.84973 -56.755571 
L 80.459233 -56.88671 
L 80.068735 -57.018789 
L 79.678237 -57.151797 
L 79.287739 -57.285724 
L 78.897241 -57.420558 
L 78.506743 -57.556288 
L 78.116245 -57.692903 
L 77.725747 -57.830392 
L 77.335249 -57.968744 
L 76.944751 -58.109491 
L 76.554253 -58.261851 
L 76.163755 -58.427252 
L 75.773257 -58.605572 
L 75.382759 -58.796692 
L 74.992261 -59.000491 
L 74.601763 -59.216847 
L 74.211265 -59.445641 
L 73.820767 -59.686751 
L 73.43027 -59.940057 
L 73.039772 -60.205438 
L 72.649274 -60.482774 
L 72.258776 -60.771944 
L 71.868278 -61.072827 
L 71.47778 -61.385303 
L 71.087282 -61.709251 
L 70.696784 -62.04455 
L 70.306286 -62.391079 
L 69.915788 -62.748718 
L 69.52529 -63.117347 
L 69.134792 -63.496844 
L 68.744294 -63.887088 
L 68.353796 -64.28796 
L 67.963298 -64.699339 
L 67.5728 -65.121103 
L 67.182302 -65.553133 
L 66.791804 -65.995307 
L 66.401307 -66.447505 
L 66.010809 -66.909606 
L 65.620311 -67.381489 
L 65.229813 -67.863034 
L 64.839315 -68.354121 
L 64.448817 -68.854628 
L 64.058319 -69.364434 
L 63.667821 -69.88342 
L 63.277323 -70.411464 
L 62.886825 -70.948446 
L 62.496327 -71.494245 
L 62.105829 -72.04874 
L 61.715331 -72.611811 
L 61.324833 -73.183338 
L 60.934335 -73.763198 
L 60.543837 -74.351273 
L 60.153339 -74.94744 
L 59.762841 -75.55158 
L 59.372344 -76.163571 
L 58.981846 -76.783294 
L 58.591348 -77.410627 
L 58.20085 -78.045449 
L 57.810352 -78.687641 
L 57.419854 -79.337081 
L 57.029356 -79.993648 
L 56.638858 -80.657223 
L 56.24836 -81.327684 
L 55.857862 -82.00491 
L 55.467364 -82.688782 
L 55.076866 -83.379178 
L 54.686368 -84.075977 
L 54.29587 -84.77906 
L 53.905372 -85.488304 
L 53.514874 -86.203591 
L 53.124376 -86.924798 
L 52.733878 -87.651806 
L 52.343381 -88.384493 
L 51.952883 -89.122739 
L 51.562385 -89.866423 
L 51.171887 -90.615425 
L 50.781389 -91.369624 
L 50.390891 -92.128899 
L 50.000393 -92.89313 
L 49.609895 -93.662195 
L 49.219397 -94.435975 
L 48.828899 -95.214348 
L 48.438401 -95.997194 
L 48.047903 -96.784392 
L 47.657405 -97.575822 
L 47.266907 -98.371363 
L 46.876409 -99.170894 
L 46.485911 -99.974294 
L 46.095413 -100.781443 
L 45.704915 -101.59222 
L 45.314418 -102.406505 
L 44.92392 -103.224177 
L 44.533422 -104.045115 
L 44.142924 -104.869198 
L 43.752426 -105.696306 
L 43.361928 -106.526318 
L 42.97143 -107.359114 
L 42.580932 -108.194572 
L 42.190434 -109.032573 
L 41.799936 -109.872994 
L 41.409438 -110.715717 
L 41.01894 -111.56062 
L 40.628442 -112.407582 
L 40.237944 -113.256483 
L 39.847446 -114.107202 
L 39.456948 -114.959618 
L 39.06645 -115.813611 
L 38.675952 -116.66906 
L 38.285455 -117.525845 
z
"/>
    </defs>
    <g clip-path="url(#p30c6a9a1a8)">
     <use xlink:href="#m7cb2273e49" x="0" y="162" style="fill-opacity: 0.2"/>
    </g>
   </g>
   <g id="FillBetweenPolyCollection_2">
    <defs>
     <path id="m076c06c9af" d="M 38.285455 -126.776149 
L 38.285455 -96.865925 
L 38.675952 -96.122826 
L 39.06645 -95.380971 
L 39.456948 -94.64046 
L 39.847446 -93.901393 
L 40.237944 -93.163871 
L 40.628442 -92.427995 
L 41.01894 -91.693863 
L 41.409438 -90.961578 
L 41.799936 -90.231238 
L 42.190434 -89.502945 
L 42.580932 -88.776798 
L 42.97143 -88.052898 
L 43.361928 -87.331346 
L 43.752426 -86.612241 
L 44.142924 -85.895684 
L 44.533422 -85.181776 
L 44.92392 -84.470615 
L 45.314418 -83.762304 
L 45.704915 -83.056942 
L 46.095413 -82.35463 
L 46.485911 -81.655467 
L 46.876409 -80.959554 
L 47.266907 -80.266992 
L 47.657405 -79.577881 
L 48.047903 -78.892321 
L 48.438401 -78.210412 
L 48.828899 -77.532255 
L 49.219397 -76.85795 
L 49.609895 -76.187597 
L 50.000393 -75.521297 
L 50.390891 -74.85915 
L 50.781389 -74.201257 
L 51.171887 -73.547717 
L 51.562385 -72.898631 
L 51.952883 -72.254099 
L 52.343381 -71.614222 
L 52.733878 -70.9791 
L 53.124376 -70.348833 
L 53.514874 -69.723521 
L 53.905372 -69.103266 
L 54.29587 -68.488166 
L 54.686368 -67.878323 
L 55.076866 -67.273837 
L 55.467364 -66.674808 
L 55.857862 -66.081337 
L 56.24836 -65.493523 
L 56.638858 -64.911468 
L 57.029356 -64.33527 
L 57.419854 -63.765032 
L 57.810352 -63.200853 
L 58.20085 -62.642833 
L 58.591348 -62.091072 
L 58.981846 -61.545672 
L 59.372344 -61.006732 
L 59.762841 -60.474352 
L 60.153339 -59.948634 
L 60.543837 -59.429677 
L 60.934335 -58.917581 
L 61.324833 -58.412448 
L 61.715331 -57.914376 
L 62.105829 -57.423467 
L 62.496327 -56.939821 
L 62.886825 -56.463539 
L 63.277323 -55.994719 
L 63.667821 -55.533464 
L 64.058319 -55.079872 
L 64.448817 -54.634045 
L 64.839315 -54.196083 
L 65.229813 -53.766086 
L 65.620311 -53.344154 
L 66.010809 -52.930389 
L 66.401307 -52.524889 
L 66.791804 -52.127755 
L 67.182302 -51.739088 
L 67.5728 -51.358988 
L 67.963298 -50.987556 
L 68.353796 -50.624891 
L 68.744294 -50.271094 
L 69.134792 -49.926265 
L 69.52529 -49.590505 
L 69.915788 -49.263914 
L 70.306286 -48.946592 
L 70.696784 -48.63864 
L 71.087282 -48.340157 
L 71.47778 -48.051245 
L 71.868278 -47.772003 
L 72.258776 -47.502532 
L 72.649274 -47.242932 
L 73.039772 -46.993303 
L 73.43027 -46.753746 
L 73.820767 -46.524362 
L 74.211265 -46.30525 
L 74.601763 -46.09651 
L 74.992261 -45.898244 
L 75.382759 -45.71055 
L 75.773257 -45.533531 
L 76.163755 -45.367285 
L 76.554253 -45.211914 
L 76.944751 -45.067518 
L 77.335249 -44.932897 
L 77.725747 -44.800329 
L 78.116245 -44.668528 
L 78.506743 -44.537508 
L 78.897241 -44.407279 
L 79.287739 -44.277854 
L 79.678237 -44.149245 
L 80.068735 -44.021464 
L 80.459233 -43.894521 
L 80.84973 -43.76843 
L 81.240228 -43.643203 
L 81.630726 -43.51885 
L 82.021224 -43.395383 
L 82.411722 -43.272816 
L 82.80222 -43.151158 
L 83.192718 -43.030423 
L 83.583216 -42.910623 
L 83.973714 -42.791768 
L 84.364212 -42.673871 
L 84.75471 -42.556943 
L 85.145208 -42.440998 
L 85.535706 -42.326045 
L 85.926204 -42.212098 
L 86.316702 -42.099168 
L 86.7072 -41.987267 
L 87.097698 -41.876407 
L 87.488196 -41.766599 
L 87.878693 -41.657856 
L 88.269191 -41.550189 
L 88.659689 -41.44361 
L 89.050187 -41.338132 
L 89.440685 -41.233765 
L 89.831183 -41.130522 
L 90.221681 -41.028414 
L 90.612179 -40.927454 
L 91.002677 -40.827653 
L 91.393175 -40.729023 
L 91.783673 -40.631577 
L 92.174171 -40.535325 
L 92.564669 -40.440279 
L 92.955167 -40.346453 
L 93.345665 -40.253856 
L 93.736163 -40.162502 
L 94.126661 -40.072402 
L 94.517159 -39.983568 
L 94.907656 -39.896011 
L 95.298154 -39.809744 
L 95.688652 -39.724779 
L 96.07915 -39.641126 
L 96.469648 -39.558799 
L 96.860146 -39.477809 
L 97.250644 -39.398168 
L 97.641142 -39.319888 
L 98.03164 -39.24298 
L 98.422138 -39.167456 
L 98.812636 -39.093329 
L 99.203134 -39.02061 
L 99.593632 -38.949311 
L 99.98413 -38.879443 
L 100.374628 -38.811019 
L 100.765126 -38.744051 
L 101.155624 -38.67855 
L 101.546122 -38.614528 
L 101.936619 -38.551997 
L 102.327117 -38.490969 
L 102.717615 -38.431456 
L 103.108113 -38.373469 
L 103.498611 -38.317021 
L 103.889109 -38.262123 
L 104.279607 -38.208787 
L 104.670105 -38.157025 
L 105.060603 -38.106849 
L 105.451101 -38.05827 
L 105.841599 -38.011302 
L 106.232097 -37.965954 
L 106.622595 -37.92224 
L 107.013093 -37.88017 
L 107.403591 -37.839758 
L 107.794089 -37.801014 
L 108.184587 -37.763951 
L 108.575085 -37.728581 
L 108.965582 -37.694914 
L 109.35608 -37.662964 
L 109.746578 -37.632742 
L 110.137076 -37.60426 
L 110.527574 -37.577529 
L 110.918072 -37.552562 
L 111.30857 -37.529371 
L 111.699068 -37.507966 
L 112.089566 -37.488361 
L 112.480064 -37.470567 
L 112.870562 -37.454595 
L 113.26106 -37.440458 
L 113.651558 -37.428168 
L 114.042056 -37.417736 
L 114.432554 -37.409174 
L 114.823052 -37.402494 
L 115.21355 -37.397708 
L 115.604048 -37.394827 
L 115.994545 -37.393865 
L 115.994545 -51.217926 
L 115.994545 -51.217926 
L 115.604048 -51.219027 
L 115.21355 -51.222323 
L 114.823052 -51.227801 
L 114.432554 -51.235448 
L 114.042056 -51.245252 
L 113.651558 -51.257199 
L 113.26106 -51.271278 
L 112.870562 -51.287476 
L 112.480064 -51.30578 
L 112.089566 -51.326177 
L 111.699068 -51.348655 
L 111.30857 -51.373202 
L 110.918072 -51.399803 
L 110.527574 -51.428448 
L 110.137076 -51.459123 
L 109.746578 -51.491816 
L 109.35608 -51.526513 
L 108.965582 -51.563203 
L 108.575085 -51.601873 
L 108.184587 -51.64251 
L 107.794089 -51.685102 
L 107.403591 -51.729635 
L 107.013093 -51.776097 
L 106.622595 -51.824476 
L 106.232097 -51.87476 
L 105.841599 -51.926934 
L 105.451101 -51.980987 
L 105.060603 -52.036906 
L 104.670105 -52.094679 
L 104.279607 -52.154292 
L 103.889109 -52.215734 
L 103.498611 -52.278991 
L 103.108113 -52.344051 
L 102.717615 -52.410901 
L 102.327117 -52.479529 
L 101.936619 -52.549922 
L 101.546122 -52.622068 
L 101.155624 -52.695953 
L 100.765126 -52.771565 
L 100.374628 -52.848891 
L 99.98413 -52.92792 
L 99.593632 -53.008638 
L 99.203134 -53.091032 
L 98.812636 -53.17509 
L 98.422138 -53.2608 
L 98.03164 -53.348148 
L 97.641142 -53.437122 
L 97.250644 -53.52771 
L 96.860146 -53.619899 
L 96.469648 -53.713675 
L 96.07915 -53.809028 
L 95.688652 -53.905943 
L 95.298154 -54.004408 
L 94.907656 -54.104411 
L 94.517159 -54.205939 
L 94.126661 -54.30898 
L 93.736163 -54.41352 
L 93.345665 -54.519547 
L 92.955167 -54.627048 
L 92.564669 -54.736012 
L 92.174171 -54.846425 
L 91.783673 -54.958274 
L 91.393175 -55.071547 
L 91.002677 -55.186232 
L 90.612179 -55.302315 
L 90.221681 -55.419784 
L 89.831183 -55.538627 
L 89.440685 -55.65883 
L 89.050187 -55.780382 
L 88.659689 -55.903269 
L 88.269191 -56.027479 
L 87.878693 -56.152999 
L 87.488196 -56.279817 
L 87.097698 -56.40792 
L 86.7072 -56.537295 
L 86.316702 -56.66793 
L 85.926204 -56.799812 
L 85.535706 -56.932928 
L 85.145208 -57.067267 
L 84.75471 -57.202814 
L 84.364212 -57.339558 
L 83.973714 -57.477486 
L 83.583216 -57.616585 
L 83.192718 -57.756843 
L 82.80222 -57.898247 
L 82.411722 -58.040785 
L 82.021224 -58.184443 
L 81.630726 -58.329209 
L 81.240228 -58.475071 
L 80.84973 -58.622015 
L 80.459233 -58.77003 
L 80.068735 -58.919103 
L 79.678237 -59.06922 
L 79.287739 -59.22037 
L 78.897241 -59.372539 
L 78.506743 -59.525716 
L 78.116245 -59.679887 
L 77.725747 -59.83504 
L 77.335249 -59.991162 
L 76.944751 -60.149968 
L 76.554253 -60.321767 
L 76.163755 -60.508156 
L 75.773257 -60.709002 
L 75.382759 -60.924168 
L 74.992261 -61.153519 
L 74.601763 -61.396922 
L 74.211265 -61.654241 
L 73.820767 -61.925341 
L 73.43027 -62.210087 
L 73.039772 -62.508344 
L 72.649274 -62.819978 
L 72.258776 -63.144853 
L 71.868278 -63.482835 
L 71.47778 -63.833788 
L 71.087282 -64.197578 
L 70.696784 -64.57407 
L 70.306286 -64.963129 
L 69.915788 -65.364619 
L 69.52529 -65.778407 
L 69.134792 -66.204357 
L 68.744294 -66.642335 
L 68.353796 -67.092204 
L 67.963298 -67.553831 
L 67.5728 -68.027081 
L 67.182302 -68.511818 
L 66.791804 -69.007908 
L 66.401307 -69.515215 
L 66.010809 -70.033606 
L 65.620311 -70.562944 
L 65.229813 -71.103096 
L 64.839315 -71.653925 
L 64.448817 -72.215298 
L 64.058319 -72.787079 
L 63.667821 -73.369134 
L 63.277323 -73.961327 
L 62.886825 -74.563523 
L 62.496327 -75.175589 
L 62.105829 -75.797388 
L 61.715331 -76.428785 
L 61.324833 -77.069647 
L 60.934335 -77.719838 
L 60.543837 -78.379223 
L 60.153339 -79.047667 
L 59.762841 -79.725035 
L 59.372344 -80.411193 
L 58.981846 -81.106005 
L 58.591348 -81.809337 
L 58.20085 -82.521053 
L 57.810352 -83.241019 
L 57.419854 -83.9691 
L 57.029356 -84.705161 
L 56.638858 -85.449066 
L 56.24836 -86.200682 
L 55.857862 -86.959873 
L 55.467364 -87.726504 
L 55.076866 -88.500441 
L 54.686368 -89.281547 
L 54.29587 -90.06969 
L 53.905372 -90.864733 
L 53.514874 -91.666542 
L 53.124376 -92.474981 
L 52.733878 -93.289916 
L 52.343381 -94.111213 
L 51.952883 -94.938735 
L 51.562385 -95.772348 
L 51.171887 -96.611918 
L 50.781389 -97.457309 
L 50.390891 -98.308386 
L 50.000393 -99.165015 
L 49.609895 -100.02706 
L 49.219397 -100.894387 
L 48.828899 -101.766861 
L 48.438401 -102.644346 
L 48.047903 -103.526709 
L 47.657405 -104.413813 
L 47.266907 -105.305525 
L 46.876409 -106.201709 
L 46.485911 -107.10223 
L 46.095413 -108.006953 
L 45.704915 -108.915744 
L 45.314418 -109.828467 
L 44.92392 -110.744988 
L 44.533422 -111.665172 
L 44.142924 -112.588883 
L 43.752426 -113.515987 
L 43.361928 -114.44635 
L 42.97143 -115.379835 
L 42.580932 -116.316308 
L 42.190434 -117.255635 
L 41.799936 -118.19768 
L 41.409438 -119.142309 
L 41.01894 -120.089386 
L 40.628442 -121.038776 
L 40.237944 -121.990345 
L 39.847446 -122.943958 
L 39.456948 -123.89948 
L 39.06645 -124.856776 
L 38.675952 -125.815711 
L 38.285455 -126.776149 
z
"/>
    </defs>
    <g clip-path="url(#p30c6a9a1a8)">
     <use xlink:href="#m076c06c9af" x="0" y="162" style="fill: #e731a6; fill-opacity: 0.2"/>
    </g>
   </g>
   <g id="FillBetweenPolyCollection_3">
    <defs>
     <path id="m4aac8e0327" d="M 38.285455 -185.157491 
L 38.285455 -130.533333 
L 38.675952 -129.747257 
L 39.06645 -128.96323 
L 39.456948 -128.181311 
L 39.847446 -127.401559 
L 40.237944 -126.624032 
L 40.628442 -125.848788 
L 41.01894 -125.075886 
L 41.409438 -124.305384 
L 41.799936 -123.53734 
L 42.190434 -122.771812 
L 42.580932 -122.00886 
L 42.97143 -121.248541 
L 43.361928 -120.490913 
L 43.752426 -119.736035 
L 44.142924 -118.983966 
L 44.533422 -118.234763 
L 44.92392 -117.488485 
L 45.314418 -116.745191 
L 45.704915 -116.004938 
L 46.095413 -115.267785 
L 46.485911 -114.53379 
L 46.876409 -113.803012 
L 47.266907 -113.075509 
L 47.657405 -112.351339 
L 48.047903 -111.630561 
L 48.438401 -110.913233 
L 48.828899 -110.199413 
L 49.219397 -109.48916 
L 49.609895 -108.782531 
L 50.000393 -108.079586 
L 50.390891 -107.380383 
L 50.781389 -106.68498 
L 51.171887 -105.993434 
L 51.562385 -105.305806 
L 51.952883 -104.622153 
L 52.343381 -103.942532 
L 52.733878 -103.267004 
L 53.124376 -102.595625 
L 53.514874 -101.928455 
L 53.905372 -101.265552 
L 54.29587 -100.606973 
L 54.686368 -99.952778 
L 55.076866 -99.303024 
L 55.467364 -98.65777 
L 55.857862 -98.017075 
L 56.24836 -97.380997 
L 56.638858 -96.749593 
L 57.029356 -96.122923 
L 57.419854 -95.501044 
L 57.810352 -94.884015 
L 58.20085 -94.271895 
L 58.591348 -93.664741 
L 58.981846 -93.062613 
L 59.372344 -92.465568 
L 59.762841 -91.873664 
L 60.153339 -91.28696 
L 60.543837 -90.705515 
L 60.934335 -90.129387 
L 61.324833 -89.558633 
L 61.715331 -88.993313 
L 62.105829 -88.433484 
L 62.496327 -87.879206 
L 62.886825 -87.330536 
L 63.277323 -86.787532 
L 63.667821 -86.250254 
L 64.058319 -85.718759 
L 64.448817 -85.193105 
L 64.839315 -84.673352 
L 65.229813 -84.159557 
L 65.620311 -83.651779 
L 66.010809 -83.150076 
L 66.401307 -82.654506 
L 66.791804 -82.165128 
L 67.182302 -81.682 
L 67.5728 -81.20518 
L 67.963298 -80.734727 
L 68.353796 -80.270699 
L 68.744294 -79.813154 
L 69.134792 -79.362151 
L 69.52529 -78.917749 
L 69.915788 -78.480004 
L 70.306286 -78.048976 
L 70.696784 -77.624724 
L 71.087282 -77.207304 
L 71.47778 -76.796777 
L 71.868278 -76.393199 
L 72.258776 -75.99663 
L 72.649274 -75.607128 
L 73.039772 -75.224751 
L 73.43027 -74.849557 
L 73.820767 -74.481605 
L 74.211265 -74.120952 
L 74.601763 -73.767659 
L 74.992261 -73.421782 
L 75.382759 -73.08338 
L 75.773257 -72.752511 
L 76.163755 -72.429235 
L 76.554253 -72.113608 
L 76.944751 -71.80569 
L 77.335249 -71.504571 
L 77.725747 -71.204505 
L 78.116245 -70.904584 
L 78.506743 -70.604866 
L 78.897241 -70.305408 
L 79.287739 -70.00627 
L 79.678237 -69.707509 
L 80.068735 -69.409185 
L 80.459233 -69.111355 
L 80.84973 -68.814077 
L 81.240228 -68.51741 
L 81.630726 -68.221413 
L 82.021224 -67.926143 
L 82.411722 -67.63166 
L 82.80222 -67.338021 
L 83.192718 -67.045284 
L 83.583216 -66.753508 
L 83.973714 -66.462752 
L 84.364212 -66.173073 
L 84.75471 -65.884531 
L 85.145208 -65.597183 
L 85.535706 -65.311087 
L 85.926204 -65.026302 
L 86.316702 -64.742887 
L 86.7072 -64.4609 
L 87.097698 -64.180398 
L 87.488196 -63.901441 
L 87.878693 -63.624087 
L 88.269191 -63.348393 
L 88.659689 -63.074419 
L 89.050187 -62.802223 
L 89.440685 -62.531862 
L 89.831183 -62.263396 
L 90.221681 -61.996883 
L 90.612179 -61.732381 
L 91.002677 -61.469948 
L 91.393175 -61.209643 
L 91.783673 -60.951524 
L 92.174171 -60.695649 
L 92.564669 -60.442077 
L 92.955167 -60.190866 
L 93.345665 -59.942074 
L 93.736163 -59.69576 
L 94.126661 -59.451982 
L 94.517159 -59.210799 
L 94.907656 -58.972268 
L 95.298154 -58.736448 
L 95.688652 -58.503398 
L 96.07915 -58.273175 
L 96.469648 -58.045839 
L 96.860146 -57.821446 
L 97.250644 -57.600057 
L 97.641142 -57.381728 
L 98.03164 -57.166519 
L 98.422138 -56.954488 
L 98.812636 -56.745693 
L 99.203134 -56.540192 
L 99.593632 -56.338044 
L 99.98413 -56.139307 
L 100.374628 -55.94404 
L 100.765126 -55.7523 
L 101.155624 -55.564146 
L 101.546122 -55.379637 
L 101.936619 -55.19883 
L 102.327117 -55.021785 
L 102.717615 -54.848558 
L 103.108113 -54.67921 
L 103.498611 -54.513798 
L 103.889109 -54.35238 
L 104.279607 -54.195015 
L 104.670105 -54.041761 
L 105.060603 -53.892676 
L 105.451101 -53.74782 
L 105.841599 -53.607249 
L 106.232097 -53.471023 
L 106.622595 -53.339199 
L 107.013093 -53.211837 
L 107.403591 -53.088994 
L 107.794089 -52.970729 
L 108.184587 -52.857099 
L 108.575085 -52.748165 
L 108.965582 -52.643983 
L 109.35608 -52.544612 
L 109.746578 -52.450111 
L 110.137076 -52.360537 
L 110.527574 -52.27595 
L 110.918072 -52.196407 
L 111.30857 -52.121967 
L 111.699068 -52.052688 
L 112.089566 -51.988628 
L 112.480064 -51.929846 
L 112.870562 -51.876401 
L 113.26106 -51.828349 
L 113.651558 -51.785751 
L 114.042056 -51.748664 
L 114.432554 -51.717146 
L 114.823052 -51.691256 
L 115.21355 -51.671052 
L 115.604048 -51.656593 
L 115.994545 -51.647936 
L 115.994545 -76.33303 
L 115.994545 -76.33303 
L 115.604048 -76.335672 
L 115.21355 -76.34357 
L 114.823052 -76.356682 
L 114.432554 -76.374967 
L 114.042056 -76.398381 
L 113.651558 -76.426884 
L 113.26106 -76.460434 
L 112.870562 -76.498988 
L 112.480064 -76.542504 
L 112.089566 -76.590942 
L 111.699068 -76.644258 
L 111.30857 -76.702412 
L 110.918072 -76.765361 
L 110.527574 -76.833063 
L 110.137076 -76.905476 
L 109.746578 -76.982558 
L 109.35608 -77.064269 
L 108.965582 -77.150564 
L 108.575085 -77.241404 
L 108.184587 -77.336745 
L 107.794089 -77.436546 
L 107.403591 -77.540766 
L 107.013093 -77.649361 
L 106.622595 -77.762291 
L 106.232097 -77.879513 
L 105.841599 -78.000986 
L 105.451101 -78.126667 
L 105.060603 -78.256514 
L 104.670105 -78.390487 
L 104.279607 -78.528542 
L 103.889109 -78.670638 
L 103.498611 -78.816734 
L 103.108113 -78.966786 
L 102.717615 -79.120754 
L 102.327117 -79.278595 
L 101.936619 -79.440268 
L 101.546122 -79.60573 
L 101.155624 -79.77494 
L 100.765126 -79.947856 
L 100.374628 -80.124435 
L 99.98413 -80.304637 
L 99.593632 -80.488418 
L 99.203134 -80.675738 
L 98.812636 -80.866554 
L 98.422138 -81.060825 
L 98.03164 -81.258508 
L 97.641142 -81.459561 
L 97.250644 -81.663944 
L 96.860146 -81.871613 
L 96.469648 -82.082527 
L 96.07915 -82.296644 
L 95.688652 -82.513922 
L 95.298154 -82.734319 
L 94.907656 -82.957794 
L 94.517159 -83.184304 
L 94.126661 -83.413808 
L 93.736163 -83.646263 
L 93.345665 -83.881628 
L 92.955167 -84.11986 
L 92.564669 -84.360919 
L 92.174171 -84.604762 
L 91.783673 -84.851347 
L 91.393175 -85.100632 
L 91.002677 -85.352575 
L 90.612179 -85.607135 
L 90.221681 -85.864269 
L 89.831183 -86.123936 
L 89.440685 -86.386094 
L 89.050187 -86.650701 
L 88.659689 -86.917714 
L 88.269191 -87.187093 
L 87.878693 -87.458795 
L 87.488196 -87.732778 
L 87.097698 -88.009 
L 86.7072 -88.28742 
L 86.316702 -88.567995 
L 85.926204 -88.850684 
L 85.535706 -89.135445 
L 85.145208 -89.422236 
L 84.75471 -89.711015 
L 84.364212 -90.00174 
L 83.973714 -90.294368 
L 83.583216 -90.58886 
L 83.192718 -90.885171 
L 82.80222 -91.183261 
L 82.411722 -91.483088 
L 82.021224 -91.78461 
L 81.630726 -92.087784 
L 81.240228 -92.392569 
L 80.84973 -92.698923 
L 80.459233 -93.006804 
L 80.068735 -93.31617 
L 79.678237 -93.62698 
L 79.287739 -93.939191 
L 78.897241 -94.252762 
L 78.506743 -94.56765 
L 78.116245 -94.883814 
L 77.725747 -95.201211 
L 77.335249 -95.519801 
L 76.944751 -95.841424 
L 76.554253 -96.177305 
L 76.163755 -96.529194 
L 75.773257 -96.896952 
L 75.382759 -97.280443 
L 74.992261 -97.679528 
L 74.601763 -98.094071 
L 74.211265 -98.523933 
L 73.820767 -98.968977 
L 73.43027 -99.429064 
L 73.039772 -99.904058 
L 72.649274 -100.393822 
L 72.258776 -100.898216 
L 71.868278 -101.417104 
L 71.47778 -101.950347 
L 71.087282 -102.497809 
L 70.696784 -103.059352 
L 70.306286 -103.634837 
L 69.915788 -104.224128 
L 69.52529 -104.827086 
L 69.134792 -105.443575 
L 68.744294 -106.073456 
L 68.353796 -106.716592 
L 67.963298 -107.372845 
L 67.5728 -108.042077 
L 67.182302 -108.724151 
L 66.791804 -109.418929 
L 66.401307 -110.126274 
L 66.010809 -110.846048 
L 65.620311 -111.578113 
L 65.229813 -112.322332 
L 64.839315 -113.078567 
L 64.448817 -113.84668 
L 64.058319 -114.626533 
L 63.667821 -115.41799 
L 63.277323 -116.220912 
L 62.886825 -117.035162 
L 62.496327 -117.860602 
L 62.105829 -118.697095 
L 61.715331 -119.544502 
L 61.324833 -120.402687 
L 60.934335 -121.271511 
L 60.543837 -122.150837 
L 60.153339 -123.040528 
L 59.762841 -123.940445 
L 59.372344 -124.850451 
L 58.981846 -125.770408 
L 58.591348 -126.700179 
L 58.20085 -127.639626 
L 57.810352 -128.588612 
L 57.419854 -129.546998 
L 57.029356 -130.514648 
L 56.638858 -131.491423 
L 56.24836 -132.477186 
L 55.857862 -133.471799 
L 55.467364 -134.475124 
L 55.076866 -135.487025 
L 54.686368 -136.507363 
L 54.29587 -137.536 
L 53.905372 -138.5728 
L 53.514874 -139.617623 
L 53.124376 -140.670334 
L 52.733878 -141.730794 
L 52.343381 -142.798865 
L 51.952883 -143.87441 
L 51.562385 -144.957291 
L 51.171887 -146.04737 
L 50.781389 -147.144511 
L 50.390891 -148.248574 
L 50.000393 -149.359424 
L 49.609895 -150.476921 
L 49.219397 -151.600928 
L 48.828899 -152.731308 
L 48.438401 -153.867923 
L 48.047903 -155.010636 
L 47.657405 -156.159308 
L 47.266907 -157.313802 
L 46.876409 -158.473981 
L 46.485911 -159.639707 
L 46.095413 -160.810841 
L 45.704915 -161.987248 
L 45.314418 -163.168788 
L 44.92392 -164.355324 
L 44.533422 -165.546719 
L 44.142924 -166.742835 
L 43.752426 -167.943534 
L 43.361928 -169.148679 
L 42.97143 -170.358132 
L 42.580932 -171.571755 
L 42.190434 -172.789411 
L 41.799936 -174.010963 
L 41.409438 -175.236271 
L 41.01894 -176.465199 
L 40.628442 -177.69761 
L 40.237944 -178.933365 
L 39.847446 -180.172327 
L 39.456948 -181.414358 
L 39.06645 -182.659321 
L 38.675952 -183.907078 
L 38.285455 -185.157491 
z
"/>
    </defs>
    <g clip-path="url(#p30c6a9a1a8)">
     <use xlink:href="#m4aac8e0327" x="0" y="162" style="fill: #1e8ada; fill-opacity: 0.2"/>
    </g>
   </g>
   <g id="matplotlib.axis_1">
    <g id="xtick_1">
     <g id="line2d_1">
      <defs>
       <path id="m7ea0b11f66" d="M 0 0 
L 0 3.5 
" style="stroke: #000000; stroke-width: 0.8"/>
      </defs>
      <g>
       <use xlink:href="#m7ea0b11f66" x="38.285455" y="124" style="stroke: #000000; stroke-width: 0.8"/>
      </g>
     </g>
     <g id="text_1">
      <!-- 0 -->
      <g transform="translate(35.783736 137.561563) scale(0.09 -0.09)">
       <defs>
        <path id="NimbusSans-Regular-30" d="M 1760 4627 
C 1338 4627 954 4435 717 4122 
C 422 3712 275 3098 275 2240 
C 275 678 787 -147 1760 -147 
C 2720 -147 3245 678 3245 2202 
C 3245 3098 3104 3699 2803 4122 
C 2566 4442 2189 4627 1760 4627 
z
M 1760 4128 
C 2368 4128 2669 3507 2669 2253 
C 2669 934 2374 320 1747 320 
C 1152 320 851 960 851 2234 
C 851 3507 1152 4128 1760 4128 
z
" transform="scale(0.015625)"/>
       </defs>
       <use xlink:href="#NimbusSans-Regular-30"/>
      </g>
     </g>
    </g>
    <g id="xtick_2">
     <g id="line2d_2">
      <g>
       <use xlink:href="#m7ea0b11f66" x="77.14" y="124" style="stroke: #000000; stroke-width: 0.8"/>
      </g>
     </g>
     <g id="text_2">
      <!-- 1 -->
      <g transform="translate(74.638281 137.561563) scale(0.09 -0.09)">
       <defs>
        <path id="NimbusSans-Regular-31" d="M 1658 3296 
L 1658 0 
L 2221 0 
L 2221 4627 
L 1850 4627 
C 1651 3917 1523 3821 653 3706 
L 653 3296 
L 1658 3296 
z
" transform="scale(0.015625)"/>
       </defs>
       <use xlink:href="#NimbusSans-Regular-31"/>
      </g>
     </g>
    </g>
    <g id="xtick_3">
     <g id="line2d_3">
      <g>
       <use xlink:href="#m7ea0b11f66" x="115.994545" y="124" style="stroke: #000000; stroke-width: 0.8"/>
      </g>
     </g>
     <g id="text_3">
      <!-- 2 -->
      <g transform="translate(113.492827 137.561563) scale(0.09 -0.09)">
       <defs>
        <path id="NimbusSans-Regular-32" d="M 3238 557 
L 851 557 
C 909 941 1114 1184 1670 1523 
L 2310 1882 
C 2944 2234 3270 2707 3270 3277 
C 3270 3661 3117 4019 2848 4269 
C 2579 4512 2246 4627 1818 4627 
C 1242 4627 813 4422 563 4026 
C 403 3782 333 3494 320 3027 
L 883 3027 
C 902 3341 941 3526 1018 3680 
C 1165 3962 1459 4134 1798 4134 
C 2310 4134 2694 3763 2694 3264 
C 2694 2893 2483 2573 2080 2342 
L 1491 1997 
C 544 1453 269 1018 218 6 
L 3238 6 
L 3238 557 
z
" transform="scale(0.015625)"/>
       </defs>
       <use xlink:href="#NimbusSans-Regular-32"/>
      </g>
     </g>
    </g>
    <g id="text_4">
     <!-- Diversity order (q) -->
     <g transform="translate(41.389609 150.084844) scale(0.09 -0.09)">
      <defs>
       <path id="NimbusSans-Regular-44" d="M 570 0 
L 2368 0 
C 3546 0 4269 883 4269 2336 
C 4269 3782 3552 4666 2368 4666 
L 570 4666 
L 570 0 
z
M 1165 525 
L 1165 4141 
L 2266 4141 
C 3187 4141 3674 3520 3674 2330 
C 3674 1146 3187 525 2266 525 
L 1165 525 
z
" transform="scale(0.015625)"/>
       <path id="NimbusSans-Regular-69" d="M 960 3354 
L 429 3354 
L 429 0 
L 960 0 
L 960 3354 
z
M 960 4666 
L 422 4666 
L 422 3994 
L 960 3994 
L 960 4666 
z
" transform="scale(0.015625)"/>
       <path id="NimbusSans-Regular-76" d="M 1824 0 
L 3110 3354 
L 2509 3354 
L 1562 634 
L 666 3354 
L 64 3354 
L 1242 0 
L 1824 0 
z
" transform="scale(0.015625)"/>
       <path id="NimbusSans-Regular-65" d="M 3283 1498 
C 3283 2010 3245 2317 3149 2566 
C 2931 3117 2419 3450 1792 3450 
C 858 3450 256 2739 256 1632 
C 256 525 832 -147 1779 -147 
C 2547 -147 3078 288 3213 1018 
L 2675 1018 
C 2528 576 2227 346 1798 346 
C 1459 346 1171 499 992 781 
C 864 973 819 1165 813 1498 
L 3283 1498 
z
M 826 1933 
C 870 2554 1248 2957 1786 2957 
C 2330 2957 2707 2534 2707 1933 
L 826 1933 
z
" transform="scale(0.015625)"/>
       <path id="NimbusSans-Regular-72" d="M 442 3354 
L 442 0 
L 979 0 
L 979 1741 
C 986 2547 1318 2906 2054 2886 
L 2054 3430 
C 1965 3443 1914 3450 1850 3450 
C 1504 3450 1242 3245 934 2746 
L 934 3354 
L 442 3354 
z
" transform="scale(0.015625)"/>
       <path id="NimbusSans-Regular-73" d="M 2803 2419 
C 2797 3078 2362 3450 1587 3450 
C 806 3450 301 3046 301 2426 
C 301 1901 570 1651 1363 1459 
L 1862 1338 
C 2234 1248 2381 1114 2381 877 
C 2381 557 2067 346 1600 346 
C 1312 346 1069 429 934 570 
C 851 666 813 762 781 998 
L 218 998 
C 243 224 678 -147 1555 -147 
C 2400 -147 2938 269 2938 915 
C 2938 1414 2656 1690 1990 1850 
L 1478 1971 
C 1043 2074 858 2214 858 2451 
C 858 2765 1133 2957 1568 2957 
C 1997 2957 2227 2771 2240 2419 
L 2803 2419 
z
" transform="scale(0.015625)"/>
       <path id="NimbusSans-Regular-74" d="M 1626 3354 
L 1075 3354 
L 1075 4275 
L 544 4275 
L 544 3354 
L 90 3354 
L 90 2918 
L 544 2918 
L 544 384 
C 544 38 774 -147 1190 -147 
C 1331 -147 1446 -134 1626 -102 
L 1626 346 
C 1549 326 1478 320 1370 320 
C 1139 320 1075 384 1075 621 
L 1075 2918 
L 1626 2918 
L 1626 3354 
z
" transform="scale(0.015625)"/>
       <path id="NimbusSans-Regular-79" d="M 2483 3354 
L 1555 742 
L 698 3354 
L 128 3354 
L 1261 -13 
L 1056 -544 
C 966 -781 851 -870 627 -870 
C 538 -870 461 -858 346 -832 
L 346 -1312 
C 454 -1370 563 -1395 704 -1395 
C 877 -1395 1062 -1338 1203 -1235 
C 1370 -1114 1466 -973 1568 -704 
L 3059 3354 
L 2483 3354 
z
" transform="scale(0.015625)"/>
       <path id="NimbusSans-Regular-20" transform="scale(0.015625)"/>
       <path id="NimbusSans-Regular-6f" d="M 1741 3450 
C 794 3450 230 2778 230 1651 
C 230 518 794 -147 1747 -147 
C 2694 -147 3264 525 3264 1626 
C 3264 2790 2714 3450 1741 3450 
z
M 1747 2957 
C 2349 2957 2707 2464 2707 1632 
C 2707 838 2336 346 1747 346 
C 1152 346 787 838 787 1651 
C 787 2464 1152 2957 1747 2957 
z
" transform="scale(0.015625)"/>
       <path id="NimbusSans-Regular-64" d="M 3168 4666 
L 2637 4666 
L 2637 2931 
C 2413 3270 2054 3450 1606 3450 
C 736 3450 166 2752 166 1683 
C 166 550 717 -147 1626 -147 
C 2086 -147 2406 26 2694 442 
L 2694 0 
L 3168 0 
L 3168 4666 
z
M 1696 2950 
C 2272 2950 2637 2445 2637 1638 
C 2637 864 2266 352 1702 352 
C 1114 352 723 870 723 1651 
C 723 2432 1114 2950 1696 2950 
z
" transform="scale(0.015625)"/>
       <path id="NimbusSans-Regular-28" d="M 1510 4666 
C 870 3827 467 2662 467 1658 
C 467 646 870 -518 1510 -1357 
L 1862 -1357 
C 1299 -442 986 634 986 1658 
C 986 2675 1299 3757 1862 4666 
L 1510 4666 
z
" transform="scale(0.015625)"/>
       <path id="NimbusSans-Regular-71" d="M 3168 -1395 
L 3168 3354 
L 2694 3354 
L 2694 2906 
C 2445 3258 2067 3450 1626 3450 
C 742 3450 166 2726 166 1613 
C 166 525 710 -147 1600 -147 
C 2067 -147 2387 19 2637 384 
L 2637 -1395 
L 3168 -1395 
z
M 1702 2950 
C 2272 2950 2637 2445 2637 1632 
C 2637 864 2266 352 1702 352 
C 1114 352 723 870 723 1651 
C 723 2432 1114 2950 1702 2950 
z
" transform="scale(0.015625)"/>
       <path id="NimbusSans-Regular-29" d="M 595 -1357 
C 1235 -518 1638 646 1638 1651 
C 1638 2662 1235 3827 595 4666 
L 243 4666 
C 806 3750 1120 2675 1120 1651 
C 1120 634 806 -448 243 -1357 
L 595 -1357 
z
" transform="scale(0.015625)"/>
      </defs>
      <use xlink:href="#NimbusSans-Regular-44"/>
      <use xlink:href="#NimbusSans-Regular-69" transform="translate(72.199982 0)"/>
      <use xlink:href="#NimbusSans-Regular-76" transform="translate(94.399979 0)"/>
      <use xlink:href="#NimbusSans-Regular-65" transform="translate(144.399963 0)"/>
      <use xlink:href="#NimbusSans-Regular-72" transform="translate(199.999954 0)"/>
      <use xlink:href="#NimbusSans-Regular-73" transform="translate(233.299942 0)"/>
      <use xlink:href="#NimbusSans-Regular-69" transform="translate(283.299927 0)"/>
      <use xlink:href="#NimbusSans-Regular-74" transform="translate(305.499924 0)"/>
      <use xlink:href="#NimbusSans-Regular-79" transform="translate(333.299911 0)"/>
      <use xlink:href="#NimbusSans-Regular-20" transform="translate(383.299896 0)"/>
      <use xlink:href="#NimbusSans-Regular-6f" transform="translate(411.099884 0)"/>
      <use xlink:href="#NimbusSans-Regular-72" transform="translate(466.699875 0)"/>
      <use xlink:href="#NimbusSans-Regular-64" transform="translate(499.999863 0)"/>
      <use xlink:href="#NimbusSans-Regular-65" transform="translate(555.599854 0)"/>
      <use xlink:href="#NimbusSans-Regular-72" transform="translate(611.199844 0)"/>
      <use xlink:href="#NimbusSans-Regular-20" transform="translate(644.499832 0)"/>
      <use xlink:href="#NimbusSans-Regular-28" transform="translate(672.29982 0)"/>
      <use xlink:href="#NimbusSans-Regular-71" transform="translate(705.599808 0)"/>
      <use xlink:href="#NimbusSans-Regular-29" transform="translate(761.199799 0)"/>
     </g>
    </g>
   </g>
   <g id="matplotlib.axis_2">
    <g id="ytick_1">
     <g id="line2d_4">
      <defs>
       <path id="m6a98f2d67d" d="M 0 0 
L -3.5 0 
" style="stroke: #000000; stroke-width: 0.8"/>
      </defs>
      <g>
       <use xlink:href="#m6a98f2d67d" x="34.4" y="124" style="stroke: #000000; stroke-width: 0.8"/>
      </g>
     </g>
     <g id="text_5">
      <!-- 2 -->
      <g transform="translate(22.396562 127.280781) scale(0.09 -0.09)">
       <use xlink:href="#NimbusSans-Regular-32"/>
      </g>
     </g>
    </g>
    <g id="ytick_2">
     <g id="line2d_5">
      <g>
       <use xlink:href="#m6a98f2d67d" x="34.4" y="105.493333" style="stroke: #000000; stroke-width: 0.8"/>
      </g>
     </g>
     <g id="text_6">
      <!-- 3 -->
      <g transform="translate(22.396562 108.774115) scale(0.09 -0.09)">
       <defs>
        <path id="NimbusSans-Regular-33" d="M 1414 2131 
L 1485 2131 
L 1722 2131 
C 2336 2131 2662 1843 2662 1286 
C 2662 704 2310 352 1728 352 
C 1107 352 806 666 768 1344 
L 205 1344 
C 230 973 294 730 403 525 
C 640 77 1082 -147 1702 -147 
C 2637 -147 3238 416 3238 1293 
C 3238 1882 3014 2202 2470 2394 
C 2893 2566 3104 2886 3104 3354 
C 3104 4147 2586 4627 1722 4627 
C 806 4627 320 4115 301 3136 
L 864 3136 
C 870 3418 896 3578 966 3718 
C 1094 3981 1376 4134 1728 4134 
C 2227 4134 2528 3834 2528 3334 
C 2528 3008 2413 2810 2163 2701 
C 2010 2637 1805 2611 1414 2605 
L 1414 2131 
z
" transform="scale(0.015625)"/>
       </defs>
       <use xlink:href="#NimbusSans-Regular-33"/>
      </g>
     </g>
    </g>
    <g id="ytick_3">
     <g id="line2d_6">
      <g>
       <use xlink:href="#m6a98f2d67d" x="34.4" y="86.986667" style="stroke: #000000; stroke-width: 0.8"/>
      </g>
     </g>
     <g id="text_7">
      <!-- 4 -->
      <g transform="translate(22.396562 90.267448) scale(0.09 -0.09)">
       <defs>
        <path id="NimbusSans-Regular-34" d="M 2093 1120 
L 2093 0 
L 2656 0 
L 2656 1120 
L 3328 1120 
L 3328 1626 
L 2656 1626 
L 2656 4627 
L 2240 4627 
L 179 1715 
L 179 1120 
L 2093 1120 
z
M 2093 1626 
L 672 1626 
L 2093 3667 
L 2093 1626 
z
" transform="scale(0.015625)"/>
       </defs>
       <use xlink:href="#NimbusSans-Regular-34"/>
      </g>
     </g>
    </g>
    <g id="ytick_4">
     <g id="line2d_7">
      <g>
       <use xlink:href="#m6a98f2d67d" x="34.4" y="68.48" style="stroke: #000000; stroke-width: 0.8"/>
      </g>
     </g>
     <g id="text_8">
      <!-- 5 -->
      <g transform="translate(22.396562 71.760781) scale(0.09 -0.09)">
       <defs>
        <path id="NimbusSans-Regular-35" d="M 3046 4538 
L 704 4538 
L 365 2067 
L 883 2067 
C 1146 2381 1363 2490 1722 2490 
C 2330 2490 2707 2074 2707 1402 
C 2707 749 2330 352 1715 352 
C 1222 352 922 602 787 1114 
L 224 1114 
C 301 742 365 563 499 397 
C 755 51 1216 -147 1728 -147 
C 2643 -147 3283 518 3283 1478 
C 3283 2374 2688 2989 1818 2989 
C 1498 2989 1242 2906 979 2714 
L 1158 3981 
L 3046 3981 
L 3046 4538 
z
" transform="scale(0.015625)"/>
       </defs>
       <use xlink:href="#NimbusSans-Regular-35"/>
      </g>
     </g>
    </g>
    <g id="ytick_5">
     <g id="line2d_8">
      <g>
       <use xlink:href="#m6a98f2d67d" x="34.4" y="49.973333" style="stroke: #000000; stroke-width: 0.8"/>
      </g>
     </g>
     <g id="text_9">
      <!-- 6 -->
      <g transform="translate(22.396562 53.254115) scale(0.09 -0.09)">
       <defs>
        <path id="NimbusSans-Regular-36" d="M 3187 3424 
C 3078 4179 2592 4627 1901 4627 
C 1402 4627 954 4384 685 3968 
C 397 3514 275 2950 275 2112 
C 275 1331 384 838 659 429 
C 902 51 1299 -147 1798 -147 
C 2662 -147 3283 499 3283 1402 
C 3283 2253 2707 2854 1894 2854 
C 1446 2854 1094 2688 851 2349 
C 858 3494 1216 4128 1862 4128 
C 2259 4128 2534 3872 2624 3424 
L 3187 3424 
z
M 1824 2355 
C 2368 2355 2707 1971 2707 1357 
C 2707 774 2323 352 1805 352 
C 1280 352 883 794 883 1382 
C 883 1958 1267 2355 1824 2355 
z
" transform="scale(0.015625)"/>
       </defs>
       <use xlink:href="#NimbusSans-Regular-36"/>
      </g>
     </g>
    </g>
    <g id="ytick_6">
     <g id="line2d_9">
      <g>
       <use xlink:href="#m6a98f2d67d" x="34.4" y="31.466667" style="stroke: #000000; stroke-width: 0.8"/>
      </g>
     </g>
     <g id="text_10">
      <!-- 7 -->
      <g transform="translate(22.396562 34.747448) scale(0.09 -0.09)">
       <defs>
        <path id="NimbusSans-Regular-37" d="M 3328 4538 
L 294 4538 
L 294 3981 
L 2746 3981 
C 1664 2438 1222 1491 883 0 
L 1485 0 
C 1734 1453 2304 2701 3328 4064 
L 3328 4538 
z
" transform="scale(0.015625)"/>
       </defs>
       <use xlink:href="#NimbusSans-Regular-37"/>
      </g>
     </g>
    </g>
    <g id="ytick_7">
     <g id="line2d_10">
      <g>
       <use xlink:href="#m6a98f2d67d" x="34.4" y="12.96" style="stroke: #000000; stroke-width: 0.8"/>
      </g>
     </g>
     <g id="text_11">
      <!-- 8 -->
      <g transform="translate(22.396562 16.240781) scale(0.09 -0.09)">
       <defs>
        <path id="NimbusSans-Regular-38" d="M 2502 2438 
C 2976 2726 3123 2957 3123 3392 
C 3123 4122 2566 4627 1760 4627 
C 960 4627 397 4122 397 3398 
C 397 2957 544 2733 1011 2438 
C 493 2176 237 1798 237 1286 
C 237 442 858 -147 1760 -147 
C 2656 -147 3283 442 3283 1286 
C 3283 1798 3027 2176 2502 2438 
z
M 1760 4128 
C 2240 4128 2547 3840 2547 3379 
C 2547 2944 2234 2656 1760 2656 
C 1280 2656 973 2944 973 3392 
C 973 3840 1280 4128 1760 4128 
z
M 1760 2182 
C 2323 2182 2707 1811 2707 1274 
C 2707 717 2330 352 1747 352 
C 1197 352 813 730 813 1267 
C 813 1818 1190 2182 1760 2182 
z
" transform="scale(0.015625)"/>
       </defs>
       <use xlink:href="#NimbusSans-Regular-38"/>
      </g>
     </g>
    </g>
    <g id="text_12">
     <!-- Species diversity -->
     <g transform="translate(16.434844 102.237734) rotate(-90) scale(0.09 -0.09)">
      <defs>
       <path id="NimbusSans-Regular-53" d="M 3814 3296 
C 3814 3616 3795 3706 3693 3923 
C 3437 4461 2893 4742 2106 4742 
C 1082 4742 448 4218 448 3373 
C 448 2803 749 2445 1363 2285 
L 2522 1978 
C 3117 1824 3379 1587 3379 1222 
C 3379 973 3245 717 3046 576 
C 2861 442 2566 378 2189 378 
C 1677 378 1338 499 1114 768 
C 941 973 864 1197 870 1485 
L 307 1485 
C 314 1056 397 774 582 518 
C 902 77 1440 -147 2150 -147 
C 2707 -147 3162 -19 3462 211 
C 3776 461 3974 877 3974 1280 
C 3974 1856 3616 2278 2982 2451 
L 1811 2765 
C 1248 2918 1043 3098 1043 3456 
C 1043 3930 1459 4243 2086 4243 
C 2829 4243 3245 3910 3251 3296 
L 3814 3296 
z
" transform="scale(0.015625)"/>
       <path id="NimbusSans-Regular-70" d="M 346 -1395 
L 883 -1395 
L 883 352 
C 1165 6 1478 -147 1914 -147 
C 2784 -147 3347 550 3347 1619 
C 3347 2746 2797 3450 1907 3450 
C 1453 3450 1088 3245 838 2848 
L 838 3354 
L 346 3354 
L 346 -1395 
z
M 1818 2950 
C 2406 2950 2790 2432 2790 1632 
C 2790 870 2400 352 1818 352 
C 1248 352 883 864 883 1651 
C 883 2438 1248 2950 1818 2950 
z
" transform="scale(0.015625)"/>
       <path id="NimbusSans-Regular-63" d="M 3014 2227 
C 2989 2554 2918 2765 2790 2950 
C 2560 3264 2157 3450 1690 3450 
C 781 3450 198 2733 198 1619 
C 198 538 774 -147 1683 -147 
C 2483 -147 2989 333 3053 1152 
L 2515 1152 
C 2426 614 2150 346 1696 346 
C 1107 346 755 826 755 1619 
C 755 2458 1101 2957 1683 2957 
C 2131 2957 2413 2694 2477 2227 
L 3014 2227 
z
" transform="scale(0.015625)"/>
      </defs>
      <use xlink:href="#NimbusSans-Regular-53"/>
      <use xlink:href="#NimbusSans-Regular-70" transform="translate(66.699997 0)"/>
      <use xlink:href="#NimbusSans-Regular-65" transform="translate(122.299988 0)"/>
      <use xlink:href="#NimbusSans-Regular-63" transform="translate(177.899979 0)"/>
      <use xlink:href="#NimbusSans-Regular-69" transform="translate(227.899963 0)"/>
      <use xlink:href="#NimbusSans-Regular-65" transform="translate(250.09996 0)"/>
      <use xlink:href="#NimbusSans-Regular-73" transform="translate(305.699951 0)"/>
      <use xlink:href="#NimbusSans-Regular-20" transform="translate(355.699936 0)"/>
      <use xlink:href="#NimbusSans-Regular-64" transform="translate(383.499924 0)"/>
      <use xlink:href="#NimbusSans-Regular-69" transform="translate(439.099915 0)"/>
      <use xlink:href="#NimbusSans-Regular-76" transform="translate(461.299911 0)"/>
      <use xlink:href="#NimbusSans-Regular-65" transform="translate(511.299896 0)"/>
      <use xlink:href="#NimbusSans-Regular-72" transform="translate(566.899887 0)"/>
      <use xlink:href="#NimbusSans-Regular-73" transform="translate(600.199875 0)"/>
      <use xlink:href="#NimbusSans-Regular-69" transform="translate(650.19986 0)"/>
      <use xlink:href="#NimbusSans-Regular-74" transform="translate(672.399857 0)"/>
      <use xlink:href="#NimbusSans-Regular-79" transform="translate(700.199844 0)"/>
     </g>
    </g>
   </g>
   <g id="line2d_11">
    <path d="M 38.285455 68.48 
L 44.92392 78.025378 
L 49.609895 84.398675 
L 53.514874 89.377394 
L 57.029356 93.536975 
L 60.153339 96.935279 
L 63.277323 100.014088 
L 66.010809 102.417289 
L 68.744294 104.523524 
L 71.087282 106.073988 
L 73.43027 107.372937 
L 75.773257 108.404987 
L 78.116245 109.178382 
L 85.145208 111.219047 
L 91.393175 112.806659 
L 96.860146 113.977926 
L 101.936619 114.851114 
L 106.622595 115.448818 
L 111.30857 115.823722 
L 115.604048 115.952698 
L 115.994545 115.953623 
L 115.994545 115.953623 
" clip-path="url(#p30c6a9a1a8)" style="fill: none; stroke: #000000; stroke-linecap: square"/>
   </g>
   <g id="line2d_12">
    <path d="M 38.285455 50.178963 
L 44.533422 63.576443 
L 49.219397 73.123613 
L 53.124376 80.587747 
L 56.638858 86.819282 
L 59.762841 91.899782 
L 62.496327 95.941734 
L 65.229813 99.564844 
L 67.5728 102.306429 
L 69.915788 104.685261 
L 71.868278 106.372193 
L 73.820767 107.774875 
L 75.773257 108.878608 
L 77.725747 109.682372 
L 83.973714 111.865831 
L 89.440685 113.55427 
L 94.517159 114.905771 
L 99.593632 116.021421 
L 104.279607 116.818704 
L 108.575085 117.334886 
L 112.870562 117.628987 
L 115.994545 117.694105 
L 115.994545 117.694105 
" clip-path="url(#p30c6a9a1a8)" style="fill: none; stroke: #e731a6; stroke-linecap: square"/>
   </g>
   <g id="line2d_13">
    <path d="M 38.285455 22.284513 
L 44.142924 33.230898 
L 49.219397 42.231493 
L 53.514874 49.403403 
L 57.419854 55.506844 
L 60.934335 60.615321 
L 64.448817 65.319198 
L 67.5728 69.129404 
L 70.306286 72.154541 
L 73.039772 74.872352 
L 75.773257 77.26459 
L 78.897241 79.647969 
L 86.316702 85.057269 
L 91.393175 88.490356 
L 95.688652 91.124528 
L 99.203134 93.042489 
L 102.717615 94.705246 
L 105.841599 95.937653 
L 108.575085 96.804047 
L 111.30857 97.45349 
L 114.042056 97.867735 
L 115.994545 98.009517 
L 115.994545 98.009517 
" clip-path="url(#p30c6a9a1a8)" style="fill: none; stroke: #1e8ada; stroke-linecap: square"/>
   </g>
   <g id="patch_3">
    <path d="M 34.4 124 
L 34.4 12.96 
" style="fill: none; stroke: #000000; stroke-width: 0.8; stroke-linejoin: miter; stroke-linecap: square"/>
   </g>
   <g id="patch_4">
    <path d="M 34.4 124 
L 119.88 124 
" style="fill: none; stroke: #000000; stroke-width: 0.8; stroke-linejoin: miter; stroke-linecap: square"/>
   </g>
   <g id="PathCollection_1">
    <defs>
     <path id="m214844b1c6" d="M 0 1.936492 
C 0.513564 1.936492 1.006162 1.732451 1.369306 1.369306 
C 1.732451 1.006162 1.936492 0.513564 1.936492 0 
C 1.936492 -0.513564 1.732451 -1.006162 1.369306 -1.369306 
C 1.006162 -1.732451 0.513564 -1.936492 0 -1.936492 
C -0.513564 -1.936492 -1.006162 -1.732451 -1.369306 -1.369306 
C -1.732451 -1.006162 -1.936492 -0.513564 -1.936492 0 
C -1.936492 0.513564 -1.732451 1.006162 -1.369306 1.369306 
C -1.006162 1.732451 -0.513564 1.936492 0 1.936492 
z
" style="stroke: #000000"/>
    </defs>
    <g clip-path="url(#p30c6a9a1a8)">
     <use xlink:href="#m214844b1c6" x="38.285455" y="68.48" style="stroke: #000000"/>
     <use xlink:href="#m214844b1c6" x="77.14" y="109.499426" style="stroke: #000000"/>
     <use xlink:href="#m214844b1c6" x="115.994545" y="116.317987" style="stroke: #000000"/>
    </g>
   </g>
   <g id="PathCollection_2">
    <defs>
     <path id="m9a55483b60" d="M 0 1.936492 
C 0.513564 1.936492 1.006162 1.732451 1.369306 1.369306 
C 1.732451 1.006162 1.936492 0.513564 1.936492 0 
C 1.936492 -0.513564 1.732451 -1.006162 1.369306 -1.369306 
C 1.006162 -1.732451 0.513564 -1.936492 0 -1.936492 
C -0.513564 -1.936492 -1.006162 -1.732451 -1.369306 -1.369306 
C -1.732451 -1.006162 -1.936492 -0.513564 -1.936492 0 
C -1.936492 0.513564 -1.732451 1.006162 -1.369306 1.369306 
C -1.006162 1.732451 -0.513564 1.936492 0 1.936492 
z
" style="stroke: #e731a6"/>
    </defs>
    <g clip-path="url(#p30c6a9a1a8)">
     <use xlink:href="#m9a55483b60" x="38.285455" y="68.48" style="fill: #e731a6; stroke: #e731a6"/>
     <use xlink:href="#m9a55483b60" x="77.14" y="111.09301" style="fill: #e731a6; stroke: #e731a6"/>
     <use xlink:href="#m9a55483b60" x="115.994545" y="118.329962" style="fill: #e731a6; stroke: #e731a6"/>
    </g>
   </g>
   <g id="PathCollection_3">
    <defs>
     <path id="m342133f0ca" d="M 0 1.936492 
C 0.513564 1.936492 1.006162 1.732451 1.369306 1.369306 
C 1.732451 1.006162 1.936492 0.513564 1.936492 0 
C 1.936492 -0.513564 1.732451 -1.006162 1.369306 -1.369306 
C 1.006162 -1.732451 0.513564 -1.936492 0 -1.936492 
C -0.513564 -1.936492 -1.006162 -1.732451 -1.369306 -1.369306 
C -1.732451 -1.006162 -1.936492 -0.513564 -1.936492 0 
C -1.936492 0.513564 -1.732451 1.006162 -1.369306 1.369306 
C -1.006162 1.732451 -0.513564 1.936492 0 1.936492 
z
" style="stroke: #1e8ada"/>
    </defs>
    <g clip-path="url(#p30c6a9a1a8)">
     <use xlink:href="#m342133f0ca" x="38.285455" y="31.466667" style="fill: #1e8ada; stroke: #1e8ada"/>
     <use xlink:href="#m342133f0ca" x="77.14" y="80.529443" style="fill: #1e8ada; stroke: #1e8ada"/>
     <use xlink:href="#m342133f0ca" x="115.994545" y="99.153629" style="fill: #1e8ada; stroke: #1e8ada"/>
    </g>
   </g>
  </g>
 </g>
 <defs>
  <clipPath id="p30c6a9a1a8">
   <rect x="34.4" y="12.96" width="85.48" height="111.04"/>
  </clipPath>
 </defs>
</svg>
