<?xml version="1.0" encoding="utf-8" standalone="no"?>
<!DOCTYPE svg PUBLIC "-//W3C//DTD SVG 1.1//EN"
  "http://www.w3.org/Graphics/SVG/1.1/DTD/svg11.dtd">
<svg xmlns:xlink="http://www.w3.org/1999/xlink" width="288pt" height="144pt" viewBox="0 0 288 144" xmlns="http://www.w3.org/2000/svg" version="1.1">
 <metadata>
  <rdf:RDF xmlns:dc="http://purl.org/dc/elements/1.1/" xmlns:cc="http://creativecommons.org/ns#" xmlns:rdf="http://www.w3.org/1999/02/22-rdf-syntax-ns#">
   <cc:Work>
    <dc:type rdf:resource="http://purl.org/dc/dcmitype/StillImage"/>
    <dc:date>2025-12-04T11:42:47.795460</dc:date>
    <dc:format>image/svg+xml</dc:format>
    <dc:creator>
     <cc:Agent>
      <dc:title>Matplotlib v3.10.7, https://matplotlib.org/</dc:title>
     </cc:Agent>
    </dc:creator>
   </cc:Work>
  </rdf:RDF>
 </metadata>
 <defs>
  <style type="text/css">*{stroke-linejoin: round; stroke-linecap: butt}</style>
 </defs>
 <g id="figure_1">
  <g id="patch_1">
   <path d="M 0 144 
L 288 144 
L 288 0 
L 0 0 
z
" style="fill: #ffffff"/>
  </g>
  <g id="axes_1">
   <g id="patch_2">
    <path d="M 36 128.16 
L 259.2 128.16 
L 259.2 17.28 
L 36 17.28 
z
" style="fill: #ffffff"/>
   </g>
   <g id="matplotlib.axis_1">
    <g id="xtick_1">
     <g id="line2d_1">
      <defs>
       <path id="mc5ee5f3868" d="M 0 0 
L 0 3.5 
" style="stroke: #000000; stroke-width: 0.8"/>
      </defs>
      <g>
       <use xlink:href="#mc5ee5f3868" x="36" y="128.16" style="stroke: #000000; stroke-width: 0.8"/>
      </g>
     </g>
     <g id="text_1">
      <!-- 400 -->
      <g transform="translate(27.660937 142.450625) scale(0.1 -0.1)">
       <defs>
        <path id="NimbusSans-Regular-34" d="M 2093 1120 
L 2093 0 
L 2656 0 
L 2656 1120 
L 3328 1120 
L 3328 1626 
L 2656 1626 
L 2656 4627 
L 2240 4627 
L 179 1715 
L 179 1120 
L 2093 1120 
z
M 2093 1626 
L 672 1626 
L 2093 3667 
L 2093 1626 
z
" transform="scale(0.015625)"/>
        <path id="NimbusSans-Regular-30" d="M 1760 4627 
C 1338 4627 954 4435 717 4122 
C 422 3712 275 3098 275 2240 
C 275 678 787 -147 1760 -147 
C 2720 -147 3245 678 3245 2202 
C 3245 3098 3104 3699 2803 4122 
C 2566 4442 2189 4627 1760 4627 
z
M 1760 4128 
C 2368 4128 2669 3507 2669 2253 
C 2669 934 2374 320 1747 320 
C 1152 320 851 960 851 2234 
C 851 3507 1152 4128 1760 4128 
z
" transform="scale(0.015625)"/>
       </defs>
       <use xlink:href="#NimbusSans-Regular-34"/>
       <use xlink:href="#NimbusSans-Regular-30" transform="translate(55.599991 0)"/>
       <use xlink:href="#NimbusSans-Regular-30" transform="translate(111.199982 0)"/>
      </g>
     </g>
    </g>
    <g id="xtick_2">
     <g id="line2d_2">
      <g>
       <use xlink:href="#mc5ee5f3868" x="73.2" y="128.16" style="stroke: #000000; stroke-width: 0.8"/>
      </g>
     </g>
     <g id="text_2">
      <!-- 450 -->
      <g transform="translate(64.860937 142.450625) scale(0.1 -0.1)">
       <defs>
        <path id="NimbusSans-Regular-35" d="M 3046 4538 
L 704 4538 
L 365 2067 
L 883 2067 
C 1146 2381 1363 2490 1722 2490 
C 2330 2490 2707 2074 2707 1402 
C 2707 749 2330 352 1715 352 
C 1222 352 922 602 787 1114 
L 224 1114 
C 301 742 365 563 499 397 
C 755 51 1216 -147 1728 -147 
C 2643 -147 3283 518 3283 1478 
C 3283 2374 2688 2989 1818 2989 
C 1498 2989 1242 2906 979 2714 
L 1158 3981 
L 3046 3981 
L 3046 4538 
z
" transform="scale(0.015625)"/>
       </defs>
       <use xlink:href="#NimbusSans-Regular-34"/>
       <use xlink:href="#NimbusSans-Regular-35" transform="translate(55.599991 0)"/>
       <use xlink:href="#NimbusSans-Regular-30" transform="translate(111.199982 0)"/>
      </g>
     </g>
    </g>
    <g id="xtick_3">
     <g id="line2d_3">
      <g>
       <use xlink:href="#mc5ee5f3868" x="110.4" y="128.16" style="stroke: #000000; stroke-width: 0.8"/>
      </g>
     </g>
     <g id="text_3">
      <!-- 500 -->
      <g transform="translate(102.060937 142.450625) scale(0.1 -0.1)">
       <use xlink:href="#NimbusSans-Regular-35"/>
       <use xlink:href="#NimbusSans-Regular-30" transform="translate(55.599991 0)"/>
       <use xlink:href="#NimbusSans-Regular-30" transform="translate(111.199982 0)"/>
      </g>
     </g>
    </g>
    <g id="xtick_4">
     <g id="line2d_4">
      <g>
       <use xlink:href="#mc5ee5f3868" x="147.6" y="128.16" style="stroke: #000000; stroke-width: 0.8"/>
      </g>
     </g>
     <g id="text_4">
      <!-- 550 -->
      <g transform="translate(139.260937 142.450625) scale(0.1 -0.1)">
       <use xlink:href="#NimbusSans-Regular-35"/>
       <use xlink:href="#NimbusSans-Regular-35" transform="translate(55.599991 0)"/>
       <use xlink:href="#NimbusSans-Regular-30" transform="translate(111.199982 0)"/>
      </g>
     </g>
    </g>
    <g id="xtick_5">
     <g id="line2d_5">
      <g>
       <use xlink:href="#mc5ee5f3868" x="184.8" y="128.16" style="stroke: #000000; stroke-width: 0.8"/>
      </g>
     </g>
     <g id="text_5">
      <!-- 600 -->
      <g transform="translate(176.460937 142.450625) scale(0.1 -0.1)">
       <defs>
        <path id="NimbusSans-Regular-36" d="M 3187 3424 
C 3078 4179 2592 4627 1901 4627 
C 1402 4627 954 4384 685 3968 
C 397 3514 275 2950 275 2112 
C 275 1331 384 838 659 429 
C 902 51 1299 -147 1798 -147 
C 2662 -147 3283 499 3283 1402 
C 3283 2253 2707 2854 1894 2854 
C 1446 2854 1094 2688 851 2349 
C 858 3494 1216 4128 1862 4128 
C 2259 4128 2534 3872 2624 3424 
L 3187 3424 
z
M 1824 2355 
C 2368 2355 2707 1971 2707 1357 
C 2707 774 2323 352 1805 352 
C 1280 352 883 794 883 1382 
C 883 1958 1267 2355 1824 2355 
z
" transform="scale(0.015625)"/>
       </defs>
       <use xlink:href="#NimbusSans-Regular-36"/>
       <use xlink:href="#NimbusSans-Regular-30" transform="translate(55.599991 0)"/>
       <use xlink:href="#NimbusSans-Regular-30" transform="translate(111.199982 0)"/>
      </g>
     </g>
    </g>
    <g id="xtick_6">
     <g id="line2d_6">
      <g>
       <use xlink:href="#mc5ee5f3868" x="222" y="128.16" style="stroke: #000000; stroke-width: 0.8"/>
      </g>
     </g>
     <g id="text_6">
      <!-- 650 -->
      <g transform="translate(213.660937 142.450625) scale(0.1 -0.1)">
       <use xlink:href="#NimbusSans-Regular-36"/>
       <use xlink:href="#NimbusSans-Regular-35" transform="translate(55.599991 0)"/>
       <use xlink:href="#NimbusSans-Regular-30" transform="translate(111.199982 0)"/>
      </g>
     </g>
    </g>
    <g id="xtick_7">
     <g id="line2d_7">
      <g>
       <use xlink:href="#mc5ee5f3868" x="259.2" y="128.16" style="stroke: #000000; stroke-width: 0.8"/>
      </g>
     </g>
     <g id="text_7">
      <!-- 700 -->
      <g transform="translate(250.860937 142.450625) scale(0.1 -0.1)">
       <defs>
        <path id="NimbusSans-Regular-37" d="M 3328 4538 
L 294 4538 
L 294 3981 
L 2746 3981 
C 1664 2438 1222 1491 883 0 
L 1485 0 
C 1734 1453 2304 2701 3328 4064 
L 3328 4538 
z
" transform="scale(0.015625)"/>
       </defs>
       <use xlink:href="#NimbusSans-Regular-37"/>
       <use xlink:href="#NimbusSans-Regular-30" transform="translate(55.599991 0)"/>
       <use xlink:href="#NimbusSans-Regular-30" transform="translate(111.199982 0)"/>
      </g>
     </g>
    </g>
    <g id="text_8">
     <!-- Wavelength (nm) -->
     <g transform="translate(109.5375 155.920938) scale(0.1 -0.1)">
      <defs>
       <path id="NimbusSans-Regular-57" d="M 4762 0 
L 5946 4666 
L 5280 4666 
L 4422 877 
L 3360 4666 
L 2720 4666 
L 1683 877 
L 806 4666 
L 141 4666 
L 1338 0 
L 1990 0 
L 3034 3834 
L 4109 0 
L 4762 0 
z
" transform="scale(0.015625)"/>
       <path id="NimbusSans-Regular-61" d="M 3424 314 
C 3366 301 3341 301 3309 301 
C 3123 301 3021 397 3021 563 
L 3021 2534 
C 3021 3130 2586 3450 1760 3450 
C 1267 3450 877 3309 646 3059 
C 493 2886 429 2694 416 2362 
L 954 2362 
C 998 2771 1242 2957 1741 2957 
C 2227 2957 2490 2778 2490 2458 
L 2490 2317 
C 2483 2086 2368 2003 1933 1946 
C 1178 1850 1062 1824 858 1741 
C 467 1574 269 1280 269 845 
C 269 237 691 -147 1370 -147 
C 1792 -147 2131 0 2509 346 
C 2547 0 2714 -147 3059 -147 
C 3174 -147 3245 -134 3424 -90 
L 3424 314 
z
M 2490 1056 
C 2490 877 2438 768 2278 621 
C 2061 422 1798 320 1485 320 
C 1069 320 826 518 826 858 
C 826 1210 1056 1389 1632 1472 
C 2202 1549 2310 1574 2490 1658 
L 2490 1056 
z
" transform="scale(0.015625)"/>
       <path id="NimbusSans-Regular-76" d="M 1824 0 
L 3110 3354 
L 2509 3354 
L 1562 634 
L 666 3354 
L 64 3354 
L 1242 0 
L 1824 0 
z
" transform="scale(0.015625)"/>
       <path id="NimbusSans-Regular-65" d="M 3283 1498 
C 3283 2010 3245 2317 3149 2566 
C 2931 3117 2419 3450 1792 3450 
C 858 3450 256 2739 256 1632 
C 256 525 832 -147 1779 -147 
C 2547 -147 3078 288 3213 1018 
L 2675 1018 
C 2528 576 2227 346 1798 346 
C 1459 346 1171 499 992 781 
C 864 973 819 1165 813 1498 
L 3283 1498 
z
M 826 1933 
C 870 2554 1248 2957 1786 2957 
C 2330 2957 2707 2534 2707 1933 
L 826 1933 
z
" transform="scale(0.015625)"/>
       <path id="NimbusSans-Regular-6c" d="M 973 4666 
L 435 4666 
L 435 0 
L 973 0 
L 973 4666 
z
" transform="scale(0.015625)"/>
       <path id="NimbusSans-Regular-6e" d="M 448 3354 
L 448 0 
L 986 0 
L 986 1850 
C 986 2534 1344 2982 1894 2982 
C 2317 2982 2586 2726 2586 2323 
L 2586 0 
L 3117 0 
L 3117 2534 
C 3117 3091 2701 3450 2054 3450 
C 1555 3450 1235 3258 941 2790 
L 941 3354 
L 448 3354 
z
" transform="scale(0.015625)"/>
       <path id="NimbusSans-Regular-67" d="M 2586 3354 
L 2586 2867 
C 2317 3270 2022 3450 1600 3450 
C 787 3450 224 2694 224 1619 
C 224 1056 358 646 646 307 
C 896 13 1216 -147 1562 -147 
C 1965 -147 2253 32 2534 454 
L 2534 282 
C 2534 -614 2285 -947 1619 -947 
C 1165 -947 928 -768 877 -384 
L 333 -384 
C 384 -1005 877 -1395 1606 -1395 
C 2099 -1395 2509 -1235 2726 -966 
C 2982 -653 3078 -237 3078 550 
L 3078 3354 
L 2586 3354 
z
M 1651 2957 
C 2214 2957 2534 2483 2534 1632 
C 2534 819 2208 346 1651 346 
C 1101 346 781 826 781 1651 
C 781 2470 1101 2957 1651 2957 
z
" transform="scale(0.015625)"/>
       <path id="NimbusSans-Regular-74" d="M 1626 3354 
L 1075 3354 
L 1075 4275 
L 544 4275 
L 544 3354 
L 90 3354 
L 90 2918 
L 544 2918 
L 544 384 
C 544 38 774 -147 1190 -147 
C 1331 -147 1446 -134 1626 -102 
L 1626 346 
C 1549 326 1478 320 1370 320 
C 1139 320 1075 384 1075 621 
L 1075 2918 
L 1626 2918 
L 1626 3354 
z
" transform="scale(0.015625)"/>
       <path id="NimbusSans-Regular-68" d="M 448 4666 
L 448 0 
L 979 0 
L 979 1850 
C 979 2534 1338 2982 1888 2982 
C 2067 2982 2234 2931 2362 2835 
C 2515 2720 2579 2560 2579 2323 
L 2579 0 
L 3110 0 
L 3110 2534 
C 3110 3098 2707 3450 2054 3450 
C 1581 3450 1293 3302 979 2893 
L 979 4666 
L 448 4666 
z
" transform="scale(0.015625)"/>
       <path id="NimbusSans-Regular-20" transform="scale(0.015625)"/>
       <path id="NimbusSans-Regular-28" d="M 1510 4666 
C 870 3827 467 2662 467 1658 
C 467 646 870 -518 1510 -1357 
L 1862 -1357 
C 1299 -442 986 634 986 1658 
C 986 2675 1299 3757 1862 4666 
L 1510 4666 
z
" transform="scale(0.015625)"/>
       <path id="NimbusSans-Regular-6d" d="M 448 3354 
L 448 0 
L 986 0 
L 986 2106 
C 986 2592 1338 2982 1773 2982 
C 2170 2982 2394 2739 2394 2310 
L 2394 0 
L 2931 0 
L 2931 2106 
C 2931 2592 3283 2982 3718 2982 
C 4109 2982 4339 2733 4339 2310 
L 4339 0 
L 4877 0 
L 4877 2515 
C 4877 3117 4531 3450 3904 3450 
C 3456 3450 3187 3315 2874 2938 
C 2675 3296 2406 3450 1971 3450 
C 1523 3450 1222 3283 941 2880 
L 941 3354 
L 448 3354 
z
" transform="scale(0.015625)"/>
       <path id="NimbusSans-Regular-29" d="M 595 -1357 
C 1235 -518 1638 646 1638 1651 
C 1638 2662 1235 3827 595 4666 
L 243 4666 
C 806 3750 1120 2675 1120 1651 
C 1120 634 806 -448 243 -1357 
L 595 -1357 
z
" transform="scale(0.015625)"/>
      </defs>
      <use xlink:href="#NimbusSans-Regular-57"/>
      <use xlink:href="#NimbusSans-Regular-61" transform="translate(94.399994 0)"/>
      <use xlink:href="#NimbusSans-Regular-76" transform="translate(149.999985 0)"/>
      <use xlink:href="#NimbusSans-Regular-65" transform="translate(199.999969 0)"/>
      <use xlink:href="#NimbusSans-Regular-6c" transform="translate(255.59996 0)"/>
      <use xlink:href="#NimbusSans-Regular-65" transform="translate(277.799957 0)"/>
      <use xlink:href="#NimbusSans-Regular-6e" transform="translate(333.399948 0)"/>
      <use xlink:href="#NimbusSans-Regular-67" transform="translate(388.999939 0)"/>
      <use xlink:href="#NimbusSans-Regular-74" transform="translate(444.59993 0)"/>
      <use xlink:href="#NimbusSans-Regular-68" transform="translate(472.399918 0)"/>
      <use xlink:href="#NimbusSans-Regular-20" transform="translate(527.999908 0)"/>
      <use xlink:href="#NimbusSans-Regular-28" transform="translate(555.799896 0)"/>
      <use xlink:href="#NimbusSans-Regular-6e" transform="translate(589.099884 0)"/>
      <use xlink:href="#NimbusSans-Regular-6d" transform="translate(644.699875 0)"/>
      <use xlink:href="#NimbusSans-Regular-29" transform="translate(727.999863 0)"/>
     </g>
    </g>
   </g>
   <g id="matplotlib.axis_2">
    <g id="ytick_1">
     <g id="line2d_8">
      <defs>
       <path id="m3500ddae76" d="M 0 0 
L -3.5 0 
" style="stroke: #000000; stroke-width: 0.8"/>
      </defs>
      <g>
       <use xlink:href="#m3500ddae76" x="36" y="128.16" style="stroke: #000000; stroke-width: 0.8"/>
      </g>
     </g>
     <g id="text_9">
      <!-- 0.0 -->
      <g transform="translate(15.101562 131.805313) scale(0.1 -0.1)">
       <defs>
        <path id="NimbusSans-Regular-2e" d="M 1222 666 
L 557 666 
L 557 0 
L 1222 0 
L 1222 666 
z
" transform="scale(0.015625)"/>
       </defs>
       <use xlink:href="#NimbusSans-Regular-30"/>
       <use xlink:href="#NimbusSans-Regular-2e" transform="translate(55.599991 0)"/>
       <use xlink:href="#NimbusSans-Regular-30" transform="translate(83.399979 0)"/>
      </g>
     </g>
    </g>
    <g id="ytick_2">
     <g id="line2d_9">
      <g>
       <use xlink:href="#m3500ddae76" x="36" y="105.984" style="stroke: #000000; stroke-width: 0.8"/>
      </g>
     </g>
     <g id="text_10">
      <!-- 0.2 -->
      <g transform="translate(15.101562 109.629312) scale(0.1 -0.1)">
       <defs>
        <path id="NimbusSans-Regular-32" d="M 3238 557 
L 851 557 
C 909 941 1114 1184 1670 1523 
L 2310 1882 
C 2944 2234 3270 2707 3270 3277 
C 3270 3661 3117 4019 2848 4269 
C 2579 4512 2246 4627 1818 4627 
C 1242 4627 813 4422 563 4026 
C 403 3782 333 3494 320 3027 
L 883 3027 
C 902 3341 941 3526 1018 3680 
C 1165 3962 1459 4134 1798 4134 
C 2310 4134 2694 3763 2694 3264 
C 2694 2893 2483 2573 2080 2342 
L 1491 1997 
C 544 1453 269 1018 218 6 
L 3238 6 
L 3238 557 
z
" transform="scale(0.015625)"/>
       </defs>
       <use xlink:href="#NimbusSans-Regular-30"/>
       <use xlink:href="#NimbusSans-Regular-2e" transform="translate(55.599991 0)"/>
       <use xlink:href="#NimbusSans-Regular-32" transform="translate(83.399979 0)"/>
      </g>
     </g>
    </g>
    <g id="ytick_3">
     <g id="line2d_10">
      <g>
       <use xlink:href="#m3500ddae76" x="36" y="83.808" style="stroke: #000000; stroke-width: 0.8"/>
      </g>
     </g>
     <g id="text_11">
      <!-- 0.4 -->
      <g transform="translate(15.101562 87.453313) scale(0.1 -0.1)">
       <use xlink:href="#NimbusSans-Regular-30"/>
       <use xlink:href="#NimbusSans-Regular-2e" transform="translate(55.599991 0)"/>
       <use xlink:href="#NimbusSans-Regular-34" transform="translate(83.399979 0)"/>
      </g>
     </g>
    </g>
    <g id="ytick_4">
     <g id="line2d_11">
      <g>
       <use xlink:href="#m3500ddae76" x="36" y="61.632" style="stroke: #000000; stroke-width: 0.8"/>
      </g>
     </g>
     <g id="text_12">
      <!-- 0.6 -->
      <g transform="translate(15.101562 65.277312) scale(0.1 -0.1)">
       <use xlink:href="#NimbusSans-Regular-30"/>
       <use xlink:href="#NimbusSans-Regular-2e" transform="translate(55.599991 0)"/>
       <use xlink:href="#NimbusSans-Regular-36" transform="translate(83.399979 0)"/>
      </g>
     </g>
    </g>
    <g id="ytick_5">
     <g id="line2d_12">
      <g>
       <use xlink:href="#m3500ddae76" x="36" y="39.456" style="stroke: #000000; stroke-width: 0.8"/>
      </g>
     </g>
     <g id="text_13">
      <!-- 0.8 -->
      <g transform="translate(15.101562 43.101312) scale(0.1 -0.1)">
       <defs>
        <path id="NimbusSans-Regular-38" d="M 2502 2438 
C 2976 2726 3123 2957 3123 3392 
C 3123 4122 2566 4627 1760 4627 
C 960 4627 397 4122 397 3398 
C 397 2957 544 2733 1011 2438 
C 493 2176 237 1798 237 1286 
C 237 442 858 -147 1760 -147 
C 2656 -147 3283 442 3283 1286 
C 3283 1798 3027 2176 2502 2438 
z
M 1760 4128 
C 2240 4128 2547 3840 2547 3379 
C 2547 2944 2234 2656 1760 2656 
C 1280 2656 973 2944 973 3392 
C 973 3840 1280 4128 1760 4128 
z
M 1760 2182 
C 2323 2182 2707 1811 2707 1274 
C 2707 717 2330 352 1747 352 
C 1197 352 813 730 813 1267 
C 813 1818 1190 2182 1760 2182 
z
" transform="scale(0.015625)"/>
       </defs>
       <use xlink:href="#NimbusSans-Regular-30"/>
       <use xlink:href="#NimbusSans-Regular-2e" transform="translate(55.599991 0)"/>
       <use xlink:href="#NimbusSans-Regular-38" transform="translate(83.399979 0)"/>
      </g>
     </g>
    </g>
    <g id="ytick_6">
     <g id="line2d_13">
      <g>
       <use xlink:href="#m3500ddae76" x="36" y="17.28" style="stroke: #000000; stroke-width: 0.8"/>
      </g>
     </g>
     <g id="text_14">
      <!-- 1.0 -->
      <g transform="translate(15.101562 20.925313) scale(0.1 -0.1)">
       <defs>
        <path id="NimbusSans-Regular-31" d="M 1658 3296 
L 1658 0 
L 2221 0 
L 2221 4627 
L 1850 4627 
C 1651 3917 1523 3821 653 3706 
L 653 3296 
L 1658 3296 
z
" transform="scale(0.015625)"/>
       </defs>
       <use xlink:href="#NimbusSans-Regular-31"/>
       <use xlink:href="#NimbusSans-Regular-2e" transform="translate(55.599991 0)"/>
       <use xlink:href="#NimbusSans-Regular-30" transform="translate(83.399979 0)"/>
      </g>
     </g>
    </g>
    <g id="text_15">
     <!-- Normalized Reflectance -->
     <g transform="translate(8.921875 125.787188) rotate(-90) scale(0.1 -0.1)">
      <defs>
       <path id="NimbusSans-Regular-4e" d="M 4134 4666 
L 3571 4666 
L 3571 851 
L 1133 4666 
L 486 4666 
L 486 0 
L 1050 0 
L 1050 3782 
L 3462 0 
L 4134 0 
L 4134 4666 
z
" transform="scale(0.015625)"/>
       <path id="NimbusSans-Regular-6f" d="M 1741 3450 
C 794 3450 230 2778 230 1651 
C 230 518 794 -147 1747 -147 
C 2694 -147 3264 525 3264 1626 
C 3264 2790 2714 3450 1741 3450 
z
M 1747 2957 
C 2349 2957 2707 2464 2707 1632 
C 2707 838 2336 346 1747 346 
C 1152 346 787 838 787 1651 
C 787 2464 1152 2957 1747 2957 
z
" transform="scale(0.015625)"/>
       <path id="NimbusSans-Regular-72" d="M 442 3354 
L 442 0 
L 979 0 
L 979 1741 
C 986 2547 1318 2906 2054 2886 
L 2054 3430 
C 1965 3443 1914 3450 1850 3450 
C 1504 3450 1242 3245 934 2746 
L 934 3354 
L 442 3354 
z
" transform="scale(0.015625)"/>
       <path id="NimbusSans-Regular-69" d="M 960 3354 
L 429 3354 
L 429 0 
L 960 0 
L 960 3354 
z
M 960 4666 
L 422 4666 
L 422 3994 
L 960 3994 
L 960 4666 
z
" transform="scale(0.015625)"/>
       <path id="NimbusSans-Regular-7a" d="M 2835 3354 
L 333 3354 
L 333 2886 
L 2202 2886 
L 198 480 
L 198 0 
L 2925 0 
L 2925 467 
L 845 467 
L 2835 2880 
L 2835 3354 
z
" transform="scale(0.015625)"/>
       <path id="NimbusSans-Regular-64" d="M 3168 4666 
L 2637 4666 
L 2637 2931 
C 2413 3270 2054 3450 1606 3450 
C 736 3450 166 2752 166 1683 
C 166 550 717 -147 1626 -147 
C 2086 -147 2406 26 2694 442 
L 2694 0 
L 3168 0 
L 3168 4666 
z
M 1696 2950 
C 2272 2950 2637 2445 2637 1638 
C 2637 864 2266 352 1702 352 
C 1114 352 723 870 723 1651 
C 723 2432 1114 2950 1696 2950 
z
" transform="scale(0.015625)"/>
       <path id="NimbusSans-Regular-52" d="M 1190 2010 
L 2726 2010 
C 3258 2010 3494 1754 3494 1178 
L 3488 762 
C 3488 474 3539 192 3622 0 
L 4346 0 
L 4346 147 
C 4122 301 4077 467 4064 1088 
C 4058 1856 3936 2086 3430 2304 
C 3955 2566 4166 2880 4166 3418 
C 4166 4224 3667 4666 2746 4666 
L 595 4666 
L 595 0 
L 1190 0 
L 1190 2010 
z
M 1190 2534 
L 1190 4141 
L 2630 4141 
C 2963 4141 3155 4090 3302 3962 
C 3462 3827 3546 3616 3546 3341 
C 3546 2784 3264 2534 2630 2534 
L 1190 2534 
z
" transform="scale(0.015625)"/>
       <path id="NimbusSans-Regular-66" d="M 1651 3354 
L 1094 3354 
L 1094 3878 
C 1094 4102 1216 4218 1466 4218 
C 1510 4218 1530 4218 1651 4211 
L 1651 4653 
C 1530 4678 1459 4685 1350 4685 
C 858 4685 563 4403 563 3923 
L 563 3354 
L 115 3354 
L 115 2918 
L 563 2918 
L 563 0 
L 1094 0 
L 1094 2918 
L 1651 2918 
L 1651 3354 
z
" transform="scale(0.015625)"/>
       <path id="NimbusSans-Regular-63" d="M 3014 2227 
C 2989 2554 2918 2765 2790 2950 
C 2560 3264 2157 3450 1690 3450 
C 781 3450 198 2733 198 1619 
C 198 538 774 -147 1683 -147 
C 2483 -147 2989 333 3053 1152 
L 2515 1152 
C 2426 614 2150 346 1696 346 
C 1107 346 755 826 755 1619 
C 755 2458 1101 2957 1683 2957 
C 2131 2957 2413 2694 2477 2227 
L 3014 2227 
z
" transform="scale(0.015625)"/>
      </defs>
      <use xlink:href="#NimbusSans-Regular-4e"/>
      <use xlink:href="#NimbusSans-Regular-6f" transform="translate(72.199982 0)"/>
      <use xlink:href="#NimbusSans-Regular-72" transform="translate(127.799973 0)"/>
      <use xlink:href="#NimbusSans-Regular-6d" transform="translate(161.09996 0)"/>
      <use xlink:href="#NimbusSans-Regular-61" transform="translate(244.399948 0)"/>
      <use xlink:href="#NimbusSans-Regular-6c" transform="translate(299.999939 0)"/>
      <use xlink:href="#NimbusSans-Regular-69" transform="translate(322.199936 0)"/>
      <use xlink:href="#NimbusSans-Regular-7a" transform="translate(344.399933 0)"/>
      <use xlink:href="#NimbusSans-Regular-65" transform="translate(394.399918 0)"/>
      <use xlink:href="#NimbusSans-Regular-64" transform="translate(449.999908 0)"/>
      <use xlink:href="#NimbusSans-Regular-20" transform="translate(505.599899 0)"/>
      <use xlink:href="#NimbusSans-Regular-52" transform="translate(533.399887 0)"/>
      <use xlink:href="#NimbusSans-Regular-65" transform="translate(605.599869 0)"/>
      <use xlink:href="#NimbusSans-Regular-66" transform="translate(661.19986 0)"/>
      <use xlink:href="#NimbusSans-Regular-6c" transform="translate(688.999847 0)"/>
      <use xlink:href="#NimbusSans-Regular-65" transform="translate(711.199844 0)"/>
      <use xlink:href="#NimbusSans-Regular-63" transform="translate(766.799835 0)"/>
      <use xlink:href="#NimbusSans-Regular-74" transform="translate(816.79982 0)"/>
      <use xlink:href="#NimbusSans-Regular-61" transform="translate(844.599808 0)"/>
      <use xlink:href="#NimbusSans-Regular-6e" transform="translate(900.199799 0)"/>
      <use xlink:href="#NimbusSans-Regular-63" transform="translate(955.799789 0)"/>
      <use xlink:href="#NimbusSans-Regular-65" transform="translate(1005.799774 0)"/>
     </g>
    </g>
   </g>
   <g id="line2d_14">
    <path d="M 58.392912 120.280714 
L 58.66224 117.287053 
L 58.931568 116.096433 
L 59.20164 118.625513 
L 59.470968 112.30569 
L 59.740296 127.198787 
L 60.278952 112.663274 
L 60.54828 118.137622 
L 60.817608 116.519309 
L 61.086936 125.697647 
L 61.356264 108.54641 
L 61.625592 118.277522 
L 62.164248 126.44498 
L 62.433576 115.091898 
L 62.702904 115.708328 
L 62.972232 118.81493 
L 63.24156 117.679571 
L 63.510144 119.839105 
L 63.779472 124.678947 
L 64.0488 116.618203 
L 64.317384 128.16 
L 64.586712 123.582546 
L 64.85604 124.812193 
L 65.124624 117.558703 
L 65.393952 120.903816 
L 65.662536 115.96142 
L 65.931864 123.826306 
L 66.200448 117.531769 
L 66.469776 119.076261 
L 66.73836 114.840534 
L 67.006944 116.875569 
L 67.276272 114.209292 
L 67.544856 117.711259 
L 67.81344 110.471001 
L 68.082024 120.464214 
L 68.350608 114.791413 
L 68.619936 117.85218 
L 68.88852 112.540945 
L 69.157104 120.849065 
L 69.425688 117.304058 
L 69.694272 117.081398 
L 70.23144 114.955511 
L 70.500024 114.761987 
L 71.037192 116.31839 
L 71.305032 111.071816 
L 71.573616 114.968342 
L 71.8422 116.190824 
L 72.110784 112.773096 
L 72.379368 117.590787 
L 72.647208 115.877304 
L 72.915792 106.808483 
L 73.184376 113.17921 
L 73.452216 114.872727 
L 73.7208 113.277325 
L 73.98864 108.948604 
L 74.257224 109.772641 
L 74.525064 116.560749 
L 74.793648 111.072726 
L 75.061488 112.323941 
L 75.329328 106.691373 
L 75.597912 113.339884 
L 75.865752 104.214734 
L 76.133592 111.579057 
L 76.401432 111.371106 
L 76.670016 113.428727 
L 76.937856 112.61964 
L 77.205696 110.540841 
L 77.473536 114.689593 
L 77.741376 111.514529 
L 78.009216 111.349034 
L 78.277056 113.149433 
L 78.544896 114.149281 
L 78.812736 110.361622 
L 79.080576 111.484487 
L 79.348416 114.12695 
L 79.616256 112.689502 
L 79.884096 112.576275 
L 80.151936 113.469999 
L 80.419032 107.026357 
L 80.686872 108.374364 
L 80.954712 108.251081 
L 81.221808 115.180506 
L 81.489648 109.554148 
L 81.757488 112.082587 
L 82.024584 113.176631 
L 82.292424 113.493595 
L 82.55952 106.947875 
L 82.82736 115.126593 
L 83.094456 108.600912 
L 83.362296 112.986195 
L 83.629392 111.907976 
L 84.164328 114.76393 
L 84.431424 114.830867 
L 84.69852 111.96481 
L 84.965616 112.325057 
L 85.233456 113.49454 
L 85.500552 109.347124 
L 85.767648 112.163857 
L 86.034744 104.782092 
L 86.30184 114.838732 
L 86.568936 105.643132 
L 86.836032 112.266071 
L 87.103128 111.122262 
L 87.370224 101.615814 
L 87.63732 109.423864 
L 88.437864 100.776543 
L 88.70496 103.137409 
L 88.972056 100.752818 
L 89.238408 103.944253 
L 89.505504 99.630937 
L 89.7726 100.770485 
L 90.038952 103.988215 
L 90.306048 103.030319 
L 90.5724 100.487639 
L 90.839496 101.834888 
L 91.105848 99.206094 
L 91.372944 100.31251 
L 91.906392 96.385696 
L 92.172744 98.541717 
L 92.439096 98.657051 
L 92.706192 92.244201 
L 92.972544 96.260855 
L 93.238896 96.673137 
L 93.505248 90.373409 
L 93.7716 90.740567 
L 94.037952 92.866081 
L 94.305048 91.814037 
L 94.5714 86.630998 
L 94.837752 92.215103 
L 95.104104 90.755955 
L 95.370456 88.431792 
L 95.636064 88.412463 
L 96.168768 84.299103 
L 96.701472 82.880526 
L 96.967824 79.875818 
L 97.233432 85.718781 
L 97.499784 75.37722 
L 97.766136 79.364363 
L 98.031744 80.10157 
L 98.298096 80.47751 
L 98.563704 78.248185 
L 98.830056 80.934599 
L 99.095664 74.200266 
L 99.362016 77.85779 
L 100.159584 70.836612 
L 100.425192 73.854657 
L 100.691544 71.614292 
L 100.957152 74.749202 
L 101.22276 68.948235 
L 101.488368 68.679385 
L 101.75472 68.924102 
L 102.285936 65.961442 
L 102.551544 65.956383 
L 102.817152 65.687757 
L 103.348368 62.632392 
L 103.613976 62.29043 
L 103.879584 63.574705 
L 104.144448 61.941464 
L 104.410056 62.393771 
L 104.941272 57.408795 
L 105.20688 60.574215 
L 105.471744 56.124408 
L 105.737352 57.7975 
L 106.00296 57.012672 
L 106.533432 52.935274 
L 106.798296 51.780874 
L 107.063904 51.702472 
L 107.328768 53.16331 
L 107.85924 49.201568 
L 108.124104 50.264768 
L 108.389712 43.470807 
L 108.654576 47.70814 
L 108.91944 47.490814 
L 109.185048 44.041602 
L 109.449912 43.842926 
L 109.714776 41.426546 
L 109.97964 42.1787 
L 110.244504 41.688511 
L 110.509368 41.725202 
L 110.774232 36.570299 
L 111.039096 42.034988 
L 111.30396 36.288856 
L 111.568824 38.083053 
L 111.833688 37.113114 
L 112.098552 32.513989 
L 112.363416 36.052965 
L 112.62828 34.855771 
L 112.8924 37.199187 
L 113.157264 33.457592 
L 113.422128 33.5884 
L 113.686248 35.009375 
L 113.951112 34.234418 
L 114.215976 34.261859 
L 114.480096 31.022173 
L 114.74496 32.818675 
L 115.00908 33.802477 
L 115.273944 30.854069 
L 115.538064 26.189134 
L 115.802184 29.805389 
L 116.067048 30.711415 
L 116.331168 28.082859 
L 116.595288 31.050415 
L 116.860152 29.234055 
L 117.124272 30.429026 
L 117.388392 26.960058 
L 117.652512 29.437196 
L 117.916632 25.9858 
L 118.180752 26.123828 
L 118.445616 23.168171 
L 118.709736 23.838282 
L 118.973856 23.275228 
L 119.237232 26.622158 
L 119.501352 21.986358 
L 119.765472 23.915547 
L 120.029592 23.29004 
L 120.293712 23.472047 
L 120.557832 24.865964 
L 120.821208 24.355958 
L 121.085328 24.34032 
L 121.349448 20.066434 
L 121.613568 19.724576 
L 121.876944 18.85987 
L 122.141064 17.414314 
L 122.40444 24.367692 
L 122.66856 23.244281 
L 122.931936 20.683685 
L 123.196056 20.291397 
L 123.459432 17.28 
L 123.722808 23.682334 
L 123.986928 23.335787 
L 124.250304 20.137979 
L 124.51368 21.188779 
L 124.7778 23.901925 
L 125.304552 20.585136 
L 125.567928 21.890884 
L 125.831304 24.068606 
L 126.09468 21.494233 
L 126.358056 24.361079 
L 126.621432 24.398449 
L 126.884808 21.152238 
L 127.674936 25.346836 
L 127.938312 26.703881 
L 128.201688 23.880524 
L 128.46432 27.629157 
L 128.727696 24.715742 
L 128.991072 26.3949 
L 129.253704 25.713584 
L 129.51708 25.8644 
L 129.780456 23.328037 
L 130.043088 31.328355 
L 130.306464 24.109744 
L 130.569096 25.496633 
L 130.832472 29.058016 
L 131.095104 26.597305 
L 131.357736 25.991131 
L 131.621112 25.713493 
L 132.146376 31.467615 
L 132.409752 27.731184 
L 132.672384 30.144844 
L 132.935016 29.822752 
L 133.46028 31.064772 
L 133.722912 29.098978 
L 133.985544 29.117624 
L 134.248176 32.077723 
L 134.510808 30.912748 
L 134.77344 31.120799 
L 135.036072 37.08833 
L 135.298704 32.477201 
L 135.561336 35.185017 
L 135.823224 32.491694 
L 136.348488 37.104174 
L 136.61112 34.103741 
L 136.873008 40.236329 
L 137.13564 37.472304 
L 137.397528 36.729159 
L 137.66016 39.120522 
L 137.922792 39.205256 
L 138.18468 37.865782 
L 138.446568 40.663275 
L 138.7092 40.352131 
L 138.971088 39.038017 
L 139.23372 42.133489 
L 139.495608 40.954986 
L 139.757496 44.234375 
L 140.019384 39.562968 
L 140.282016 42.57844 
L 140.543904 42.143368 
L 140.805792 44.65618 
L 141.06768 41.262229 
L 141.329568 46.086606 
L 141.591456 44.852637 
L 141.853344 46.644197 
L 142.115232 46.393473 
L 142.37712 49.527702 
L 142.639008 46.440274 
L 142.900896 49.371036 
L 143.16204 48.937085 
L 143.423928 50.81986 
L 143.947704 49.109821 
L 144.208848 52.699675 
L 144.470736 52.921315 
L 144.73188 47.786263 
L 144.993768 53.79781 
L 145.255656 51.929846 
L 145.778688 55.815204 
L 146.039832 55.454108 
L 146.300976 58.691206 
L 146.562864 57.474283 
L 146.824008 58.384459 
L 147.085152 57.980085 
L 147.34704 63.50233 
L 147.608184 60.608816 
L 147.869328 63.368111 
L 148.130472 62.713199 
L 148.391616 63.945017 
L 148.65276 65.72073 
L 149.175048 63.801827 
L 149.697336 68.710254 
L 149.95848 65.484653 
L 150.219624 66.563048 
L 150.480768 69.860757 
L 150.741912 67.22868 
L 151.263456 70.125038 
L 151.5246 70.654602 
L 151.785 70.855395 
L 152.567688 74.598746 
L 152.828832 72.776709 
L 153.610776 75.451813 
L 153.871176 75.433154 
L 154.131576 76.179971 
L 154.65312 78.537935 
L 154.91352 77.595231 
L 155.17392 78.090675 
L 155.435064 78.026431 
L 155.695464 79.501452 
L 155.955864 78.741513 
L 156.216264 80.897351 
L 156.476664 80.93949 
L 156.737064 82.024544 
L 156.997464 81.761654 
L 157.257864 80.104191 
L 157.51752 82.60993 
L 157.77792 82.901144 
L 158.03832 84.975255 
L 158.29872 82.947628 
L 158.818776 86.415183 
L 159.079176 86.021822 
L 159.338832 84.241629 
L 159.599232 84.2706 
L 159.859632 86.648877 
L 160.119288 86.091137 
L 160.378944 87.930611 
L 160.639344 86.991733 
L 160.899 87.288997 
L 161.1594 86.805304 
L 161.419056 88.964859 
L 161.678712 87.398768 
L 161.938368 86.616669 
L 162.198768 89.068307 
L 162.458424 89.846041 
L 162.71808 90.052583 
L 162.977736 89.507729 
L 163.497048 92.390125 
L 164.01636 89.166901 
L 164.276016 93.676376 
L 164.535672 90.856768 
L 164.795328 93.5125 
L 165.054984 91.438696 
L 165.313896 91.844201 
L 165.573552 93.15811 
L 165.833208 90.434714 
L 166.09212 91.10769 
L 166.351776 93.05618 
L 166.611432 93.432738 
L 166.870344 91.083893 
L 167.13 91.479237 
L 167.388912 94.107309 
L 167.648568 91.105353 
L 167.90748 92.46973 
L 168.167136 93.216052 
L 168.426048 90.230313 
L 168.68496 93.744333 
L 168.943872 90.675356 
L 169.203528 91.130595 
L 169.46244 93.227888 
L 169.980264 89.775912 
L 170.239176 92.765011 
L 170.498088 92.163708 
L 170.757 92.197787 
L 171.015912 91.396854 
L 171.274824 93.574505 
L 171.533736 93.054855 
L 171.792648 91.125598 
L 172.310472 92.588578 
L 172.56864 92.034799 
L 172.827552 91.003281 
L 173.344632 92.974832 
L 173.603544 91.988279 
L 173.862456 93.930051 
L 174.120624 91.743591 
L 174.379536 92.812577 
L 174.637704 92.619079 
L 174.895872 92.071973 
L 175.154784 92.442009 
L 175.412952 92.19449 
L 175.930032 95.431782 
L 176.1882 93.550854 
L 176.446368 94.571406 
L 176.704536 94.119586 
L 176.963448 97.161554 
L 177.221616 93.247186 
L 177.479784 95.788727 
L 177.737952 95.765152 
L 178.254288 95.188088 
L 178.512456 95.856558 
L 178.76988 94.742314 
L 179.028048 96.375193 
L 179.286216 94.775807 
L 179.544384 98.833521 
L 179.802552 95.173194 
L 180.059976 97.013117 
L 180.318144 94.732185 
L 180.575568 98.801791 
L 180.833736 95.165245 
L 181.091904 95.118228 
L 181.349328 98.59023 
L 181.607496 96.979204 
L 181.86492 97.889763 
L 182.122344 97.496868 
L 182.380512 95.814132 
L 182.637936 99.268458 
L 182.89536 95.41286 
L 183.153528 97.63484 
L 183.410952 95.060457 
L 183.668376 98.656137 
L 183.9258 97.111874 
L 184.183224 98.33548 
L 184.698072 95.149889 
L 184.955496 98.163155 
L 185.21292 96.939247 
L 185.470344 97.312017 
L 185.727768 98.245827 
L 185.985192 97.943032 
L 186.242616 94.478158 
L 186.499296 97.599768 
L 186.75672 96.99558 
L 187.014144 98.277795 
L 187.270824 98.397675 
L 187.528248 95.537172 
L 187.785672 96.921334 
L 188.042352 99.246729 
L 188.556456 96.832658 
L 188.813136 98.474425 
L 189.07056 95.102003 
L 189.32724 97.635623 
L 189.584664 98.262322 
L 189.841344 97.149054 
L 190.098024 97.331442 
L 190.611384 99.195827 
L 190.868064 94.592004 
L 191.125488 98.690139 
L 191.382168 97.097832 
L 191.638848 98.19034 
L 191.895528 98.178047 
L 192.152208 98.758944 
L 192.408144 97.303556 
L 192.664824 100.590147 
L 192.921504 97.169809 
L 193.178184 100.61882 
L 193.434864 96.522068 
L 193.6908 98.382464 
L 193.94748 99.0531 
L 194.20416 98.509795 
L 194.460096 98.868792 
L 194.972712 98.346837 
L 195.229392 99.99556 
L 195.485328 98.73222 
L 195.742008 100.681817 
L 195.997944 96.445663 
L 196.25388 97.136418 
L 196.51056 100.46571 
L 196.766496 97.45192 
L 197.022432 100.98206 
L 197.278368 98.486856 
L 197.534304 99.05646 
L 197.79024 99.244243 
L 198.04692 97.47082 
L 198.302856 97.818946 
L 198.558792 97.088519 
L 198.814728 98.487084 
L 199.06992 97.290533 
L 199.325856 99.130736 
L 199.581792 98.175823 
L 199.837728 95.399279 
L 200.093664 98.282653 
L 200.348856 97.39532 
L 200.860728 96.486918 
L 201.11592 96.735805 
L 201.371856 95.641869 
L 201.627048 96.471903 
L 201.882984 96.714299 
L 202.394112 98.051569 
L 202.649304 97.428596 
L 202.90524 94.472625 
L 203.415624 96.963421 
L 203.670816 94.240996 
L 203.926008 96.550586 
L 204.181944 95.613713 
L 204.437136 96.213589 
L 204.692328 97.643156 
L 204.94752 96.177887 
L 205.457904 95.279318 
L 205.713096 96.924646 
L 205.968288 92.053043 
L 206.477928 95.881402 
L 206.73312 96.16682 
L 206.988312 93.21624 
L 207.24276 96.112927 
L 207.497952 93.861707 
L 207.753144 96.424408 
L 208.007592 93.543542 
L 208.262784 94.195888 
L 208.517232 93.773572 
L 208.772424 95.546154 
L 209.026872 92.620374 
L 209.282064 92.719757 
L 209.79096 94.5855 
L 210.045408 93.587856 
L 210.3006 93.847762 
L 210.555048 92.74964 
L 210.809496 93.833832 
L 211.063944 93.820945 
L 211.318392 95.233325 
L 211.57284 92.008186 
L 212.081736 91.461979 
L 212.336184 92.763043 
L 212.590632 93.403309 
L 212.84508 90.684113 
L 213.099528 92.358773 
L 213.353232 93.043305 
L 213.60768 91.815019 
L 213.862128 92.651914 
L 214.115832 90.619311 
L 214.37028 92.199522 
L 214.624728 89.663733 
L 215.13288 91.176411 
L 215.386584 90.446971 
L 215.641032 91.254021 
L 216.402888 89.967993 
L 216.656592 90.204118 
L 216.910296 90.763021 
L 217.164 89.672078 
L 217.417704 89.941748 
L 217.671408 89.041353 
L 217.925112 89.727318 
L 218.178816 89.139165 
L 218.43252 88.865321 
L 218.686224 89.455436 
L 218.939928 88.767557 
L 219.193632 88.521566 
L 219.447336 89.990505 
L 219.70104 88.102035 
L 219.954744 87.177455 
L 220.207704 87.585228 
L 220.461408 85.989012 
L 220.715112 88.306166 
L 220.968072 86.703927 
L 221.221776 88.050935 
L 221.474736 88.731865 
L 221.72844 85.502028 
L 221.9814 87.422515 
L 222.235104 84.826238 
L 222.488064 88.094847 
L 222.741024 86.238779 
L 222.994728 88.045209 
L 223.247688 84.275368 
L 223.500648 86.201408 
L 223.753608 85.450338 
L 224.006568 85.345637 
L 224.259528 87.096201 
L 224.512488 84.381107 
L 224.765448 84.39416 
L 225.271368 86.259918 
L 225.524328 84.191963 
L 225.777288 85.161597 
L 226.030248 82.348838 
L 226.283208 85.523296 
L 226.535424 82.324458 
L 227.041344 82.02605 
L 227.29356 82.565197 
L 227.54652 81.563886 
L 227.798736 83.169967 
L 228.051696 81.68333 
L 228.303912 81.017265 
L 228.556872 82.790111 
L 228.809088 81.383819 
L 229.061304 81.184365 
L 229.314264 80.193416 
L 229.56648 80.898032 
L 229.818696 79.425147 
L 230.070912 77.084894 
L 230.323872 80.663796 
L 230.576088 77.702575 
L 230.828304 81.598176 
L 231.08052 79.607836 
L 231.332736 80.364068 
L 231.584952 78.131499 
L 231.837168 80.091836 
L 232.08864 77.206724 
L 232.340856 76.830721 
L 232.593072 75.946058 
L 232.845288 82.349373 
L 233.09676 77.831997 
L 233.348976 77.244421 
L 233.601192 77.436984 
L 233.852664 73.555145 
L 234.10488 77.155318 
L 234.356352 74.785523 
L 234.86004 77.124186 
L 235.112256 74.305165 
L 235.363728 75.378018 
L 235.6152 75.672732 
L 235.866672 72.638826 
L 236.118888 75.857412 
L 236.37036 72.579767 
L 236.873304 74.328449 
L 237.124776 73.164529 
L 237.62772 74.507715 
L 238.130664 74.691655 
L 238.382136 70.385279 
L 238.633608 73.462585 
L 239.135808 72.107918 
L 239.38728 73.63392 
L 239.638752 70.923783 
L 239.88948 72.307804 
L 240.140952 70.752641 
L 240.39168 71.571044 
L 240.643152 71.397273 
L 240.89388 72.16839 
L 241.145352 72.466662 
L 241.39608 72.380224 
L 241.646808 70.372025 
L 241.89828 71.05412 
L 242.149008 70.537679 
L 242.399736 72.454873 
L 242.650464 71.446184 
L 242.901936 72.820357 
L 243.152664 68.733167 
L 243.403392 72.581615 
L 243.65412 71.425312 
L 243.904848 68.574244 
L 244.155576 73.275568 
L 244.406304 68.861418 
L 244.656288 70.921267 
L 244.907016 70.245126 
L 245.157744 70.877187 
L 245.408472 70.663676 
L 245.658456 68.090629 
L 246.409896 69.774919 
L 246.910608 68.222649 
L 247.161336 69.406042 
L 247.41132 68.18575 
L 247.661304 68.39063 
L 247.912032 65.145947 
L 248.162016 69.847381 
L 248.412 68.190211 
L 248.662728 70.123492 
L 248.912712 67.033304 
L 249.162696 67.593781 
L 249.41268 66.187446 
L 249.662664 68.167745 
L 249.912648 68.866983 
L 250.162632 68.643789 
L 250.412616 67.61396 
L 250.6626 67.329149 
L 250.912584 64.838975 
L 251.161824 67.944897 
L 251.411808 67.055093 
L 251.661792 66.931422 
L 251.911776 68.709974 
L 252.161016 69.011825 
L 252.411 64.940251 
L 252.66024 67.23195 
L 252.910224 64.166039 
L 253.409448 65.897395 
L 253.658688 65.021588 
L 253.908672 65.424336 
L 254.157912 66.39606 
L 254.407152 64.694013 
L 254.656392 64.455241 
L 254.906376 66.038022 
L 255.155616 64.504994 
L 255.404856 65.49292 
L 255.654096 65.154674 
L 255.903336 66.105022 
L 256.152576 62.681927 
L 256.401816 65.413849 
L 256.651056 62.228999 
L 256.900296 64.223944 
L 257.148792 64.152569 
L 257.398032 65.673554 
L 257.647272 65.43901 
L 257.896512 63.939888 
L 258.145008 64.407586 
L 258.394248 66.943711 
L 258.642744 64.296866 
L 258.891984 63.508633 
L 259.14048 64.154107 
L 259.14048 64.154107 
" clip-path="url(#pb9a890a866)" style="fill: none; stroke: #008000; stroke-width: 1.5; stroke-linecap: square"/>
   </g>
   <g id="line2d_15">
    <path d="M 58.392912 115.458242 
L 58.66224 121.932716 
L 58.931568 116.505703 
L 59.20164 116.305718 
L 59.470968 115.318416 
L 60.009624 124.665745 
L 60.278952 123.875458 
L 60.54828 117.802464 
L 60.817608 116.631949 
L 61.086936 121.27151 
L 61.356264 120.863263 
L 61.625592 119.523277 
L 61.89492 116.700722 
L 62.164248 124.555909 
L 62.433576 128.16 
L 62.702904 117.165393 
L 62.972232 119.49977 
L 63.24156 119.991609 
L 63.510144 119.186974 
L 63.779472 117.873091 
L 64.0488 122.052555 
L 64.317384 120.366224 
L 64.586712 124.946738 
L 64.85604 122.847578 
L 65.124624 123.348045 
L 65.393952 120.071996 
L 65.662536 121.676016 
L 65.931864 121.553966 
L 66.200448 121.26145 
L 66.469776 119.116952 
L 66.73836 118.265627 
L 67.006944 116.37932 
L 67.276272 119.512417 
L 67.544856 117.130676 
L 67.81344 116.365777 
L 68.350608 119.47405 
L 68.619936 111.417892 
L 69.157104 123.171403 
L 69.425688 116.064387 
L 69.694272 113.928473 
L 69.962856 115.168839 
L 70.23144 119.863343 
L 70.768608 113.227084 
L 71.037192 114.709382 
L 71.305032 112.49058 
L 71.573616 112.5673 
L 71.8422 114.676531 
L 72.110784 113.909314 
L 72.379368 119.455981 
L 72.647208 114.439223 
L 72.915792 116.293615 
L 73.184376 111.039768 
L 73.452216 111.41614 
L 73.7208 115.959335 
L 73.98864 109.755992 
L 74.257224 107.547462 
L 74.525064 109.836545 
L 74.793648 113.562722 
L 75.061488 109.558895 
L 75.597912 114.968045 
L 75.865752 106.909233 
L 76.133592 110.091563 
L 76.401432 110.122303 
L 76.670016 108.084714 
L 77.205696 114.194853 
L 77.473536 113.715696 
L 77.741376 108.663032 
L 78.009216 112.252021 
L 78.277056 110.187568 
L 78.544896 112.896397 
L 78.812736 107.109648 
L 79.080576 113.668975 
L 79.348416 113.260022 
L 79.884096 107.967047 
L 80.151936 114.99873 
L 80.419032 112.443411 
L 80.686872 107.820301 
L 80.954712 108.187329 
L 81.221808 107.279101 
L 81.489648 110.916602 
L 81.757488 110.33999 
L 82.024584 109.247087 
L 82.82736 111.50126 
L 83.094456 111.639121 
L 83.362296 108.559722 
L 83.629392 111.230759 
L 84.164328 108.37799 
L 84.431424 112.511807 
L 84.965616 109.37768 
L 85.233456 108.848078 
L 85.767648 111.330205 
L 86.034744 107.368946 
L 86.30184 106.049578 
L 86.568936 109.846978 
L 86.836032 107.635392 
L 87.103128 106.593619 
L 87.370224 108.402947 
L 87.904416 103.624157 
L 88.170768 105.679207 
L 88.437864 102.563817 
L 88.972056 99.7091 
L 89.238408 101.085327 
L 89.7726 102.002893 
L 90.306048 99.644212 
L 90.5724 99.224825 
L 90.839496 98.59498 
L 91.105848 99.249629 
L 91.372944 97.078981 
L 91.639296 98.448609 
L 91.906392 94.479681 
L 92.172744 98.285593 
L 92.439096 96.178703 
L 92.972544 90.070497 
L 93.238896 92.804104 
L 93.505248 92.912094 
L 93.7716 93.748771 
L 94.037952 92.001906 
L 94.305048 89.418587 
L 94.5714 91.235427 
L 94.837752 89.42664 
L 95.104104 88.567107 
L 95.370456 88.454815 
L 95.902416 85.315955 
L 96.168768 82.682251 
L 96.43512 82.593277 
L 96.701472 83.245948 
L 96.967824 82.817414 
L 97.233432 81.427472 
L 97.499784 81.195467 
L 97.766136 76.234899 
L 98.031744 78.447104 
L 98.563704 78.271054 
L 98.830056 80.061103 
L 99.095664 78.873594 
L 99.362016 75.507982 
L 99.627624 76.017797 
L 100.159584 74.047142 
L 100.691544 72.416972 
L 101.22276 73.014668 
L 101.488368 69.541484 
L 101.75472 70.22236 
L 102.020328 68.804282 
L 102.285936 69.848736 
L 102.551544 65.987003 
L 103.08276 64.493783 
L 103.348368 64.622344 
L 103.879584 64.311218 
L 104.144448 61.734506 
L 104.410056 66.881873 
L 104.675664 61.899774 
L 104.941272 63.971259 
L 105.20688 62.17654 
L 105.737352 60.234486 
L 106.00296 59.650381 
L 106.267824 58.340441 
L 106.533432 58.156625 
L 106.798296 55.441942 
L 107.063904 59.111094 
L 107.328768 54.761755 
L 107.594376 54.87788 
L 107.85924 53.517767 
L 108.124104 53.910112 
L 108.389712 53.354442 
L 108.654576 51.531727 
L 108.91944 50.874254 
L 109.185048 52.261256 
L 109.714776 47.945734 
L 109.97964 48.719576 
L 110.244504 47.639131 
L 110.509368 47.306213 
L 111.039096 43.587587 
L 111.30396 44.176095 
L 111.568824 45.192643 
L 111.833688 40.98015 
L 112.098552 41.543978 
L 112.62828 41.372052 
L 112.8924 40.533912 
L 113.157264 40.395405 
L 113.422128 37.907558 
L 113.686248 41.068971 
L 113.951112 39.712084 
L 114.215976 39.823693 
L 114.480096 38.230037 
L 114.74496 37.662809 
L 115.00908 36.656917 
L 115.273944 37.064279 
L 115.802184 34.793025 
L 116.067048 38.337939 
L 116.331168 36.840418 
L 116.595288 34.250273 
L 116.860152 34.710298 
L 117.124272 34.161929 
L 117.388392 31.65137 
L 117.652512 37.001037 
L 117.916632 30.656011 
L 118.180752 30.941099 
L 118.445616 30.512465 
L 118.709736 28.233001 
L 118.973856 29.051919 
L 119.237232 31.47477 
L 119.501352 28.113419 
L 119.765472 28.673329 
L 120.029592 28.930039 
L 120.293712 28.026453 
L 120.557832 27.742402 
L 120.821208 26.614308 
L 121.085328 27.573375 
L 121.613568 24.452775 
L 121.876944 24.253355 
L 122.141064 21.502399 
L 122.66856 24.759827 
L 122.931936 21.279213 
L 123.196056 23.419832 
L 123.459432 21.869124 
L 123.722808 22.633699 
L 123.986928 21.864812 
L 124.250304 23.403469 
L 124.51368 20.694392 
L 124.7778 21.385108 
L 125.041176 20.843754 
L 125.304552 22.335093 
L 125.567928 20.169209 
L 125.831304 22.045124 
L 126.09468 19.812356 
L 126.358056 22.825596 
L 126.621432 22.671465 
L 126.884808 18.03812 
L 127.148184 22.31067 
L 127.41156 21.981633 
L 127.674936 20.006993 
L 127.938312 21.679403 
L 128.201688 20.147887 
L 128.46432 20.815175 
L 128.727696 23.649052 
L 128.991072 23.000429 
L 129.253704 23.629323 
L 130.043088 17.28 
L 130.306464 21.141065 
L 130.569096 20.796839 
L 130.832472 20.787048 
L 131.095104 19.587507 
L 131.357736 20.950192 
L 131.621112 19.162944 
L 131.883744 22.494098 
L 132.146376 22.363536 
L 132.409752 21.256783 
L 132.672384 19.484352 
L 132.935016 21.063497 
L 133.197648 19.883541 
L 133.46028 21.422368 
L 133.985544 22.192883 
L 134.248176 21.008492 
L 134.510808 20.56257 
L 134.77344 21.503846 
L 135.036072 21.004339 
L 135.298704 22.362005 
L 135.561336 21.053761 
L 135.823224 23.977047 
L 136.085856 23.493766 
L 136.348488 21.849195 
L 136.61112 22.141758 
L 136.873008 20.118115 
L 137.13564 23.583468 
L 137.66016 23.351886 
L 137.922792 24.886869 
L 138.18468 22.506273 
L 138.446568 24.164519 
L 138.7092 24.978546 
L 138.971088 24.578426 
L 139.23372 25.748187 
L 139.495608 25.595062 
L 139.757496 23.46056 
L 140.019384 25.151311 
L 140.282016 25.32262 
L 140.543904 23.735947 
L 140.805792 25.296929 
L 141.06768 24.896858 
L 141.329568 25.467465 
L 141.591456 26.751641 
L 141.853344 26.826328 
L 142.115232 27.126402 
L 142.37712 25.311586 
L 142.639008 29.080505 
L 142.900896 26.89901 
L 143.16204 29.201478 
L 143.685816 28.304748 
L 143.947704 28.762345 
L 144.208848 27.42979 
L 144.470736 30.610468 
L 144.993768 27.659452 
L 145.255656 29.926072 
L 145.5168 29.662906 
L 145.778688 29.78629 
L 146.039832 29.512329 
L 146.300976 31.670524 
L 146.562864 31.32049 
L 146.824008 31.988855 
L 147.085152 31.10135 
L 147.34704 31.72531 
L 147.608184 33.320604 
L 147.869328 31.608661 
L 148.130472 34.362522 
L 148.391616 33.178211 
L 148.65276 32.81726 
L 148.913904 35.783948 
L 149.175048 35.200579 
L 149.436192 32.858104 
L 149.697336 34.5155 
L 149.95848 34.931606 
L 150.219624 33.896704 
L 150.480768 36.161023 
L 150.741912 35.87487 
L 151.002312 34.774339 
L 151.5246 37.12711 
L 151.785 37.010562 
L 152.046144 34.769673 
L 152.306544 36.385414 
L 152.567688 38.989642 
L 152.828832 36.813382 
L 153.610776 38.052583 
L 153.871176 37.228834 
L 154.131576 38.833448 
L 154.39272 38.088018 
L 154.65312 39.180943 
L 154.91352 37.70753 
L 155.17392 37.797019 
L 155.435064 36.178269 
L 155.695464 36.9461 
L 155.955864 36.906619 
L 156.737064 40.538338 
L 156.997464 38.558326 
L 157.257864 39.502838 
L 157.51752 38.370156 
L 157.77792 40.107352 
L 158.03832 38.632633 
L 158.29872 39.20194 
L 158.558376 39.187958 
L 158.818776 39.39783 
L 159.079176 40.018719 
L 159.338832 39.686772 
L 159.599232 40.391283 
L 159.859632 40.444501 
L 160.119288 41.819019 
L 160.378944 42.447974 
L 160.639344 41.549601 
L 161.1594 41.189884 
L 161.678712 42.473176 
L 161.938368 41.329905 
L 162.198768 37.895981 
L 162.458424 42.276386 
L 162.71808 41.243883 
L 162.977736 42.819611 
L 163.237392 42.239392 
L 163.497048 43.754726 
L 164.01636 39.762017 
L 164.276016 42.416611 
L 164.535672 42.951915 
L 164.795328 41.933381 
L 165.054984 42.093184 
L 165.313896 40.681179 
L 165.833208 43.066642 
L 166.09212 43.464998 
L 166.351776 41.152242 
L 166.611432 43.513688 
L 166.870344 42.019559 
L 167.388912 40.695463 
L 167.648568 42.451044 
L 168.167136 40.04016 
L 168.426048 40.050165 
L 168.68496 39.43322 
L 168.943872 41.049445 
L 169.203528 41.940832 
L 169.46244 41.038809 
L 169.721352 39.718213 
L 169.980264 39.29211 
L 170.239176 38.021386 
L 170.498088 41.436837 
L 170.757 39.338681 
L 171.015912 39.923402 
L 171.274824 41.457432 
L 171.533736 40.688845 
L 171.792648 38.98382 
L 172.05156 38.077052 
L 172.310472 40.410146 
L 172.56864 38.685017 
L 172.827552 39.893403 
L 173.086464 40.271863 
L 173.603544 39.393201 
L 173.862456 39.775462 
L 174.120624 38.495547 
L 174.379536 41.543587 
L 174.637704 41.159013 
L 174.895872 42.016866 
L 175.154784 38.834241 
L 175.412952 39.99137 
L 175.671864 39.620347 
L 175.930032 41.905631 
L 176.1882 42.81197 
L 176.446368 42.239711 
L 176.704536 41.026576 
L 176.963448 42.302499 
L 177.221616 41.209959 
L 177.737952 45.131011 
L 178.254288 42.106596 
L 178.512456 41.631143 
L 178.76988 42.736681 
L 179.286216 43.541831 
L 179.544384 43.54452 
L 179.802552 45.797397 
L 180.059976 44.269542 
L 180.575568 43.304552 
L 180.833736 43.403726 
L 181.091904 42.285411 
L 181.349328 44.041406 
L 181.86492 43.360801 
L 182.380512 45.23049 
L 182.637936 44.803297 
L 182.89536 45.849074 
L 183.153528 43.990605 
L 183.410952 45.829527 
L 183.668376 42.539038 
L 184.440648 45.583142 
L 184.698072 43.099653 
L 184.955496 43.931589 
L 185.21292 44.008442 
L 185.470344 44.35267 
L 185.727768 42.998121 
L 185.985192 43.732559 
L 186.242616 41.69015 
L 186.499296 43.283831 
L 186.75672 43.470397 
L 187.014144 42.700412 
L 187.270824 43.972194 
L 187.528248 43.625239 
L 187.785672 44.104521 
L 188.042352 42.56746 
L 188.299776 43.150844 
L 188.556456 43.186977 
L 188.813136 43.518463 
L 189.07056 42.494283 
L 189.32724 43.706837 
L 189.584664 42.603804 
L 189.841344 42.954495 
L 190.098024 41.555046 
L 190.611384 44.484898 
L 190.868064 42.500051 
L 191.125488 44.003797 
L 191.382168 44.335428 
L 191.638848 43.404559 
L 191.895528 43.118926 
L 192.152208 43.812615 
L 192.408144 45.400619 
L 192.921504 44.482158 
L 193.178184 43.253613 
L 193.434864 46.12844 
L 193.94748 44.766191 
L 194.20416 46.577889 
L 194.460096 44.036822 
L 194.716776 46.022902 
L 195.229392 45.666317 
L 195.485328 45.137658 
L 195.742008 47.079088 
L 195.997944 46.842477 
L 196.25388 45.053718 
L 196.766496 46.684369 
L 197.022432 45.45969 
L 197.534304 48.073066 
L 197.79024 46.005158 
L 198.04692 46.255027 
L 198.302856 44.768903 
L 198.558792 45.330835 
L 198.814728 45.001786 
L 199.06992 46.289343 
L 199.325856 46.989018 
L 199.581792 43.513461 
L 199.837728 47.325466 
L 200.093664 45.12695 
L 200.348856 44.359109 
L 200.604792 45.792701 
L 200.860728 44.957958 
L 201.11592 44.90198 
L 201.371856 45.604085 
L 201.627048 45.654152 
L 201.882984 44.903883 
L 202.138176 46.023905 
L 202.649304 45.981263 
L 202.90524 43.528017 
L 203.160432 43.418643 
L 203.415624 46.602595 
L 203.926008 44.583534 
L 204.181944 46.002018 
L 204.437136 44.223775 
L 204.692328 47.62458 
L 204.94752 43.514569 
L 205.202712 45.32331 
L 205.457904 44.250268 
L 205.713096 44.994723 
L 205.968288 46.357735 
L 206.222736 44.66811 
L 206.477928 44.184678 
L 206.73312 44.430098 
L 207.497952 47.663874 
L 207.753144 44.957417 
L 208.007592 46.232766 
L 208.262784 44.113013 
L 208.517232 45.509891 
L 208.772424 44.751293 
L 209.026872 45.30856 
L 209.282064 41.465309 
L 209.536512 44.864854 
L 209.79096 44.277793 
L 210.045408 45.26135 
L 210.3006 45.151751 
L 210.555048 44.263404 
L 210.809496 44.061565 
L 211.063944 45.044358 
L 211.318392 45.400021 
L 211.827288 42.533403 
L 212.081736 45.405306 
L 212.336184 45.254882 
L 212.590632 43.092944 
L 212.84508 43.032709 
L 213.099528 42.35635 
L 213.353232 44.039112 
L 213.60768 44.265233 
L 213.862128 42.95005 
L 214.115832 45.78698 
L 214.37028 44.574624 
L 214.624728 44.363552 
L 214.878432 43.05722 
L 215.13288 45.142518 
L 215.386584 43.534854 
L 215.641032 44.977911 
L 215.894736 42.534079 
L 216.14844 44.276415 
L 216.402888 40.303645 
L 216.656592 44.127369 
L 216.910296 41.772981 
L 217.164 41.368115 
L 217.417704 44.199687 
L 217.671408 41.898285 
L 217.925112 42.251886 
L 218.178816 43.12428 
L 218.686224 42.399268 
L 218.939928 41.510108 
L 219.193632 42.195581 
L 219.447336 43.508534 
L 219.70104 43.747871 
L 220.207704 41.525521 
L 220.461408 42.486405 
L 220.715112 41.469911 
L 220.968072 43.318768 
L 221.221776 43.473465 
L 221.72844 41.812082 
L 221.9814 41.72649 
L 222.235104 43.417818 
L 222.488064 40.528201 
L 222.741024 42.556176 
L 222.994728 41.222247 
L 223.247688 44.713034 
L 223.500648 40.959965 
L 223.753608 41.966268 
L 224.259528 41.056742 
L 224.765448 42.515179 
L 225.018408 41.449595 
L 225.271368 44.294642 
L 225.524328 41.700469 
L 226.030248 42.983215 
L 226.283208 43.946927 
L 226.535424 43.870069 
L 226.788384 41.652868 
L 227.041344 40.953407 
L 227.29356 41.068149 
L 227.54652 42.365658 
L 227.798736 41.168314 
L 228.051696 41.215722 
L 228.303912 41.739624 
L 228.556872 39.724663 
L 228.809088 40.871452 
L 229.061304 40.564107 
L 229.314264 40.974664 
L 229.56648 40.693278 
L 229.818696 39.446801 
L 230.070912 39.809383 
L 230.323872 37.041722 
L 230.828304 41.501704 
L 231.08052 40.328431 
L 231.332736 41.089372 
L 231.837168 38.643239 
L 232.340856 38.850145 
L 232.593072 38.179124 
L 233.09676 41.568517 
L 233.348976 38.564324 
L 233.601192 40.224281 
L 233.852664 37.542939 
L 234.10488 37.990918 
L 234.356352 39.118597 
L 234.608568 37.072915 
L 234.86004 39.772929 
L 235.112256 34.533445 
L 235.363728 38.504759 
L 235.6152 36.915765 
L 235.866672 37.322084 
L 236.118888 35.772489 
L 236.37036 37.647442 
L 236.873304 36.305127 
L 237.879192 36.883257 
L 238.130664 37.842999 
L 238.382136 39.283734 
L 238.633608 34.146534 
L 238.884336 36.841415 
L 239.135808 36.755395 
L 239.38728 35.113506 
L 239.638752 36.64708 
L 239.88948 35.494055 
L 240.140952 36.291338 
L 240.39168 36.423293 
L 240.643152 35.695863 
L 240.89388 35.42261 
L 241.145352 34.679201 
L 241.39608 36.756039 
L 241.646808 33.539697 
L 241.89828 33.720297 
L 242.149008 34.472805 
L 242.399736 34.509751 
L 242.650464 35.625473 
L 242.901936 35.130264 
L 243.152664 35.492976 
L 243.403392 33.398414 
L 243.65412 36.264616 
L 243.904848 36.480842 
L 244.155576 34.615505 
L 244.406304 36.005539 
L 244.656288 36.197011 
L 244.907016 35.239352 
L 245.157744 33.783849 
L 245.408472 33.268779 
L 245.658456 34.54331 
L 245.909184 32.166707 
L 246.159912 30.867522 
L 246.409896 34.076308 
L 246.660624 34.316785 
L 246.910608 33.428659 
L 247.161336 34.512117 
L 247.41132 32.742548 
L 247.661304 35.648644 
L 247.912032 33.241518 
L 248.162016 32.824731 
L 248.412 33.242561 
L 248.662728 31.659844 
L 248.912712 34.873472 
L 249.162696 31.910431 
L 249.41268 30.897109 
L 250.162632 33.805694 
L 250.412616 34.486441 
L 251.161824 30.97417 
L 251.411808 32.848804 
L 251.911776 33.219484 
L 252.161016 32.101466 
L 252.66024 31.464318 
L 252.910224 31.61149 
L 253.409448 30.213042 
L 253.658688 29.664384 
L 253.908672 31.753155 
L 254.157912 29.35731 
L 254.407152 30.259134 
L 254.656392 30.045221 
L 254.906376 31.08531 
L 255.155616 28.312953 
L 255.404856 31.443676 
L 255.654096 30.983222 
L 255.903336 32.172134 
L 256.152576 28.925533 
L 256.401816 29.07469 
L 256.651056 30.448922 
L 257.148792 28.441145 
L 257.398032 28.890634 
L 257.647272 29.585431 
L 257.896512 28.502156 
L 258.145008 29.778291 
L 258.394248 30.22211 
L 258.642744 32.033681 
L 258.891984 30.094356 
L 259.14048 30.995091 
L 259.14048 30.995091 
" clip-path="url(#pb9a890a866)" style="fill: none; stroke: #bfbf00; stroke-width: 1.5; stroke-linecap: square"/>
   </g>
   <g id="line2d_16">
    <path d="M 21.230856 46.251231 
L 21.512832 33.838139 
L 21.795552 46.670145 
L 22.077528 32.64754 
L 22.360248 51.079769 
L 22.642224 51.432539 
L 22.9242 45.457499 
L 23.206176 17.28 
L 23.488896 41.621125 
L 23.770872 39.019447 
L 24.052848 51.278202 
L 24.334824 41.973895 
L 24.6168 41.3345 
L 24.898776 35.866566 
L 25.180752 45.192921 
L 25.462728 49.492305 
L 25.744704 51.344347 
L 26.02668 54.386987 
L 26.308656 48.103273 
L 26.589888 46.163038 
L 26.871864 46.096894 
L 27.15384 48.433995 
L 27.435816 55.246864 
L 27.717048 51.983742 
L 27.999024 55.29096 
L 28.280256 55.621682 
L 28.562232 48.874957 
L 29.12544 59.788777 
L 29.406672 53.923977 
L 29.96988 56.172885 
L 30.251112 64.110209 
L 30.532344 55.29096 
L 30.81432 55.379153 
L 31.095552 62.831418 
L 31.376784 61.684915 
L 31.658016 61.288049 
L 31.939248 59.325767 
L 32.22048 65.234663 
L 32.501712 65.74177 
L 32.782944 67.836341 
L 33.064176 63.228284 
L 33.345408 68.563929 
L 33.62664 64.154305 
L 33.907128 63.955872 
L 34.18836 65.940203 
L 34.469592 65.411048 
L 34.75008 66.601646 
L 35.031312 64.727556 
L 35.312544 64.948037 
L 35.593032 68.233207 
L 35.874264 65.168519 
L 36.154752 66.513454 
L 36.435984 63.492861 
L 36.716472 62.853466 
L 36.99696 63.603102 
L 37.278192 66.866224 
L 37.55868 63.97792 
L 37.839168 65.697673 
L 38.119656 60.516365 
L 38.400888 62.853466 
L 38.681376 62.368407 
L 39.242352 65.366952 
L 39.52284 60.33998 
L 39.803328 64.132257 
L 40.083816 63.933824 
L 40.644048 56.5918 
L 40.924536 61.133712 
L 41.205024 60.516365 
L 41.485512 63.360573 
L 41.765256 61.332146 
L 42.045744 62.655033 
L 42.326232 60.009258 
L 42.605976 58.972997 
L 42.886464 62.544792 
L 43.166208 62.125878 
L 43.446696 60.714798 
L 43.72644 57.076858 
L 44.286672 61.949493 
L 44.566416 58.554082 
L 44.84616 59.347815 
L 45.406392 59.546248 
L 45.686136 59.413959 
L 45.96588 57.165051 
L 46.245624 59.237574 
L 46.525368 56.34927 
L 46.805112 58.311553 
L 47.084856 58.267457 
L 47.644344 56.5918 
L 47.924088 57.231195 
L 48.203088 56.283126 
L 48.482832 56.283126 
L 48.762576 54.298795 
L 49.601064 56.194933 
L 49.880064 53.725544 
L 50.159808 56.371318 
L 50.438808 53.946025 
L 50.718552 53.879881 
L 51.276552 56.5918 
L 51.556296 53.901929 
L 51.835296 56.393366 
L 52.114296 55.64373 
L 52.67304 53.835784 
L 52.95204 57.143003 
L 53.23104 53.615303 
L 53.78904 56.768185 
L 54.06804 56.172885 
L 54.34704 55.158672 
L 54.62604 58.620227 
L 55.462296 53.240485 
L 55.741296 56.790233 
L 56.019552 54.960239 
L 56.298552 54.364939 
L 56.577552 54.585421 
L 56.855808 56.878425 
L 57.413064 55.158672 
L 57.692064 55.489394 
L 57.97032 56.746136 
L 58.248576 53.174341 
L 58.527576 55.53349 
L 58.805832 53.240485 
L 59.084088 54.607469 
L 59.362344 55.224816 
L 59.641344 52.60109 
L 59.9196 54.82795 
L 60.197856 54.872046 
L 60.476112 53.262533 
L 60.754368 52.931811 
L 61.032624 54.144458 
L 61.31088 50.48447 
L 61.589136 50.418326 
L 61.866648 51.630972 
L 62.144904 55.070479 
L 62.42316 50.726999 
L 62.701416 53.725544 
L 62.978928 51.564828 
L 63.257184 52.821571 
L 63.53544 52.24832 
L 63.812952 52.777475 
L 64.091208 52.667234 
L 64.36872 50.241941 
L 64.646976 54.409036 
L 64.924488 51.344347 
L 65.202744 50.638807 
L 65.480256 52.755427 
L 65.757768 53.549159 
L 66.03528 54.805902 
L 66.313536 53.394822 
L 66.591048 56.283126 
L 66.86856 51.410491 
L 67.146072 51.520732 
L 67.423584 53.637351 
L 67.701096 53.196389 
L 67.978608 54.916142 
L 68.25612 50.286037 
L 68.533632 53.549159 
L 68.811144 52.314464 
L 69.088656 53.262533 
L 69.365424 54.849998 
L 69.642936 51.54278 
L 69.920448 51.520732 
L 70.197216 55.224816 
L 70.474728 53.020004 
L 71.029008 55.489394 
L 71.30652 53.725544 
L 71.583288 56.70204 
L 71.8608 57.958783 
L 72.137568 57.980831 
L 72.414336 57.716254 
L 72.691848 57.120954 
L 72.968616 57.628061 
L 73.245384 56.812281 
L 73.522152 58.686371 
L 73.79892 62.434552 
L 74.075688 61.795156 
L 74.629224 59.854921 
L 74.905992 62.21407 
L 75.18276 55.64373 
L 75.459528 57.672157 
L 75.736296 57.05481 
L 76.013064 60.736846 
L 76.289832 60.670702 
L 76.565856 58.862756 
L 76.842624 60.935279 
L 77.119392 64.859845 
L 77.395416 62.169974 
L 78.224976 60.031306 
L 78.501 62.56684 
L 78.777768 59.017093 
L 79.053792 63.360573 
L 79.329816 63.51491 
L 79.606584 61.001424 
L 79.882608 61.133712 
L 80.158632 63.999968 
L 80.434656 62.941658 
L 80.711424 64.176353 
L 80.987448 63.97792 
L 81.263472 65.74177 
L 81.539496 63.27238 
L 81.81552 64.418882 
L 82.091544 60.979376 
L 82.366824 62.897562 
L 82.642848 62.192022 
L 82.918872 66.711887 
L 83.194896 65.984299 
L 83.47092 63.294428 
L 83.7462 62.147926 
L 84.022224 68.365496 
L 84.298248 69.754528 
L 84.573528 69.247421 
L 84.849552 64.198401 
L 85.124832 69.048988 
L 85.676136 66.138636 
L 85.951416 70.856934 
L 86.22744 69.13718 
L 86.50272 70.592356 
L 86.778 68.497785 
L 87.05328 68.762362 
L 87.32856 71.077415 
L 87.604584 69.930913 
L 87.879864 70.945126 
L 88.155144 68.475737 
L 88.430424 69.357662 
L 88.705704 69.357662 
L 88.980984 69.798624 
L 89.25552 69.093084 
L 89.5308 70.945126 
L 89.80608 71.981388 
L 90.08136 69.247421 
L 90.35664 70.945126 
L 90.631176 69.776576 
L 90.906456 69.511998 
L 91.180992 69.908865 
L 91.456272 71.165607 
L 92.006088 71.827051 
L 92.280624 68.189111 
L 92.83044 72.201869 
L 93.104976 69.975009 
L 93.654792 71.871147 
L 94.203864 72.708976 
L 94.4784 74.362585 
L 94.752936 73.877526 
L 95.027472 70.702597 
L 95.302008 74.009815 
L 95.576544 72.466447 
L 95.85108 75.024029 
L 96.125616 74.693307 
L 96.400152 74.142104 
L 96.674688 75.024029 
L 96.94848 73.238131 
L 97.223016 74.208248 
L 97.497552 75.59728 
L 97.771344 73.855478 
L 98.04588 75.376799 
L 98.319672 77.537514 
L 98.594208 74.406681 
L 98.868 74.318489 
L 99.142536 77.00836 
L 99.416328 77.361129 
L 99.690864 76.942215 
L 99.964656 75.288606 
L 100.238448 77.493418 
L 100.51224 77.669803 
L 100.786032 78.441487 
L 101.060568 77.405226 
L 101.608152 78.507632 
L 101.881944 77.669803 
L 102.155736 79.654134 
L 102.702576 80.183289 
L 102.976368 78.926546 
L 103.25016 81.263647 
L 103.523952 82.255812 
L 103.797744 82.718823 
L 104.070792 81.748706 
L 104.344584 82.476293 
L 104.617632 83.887373 
L 104.891424 84.173999 
L 105.164472 83.843277 
L 105.438264 84.085806 
L 105.985104 85.959897 
L 106.258152 88.274949 
L 106.5312 87.701698 
L 106.804992 86.070137 
L 107.07804 86.62134 
L 107.351088 85.408694 
L 107.624136 88.120612 
L 107.897184 88.164709 
L 108.170232 89.223018 
L 108.44328 89.575788 
L 108.716328 90.215184 
L 108.989376 91.868793 
L 109.262424 90.060847 
L 109.535472 91.030964 
L 109.80852 90.898676 
L 110.081568 92.706622 
L 110.353872 93.412161 
L 110.62692 92.706622 
L 110.899968 91.207349 
L 111.44532 96.961909 
L 111.717624 97.18239 
L 111.990672 96.12408 
L 112.262976 97.601304 
L 112.536024 93.853124 
L 112.808328 97.755641 
L 113.080632 98.924192 
L 113.35368 97.998171 
L 113.625984 98.571422 
L 113.898288 98.59347 
L 114.170592 101.415629 
L 114.442896 99.321058 
L 114.7152 98.174556 
L 114.987504 102.848757 
L 115.259808 101.966832 
L 115.532112 99.65178 
L 115.804416 102.407795 
L 116.07672 102.782613 
L 116.349024 103.532249 
L 116.621328 103.422008 
L 116.892888 106.244168 
L 117.165192 102.672372 
L 117.437496 104.083452 
L 117.709056 102.077073 
L 117.98136 103.840923 
L 118.25292 104.590559 
L 118.525224 105.97959 
L 118.796784 102.738517 
L 119.069088 106.993804 
L 119.340648 104.436222 
L 119.612208 104.590559 
L 119.884512 104.149596 
L 120.156072 106.155975 
L 120.427632 104.237789 
L 120.699192 103.995259 
L 120.970752 104.1055 
L 121.243056 107.478863 
L 121.514616 106.398505 
L 122.056992 103.091287 
L 122.328552 105.538628 
L 122.600112 105.031521 
L 122.871672 105.141762 
L 123.414792 106.200072 
L 123.685608 104.656703 
L 123.957168 108.360787 
L 124.228728 106.398505 
L 124.771104 106.045735 
L 125.04192 103.355864 
L 125.31348 107.258381 
L 125.584296 105.935494 
L 125.855112 105.62682 
L 126.126672 109.573434 
L 126.397488 105.053569 
L 126.668304 104.568511 
L 126.93912 104.722847 
L 127.21068 105.538628 
L 127.481496 104.700799 
L 127.752312 106.773323 
L 128.023128 106.949708 
L 128.293944 106.751275 
L 128.56476 106.089831 
L 128.835576 106.398505 
L 129.106392 104.590559 
L 129.64728 105.406339 
L 129.918096 103.75273 
L 130.188912 105.340195 
L 130.458984 104.546463 
L 130.7298 105.935494 
L 130.999872 104.590559 
L 131.270688 107.567055 
L 131.54076 104.877184 
L 131.811576 108.008017 
L 132.081648 104.370078 
L 132.622536 108.162354 
L 132.892608 106.442601 
L 133.16268 107.39067 
L 133.433496 108.823798 
L 133.703568 108.338739 
L 133.97364 110.278974 
L 134.243712 108.184402 
L 134.513784 111.557765 
L 134.783856 109.639578 
L 135.053928 110.719936 
L 135.324 109.485242 
L 135.594072 111.778246 
L 135.864144 111.116803 
L 136.133472 112.43969 
L 136.403544 112.285353 
L 136.673616 111.182947 
L 136.942944 114.864983 
L 137.213016 113.277518 
L 137.483088 113.387759 
L 137.752416 114.975224 
L 138.022488 117.532806 
L 138.291816 115.945341 
L 138.561144 115.283897 
L 138.831216 116.254015 
L 139.100544 114.887031 
L 139.369872 118.987982 
L 139.639944 117.24618 
L 139.909272 117.797383 
L 140.1786 120.112436 
L 140.447928 118.723404 
L 140.717256 119.693522 
L 140.986584 119.627377 
L 141.255912 120.377013 
L 141.52524 120.332917 
L 141.794568 119.01003 
L 142.063896 121.898334 
L 142.333224 120.553398 
L 142.601808 122.052671 
L 142.871136 121.457371 
L 143.140464 121.325083 
L 143.678376 124.87483 
L 144.216288 123.728328 
L 144.485616 124.477964 
L 144.7542 124.610253 
L 145.022784 125.029167 
L 145.292112 124.323627 
L 145.560696 127.123738 
L 145.82928 123.926761 
L 146.097864 124.477964 
L 146.367192 125.558322 
L 146.635776 127.763134 
L 146.90436 126.374102 
L 147.172944 126.307958 
L 147.441528 126.793017 
L 147.710112 128.16 
L 147.978696 127.763134 
L 148.24728 127.763134 
L 148.515864 125.315792 
L 148.783704 127.057594 
L 149.052288 127.10169 
L 149.320872 127.476508 
L 149.588712 127.035546 
L 149.857296 126.263862 
L 150.12588 126.484343 
L 150.39372 125.558322 
L 150.662304 127.983615 
L 150.930144 126.969401 
L 151.198728 124.87483 
L 151.734408 127.608797 
L 152.002992 127.278075 
L 152.270832 125.58037 
L 152.538672 126.462295 
L 152.806512 125.293744 
L 153.074352 125.448081 
L 153.610032 126.484343 
L 153.877872 124.720493 
L 154.145712 126.550487 
L 154.413552 124.411819 
L 154.681392 125.426033 
L 154.949232 123.750376 
L 155.217072 124.191338 
L 155.484168 122.978692 
L 155.752008 123.904713 
L 156.019848 123.640135 
L 156.286944 123.662183 
L 156.554784 124.05905 
L 156.82188 122.736162 
L 157.08972 124.786638 
L 157.356816 121.347131 
L 157.624656 120.972313 
L 157.891752 122.2952 
L 158.158848 121.854237 
L 158.426688 123.375558 
L 158.693784 123.551943 
L 158.96088 120.729783 
L 159.227976 121.94243 
L 159.495072 120.88412 
L 159.762168 121.523516 
L 160.029264 118.017864 
L 160.29636 120.994361 
L 160.563456 120.817976 
L 160.830552 121.898334 
L 161.097648 119.252559 
L 161.364744 119.82581 
L 161.631096 118.811597 
L 161.898192 120.553398 
L 162.165288 117.091843 
L 162.43164 119.296655 
L 162.698736 118.282442 
L 162.965832 118.723404 
L 163.232184 116.694977 
L 163.498536 118.458827 
L 163.765632 116.033534 
L 164.031984 115.151609 
L 164.29908 117.753287 
L 164.565432 116.739073 
L 164.831784 116.827266 
L 165.098136 116.761121 
L 165.364488 114.931127 
L 165.631584 117.224132 
L 165.897936 116.849314 
L 166.43064 116.981603 
L 166.696992 116.628833 
L 167.228952 114.181491 
L 167.495304 113.321615 
L 167.761656 116.011485 
L 168.028008 116.342207 
L 168.559968 114.688598 
L 168.825576 115.305946 
L 169.091928 113.14523 
L 169.35828 114.512213 
L 169.623888 114.269684 
L 169.889496 114.578358 
L 170.155848 112.373545 
L 170.421456 114.578358 
L 170.687064 113.872818 
L 170.953416 114.401973 
L 171.219024 111.359332 
L 171.484632 113.740529 
L 171.75024 112.08692 
L 172.015848 114.093299 
L 172.281456 114.379924 
L 172.547064 113.453903 
L 172.812672 113.057037 
L 173.07828 114.401973 
L 173.343888 112.616075 
L 173.609496 114.512213 
L 173.875104 112.682219 
L 174.139968 114.225588 
L 174.671184 112.329449 
L 175.201656 114.556309 
L 175.46652 110.962466 
L 175.732128 112.527882 
L 175.996992 111.844391 
L 176.2626 114.269684 
L 176.527464 113.740529 
L 176.792328 114.534261 
L 177.057192 113.806673 
L 177.587664 112.990893 
L 177.852528 111.469572 
L 178.382256 113.784625 
L 178.64712 115.129561 
L 179.176848 111.182947 
L 179.441712 115.107512 
L 179.706576 111.535717 
L 179.970696 111.888487 
L 180.23556 113.586192 
L 180.500424 111.006562 
L 180.764544 112.373545 
L 181.029408 112.527882 
L 181.294272 112.461738 
L 181.558392 114.490165 
L 181.823256 110.543551 
L 182.087376 110.896321 
L 182.351496 112.726315 
L 182.61636 112.660171 
L 182.88048 113.057037 
L 183.1446 111.976679 
L 183.409464 112.814508 
L 183.937704 109.26476 
L 184.465944 113.034989 
L 184.730064 109.485242 
L 184.994184 110.940418 
L 185.258304 113.475951 
L 185.522424 110.411263 
L 185.786544 109.61753 
L 186.57816 111.932583 
L 186.841536 111.315236 
L 187.105656 111.006562 
L 187.369776 111.800294 
L 187.633152 111.976679 
L 187.897272 108.44898 
L 188.160648 110.808129 
L 188.424024 111.425476 
L 188.688144 110.543551 
L 189.479016 109.308857 
L 189.742392 110.5656 
L 190.005768 107.897777 
L 190.269144 111.138851 
L 190.53252 108.867894 
L 190.795896 108.691509 
L 191.059272 110.653792 
L 191.322648 109.419097 
L 191.586024 109.485242 
L 191.848656 111.02861 
L 192.112032 109.595482 
L 192.375408 109.088375 
L 192.638784 107.478863 
L 192.901416 107.831633 
L 193.164792 106.663082 
L 193.428168 109.26476 
L 193.6908 108.471028 
L 193.953432 106.552842 
L 194.216808 107.258381 
L 194.47944 108.647413 
L 195.005448 106.442601 
L 195.26808 107.346574 
L 195.530712 106.310312 
L 195.794088 108.581269 
L 196.05672 106.089831 
L 196.319352 108.581269 
L 196.581984 105.97959 
L 196.844616 106.949708 
L 197.107248 106.089831 
L 197.36988 105.759109 
L 197.631768 105.913446 
L 197.8944 108.867894 
L 198.157032 107.875729 
L 198.419664 105.781157 
L 198.681552 110.102589 
L 198.944184 105.141762 
L 199.206816 104.722847 
L 199.468704 107.478863 
L 199.731336 106.552842 
L 199.993224 106.442601 
L 200.255856 105.16381 
L 200.517744 103.28972 
L 200.779632 102.518035 
L 201.042264 104.414174 
L 201.304152 103.885019 
L 201.56604 103.885019 
L 201.827928 103.28972 
L 202.089816 105.185858 
L 202.351704 104.788992 
L 202.613592 103.04719 
L 202.87548 102.826709 
L 203.137368 107.081996 
L 203.399256 102.077073 
L 203.661144 103.598393 
L 203.923032 102.892853 
L 204.18492 104.987425 
L 204.446064 101.547918 
L 204.707952 103.708634 
L 204.96984 104.061404 
L 205.230984 105.252002 
L 205.492872 104.700799 
L 205.754016 103.28972 
L 206.015904 101.217196 
L 206.277048 103.686586 
L 206.538192 104.700799 
L 206.80008 103.311768 
L 207.322368 97.53516 
L 207.583512 101.569966 
L 207.8454 101.040811 
L 208.106544 101.327437 
L 208.367688 99.100577 
L 208.628832 99.210817 
L 208.889976 99.563587 
L 209.15112 98.372989 
L 209.41152 99.078529 
L 209.672664 102.870805 
L 209.933808 100.35732 
L 210.194952 96.278417 
L 210.456096 100.11479 
L 210.716496 102.121169 
L 210.97764 98.924192 
L 211.23804 98.747807 
L 211.499184 100.754186 
L 211.759584 98.725759 
L 212.020728 100.798282 
L 212.281128 99.431298 
L 212.541528 97.248534 
L 212.802672 99.938405 
L 213.063072 101.261293 
L 213.323472 97.446968 
L 213.583872 98.130459 
L 213.845016 97.160342 
L 214.105416 97.53516 
L 214.365816 97.402871 
L 214.626216 98.615518 
L 214.886616 96.71938 
L 215.146272 99.673828 
L 215.667072 94.933482 
L 215.927472 97.314679 
L 216.187872 98.2407 
L 216.447528 95.264204 
L 216.707928 94.95553 
L 216.967584 98.880095 
L 217.227984 98.968288 
L 217.488384 97.711545 
L 217.74804 97.491064 
L 218.007696 94.492519 
L 218.268096 92.993247 
L 218.527752 94.294086 
L 218.787408 96.454802 
L 219.047808 96.168177 
L 219.307464 98.306844 
L 219.56712 96.388658 
L 219.826776 95.66107 
L 220.086432 96.01384 
L 220.346088 94.139749 
L 220.605744 95.925647 
L 220.8654 95.969743 
L 221.125056 97.336727 
L 221.384712 95.925647 
L 221.643624 98.372989 
L 221.90328 97.777689 
L 222.162936 96.035888 
L 222.421848 93.43421 
L 222.681504 96.344562 
L 222.94116 93.125536 
L 223.200072 92.464092 
L 223.459728 95.727214 
L 223.977552 93.632643 
L 224.237208 92.662525 
L 224.49612 93.963364 
L 224.755032 94.227942 
L 225.014688 92.397948 
L 225.2736 92.530237 
L 225.532512 92.309755 
L 225.791424 92.574333 
L 226.050336 91.912889 
L 226.309248 92.001082 
L 226.56816 93.169632 
L 226.827072 93.478306 
L 227.344152 92.750718 
L 227.861976 94.360231 
L 228.120144 94.007461 
L 228.379056 90.986868 
L 228.637968 96.12408 
L 228.896136 90.545906 
L 229.155048 91.956985 
L 229.413216 88.980489 
L 229.671384 93.169632 
L 229.930296 90.744339 
L 230.188464 93.963364 
L 230.446632 92.706622 
L 230.705544 92.662525 
L 231.22188 89.377355 
L 231.480048 93.059392 
L 231.738216 94.051557 
L 231.996384 89.950606 
L 232.254552 93.323969 
L 232.51272 93.720835 
L 232.770888 89.311211 
L 233.029056 91.516023 
L 233.544648 90.14904 
L 233.802816 90.986868 
L 234.06024 92.530237 
L 234.318408 90.016751 
L 234.575832 92.02313 
L 234.834 90.590002 
L 235.091424 90.722291 
L 235.349592 86.180378 
L 235.607016 89.90651 
L 235.86444 88.296997 
L 236.122608 88.142661 
L 236.380032 91.560119 
L 236.89488 90.898676 
L 237.152304 86.819773 
L 237.409728 86.687485 
L 237.667152 88.230853 
L 237.924576 90.50181 
L 238.182 88.649767 
L 238.439424 88.73796 
L 238.696848 91.008916 
L 238.954272 87.393024 
L 239.210952 90.986868 
L 239.468376 89.112778 
L 239.7258 88.892297 
L 239.98248 86.687485 
L 240.239904 91.626264 
L 240.754008 86.665436 
L 241.010688 89.068682 
L 241.268112 85.122068 
L 241.524792 90.744339 
L 241.781472 91.604216 
L 242.038152 86.555196 
L 242.295576 87.216639 
L 242.552256 87.393024 
L 242.808936 90.766387 
L 243.065616 87.040255 
L 243.322296 90.104943 
L 243.578976 90.325425 
L 244.092336 86.775677 
L 244.348272 91.030964 
L 244.604952 87.194591 
L 244.861632 86.555196 
L 245.118312 89.950606 
L 245.374248 85.717367 
L 245.630928 87.701698 
L 246.143544 85.981945 
L 246.39948 87.613506 
L 246.65616 86.003993 
L 246.912096 83.512555 
L 247.936584 91.141205 
L 248.19252 85.45279 
L 248.448456 90.876628 
L 248.704392 88.098564 
L 248.960328 88.054468 
L 249.216264 86.841821 
L 249.4722 87.988324 
L 249.728136 89.686029 
L 249.984072 90.545906 
L 250.240008 86.643388 
L 250.495944 89.575788 
L 251.007072 84.04171 
L 251.262264 87.833987 
L 251.5182 87.922179 
L 251.773392 85.430742 
L 252.029328 88.230853 
L 252.540456 88.627719 
L 252.795648 85.011827 
L 253.561968 83.953518 
L 253.81716 85.871704 
L 254.072352 86.334715 
L 254.327544 83.710988 
L 254.582736 85.033876 
L 254.837928 84.614961 
L 255.09312 83.887373 
L 255.348312 84.901587 
L 255.60276 82.63063 
L 255.857952 87.811939 
L 256.113144 86.643388 
L 256.368336 83.159785 
L 256.622784 84.306288 
L 256.877976 79.102931 
L 257.132424 85.981945 
L 257.387616 85.651223 
L 257.642064 81.351839 
L 257.897256 79.654134 
L 258.151704 80.40377 
L 258.406152 79.808471 
L 258.661344 84.614961 
L 258.915792 84.791346 
L 259.17024 81.417984 
L 259.17024 81.417984 
" clip-path="url(#pb9a890a866)" style="fill: none; stroke: #0000ff; stroke-width: 1.5; stroke-linecap: square"/>
   </g>
   <g id="line2d_17">
    <path d="M 36.20832 122.644153 
L 36.4836 122.344902 
L 37.83768 118.932445 
L 38.11296 118.943734 
L 38.3808 118.220551 
L 38.65608 118.533997 
L 38.92392 118.15846 
L 39.1992 116.479251 
L 39.46704 117.037244 
L 39.73488 116.033487 
L 40.01016 116.867405 
L 40.278 115.866554 
L 40.55328 115.805625 
L 40.82112 114.905962 
L 41.63208 113.580293 
L 41.90736 112.918372 
L 42.1752 113.440255 
L 42.45048 112.079224 
L 42.9936 110.590606 
L 43.26144 110.690301 
L 45.42648 99.123358 
L 45.69432 97.277216 
L 45.9696 94.413289 
L 46.51272 92.224814 
L 46.78056 90.03584 
L 47.0484 86.816879 
L 47.32368 86.055927 
L 48.13464 79.141279 
L 48.40248 78.54012 
L 48.67032 73.121146 
L 48.9456 75.100602 
L 49.48128 69.047016 
L 50.0244 67.697025 
L 50.29224 65.456004 
L 50.56752 64.974214 
L 50.83536 61.426617 
L 51.1032 61.887903 
L 51.37848 58.681726 
L 51.91416 56.671307 
L 52.18944 51.665307 
L 52.45728 48.889785 
L 52.72512 48.278334 
L 53.0004 43.88337 
L 53.26824 46.226244 
L 54.0792 38.072506 
L 54.34704 34.659301 
L 54.61488 35.880378 
L 54.88272 32.932362 
L 55.158 31.728302 
L 55.42584 31.560788 
L 55.69368 31.546427 
L 55.96896 30.331327 
L 56.50464 25.835922 
L 56.77248 26.844991 
L 57.04776 22.712505 
L 57.3156 24.7675 
L 57.58344 19.134443 
L 57.85128 19.320302 
L 58.12656 22.567072 
L 58.3944 21.043174 
L 58.66224 17.396463 
L 58.93008 22.363863 
L 59.19792 17.28 
L 59.4732 23.218617 
L 59.74104 22.05739 
L 60.00888 23.494127 
L 60.27672 23.166238 
L 60.552 24.084494 
L 60.81984 24.42193 
L 61.08768 26.466548 
L 61.35552 21.641261 
L 61.62336 25.897515 
L 61.89864 26.62626 
L 62.70216 31.447147 
L 62.97 30.436501 
L 63.23784 32.07105 
L 63.51312 34.974905 
L 63.78096 35.257056 
L 64.0488 38.231802 
L 64.31664 38.006098 
L 64.58448 41.244151 
L 64.85232 41.037041 
L 65.1276 40.016517 
L 65.39544 42.30809 
L 65.66328 42.20109 
L 65.93112 42.385206 
L 66.4668 43.482432 
L 66.73464 42.562765 
L 67.00992 42.713428 
L 67.5456 45.530205 
L 67.81344 44.759375 
L 68.08128 43.096353 
L 68.34912 44.150331 
L 68.61696 47.008779 
L 68.8848 45.327329 
L 69.16008 45.99365 
L 69.42792 45.893623 
L 69.69576 45.185133 
L 70.23144 47.430885 
L 70.49928 47.041319 
L 70.76712 45.829706 
L 71.03496 46.760828 
L 71.3028 44.844045 
L 71.57064 45.542906 
L 71.84592 46.7126 
L 72.11376 45.656796 
L 72.3816 46.271153 
L 72.91728 47.97211 
L 73.45296 54.294233 
L 73.7208 54.90942 
L 73.98864 55.113542 
L 74.25648 49.50655 
L 74.52432 49.418642 
L 74.79216 49.018285 
L 75.06 51.210827 
L 75.32784 52.085753 
L 75.59568 51.013762 
L 75.86352 51.05261 
L 76.13136 48.071224 
L 76.3992 49.834854 
L 76.66704 47.934258 
L 76.93488 48.788845 
L 77.20272 50.453776 
L 77.47056 49.957377 
L 77.7384 49.152014 
L 78.00624 49.20705 
L 78.27408 49.82979 
L 78.54192 51.21199 
L 78.80976 53.643186 
L 79.0776 53.539506 
L 79.34544 54.181423 
L 79.61328 54.477187 
L 79.88112 55.479284 
L 80.4168 53.678133 
L 80.68464 53.602345 
L 80.95248 55.512986 
L 81.22032 55.152224 
L 81.48816 56.052966 
L 81.756 57.764714 
L 82.02384 57.070004 
L 82.55952 62.754527 
L 82.82736 63.462436 
L 83.36304 65.948336 
L 83.63088 64.937441 
L 83.89872 65.525317 
L 84.16656 65.120893 
L 84.4344 65.207223 
L 84.70224 65.51959 
L 84.96264 64.634537 
L 85.49832 68.849369 
L 85.76616 69.476593 
L 86.034 72.392567 
L 86.30184 73.372334 
L 86.56968 75.726082 
L 87.10536 77.899532 
L 87.6336 76.465618 
L 87.90144 76.223312 
L 88.16928 77.056151 
L 88.43712 76.52057 
L 88.70496 76.38817 
L 88.9728 77.541842 
L 89.24064 78.121169 
L 89.50848 76.519657 
L 89.76888 78.019565 
L 90.03672 77.715499 
L 91.10808 82.791974 
L 91.37592 81.378231 
L 91.63632 82.166328 
L 91.90416 81.319626 
L 92.43984 80.663848 
L 92.70768 81.656647 
L 93.23592 80.42702 
L 93.7716 83.059018 
L 94.56768 84.53701 
L 95.10336 85.806067 
L 95.3712 86.073027 
L 96.16728 88.793762 
L 96.43512 88.858427 
L 96.70296 91.127671 
L 96.9708 91.671552 
L 97.2312 90.59898 
L 97.49904 90.929609 
L 98.29512 92.445703 
L 98.8308 92.944842 
L 99.35904 94.230003 
L 99.62688 93.500594 
L 100.16256 94.521368 
L 100.42296 94.430306 
L 100.6908 94.477538 
L 100.95864 95.818399 
L 101.22648 95.718289 
L 101.48688 96.221827 
L 101.75472 96.164384 
L 102.02256 96.465959 
L 102.28296 96.960533 
L 102.5508 98.259971 
L 102.81864 97.851064 
L 103.07904 98.85839 
L 103.34688 98.883791 
L 103.61472 98.627041 
L 104.4108 101.828072 
L 104.67864 101.825499 
L 104.93904 103.210271 
L 105.20688 103.146852 
L 105.73512 103.793997 
L 106.00296 103.686002 
L 106.2708 104.164305 
L 106.5312 103.821142 
L 106.79904 104.560844 
L 107.06688 104.688098 
L 107.32728 104.533201 
L 107.59512 105.655911 
L 107.86296 105.407629 
L 108.12336 106.121514 
L 108.3912 106.433217 
L 108.91944 106.669463 
L 109.18728 107.295358 
L 109.44768 107.293864 
L 109.98336 108.212038 
L 110.24376 109.103482 
L 110.5116 108.865741 
L 111.03984 109.656162 
L 111.30768 110.098356 
L 111.56808 109.944041 
L 111.83592 110.229263 
L 112.36416 111.238997 
L 112.8924 111.353965 
L 113.42064 112.635557 
L 113.68848 112.522165 
L 113.94888 112.717902 
L 114.21672 113.347367 
L 114.47712 113.612833 
L 115.2732 113.796036 
L 115.54104 114.450487 
L 116.06928 115.007152 
L 116.32968 114.967805 
L 116.59752 115.366834 
L 117.12576 115.469517 
L 117.38616 115.60582 
L 117.9144 116.504154 
L 118.44264 116.923188 
L 118.71048 116.633898 
L 118.97088 117.482177 
L 119.23872 117.51397 
L 119.49912 117.405891 
L 120.02736 118.080679 
L 120.2952 117.73901 
L 120.5556 118.073955 
L 120.82344 118.230512 
L 121.08384 118.737454 
L 121.61208 118.537815 
L 121.87992 118.631367 
L 122.14032 119.221236 
L 122.40816 119.171264 
L 122.66856 119.266311 
L 123.1968 119.733159 
L 123.4572 119.743535 
L 123.72504 120.022781 
L 123.98544 119.932217 
L 124.25328 120.362624 
L 124.51368 120.256039 
L 124.77408 120.565002 
L 125.04192 120.424715 
L 125.30232 120.635228 
L 125.83056 120.789295 
L 126.0984 121.201439 
L 126.3588 121.064224 
L 126.6192 121.171141 
L 127.14744 121.713528 
L 127.41528 121.486247 
L 127.93608 121.76433 
L 128.20392 121.641724 
L 128.46432 122.121439 
L 128.72472 121.776367 
L 129.51336 122.382505 
L 129.7812 122.332201 
L 130.56984 122.644153 
L 130.83024 122.975695 
L 131.09808 122.817229 
L 131.35848 123.047581 
L 131.88672 122.589947 
L 132.40752 123.505381 
L 132.67536 122.98798 
L 132.93576 123.376467 
L 133.19616 123.555021 
L 133.464 123.354303 
L 134.2452 123.833603 
L 134.77344 123.579841 
L 135.03384 124.100397 
L 135.30168 123.989413 
L 136.08288 124.309499 
L 136.35072 124.237778 
L 136.61112 123.8556 
L 136.87152 124.389106 
L 137.66016 124.55139 
L 137.92056 124.452193 
L 138.9696 124.971587 
L 139.49784 124.882517 
L 139.75824 125.054265 
L 140.01864 125.069538 
L 140.27904 124.822833 
L 140.54688 125.189156 
L 140.80728 125.283704 
L 141.06768 125.257556 
L 141.32808 125.017657 
L 141.58848 125.016163 
L 141.85632 125.445657 
L 142.11672 125.11287 
L 142.37712 125.450471 
L 142.63752 125.355093 
L 142.89792 125.574239 
L 143.42616 125.460183 
L 143.68656 125.803845 
L 143.94696 125.66721 
L 144.46776 125.710791 
L 144.996 125.17438 
L 146.0376 126.014607 
L 146.298 126.22786 
L 146.82624 126.06101 
L 147.08664 126.09687 
L 147.34704 126.338844 
L 147.60744 126.1534 
L 147.86784 126.342164 
L 148.12824 126.361755 
L 148.38864 126.197312 
L 148.65648 126.461699 
L 149.95848 126.474399 
L 150.47928 126.726584 
L 151.00008 126.563718 
L 152.04912 126.902648 
L 153.61152 126.779876 
L 153.87192 127.107101 
L 154.13232 127.063023 
L 154.39272 126.796229 
L 154.65312 127.033804 
L 154.91352 127.026416 
L 155.17392 127.202978 
L 155.43432 127.118723 
L 155.69472 126.889864 
L 155.95512 127.111335 
L 156.21552 126.894181 
L 156.47592 127.177162 
L 157.51752 127.302673 
L 157.77792 126.955525 
L 158.03832 127.376054 
L 158.29872 127.212358 
L 158.55912 127.347166 
L 158.81952 127.348909 
L 159.07992 127.081617 
L 159.34032 127.502644 
L 159.60072 127.33073 
L 160.38192 127.420547 
L 160.64232 127.376303 
L 160.90272 127.589472 
L 161.15568 127.376635 
L 161.41608 127.395644 
L 161.67648 127.279098 
L 162.45768 127.599932 
L 162.71808 127.463546 
L 163.23888 127.567641 
L 163.75968 127.534686 
L 164.02008 127.288644 
L 164.27304 127.415982 
L 164.53344 127.384438 
L 164.79384 127.578349 
L 165.05424 127.607237 
L 165.57504 127.9118 
L 166.3488 127.690662 
L 166.6092 127.541576 
L 166.8696 127.796416 
L 167.13 127.78604 
L 167.3904 127.519163 
L 167.9112 127.489777 
L 168.16416 127.775664 
L 168.42456 127.82547 
L 168.68496 127.629898 
L 169.20576 127.666921 
L 169.45872 127.487951 
L 169.71912 127.763046 
L 169.97952 127.728431 
L 170.23992 127.905242 
L 171.27408 127.716478 
L 171.53448 127.588891 
L 171.79488 127.776494 
L 172.30824 127.669328 
L 172.56864 127.860915 
L 172.82904 127.857429 
L 173.08944 128.038971 
L 173.8632 127.864318 
L 174.37656 128.116337 
L 174.63696 127.681447 
L 175.15776 128.104715 
L 175.41072 127.780063 
L 175.67112 128.08637 
L 175.93152 127.898436 
L 176.19192 128.013155 
L 177.21864 127.767197 
L 177.47904 127.946415 
L 177.73944 127.906903 
L 177.9924 128.143066 
L 178.7736 127.983106 
L 179.02656 127.948906 
L 179.28696 128.026852 
L 179.54736 127.877019 
L 180.06072 128.031002 
L 180.83448 127.975386 
L 181.09488 128.16 
L 181.8612 127.804468 
L 182.382 128.135346 
L 182.63496 127.954052 
L 182.89536 128.060969 
L 183.15576 127.883411 
L 183.92952 128.029591 
L 184.18248 127.996304 
L 184.44288 127.72453 
L 184.69584 128.065867 
L 184.69584 128.065867 
" clip-path="url(#pb9a890a866)" style="fill: none; stroke: #00bfbf; stroke-width: 1.5; stroke-linecap: square"/>
   </g>
   <g id="patch_3">
    <path d="M 36 128.16 
L 36 17.28 
" style="fill: none; stroke: #000000; stroke-width: 0.8; stroke-linejoin: miter; stroke-linecap: square"/>
   </g>
   <g id="patch_4">
    <path d="M 36 128.16 
L 259.2 128.16 
" style="fill: none; stroke: #000000; stroke-width: 0.8; stroke-linejoin: miter; stroke-linecap: square"/>
   </g>
  </g>
 </g>
 <defs>
  <clipPath id="pb9a890a866">
   <rect x="36" y="17.28" width="223.2" height="110.88"/>
  </clipPath>
 </defs>
</svg>
