<?xml version="1.0" encoding="utf-8" standalone="no"?>
<!DOCTYPE svg PUBLIC "-//W3C//DTD SVG 1.1//EN"
  "http://www.w3.org/Graphics/SVG/1.1/DTD/svg11.dtd">
<svg xmlns:xlink="http://www.w3.org/1999/xlink" width="162pt" height="162pt" viewBox="0 0 162 162" xmlns="http://www.w3.org/2000/svg" version="1.1">
 <metadata>
  <rdf:RDF xmlns:dc="http://purl.org/dc/elements/1.1/" xmlns:cc="http://creativecommons.org/ns#" xmlns:rdf="http://www.w3.org/1999/02/22-rdf-syntax-ns#">
   <cc:Work>
    <dc:type rdf:resource="http://purl.org/dc/dcmitype/StillImage"/>
    <dc:date>2025-12-04T16:42:17.059766</dc:date>
    <dc:format>image/svg+xml</dc:format>
    <dc:creator>
     <cc:Agent>
      <dc:title>Matplotlib v3.10.7, https://matplotlib.org/</dc:title>
     </cc:Agent>
    </dc:creator>
   </cc:Work>
  </rdf:RDF>
 </metadata>
 <defs>
  <style type="text/css">*{stroke-linejoin: round; stroke-linecap: butt}</style>
 </defs>
 <g id="figure_1">
  <g id="patch_1">
   <path d="M 0 162 
L 162 162 
L 162 0 
L 0 0 
z
" style="fill: #ffffff"/>
  </g>
  <g id="axes_1">
   <g id="patch_2">
    <path d="M 44.93 124 
L 150.788571 124 
L 150.788571 20.7 
L 44.93 20.7 
z
" style="fill: #ffffff"/>
   </g>
   <g id="FillBetweenPolyCollection_1">
    <path d="M 45.434088 565.277935 
L 45.434088 645.449956 
L 45.781518 585.381719 
L 46.128947 525.958857 
L 46.476377 467.841286 
L 46.823806 411.688924 
L 47.171235 358.161686 
L 47.518665 307.919488 
L 47.866094 261.622248 
L 48.213523 219.929882 
L 48.560953 183.502305 
L 48.908382 152.999435 
L 49.255812 129.081187 
L 49.603241 112.407479 
L 49.95067 103.638226 
L 50.2981 99.712269 
L 50.645529 96.199579 
L 50.992958 93.053799 
L 51.340388 90.242383 
L 51.687817 87.732783 
L 52.035247 85.492454 
L 52.382676 83.488849 
L 52.730105 81.68942 
L 53.077535 80.061621 
L 53.424964 78.572905 
L 53.772393 77.190726 
L 54.119823 75.882537 
L 54.467252 74.61579 
L 54.814681 73.35794 
L 55.162111 72.086658 
L 55.50954 70.860991 
L 55.85697 69.694276 
L 56.204399 68.583896 
L 56.551828 67.527232 
L 56.899258 66.521668 
L 57.246687 65.564586 
L 57.594116 64.653367 
L 57.941546 63.785393 
L 58.288975 62.958048 
L 58.636405 62.168714 
L 58.983834 61.414772 
L 59.331263 60.693606 
L 59.678693 60.002596 
L 60.026122 59.339126 
L 60.373551 58.700327 
L 60.720981 58.08466 
L 61.06841 57.491796 
L 61.41584 56.921409 
L 61.763269 56.373176 
L 62.110698 55.846772 
L 62.458128 55.341872 
L 62.805557 54.858151 
L 63.152986 54.395285 
L 63.500416 53.952948 
L 63.847845 53.530817 
L 64.195275 53.128565 
L 64.542704 52.745869 
L 64.890133 52.379919 
L 65.237563 52.026306 
L 65.584992 51.684659 
L 65.932421 51.354667 
L 66.279851 51.036019 
L 66.62728 50.728403 
L 66.97471 50.431508 
L 67.322139 50.145023 
L 67.669568 49.868637 
L 68.016998 49.602038 
L 68.364427 49.344915 
L 68.711856 49.096958 
L 69.059286 48.857854 
L 69.406715 48.627292 
L 69.754145 48.404928 
L 70.101574 48.190048 
L 70.449003 47.982207 
L 70.796433 47.781066 
L 71.143862 47.58629 
L 71.491291 47.397542 
L 71.838721 47.214486 
L 72.18615 47.036783 
L 72.53358 46.864098 
L 72.881009 46.696094 
L 73.228438 46.532434 
L 73.575868 46.372781 
L 73.923297 46.216799 
L 74.270726 46.064151 
L 74.618156 45.9145 
L 74.965585 45.768072 
L 75.313014 45.62559 
L 75.660444 45.48686 
L 76.007873 45.351674 
L 76.355303 45.219821 
L 76.702732 45.091092 
L 77.050161 44.965276 
L 77.397591 44.842164 
L 77.74502 44.721545 
L 78.092449 44.60321 
L 78.439879 44.486949 
L 78.787308 44.372552 
L 79.134738 44.259809 
L 79.482167 44.14872 
L 79.829596 44.039596 
L 80.177026 43.932381 
L 80.524455 43.827004 
L 80.871884 43.723392 
L 81.219314 43.621475 
L 81.566743 43.52118 
L 81.914173 43.422437 
L 82.261602 43.325174 
L 82.609031 43.22932 
L 82.956461 43.134802 
L 83.30389 43.041551 
L 83.651319 42.949493 
L 83.998749 42.858558 
L 84.346178 42.768686 
L 84.693608 42.680008 
L 85.041037 42.592558 
L 85.388466 42.506302 
L 85.735896 42.421205 
L 86.083325 42.337232 
L 86.430754 42.254349 
L 86.778184 42.17252 
L 87.125613 42.091711 
L 87.473043 42.011888 
L 87.820472 41.933015 
L 88.167901 41.855059 
L 88.515331 41.777983 
L 88.86276 41.701754 
L 89.210189 41.626337 
L 89.557619 41.551725 
L 89.905048 41.477962 
L 90.252478 41.405051 
L 90.599907 41.332992 
L 90.947336 41.261787 
L 91.294766 41.191434 
L 91.642195 41.121935 
L 91.989624 41.05329 
L 92.337054 40.985499 
L 92.684483 40.918562 
L 93.031913 40.85248 
L 93.379342 40.787252 
L 93.726771 40.722881 
L 94.074201 40.659295 
L 94.42163 40.596315 
L 94.769059 40.533948 
L 95.116489 40.472215 
L 95.463918 40.411135 
L 95.811347 40.350728 
L 96.158777 40.291015 
L 96.506206 40.232015 
L 96.853636 40.173749 
L 97.201065 40.116236 
L 97.548494 40.059496 
L 97.895924 40.00355 
L 98.243353 39.948417 
L 98.590782 39.894118 
L 98.938212 39.840665 
L 99.285641 39.787863 
L 99.633071 39.735627 
L 99.9805 39.683978 
L 100.327929 39.632935 
L 100.675359 39.582518 
L 101.022788 39.532746 
L 101.370217 39.483638 
L 101.717647 39.435216 
L 102.065076 39.387498 
L 102.412506 39.340504 
L 102.759935 39.294254 
L 103.107364 39.248767 
L 103.454794 39.204063 
L 103.802223 39.160161 
L 104.149652 39.116994 
L 104.497082 39.074332 
L 104.844511 39.032196 
L 105.191941 38.990627 
L 105.53937 38.949665 
L 105.886799 38.909351 
L 106.234229 38.869724 
L 106.581658 38.830824 
L 106.929087 38.792691 
L 107.276517 38.755366 
L 107.623946 38.718888 
L 107.971376 38.683299 
L 108.318805 38.648636 
L 108.666234 38.614807 
L 109.013664 38.581371 
L 109.361093 38.548336 
L 109.708522 38.515755 
L 110.055952 38.483682 
L 110.403381 38.45217 
L 110.750811 38.421273 
L 111.09824 38.391042 
L 111.445669 38.361533 
L 111.793099 38.332797 
L 112.140528 38.304889 
L 112.487957 38.27786 
L 112.835387 38.251765 
L 113.182816 38.226657 
L 113.530245 38.202582 
L 113.877675 38.17906 
L 114.225104 38.155827 
L 114.572534 38.132952 
L 114.919963 38.110506 
L 115.267392 38.088559 
L 115.614822 38.067183 
L 115.962251 38.046447 
L 116.30968 38.026423 
L 116.65711 38.007181 
L 117.004539 37.988791 
L 117.351969 37.971324 
L 117.699398 37.954851 
L 118.046827 37.939442 
L 118.394257 37.925168 
L 118.741686 37.911774 
L 119.089115 37.898144 
L 119.436545 37.884379 
L 119.783974 37.870706 
L 120.131404 37.857354 
L 120.478833 37.844549 
L 120.826262 37.83252 
L 121.173692 37.821494 
L 121.521121 37.811699 
L 121.86855 37.803364 
L 122.21598 37.796714 
L 122.563409 37.791979 
L 122.910839 37.789386 
L 123.258268 37.788773 
L 123.605697 37.78842 
L 123.953127 37.788092 
L 124.300556 37.787791 
L 124.647985 37.787516 
L 124.995415 37.787267 
L 125.342844 37.787045 
L 125.690274 37.786849 
L 126.037703 37.786679 
L 126.385132 37.786535 
L 126.732562 37.786418 
L 127.079991 37.786327 
L 127.42742 37.786262 
L 127.77485 37.786224 
L 128.122279 37.786217 
L 128.469709 37.788482 
L 128.817138 37.794441 
L 129.164567 37.803499 
L 129.511997 37.81506 
L 129.859426 37.828528 
L 130.206855 37.843309 
L 130.554285 37.858806 
L 130.901714 37.874425 
L 131.249144 37.88957 
L 131.596573 37.903645 
L 131.944002 37.916054 
L 132.291432 37.926203 
L 132.638861 37.933496 
L 132.98629 37.937337 
L 133.33372 35.977714 
L 133.681149 31.654081 
L 134.028578 31.607481 
L 134.376008 31.564074 
L 134.723437 31.517853 
L 135.070867 31.471862 
L 135.418296 31.426142 
L 135.765725 31.38073 
L 136.113155 31.335668 
L 136.460584 31.290992 
L 136.808013 31.246735 
L 137.155443 31.202835 
L 137.502872 31.159271 
L 137.850302 31.116044 
L 138.197731 31.073153 
L 138.54516 31.030599 
L 138.89259 30.988381 
L 139.240019 30.9465 
L 139.587448 30.904943 
L 139.934878 30.863705 
L 140.282307 30.822784 
L 140.629737 30.782181 
L 140.977166 30.741897 
L 141.324595 30.70193 
L 141.672025 30.662281 
L 142.019454 30.622937 
L 142.366883 30.58388 
L 142.714313 30.545119 
L 143.061742 30.506663 
L 143.409172 30.468519 
L 143.756601 30.430696 
L 144.10403 30.393201 
L 144.45146 30.356029 
L 144.798889 30.319129 
L 145.146318 30.282496 
L 145.493748 30.246129 
L 145.841177 30.210028 
L 146.188607 30.174194 
L 146.536036 30.138627 
L 146.883465 30.103326 
L 147.230895 30.068291 
L 147.578324 30.033536 
L 147.925753 29.999075 
L 148.273183 29.9649 
L 148.620612 29.931005 
L 148.968042 29.897381 
L 149.315471 29.864021 
L 149.6629 29.830919 
L 150.01033 29.798068 
L 150.357759 29.765467 
L 150.705188 29.733116 
L 151.052618 29.701016 
L 151.400047 29.669166 
L 151.747476 29.637567 
L 152.094906 29.606218 
L 152.442335 29.575118 
L 152.789765 29.544258 
L 153.137194 29.513634 
L 153.484623 29.483247 
L 153.832053 29.453096 
L 154.179482 29.423182 
L 154.526911 29.393504 
L 154.874341 29.364063 
L 155.22177 29.334842 
L 155.5692 29.305837 
L 155.916629 29.277053 
L 156.264058 29.248498 
L 156.611488 29.220177 
L 156.958917 29.192096 
L 157.306346 29.164262 
L 157.653776 29.136657 
L 158.001205 29.109251 
L 158.348635 29.082044 
L 158.696064 29.055035 
L 159.043493 29.028224 
L 159.390923 29.001611 
L 159.738352 28.975197 
L 160.085781 28.948981 
L 160.433211 28.922964 
L 160.78064 28.897161 
L 161.12807 28.871574 
L 161.475499 28.8462 
L 161.822928 28.821031 
L 162.170358 28.796064 
L 162.517787 28.771291 
L 162.865216 28.746709 
L 163.212646 28.722313 
L 163.560075 28.698103 
L 163.907505 28.674079 
L 164.254934 28.650242 
L 164.602363 28.626591 
L 164.949793 28.603127 
L 165.297222 28.579849 
L 165.644651 28.556755 
L 165.992081 28.533837 
L 166.33951 28.511096 
L 166.68694 28.488531 
L 167.034369 28.466141 
L 167.381798 28.443928 
L 167.729228 28.421891 
L 168.076657 28.400028 
L 168.424086 28.378326 
L 168.771516 28.356786 
L 169.118945 28.335412 
L 169.466375 28.314209 
L 169.813804 28.293182 
L 170.161233 28.272334 
L 170.508663 28.251671 
L 170.856092 28.231169 
L 171.203521 28.210815 
L 171.550951 28.190608 
L 171.89838 28.170549 
L 172.245809 28.150637 
L 172.593239 28.130873 
L 172.940668 28.111257 
L 173.288098 28.091788 
L 173.635527 28.072469 
L 173.982956 28.053311 
L 174.330386 28.034314 
L 174.677815 28.015473 
L 175.025244 27.996785 
L 175.372674 27.978245 
L 175.720103 27.959849 
L 176.067533 27.941593 
L 176.414962 27.923476 
L 176.762391 27.905498 
L 177.109821 27.887658 
L 177.45725 27.869957 
L 177.804679 27.852394 
L 178.152109 27.834971 
L 178.499538 27.817686 
L 178.846968 27.800533 
L 179.194397 27.783505 
L 179.541826 27.766607 
L 179.889256 27.749842 
L 180.236685 27.733213 
L 180.584114 27.716725 
L 180.931544 27.70038 
L 181.278973 27.684173 
L 181.626403 27.668075 
L 181.973832 27.652089 
L 182.321261 27.636219 
L 182.668691 27.620467 
L 183.01612 27.604839 
L 183.363549 27.589338 
L 183.710979 27.573966 
L 184.058408 27.558729 
L 184.058408 25.619048 
L 184.058408 25.619048 
L 183.710979 25.619048 
L 183.363549 25.619048 
L 183.01612 25.619048 
L 182.668691 25.619048 
L 182.321261 25.619048 
L 181.973832 25.619048 
L 181.626403 25.619048 
L 181.278973 25.619048 
L 180.931544 25.619048 
L 180.584114 25.619048 
L 180.236685 25.619048 
L 179.889256 25.619048 
L 179.541826 25.619048 
L 179.194397 25.619048 
L 178.846968 25.619048 
L 178.499538 25.619048 
L 178.152109 25.619048 
L 177.804679 25.619048 
L 177.45725 25.619048 
L 177.109821 25.619048 
L 176.762391 25.619048 
L 176.414962 25.619048 
L 176.067533 25.619048 
L 175.720103 25.619048 
L 175.372674 25.619048 
L 175.025244 25.619048 
L 174.677815 25.619048 
L 174.330386 25.619048 
L 173.982956 25.619048 
L 173.635527 25.619048 
L 173.288098 25.619048 
L 172.940668 25.619048 
L 172.593239 25.619048 
L 172.245809 25.619048 
L 171.89838 25.619048 
L 171.550951 25.619048 
L 171.203521 25.619048 
L 170.856092 25.619048 
L 170.508663 25.619048 
L 170.161233 25.619048 
L 169.813804 25.619048 
L 169.466375 25.619048 
L 169.118945 25.619048 
L 168.771516 25.619048 
L 168.424086 25.619048 
L 168.076657 25.619048 
L 167.729228 25.619048 
L 167.381798 25.619048 
L 167.034369 25.619048 
L 166.68694 25.619048 
L 166.33951 25.619048 
L 165.992081 25.619048 
L 165.644651 25.619048 
L 165.297222 25.619048 
L 164.949793 25.619048 
L 164.602363 25.619048 
L 164.254934 25.619048 
L 163.907505 25.619048 
L 163.560075 25.619048 
L 163.212646 25.619048 
L 162.865216 25.619048 
L 162.517787 25.619048 
L 162.170358 25.619048 
L 161.822928 25.619048 
L 161.475499 25.619048 
L 161.12807 25.619048 
L 160.78064 25.619048 
L 160.433211 25.619048 
L 160.085781 25.619048 
L 159.738352 25.619048 
L 159.390923 25.619048 
L 159.043493 25.619048 
L 158.696064 25.619048 
L 158.348635 25.619048 
L 158.001205 25.619048 
L 157.653776 25.619048 
L 157.306346 25.619048 
L 156.958917 25.619048 
L 156.611488 25.619048 
L 156.264058 25.619048 
L 155.916629 25.619048 
L 155.5692 25.619048 
L 155.22177 25.619048 
L 154.874341 25.619048 
L 154.526911 25.619048 
L 154.179482 25.619048 
L 153.832053 25.619048 
L 153.484623 25.619048 
L 153.137194 25.619048 
L 152.789765 25.619048 
L 152.442335 25.619048 
L 152.094906 25.619048 
L 151.747476 25.619048 
L 151.400047 25.619048 
L 151.052618 25.619048 
L 150.705188 25.619048 
L 150.357759 25.619048 
L 150.01033 25.619048 
L 149.6629 25.619048 
L 149.315471 25.619048 
L 148.968042 25.619048 
L 148.620612 25.619048 
L 148.273183 25.619048 
L 147.925753 25.619048 
L 147.578324 25.619048 
L 147.230895 25.619048 
L 146.883465 25.619048 
L 146.536036 25.619048 
L 146.188607 25.619048 
L 145.841177 25.619048 
L 145.493748 25.619048 
L 145.146318 25.619048 
L 144.798889 25.619048 
L 144.45146 25.619048 
L 144.10403 25.619048 
L 143.756601 25.619048 
L 143.409172 25.619048 
L 143.061742 25.619048 
L 142.714313 25.619048 
L 142.366883 25.619048 
L 142.019454 25.619048 
L 141.672025 25.619048 
L 141.324595 25.619048 
L 140.977166 25.619048 
L 140.629737 25.619048 
L 140.282307 25.619048 
L 139.934878 25.619048 
L 139.587448 25.619048 
L 139.240019 25.619048 
L 138.89259 25.619048 
L 138.54516 25.619048 
L 138.197731 25.619048 
L 137.850302 25.619048 
L 137.502872 25.619048 
L 137.155443 25.619048 
L 136.808013 25.619048 
L 136.460584 25.619048 
L 136.113155 25.619048 
L 135.765725 25.619048 
L 135.418296 25.619048 
L 135.070867 25.619048 
L 134.723437 25.619048 
L 134.376008 25.619048 
L 134.028578 25.619048 
L 133.681149 25.619048 
L 133.33372 25.619048 
L 132.98629 25.619048 
L 132.638861 25.619048 
L 132.291432 25.619048 
L 131.944002 25.619048 
L 131.596573 25.619048 
L 131.249144 25.619048 
L 130.901714 25.619048 
L 130.554285 25.619048 
L 130.206855 25.619048 
L 129.859426 25.619048 
L 129.511997 25.619048 
L 129.164567 25.619048 
L 128.817138 25.619048 
L 128.469709 25.619048 
L 128.122279 25.619048 
L 127.77485 25.619048 
L 127.42742 25.619048 
L 127.079991 25.619048 
L 126.732562 25.619048 
L 126.385132 25.619048 
L 126.037703 25.619048 
L 125.690274 25.619048 
L 125.342844 25.619048 
L 124.995415 25.619048 
L 124.647985 25.619048 
L 124.300556 25.619048 
L 123.953127 25.619048 
L 123.605697 25.619048 
L 123.258268 25.619048 
L 122.910839 25.619048 
L 122.563409 25.619048 
L 122.21598 25.619048 
L 121.86855 25.619048 
L 121.521121 25.619048 
L 121.173692 25.619048 
L 120.826262 25.619048 
L 120.478833 25.619048 
L 120.131404 25.619048 
L 119.783974 25.619048 
L 119.436545 25.619048 
L 119.089115 25.619048 
L 118.741686 25.619048 
L 118.394257 25.619295 
L 118.046827 25.6222 
L 117.699398 25.628164 
L 117.351969 25.63692 
L 117.004539 25.648204 
L 116.65711 25.66175 
L 116.30968 25.677294 
L 115.962251 25.69457 
L 115.614822 25.713312 
L 115.267392 25.733256 
L 114.919963 25.754137 
L 114.572534 25.775689 
L 114.225104 25.797647 
L 113.877675 25.819746 
L 113.530245 25.841721 
L 113.182816 25.864865 
L 112.835387 25.891366 
L 112.487957 25.920909 
L 112.140528 25.953146 
L 111.793099 25.987729 
L 111.445669 26.02431 
L 111.09824 26.062542 
L 110.750811 26.102077 
L 110.403381 26.142566 
L 110.055952 26.183663 
L 109.708522 26.225018 
L 109.361093 26.266285 
L 109.013664 26.307114 
L 108.666234 26.347159 
L 108.318805 26.386194 
L 107.971376 26.425323 
L 107.623946 26.464887 
L 107.276517 26.504873 
L 106.929087 26.545272 
L 106.581658 26.586072 
L 106.234229 26.627261 
L 105.886799 26.668829 
L 105.53937 26.710764 
L 105.191941 26.753056 
L 104.844511 26.795693 
L 104.497082 26.838663 
L 104.149652 26.881957 
L 103.802223 26.925567 
L 103.454794 26.96956 
L 103.107364 27.013951 
L 102.759935 27.058734 
L 102.412506 27.103897 
L 102.065076 27.149434 
L 101.717647 27.195334 
L 101.370217 27.241589 
L 101.022788 27.288191 
L 100.675359 27.33513 
L 100.327929 27.382397 
L 99.9805 27.429984 
L 99.633071 27.477882 
L 99.285641 27.526082 
L 98.938212 27.574575 
L 98.590782 27.623403 
L 98.243353 27.672658 
L 97.895924 27.722327 
L 97.548494 27.772392 
L 97.201065 27.822835 
L 96.853636 27.873639 
L 96.506206 27.924786 
L 96.158777 27.97626 
L 95.811347 28.028041 
L 95.463918 28.080113 
L 95.116489 28.132459 
L 94.769059 28.18506 
L 94.42163 28.237899 
L 94.074201 28.290959 
L 93.726771 28.344233 
L 93.379342 28.397871 
L 93.031913 28.45191 
L 92.684483 28.506324 
L 92.337054 28.561085 
L 91.989624 28.616167 
L 91.642195 28.671542 
L 91.294766 28.727185 
L 90.947336 28.783068 
L 90.599907 28.839165 
L 90.252478 28.895449 
L 89.905048 28.951894 
L 89.557619 29.008471 
L 89.210189 29.065163 
L 88.86276 29.122122 
L 88.515331 29.179397 
L 88.167901 29.236955 
L 87.820472 29.294764 
L 87.473043 29.352791 
L 87.125613 29.411003 
L 86.778184 29.469368 
L 86.430754 29.527853 
L 86.083325 29.586426 
L 85.735896 29.645053 
L 85.388466 29.703703 
L 85.041037 29.762343 
L 84.693608 29.82094 
L 84.346178 29.879461 
L 83.998749 29.937962 
L 83.651319 29.996646 
L 83.30389 30.055489 
L 82.956461 30.114452 
L 82.609031 30.173499 
L 82.261602 30.23259 
L 81.914173 30.29169 
L 81.566743 30.350759 
L 81.219314 30.40976 
L 80.871884 30.468655 
L 80.524455 30.527406 
L 80.177026 30.585977 
L 79.829596 30.644328 
L 79.482167 30.702422 
L 79.134738 30.760225 
L 78.787308 30.817806 
L 78.439879 30.875215 
L 78.092449 30.932458 
L 77.74502 30.989545 
L 77.397591 31.046484 
L 77.050161 31.103283 
L 76.702732 31.159951 
L 76.355303 31.216496 
L 76.007873 31.272925 
L 75.660444 31.329248 
L 75.313014 31.385473 
L 74.965585 31.441607 
L 74.618156 31.497648 
L 74.270726 31.55295 
L 73.923297 31.607317 
L 73.575868 31.660975 
L 73.228438 31.714151 
L 72.881009 31.767071 
L 72.53358 31.819962 
L 72.18615 31.873051 
L 71.838721 31.926565 
L 71.491291 31.98073 
L 71.143862 32.035772 
L 70.796433 32.091919 
L 70.449003 32.149397 
L 70.101574 32.208434 
L 69.754145 32.269255 
L 69.406715 32.33139 
L 69.059286 32.392754 
L 68.711856 32.453673 
L 68.364427 32.514692 
L 68.016998 32.576355 
L 67.669568 32.639208 
L 67.322139 32.703796 
L 66.97471 32.770665 
L 66.62728 32.840359 
L 66.279851 32.913424 
L 65.932421 32.990404 
L 65.584992 33.071846 
L 65.237563 33.158294 
L 64.890133 33.250294 
L 64.542704 33.348391 
L 64.195275 33.453202 
L 63.847845 33.565406 
L 63.500416 33.685672 
L 63.152986 33.814671 
L 62.805557 33.953071 
L 62.458128 34.101541 
L 62.110698 34.26075 
L 61.763269 34.431368 
L 61.41584 34.614064 
L 61.06841 34.809507 
L 60.720981 35.018366 
L 60.373551 35.24131 
L 60.026122 35.479064 
L 59.678693 35.743043 
L 59.331263 36.041738 
L 58.983834 36.37552 
L 58.636405 36.74476 
L 58.288975 37.149829 
L 57.941546 37.5911 
L 57.594116 38.068944 
L 57.246687 38.583731 
L 56.899258 39.135834 
L 56.551828 39.725623 
L 56.204399 40.353469 
L 55.85697 41.019746 
L 55.50954 41.724822 
L 55.162111 42.469071 
L 54.814681 43.252428 
L 54.467252 44.081116 
L 54.119823 44.973876 
L 53.772393 45.950305 
L 53.424964 47.029995 
L 53.077535 48.232544 
L 52.730105 49.577544 
L 52.382676 51.084592 
L 52.035247 52.773282 
L 51.687817 54.663209 
L 51.340388 56.773968 
L 50.992958 59.125154 
L 50.645529 61.736361 
L 50.2981 64.627185 
L 49.95067 67.830227 
L 49.603241 75.509252 
L 49.255812 90.549095 
L 48.908382 112.332541 
L 48.560953 140.242376 
L 48.213523 173.661383 
L 47.866094 211.97235 
L 47.518665 254.558061 
L 47.171235 300.801302 
L 46.823806 350.084857 
L 46.476377 401.791513 
L 46.128947 455.304054 
L 45.781518 510.005267 
L 45.434088 565.277935 
z
" clip-path="url(#p81c6d16b4c)" style="fill-opacity: 0.2"/>
   </g>
   <g id="FillBetweenPolyCollection_2">
    <path d="M 45.434088 658.612127 
L 45.434088 782.27892 
L 45.781518 709.09705 
L 46.128947 638.121831 
L 46.476377 570.174866 
L 46.823806 506.077758 
L 47.171235 446.652109 
L 47.518665 392.719522 
L 47.866094 345.1016 
L 48.213523 304.619945 
L 48.560953 272.09616 
L 48.908382 248.351848 
L 49.255812 231.328574 
L 49.603241 216.180297 
L 49.95067 202.656664 
L 50.2981 190.602278 
L 50.645529 179.861739 
L 50.992958 170.27965 
L 51.340388 161.700614 
L 51.687817 153.969233 
L 52.035247 146.930108 
L 52.382676 140.427843 
L 52.730105 134.327215 
L 53.077535 128.603619 
L 53.424964 123.25037 
L 53.772393 118.259001 
L 54.119823 113.621044 
L 54.467252 109.328032 
L 54.814681 105.371499 
L 55.162111 101.742975 
L 55.50954 98.433995 
L 55.85697 95.43609 
L 56.204399 92.721319 
L 56.551828 90.179536 
L 56.899258 87.791583 
L 57.246687 85.553681 
L 57.594116 83.462048 
L 57.941546 81.512904 
L 58.288975 79.702467 
L 58.636405 78.026956 
L 58.983834 76.482592 
L 59.331263 75.065592 
L 59.678693 73.768766 
L 60.026122 72.55313 
L 60.373551 71.406853 
L 60.720981 70.327717 
L 61.06841 69.313504 
L 61.41584 68.361997 
L 61.763269 67.470976 
L 62.110698 66.638223 
L 62.458128 65.861521 
L 62.805557 65.138651 
L 63.152986 64.467047 
L 63.500416 63.834928 
L 63.847845 63.23633 
L 64.195275 62.669818 
L 64.542704 62.133957 
L 64.890133 61.627311 
L 65.237563 61.148446 
L 65.584992 60.695926 
L 65.932421 60.268315 
L 66.279851 59.86418 
L 66.62728 59.482079 
L 66.97471 59.119393 
L 67.322139 58.774067 
L 67.669568 58.445112 
L 68.016998 58.131543 
L 68.364427 57.832372 
L 68.711856 57.54661 
L 69.059286 57.273271 
L 69.406715 57.011368 
L 69.754145 56.759913 
L 70.101574 56.517918 
L 70.449003 56.285036 
L 70.796433 56.06143 
L 71.143862 55.846507 
L 71.491291 55.639673 
L 71.838721 55.440328 
L 72.18615 55.247876 
L 72.53358 55.061719 
L 72.881009 54.881261 
L 73.228438 54.705904 
L 73.575868 54.535051 
L 73.923297 54.368515 
L 74.270726 54.206848 
L 74.618156 54.049765 
L 74.965585 53.89694 
L 75.313014 53.748049 
L 75.660444 53.602765 
L 76.007873 53.460761 
L 76.355303 53.321712 
L 76.702732 53.185291 
L 77.050161 53.051173 
L 77.397591 52.919032 
L 77.74502 52.78856 
L 78.092449 52.660548 
L 78.439879 52.535403 
L 78.787308 52.412889 
L 79.134738 52.292771 
L 79.482167 52.174816 
L 79.829596 52.058788 
L 80.177026 51.944452 
L 80.524455 51.831574 
L 80.871884 51.719919 
L 81.219314 51.609251 
L 81.566743 51.499809 
L 81.914173 51.391948 
L 82.261602 51.285572 
L 82.609031 51.180587 
L 82.956461 51.076897 
L 83.30389 50.974406 
L 83.651319 50.87302 
L 83.998749 50.772644 
L 84.346178 50.673181 
L 84.693608 50.574537 
L 85.041037 50.476753 
L 85.388466 50.380012 
L 85.735896 50.284274 
L 86.083325 50.189492 
L 86.430754 50.095621 
L 86.778184 50.002612 
L 87.125613 49.910421 
L 87.473043 49.819 
L 87.820472 49.728303 
L 88.167901 49.638283 
L 88.515331 49.548934 
L 88.86276 49.460347 
L 89.210189 49.372508 
L 89.557619 49.285397 
L 89.905048 49.198989 
L 90.252478 49.113264 
L 90.599907 49.028198 
L 90.947336 48.94377 
L 91.294766 48.859956 
L 91.642195 48.776736 
L 91.989624 48.694095 
L 92.337054 48.612062 
L 92.684483 48.530637 
L 93.031913 48.449808 
L 93.379342 48.369568 
L 93.726771 48.289907 
L 94.074201 48.210814 
L 94.42163 48.132282 
L 94.769059 48.0543 
L 95.116489 47.976859 
L 95.463918 47.89995 
L 95.811347 47.823565 
L 96.158777 47.7477 
L 96.506206 47.672356 
L 96.853636 47.597531 
L 97.201065 47.523224 
L 97.548494 47.449435 
L 97.895924 47.376162 
L 98.243353 47.303404 
L 98.590782 47.231161 
L 98.938212 47.159429 
L 99.285641 47.088177 
L 99.633071 47.017393 
L 99.9805 46.947083 
L 100.327929 46.877252 
L 100.675359 46.807907 
L 101.022788 46.739053 
L 101.370217 46.670695 
L 101.717647 46.602841 
L 102.065076 46.535494 
L 102.412506 46.468662 
L 102.759935 46.402285 
L 103.107364 46.336325 
L 103.454794 46.270804 
L 103.802223 46.20574 
L 104.149652 46.141154 
L 104.497082 46.077067 
L 104.844511 46.013497 
L 105.191941 45.950466 
L 105.53937 45.887992 
L 105.886799 45.826097 
L 106.234229 45.76118 
L 106.581658 45.689296 
L 106.929087 45.612896 
L 107.276517 45.534488 
L 107.623946 45.456581 
L 107.971376 45.381686 
L 108.318805 45.312311 
L 108.666234 45.250966 
L 109.013664 45.200159 
L 109.361093 45.1624 
L 109.708522 45.140199 
L 110.055952 45.257457 
L 110.403381 46.315751 
L 110.750811 46.232631 
L 111.09824 46.020147 
L 111.445669 45.838388 
L 111.793099 45.657617 
L 112.140528 45.478011 
L 112.487957 45.299749 
L 112.835387 45.123009 
L 113.182816 44.947967 
L 113.530245 44.774803 
L 113.877675 44.603693 
L 114.225104 44.434817 
L 114.572534 44.268327 
L 114.919963 44.103715 
L 115.267392 43.940706 
L 115.614822 43.779295 
L 115.962251 43.619475 
L 116.30968 43.46124 
L 116.65711 43.304583 
L 117.004539 43.149498 
L 117.351969 42.995977 
L 117.699398 42.844016 
L 118.046827 42.693606 
L 118.394257 42.544742 
L 118.741686 42.39742 
L 119.089115 42.25164 
L 119.436545 42.107398 
L 119.783974 41.964684 
L 120.131404 41.823494 
L 120.478833 41.683818 
L 120.826262 41.545651 
L 121.173692 41.408984 
L 121.521121 41.273811 
L 121.86855 41.140126 
L 122.21598 41.007889 
L 122.563409 40.876892 
L 122.910839 40.747102 
L 123.258268 40.618527 
L 123.605697 40.491176 
L 123.953127 40.365057 
L 124.300556 40.24018 
L 124.647985 40.116552 
L 124.995415 39.994182 
L 125.342844 39.873079 
L 125.690274 39.753252 
L 126.037703 39.634708 
L 126.385132 39.517415 
L 126.732562 39.401294 
L 127.079991 39.286327 
L 127.42742 39.172497 
L 127.77485 39.05979 
L 128.122279 38.948187 
L 128.469709 38.837673 
L 128.817138 38.728232 
L 129.164567 38.619846 
L 129.511997 38.512501 
L 129.859426 38.406178 
L 130.206855 38.300865 
L 130.554285 38.196588 
L 130.901714 38.09336 
L 131.249144 37.991175 
L 131.596573 37.890029 
L 131.944002 37.789916 
L 132.291432 37.690832 
L 132.638861 37.592773 
L 132.98629 37.495732 
L 133.33372 37.399706 
L 133.681149 37.304689 
L 134.028578 37.210569 
L 134.376008 37.117273 
L 134.723437 37.024807 
L 135.070867 36.933177 
L 135.418296 36.842388 
L 135.765725 36.752447 
L 136.113155 36.663359 
L 136.460584 36.57513 
L 136.808013 36.487765 
L 137.155443 36.40127 
L 137.502872 36.315652 
L 137.850302 36.230907 
L 138.197731 36.146982 
L 138.54516 36.063855 
L 138.89259 35.981515 
L 139.240019 35.899951 
L 139.587448 35.819151 
L 139.934878 35.739105 
L 140.282307 35.6598 
L 140.629737 35.581225 
L 140.977166 35.503368 
L 141.324595 35.426219 
L 141.672025 35.349765 
L 142.019454 35.274014 
L 142.366883 35.198989 
L 142.714313 35.124687 
L 143.061742 35.051103 
L 143.409172 34.978235 
L 143.756601 34.906078 
L 144.10403 34.834629 
L 144.45146 34.763885 
L 144.798889 34.693841 
L 145.146318 34.624495 
L 145.493748 34.555816 
L 145.841177 34.487732 
L 146.188607 34.420236 
L 146.536036 34.353326 
L 146.883465 34.286998 
L 147.230895 34.221252 
L 147.578324 34.156083 
L 147.925753 34.09149 
L 148.273183 34.02747 
L 148.620612 33.96402 
L 148.968042 33.901139 
L 149.315471 33.838823 
L 149.6629 33.777078 
L 150.01033 33.715907 
L 150.357759 33.655307 
L 150.705188 33.595274 
L 151.052618 33.535807 
L 151.400047 33.476901 
L 151.747476 33.418553 
L 152.094906 33.360762 
L 152.442335 33.303523 
L 152.789765 33.246834 
L 153.137194 33.190649 
L 153.484623 33.134917 
L 153.832053 33.079642 
L 154.179482 33.024826 
L 154.526911 32.970472 
L 154.874341 32.916583 
L 155.22177 32.863163 
L 155.5692 32.810213 
L 155.916629 32.757737 
L 156.264058 32.705737 
L 156.611488 32.654217 
L 156.958917 32.603178 
L 157.306346 32.552595 
L 157.653776 32.502456 
L 158.001205 32.452754 
L 158.348635 32.403482 
L 158.696064 32.354634 
L 159.043493 32.306204 
L 159.390923 32.258185 
L 159.738352 32.210569 
L 160.085781 32.163352 
L 160.433211 32.116525 
L 160.78064 32.070084 
L 161.12807 32.024029 
L 161.475499 31.978378 
L 161.822928 31.933131 
L 162.170358 31.888285 
L 162.517787 31.843837 
L 162.865216 31.799787 
L 163.212646 31.75613 
L 163.560075 31.712866 
L 163.907505 31.669992 
L 164.254934 31.627505 
L 164.602363 31.585393 
L 164.949793 31.543607 
L 165.297222 31.502143 
L 165.644651 31.461004 
L 165.992081 31.420192 
L 166.33951 31.379708 
L 166.68694 31.339554 
L 167.034369 31.299733 
L 167.381798 31.260246 
L 167.729228 31.221096 
L 168.076657 31.182284 
L 168.424086 31.143813 
L 168.771516 31.105673 
L 169.118945 31.067851 
L 169.466375 31.030341 
L 169.813804 30.99314 
L 170.161233 30.956242 
L 170.508663 30.919642 
L 170.856092 30.883337 
L 171.203521 30.847321 
L 171.550951 30.81159 
L 171.89838 30.776138 
L 172.245809 30.740962 
L 172.593239 30.706058 
L 172.940668 30.671439 
L 173.288098 30.63711 
L 173.635527 30.603068 
L 173.982956 30.569312 
L 174.330386 30.53584 
L 174.677815 30.502651 
L 175.025244 30.469743 
L 175.372674 30.437114 
L 175.720103 30.404762 
L 176.067533 30.372686 
L 176.414962 30.340854 
L 176.762391 30.309253 
L 177.109821 30.277885 
L 177.45725 30.246751 
L 177.804679 30.215852 
L 178.152109 30.185191 
L 178.499538 30.154768 
L 178.846968 30.124584 
L 179.194397 30.094642 
L 179.541826 30.064943 
L 179.889256 30.035488 
L 180.236685 30.006272 
L 180.584114 29.97727 
L 180.931544 29.948481 
L 181.278973 29.919908 
L 181.626403 29.891554 
L 181.973832 29.863422 
L 182.321261 29.835515 
L 182.668691 29.807834 
L 183.01612 29.780383 
L 183.363549 29.753165 
L 183.710979 29.726182 
L 184.058408 29.699436 
L 184.058408 25.619048 
L 184.058408 25.619048 
L 183.710979 25.619048 
L 183.363549 25.619048 
L 183.01612 25.619048 
L 182.668691 25.619048 
L 182.321261 25.619048 
L 181.973832 25.619048 
L 181.626403 25.619048 
L 181.278973 25.619048 
L 180.931544 25.619048 
L 180.584114 25.619048 
L 180.236685 25.619048 
L 179.889256 25.619048 
L 179.541826 25.619048 
L 179.194397 25.619048 
L 178.846968 25.619048 
L 178.499538 25.619048 
L 178.152109 25.619048 
L 177.804679 25.619048 
L 177.45725 25.619048 
L 177.109821 25.619048 
L 176.762391 25.619048 
L 176.414962 25.619048 
L 176.067533 25.619048 
L 175.720103 25.619048 
L 175.372674 25.619048 
L 175.025244 25.619048 
L 174.677815 25.619048 
L 174.330386 25.619048 
L 173.982956 25.619048 
L 173.635527 25.619048 
L 173.288098 25.619048 
L 172.940668 25.619048 
L 172.593239 25.619048 
L 172.245809 25.619048 
L 171.89838 25.619048 
L 171.550951 25.619048 
L 171.203521 25.619048 
L 170.856092 25.619048 
L 170.508663 25.619048 
L 170.161233 25.619048 
L 169.813804 25.619048 
L 169.466375 25.619048 
L 169.118945 25.619048 
L 168.771516 25.619048 
L 168.424086 25.619048 
L 168.076657 25.619048 
L 167.729228 25.619048 
L 167.381798 25.619048 
L 167.034369 25.619048 
L 166.68694 25.619048 
L 166.33951 25.619048 
L 165.992081 25.619048 
L 165.644651 25.619048 
L 165.297222 25.619048 
L 164.949793 25.619048 
L 164.602363 25.619048 
L 164.254934 25.619048 
L 163.907505 25.619048 
L 163.560075 25.619048 
L 163.212646 25.619048 
L 162.865216 25.619048 
L 162.517787 25.619048 
L 162.170358 25.619048 
L 161.822928 25.619048 
L 161.475499 25.619048 
L 161.12807 25.619048 
L 160.78064 25.619048 
L 160.433211 25.619048 
L 160.085781 25.619048 
L 159.738352 25.619048 
L 159.390923 25.619048 
L 159.043493 25.619048 
L 158.696064 25.619048 
L 158.348635 25.619048 
L 158.001205 25.619048 
L 157.653776 25.619048 
L 157.306346 25.619048 
L 156.958917 25.619048 
L 156.611488 25.619048 
L 156.264058 25.619048 
L 155.916629 25.619048 
L 155.5692 25.619048 
L 155.22177 25.619048 
L 154.874341 25.619048 
L 154.526911 25.619048 
L 154.179482 25.619048 
L 153.832053 25.619048 
L 153.484623 25.619048 
L 153.137194 25.619048 
L 152.789765 25.619048 
L 152.442335 25.619048 
L 152.094906 25.619048 
L 151.747476 25.619048 
L 151.400047 25.619048 
L 151.052618 25.619048 
L 150.705188 25.619048 
L 150.357759 25.619048 
L 150.01033 25.619048 
L 149.6629 25.619048 
L 149.315471 25.619048 
L 148.968042 25.619048 
L 148.620612 25.619048 
L 148.273183 25.619048 
L 147.925753 25.619048 
L 147.578324 25.619048 
L 147.230895 25.619048 
L 146.883465 25.619048 
L 146.536036 25.619048 
L 146.188607 25.619048 
L 145.841177 25.619048 
L 145.493748 25.619048 
L 145.146318 25.619048 
L 144.798889 25.619048 
L 144.45146 25.619048 
L 144.10403 25.619048 
L 143.756601 25.619048 
L 143.409172 25.619048 
L 143.061742 25.619048 
L 142.714313 25.619048 
L 142.366883 25.619048 
L 142.019454 25.619048 
L 141.672025 25.619048 
L 141.324595 25.619048 
L 140.977166 25.619048 
L 140.629737 25.619048 
L 140.282307 25.619048 
L 139.934878 25.619048 
L 139.587448 25.619048 
L 139.240019 25.619048 
L 138.89259 25.619048 
L 138.54516 25.619048 
L 138.197731 25.619048 
L 137.850302 25.619048 
L 137.502872 25.619048 
L 137.155443 25.619048 
L 136.808013 25.619048 
L 136.460584 25.619048 
L 136.113155 25.619048 
L 135.765725 25.619048 
L 135.418296 25.619048 
L 135.070867 25.619048 
L 134.723437 25.619048 
L 134.376008 25.619048 
L 134.028578 25.619048 
L 133.681149 25.619048 
L 133.33372 25.619048 
L 132.98629 25.619048 
L 132.638861 25.619048 
L 132.291432 25.619048 
L 131.944002 25.619048 
L 131.596573 25.619048 
L 131.249144 25.619048 
L 130.901714 25.619048 
L 130.554285 25.619048 
L 130.206855 25.619048 
L 129.859426 25.619048 
L 129.511997 25.619048 
L 129.164567 25.619048 
L 128.817138 25.619048 
L 128.469709 25.619048 
L 128.122279 25.619048 
L 127.77485 25.619048 
L 127.42742 25.619048 
L 127.079991 25.619048 
L 126.732562 25.619048 
L 126.385132 25.619048 
L 126.037703 25.619048 
L 125.690274 25.619048 
L 125.342844 25.619048 
L 124.995415 25.619048 
L 124.647985 25.619048 
L 124.300556 25.619048 
L 123.953127 25.619048 
L 123.605697 25.619048 
L 123.258268 25.619048 
L 122.910839 25.619048 
L 122.563409 25.619048 
L 122.21598 25.619048 
L 121.86855 25.619048 
L 121.521121 25.619048 
L 121.173692 25.619048 
L 120.826262 25.619048 
L 120.478833 25.619048 
L 120.131404 25.619048 
L 119.783974 25.619048 
L 119.436545 25.619048 
L 119.089115 25.619048 
L 118.741686 25.619048 
L 118.394257 25.619048 
L 118.046827 25.619048 
L 117.699398 25.619048 
L 117.351969 25.619048 
L 117.004539 25.619048 
L 116.65711 25.619048 
L 116.30968 25.619048 
L 115.962251 25.619048 
L 115.614822 25.619048 
L 115.267392 25.619048 
L 114.919963 25.619048 
L 114.572534 25.619048 
L 114.225104 25.619048 
L 113.877675 25.619048 
L 113.530245 25.619048 
L 113.182816 25.619048 
L 112.835387 25.619048 
L 112.487957 25.619048 
L 112.140528 25.619048 
L 111.793099 25.619048 
L 111.445669 25.619048 
L 111.09824 25.619048 
L 110.750811 25.619048 
L 110.403381 25.619048 
L 110.055952 25.619048 
L 109.708522 25.619048 
L 109.361093 25.619048 
L 109.013664 25.619048 
L 108.666234 25.619048 
L 108.318805 25.619048 
L 107.971376 25.619048 
L 107.623946 25.619048 
L 107.276517 25.619048 
L 106.929087 25.619048 
L 106.581658 25.619048 
L 106.234229 25.619048 
L 105.886799 25.619048 
L 105.53937 25.619048 
L 105.191941 25.619048 
L 104.844511 25.619048 
L 104.497082 25.619048 
L 104.149652 25.619048 
L 103.802223 25.619048 
L 103.454794 25.619048 
L 103.107364 25.619048 
L 102.759935 25.619048 
L 102.412506 25.619048 
L 102.065076 25.619048 
L 101.717647 25.619048 
L 101.370217 25.619048 
L 101.022788 25.619048 
L 100.675359 25.619048 
L 100.327929 25.619048 
L 99.9805 25.619048 
L 99.633071 25.619048 
L 99.285641 25.619048 
L 98.938212 25.619048 
L 98.590782 25.619048 
L 98.243353 25.619048 
L 97.895924 25.619048 
L 97.548494 25.619048 
L 97.201065 25.619048 
L 96.853636 25.619048 
L 96.506206 25.619048 
L 96.158777 25.619048 
L 95.811347 25.619048 
L 95.463918 25.619048 
L 95.116489 25.622202 
L 94.769059 25.638861 
L 94.42163 25.668057 
L 94.074201 25.707781 
L 93.726771 25.756026 
L 93.379342 25.810782 
L 93.031913 25.870041 
L 92.684483 25.931794 
L 92.337054 25.994033 
L 91.989624 26.054749 
L 91.642195 26.113432 
L 91.294766 26.177927 
L 90.947336 26.248605 
L 90.599907 26.324157 
L 90.252478 26.403277 
L 89.905048 26.484657 
L 89.557619 26.566991 
L 89.210189 26.64897 
L 88.86276 26.729289 
L 88.515331 26.80664 
L 88.167901 26.879973 
L 87.820472 26.951822 
L 87.473043 27.023126 
L 87.125613 27.093829 
L 86.778184 27.163873 
L 86.430754 27.233202 
L 86.083325 27.30176 
L 85.735896 27.36949 
L 85.388466 27.436334 
L 85.041037 27.502236 
L 84.693608 27.567148 
L 84.346178 27.631321 
L 83.998749 27.694867 
L 83.651319 27.757728 
L 83.30389 27.81985 
L 82.956461 27.881174 
L 82.609031 27.941646 
L 82.261602 28.001208 
L 81.914173 28.059804 
L 81.566743 28.117379 
L 81.219314 28.173875 
L 80.871884 28.229429 
L 80.524455 28.284198 
L 80.177026 28.338175 
L 79.829596 28.391349 
L 79.482167 28.443713 
L 79.134738 28.495257 
L 78.787308 28.545972 
L 78.439879 28.59585 
L 78.092449 28.644881 
L 77.74502 28.693058 
L 77.397591 28.740198 
L 77.050161 28.78612 
L 76.702732 28.83101 
L 76.355303 28.87506 
L 76.007873 28.918461 
L 75.660444 28.961406 
L 75.313014 29.004086 
L 74.965585 29.046693 
L 74.618156 29.089419 
L 74.270726 29.132457 
L 73.923297 29.175997 
L 73.575868 29.220144 
L 73.228438 29.263286 
L 72.881009 29.305218 
L 72.53358 29.346558 
L 72.18615 29.387922 
L 71.838721 29.429928 
L 71.491291 29.473193 
L 71.143862 29.518334 
L 70.796433 29.565969 
L 70.449003 29.616715 
L 70.101574 29.671174 
L 69.754145 29.728111 
L 69.406715 29.786952 
L 69.059286 29.848457 
L 68.711856 29.913387 
L 68.364427 29.982504 
L 68.016998 30.05657 
L 67.669568 30.136345 
L 67.322139 30.22259 
L 66.97471 30.316067 
L 66.62728 30.417538 
L 66.279851 30.529882 
L 65.932421 30.656377 
L 65.584992 30.797524 
L 65.237563 30.953817 
L 64.890133 31.125746 
L 64.542704 31.313805 
L 64.195275 31.518483 
L 63.847845 31.740275 
L 63.500416 31.97967 
L 63.152986 32.237163 
L 62.805557 32.521967 
L 62.458128 32.853418 
L 62.110698 33.23213 
L 61.763269 33.658033 
L 61.41584 34.131055 
L 61.06841 34.651126 
L 60.720981 35.218176 
L 60.373551 35.832135 
L 60.026122 36.492932 
L 59.678693 37.200496 
L 59.331263 37.97142 
L 58.983834 38.867832 
L 58.636405 39.894855 
L 58.288975 41.051618 
L 57.941546 42.337252 
L 57.594116 43.750886 
L 57.246687 45.29165 
L 56.899258 46.958673 
L 56.551828 48.751085 
L 56.204399 50.668016 
L 55.85697 52.732415 
L 55.50954 55.105698 
L 55.162111 57.817819 
L 54.814681 60.868239 
L 54.467252 64.256414 
L 54.119823 67.981804 
L 53.772393 72.043868 
L 53.424964 76.442065 
L 53.077535 81.175852 
L 52.730105 86.244689 
L 52.382676 91.65779 
L 52.035247 97.588966 
L 51.687817 104.186533 
L 51.340388 111.560388 
L 50.992958 119.820423 
L 50.645529 129.076534 
L 50.2981 139.438615 
L 49.95067 151.016559 
L 49.603241 163.920262 
L 49.255812 178.259618 
L 48.908382 194.222959 
L 48.560953 215.800419 
L 48.213523 244.695722 
L 47.866094 280.236465 
L 47.518665 321.750244 
L 47.171235 368.564658 
L 46.823806 420.007302 
L 46.476377 475.405774 
L 46.128947 534.087671 
L 45.781518 595.38059 
L 45.434088 658.612127 
z
" clip-path="url(#p81c6d16b4c)" style="fill: #1e8ada; fill-opacity: 0.2"/>
   </g>
   <g id="FillBetweenPolyCollection_3">
    <path d="M 45.434088 523.364145 
L 45.434088 654.894698 
L 45.781518 545.572183 
L 46.128947 441.908866 
L 46.476377 349.122993 
L 46.823806 272.43281 
L 47.171235 217.05656 
L 47.518665 187.673369 
L 47.866094 169.796794 
L 48.213523 154.714463 
L 48.560953 142.152765 
L 48.908382 131.838087 
L 49.255812 123.496819 
L 49.603241 116.855349 
L 49.95067 111.640065 
L 50.2981 107.39838 
L 50.645529 103.749806 
L 50.992958 100.606129 
L 51.340388 97.879923 
L 51.687817 95.483763 
L 52.035247 93.330224 
L 52.382676 91.33188 
L 52.730105 89.44002 
L 53.077535 87.714006 
L 53.424964 86.135776 
L 53.772393 84.680273 
L 54.119823 83.322437 
L 54.467252 82.03721 
L 54.814681 80.799531 
L 55.162111 79.588866 
L 55.50954 78.42411 
L 55.85697 77.309953 
L 56.204399 76.244555 
L 56.551828 75.226077 
L 56.899258 74.252681 
L 57.246687 73.322527 
L 57.594116 72.433605 
L 57.941546 71.577892 
L 58.288975 70.752827 
L 58.636405 69.959845 
L 58.983834 69.200383 
L 59.331263 68.475875 
L 59.678693 67.787756 
L 60.026122 67.137463 
L 60.373551 66.518864 
L 60.720981 65.923357 
L 61.06841 65.35245 
L 61.41584 64.807708 
L 61.763269 64.290694 
L 62.110698 63.802971 
L 62.458128 63.346101 
L 62.805557 62.917924 
L 63.152986 62.507889 
L 63.500416 62.116409 
L 63.847845 61.744804 
L 64.195275 61.394393 
L 64.542704 61.066497 
L 64.890133 60.762435 
L 65.237563 60.482399 
L 65.584992 60.217708 
L 65.932421 59.966708 
L 66.279851 59.729951 
L 66.62728 59.50799 
L 66.97471 59.301376 
L 67.322139 59.110662 
L 67.669568 58.936296 
L 68.016998 58.773819 
L 68.364427 58.621442 
L 68.711856 58.480305 
L 69.059286 58.351547 
L 69.406715 58.236309 
L 69.754145 58.135001 
L 70.101574 58.040334 
L 70.449003 57.950915 
L 70.796433 57.867723 
L 71.143862 57.791732 
L 71.491291 57.723919 
L 71.838721 57.665261 
L 72.18615 57.61668 
L 72.53358 57.573152 
L 72.881009 57.531688 
L 73.228438 57.493437 
L 73.575868 57.45955 
L 73.923297 57.431176 
L 74.270726 57.409465 
L 74.618156 57.395568 
L 74.965585 57.387473 
L 75.313014 57.380217 
L 75.660444 57.373842 
L 76.007873 57.368489 
L 76.355303 57.364302 
L 76.702732 57.361422 
L 77.050161 57.359991 
L 77.397591 57.36071 
L 77.74502 57.365661 
L 78.092449 57.374286 
L 78.439879 57.385734 
L 78.787308 57.399152 
L 79.134738 57.413691 
L 79.482167 57.428498 
L 79.829596 57.442941 
L 80.177026 57.459076 
L 80.524455 57.477332 
L 80.871884 57.49734 
L 81.219314 57.518729 
L 81.566743 57.541129 
L 81.914173 57.564168 
L 82.261602 57.587481 
L 82.609031 57.611606 
L 82.956461 57.637008 
L 83.30389 57.663562 
L 83.651319 57.691145 
L 83.998749 57.719631 
L 84.346178 57.748895 
L 84.693608 57.778814 
L 85.041037 57.809474 
L 85.388466 57.841191 
L 85.735896 57.873935 
L 86.083325 57.907668 
L 86.430754 57.94235 
L 86.778184 57.977943 
L 87.125613 58.014407 
L 87.473043 58.05365 
L 87.820472 58.102292 
L 88.167901 58.156395 
L 88.515331 58.210797 
L 88.86276 58.260338 
L 89.210189 58.299857 
L 89.557619 58.324195 
L 89.905048 57.71372 
L 90.252478 53.256207 
L 90.599907 52.645916 
L 90.947336 52.289218 
L 91.294766 51.894769 
L 91.642195 51.503045 
L 91.989624 51.114476 
L 92.337054 50.729493 
L 92.684483 50.348528 
L 93.031913 49.972009 
L 93.379342 49.600368 
L 93.726771 49.234037 
L 94.074201 48.873444 
L 94.42163 48.519022 
L 94.769059 48.171201 
L 95.116489 47.83041 
L 95.463918 47.496855 
L 95.811347 47.168279 
L 96.158777 46.844021 
L 96.506206 46.524114 
L 96.853636 46.208587 
L 97.201065 45.897473 
L 97.548494 45.590802 
L 97.895924 45.288605 
L 98.243353 44.990914 
L 98.590782 44.697759 
L 98.938212 44.409172 
L 99.285641 44.125184 
L 99.633071 43.845825 
L 99.9805 43.571128 
L 100.327929 43.301122 
L 100.675359 43.035493 
L 101.022788 42.773639 
L 101.370217 42.515526 
L 101.717647 42.261128 
L 102.065076 42.010421 
L 102.412506 41.763378 
L 102.759935 41.519975 
L 103.107364 41.280187 
L 103.454794 41.043989 
L 103.802223 40.811356 
L 104.149652 40.582262 
L 104.497082 40.356683 
L 104.844511 40.134593 
L 105.191941 39.915968 
L 105.53937 39.700761 
L 105.886799 39.488709 
L 106.234229 39.279735 
L 106.581658 39.073838 
L 106.929087 38.87102 
L 107.276517 38.671278 
L 107.623946 38.474614 
L 107.971376 38.281028 
L 108.318805 38.090518 
L 108.666234 37.903085 
L 109.013664 37.718729 
L 109.361093 37.53745 
L 109.708522 37.359247 
L 110.055952 37.184088 
L 110.403381 37.011392 
L 110.750811 36.840962 
L 111.09824 36.672814 
L 111.445669 36.506965 
L 111.793099 36.34343 
L 112.140528 36.182225 
L 112.487957 36.023368 
L 112.835387 35.866873 
L 113.182816 35.712758 
L 113.530245 35.561039 
L 113.877675 35.411731 
L 114.225104 35.264851 
L 114.572534 35.120416 
L 114.919963 34.97844 
L 115.267392 34.838774 
L 115.614822 34.701046 
L 115.962251 34.565242 
L 116.30968 34.431362 
L 116.65711 34.299405 
L 117.004539 34.169373 
L 117.351969 34.041264 
L 117.699398 33.915078 
L 118.046827 33.790815 
L 118.394257 33.668475 
L 118.741686 33.548058 
L 119.089115 33.429563 
L 119.436545 33.312991 
L 119.783974 33.198341 
L 120.131404 33.085601 
L 120.478833 32.974538 
L 120.826262 32.865053 
L 121.173692 32.757136 
L 121.521121 32.650776 
L 121.86855 32.545963 
L 122.21598 32.442684 
L 122.563409 32.34093 
L 122.910839 32.240691 
L 123.258268 32.141955 
L 123.605697 32.044711 
L 123.953127 31.948949 
L 124.300556 31.854659 
L 124.647985 31.761829 
L 124.995415 31.670449 
L 125.342844 31.580468 
L 125.690274 31.491786 
L 126.037703 31.404396 
L 126.385132 31.318301 
L 126.732562 31.233498 
L 127.079991 31.149988 
L 127.42742 31.06777 
L 127.77485 30.986844 
L 128.122279 30.907211 
L 128.469709 30.828869 
L 128.817138 30.751818 
L 129.164567 30.676059 
L 129.511997 30.60159 
L 129.859426 30.528328 
L 130.206855 30.45603 
L 130.554285 30.384687 
L 130.901714 30.314306 
L 131.249144 30.244894 
L 131.596573 30.176456 
L 131.944002 30.109 
L 132.291432 30.042532 
L 132.638861 29.977059 
L 132.98629 29.912587 
L 133.33372 29.849123 
L 133.681149 29.786674 
L 134.028578 29.725246 
L 134.376008 29.664845 
L 134.723437 29.605475 
L 135.070867 29.54699 
L 135.418296 29.489313 
L 135.765725 29.432444 
L 136.113155 29.376385 
L 136.460584 29.321132 
L 136.808013 29.266688 
L 137.155443 29.213051 
L 137.502872 29.160221 
L 137.850302 29.108198 
L 138.197731 29.056981 
L 138.54516 29.00657 
L 138.89259 28.956966 
L 139.240019 28.908166 
L 139.587448 28.860172 
L 139.934878 28.812952 
L 140.282307 28.766404 
L 140.629737 28.720518 
L 140.977166 28.675288 
L 141.324595 28.630711 
L 141.672025 28.58678 
L 142.019454 28.543492 
L 142.366883 28.500842 
L 142.714313 28.458825 
L 143.061742 28.417437 
L 143.409172 28.376672 
L 143.756601 28.336526 
L 144.10403 28.296995 
L 144.45146 28.258073 
L 144.798889 28.219755 
L 145.146318 28.182001 
L 145.493748 28.144791 
L 145.841177 28.108124 
L 146.188607 28.072001 
L 146.536036 28.03642 
L 146.883465 28.001381 
L 147.230895 27.966884 
L 147.578324 27.932928 
L 147.925753 27.899514 
L 148.273183 27.866641 
L 148.620612 27.834307 
L 148.968042 27.802514 
L 149.315471 27.77126 
L 149.6629 27.740459 
L 150.01033 27.710058 
L 150.357759 27.68006 
L 150.705188 27.650466 
L 151.052618 27.621281 
L 151.400047 27.592505 
L 151.747476 27.564142 
L 152.094906 27.536194 
L 152.442335 27.508664 
L 152.789765 27.481554 
L 153.137194 27.454867 
L 153.484623 27.428606 
L 153.832053 27.402772 
L 154.179482 27.377369 
L 154.526911 27.352382 
L 154.874341 27.327742 
L 155.22177 27.303443 
L 155.5692 27.279483 
L 155.916629 27.255862 
L 156.264058 27.23258 
L 156.611488 27.209637 
L 156.958917 27.187032 
L 157.306346 27.164765 
L 157.653776 27.142836 
L 158.001205 27.121243 
L 158.348635 27.099988 
L 158.696064 27.079069 
L 159.043493 27.058486 
L 159.390923 27.038239 
L 159.738352 27.018295 
L 160.085781 26.99863 
L 160.433211 26.979242 
L 160.78064 26.96013 
L 161.12807 26.94129 
L 161.475499 26.922721 
L 161.822928 26.90442 
L 162.170358 26.886386 
L 162.517787 26.868616 
L 162.865216 26.851108 
L 163.212646 26.833859 
L 163.560075 26.816869 
L 163.907505 26.800133 
L 164.254934 26.783651 
L 164.602363 26.767417 
L 164.949793 26.751414 
L 165.297222 26.735639 
L 165.644651 26.720092 
L 165.992081 26.704774 
L 166.33951 26.689683 
L 166.68694 26.674819 
L 167.034369 26.660182 
L 167.381798 26.645771 
L 167.729228 26.631587 
L 168.076657 26.617628 
L 168.424086 26.603895 
L 168.771516 26.590386 
L 169.118945 26.577095 
L 169.466375 26.563978 
L 169.813804 26.551029 
L 170.161233 26.538251 
L 170.508663 26.525643 
L 170.856092 26.513207 
L 171.203521 26.500943 
L 171.550951 26.488852 
L 171.89838 26.476936 
L 172.245809 26.465196 
L 172.593239 26.453631 
L 172.940668 26.442244 
L 173.288098 26.431034 
L 173.635527 26.420003 
L 173.982956 26.409153 
L 174.330386 26.398463 
L 174.677815 26.387918 
L 175.025244 26.377515 
L 175.372674 26.367256 
L 175.720103 26.357139 
L 176.067533 26.347164 
L 176.414962 26.337332 
L 176.762391 26.327641 
L 177.109821 26.318092 
L 177.45725 26.308685 
L 177.804679 26.299418 
L 178.152109 26.290292 
L 178.499538 26.281307 
L 178.846968 26.272462 
L 179.194397 26.263751 
L 179.541826 26.255148 
L 179.889256 26.24665 
L 180.236685 26.238259 
L 180.584114 26.229979 
L 180.931544 26.221813 
L 181.278973 26.213762 
L 181.626403 26.20583 
L 181.973832 26.198021 
L 182.321261 26.190335 
L 182.668691 26.182777 
L 183.01612 26.175348 
L 183.363549 26.168053 
L 183.710979 26.160893 
L 184.058408 26.153871 
L 184.058408 25.769585 
L 184.058408 25.769585 
L 183.710979 25.772967 
L 183.363549 25.77643 
L 183.01612 25.779973 
L 182.668691 25.783593 
L 182.321261 25.787288 
L 181.973832 25.791057 
L 181.626403 25.794898 
L 181.278973 25.798809 
L 180.931544 25.802788 
L 180.584114 25.806833 
L 180.236685 25.810942 
L 179.889256 25.815114 
L 179.541826 25.819347 
L 179.194397 25.823638 
L 178.846968 25.82799 
L 178.499538 25.832422 
L 178.152109 25.836938 
L 177.804679 25.841538 
L 177.45725 25.846222 
L 177.109821 25.850988 
L 176.762391 25.855837 
L 176.414962 25.860769 
L 176.067533 25.865783 
L 175.720103 25.870878 
L 175.372674 25.876055 
L 175.025244 25.881313 
L 174.677815 25.886652 
L 174.330386 25.892071 
L 173.982956 25.897571 
L 173.635527 25.903164 
L 173.288098 25.908864 
L 172.940668 25.914671 
L 172.593239 25.920583 
L 172.245809 25.926599 
L 171.89838 25.932719 
L 171.550951 25.938941 
L 171.203521 25.945264 
L 170.856092 25.951688 
L 170.508663 25.95821 
L 170.161233 25.964831 
L 169.813804 25.971549 
L 169.466375 25.978363 
L 169.118945 25.985273 
L 168.771516 25.992281 
L 168.424086 25.999417 
L 168.076657 26.006686 
L 167.729228 26.014089 
L 167.381798 26.021624 
L 167.034369 26.029291 
L 166.68694 26.03709 
L 166.33951 26.04502 
L 165.992081 26.053081 
L 165.644651 26.061273 
L 165.297222 26.069595 
L 164.949793 26.078047 
L 164.602363 26.086628 
L 164.254934 26.095341 
L 163.907505 26.104198 
L 163.560075 26.113205 
L 163.212646 26.122362 
L 162.865216 26.131669 
L 162.517787 26.141128 
L 162.170358 26.15074 
L 161.822928 26.160504 
L 161.475499 26.170423 
L 161.12807 26.180495 
L 160.78064 26.190723 
L 160.433211 26.201107 
L 160.085781 26.211647 
L 159.738352 26.222345 
L 159.390923 26.233201 
L 159.043493 26.244231 
L 158.696064 26.255458 
L 158.348635 26.266882 
L 158.001205 26.278502 
L 157.653776 26.290318 
L 157.306346 26.30233 
L 156.958917 26.314537 
L 156.611488 26.326939 
L 156.264058 26.339535 
L 155.916629 26.352326 
L 155.5692 26.36531 
L 155.22177 26.378488 
L 154.874341 26.391859 
L 154.526911 26.405423 
L 154.179482 26.419183 
L 153.832053 26.433185 
L 153.484623 26.447438 
L 153.137194 26.461939 
L 152.789765 26.476687 
L 152.442335 26.491679 
L 152.094906 26.506914 
L 151.747476 26.522389 
L 151.400047 26.538103 
L 151.052618 26.554053 
L 150.705188 26.570238 
L 150.357759 26.586655 
L 150.01033 26.603303 
L 149.6629 26.62018 
L 149.315471 26.637283 
L 148.968042 26.654646 
L 148.620612 26.672321 
L 148.273183 26.690308 
L 147.925753 26.708607 
L 147.578324 26.727217 
L 147.230895 26.746139 
L 146.883465 26.765371 
L 146.536036 26.784913 
L 146.188607 26.804766 
L 145.841177 26.824928 
L 145.493748 26.845399 
L 145.146318 26.866179 
L 144.798889 26.887267 
L 144.45146 26.908677 
L 144.10403 26.930435 
L 143.756601 26.952545 
L 143.409172 26.975007 
L 143.061742 26.997826 
L 142.714313 27.021001 
L 142.366883 27.044537 
L 142.019454 27.068435 
L 141.672025 27.092697 
L 141.324595 27.117326 
L 140.977166 27.142324 
L 140.629737 27.167692 
L 140.282307 27.193434 
L 139.934878 27.219551 
L 139.587448 27.246049 
L 139.240019 27.272991 
L 138.89259 27.300395 
L 138.54516 27.328261 
L 138.197731 27.356589 
L 137.850302 27.385378 
L 137.502872 27.414628 
L 137.155443 27.444339 
L 136.808013 27.47451 
L 136.460584 27.505142 
L 136.113155 27.536233 
L 135.765725 27.567783 
L 135.418296 27.599793 
L 135.070867 27.632262 
L 134.723437 27.665189 
L 134.376008 27.69862 
L 134.028578 27.73264 
L 133.681149 27.767247 
L 133.33372 27.802438 
L 132.98629 27.838209 
L 132.638861 27.874555 
L 132.291432 27.911471 
L 131.944002 27.948955 
L 131.596573 27.987001 
L 131.249144 28.025606 
L 130.901714 28.064765 
L 130.554285 28.104474 
L 130.206855 28.14473 
L 129.859426 28.185526 
L 129.511997 28.22687 
L 129.164567 28.268902 
L 128.817138 28.31167 
L 128.469709 28.355175 
L 128.122279 28.399415 
L 127.77485 28.444392 
L 127.42742 28.490103 
L 127.079991 28.53655 
L 126.732562 28.583732 
L 126.385132 28.631649 
L 126.037703 28.6803 
L 125.690274 28.729685 
L 125.342844 28.779804 
L 124.995415 28.830659 
L 124.647985 28.88231 
L 124.300556 28.934787 
L 123.953127 28.988096 
L 123.605697 29.042242 
L 123.258268 29.097232 
L 122.910839 29.15307 
L 122.563409 29.209764 
L 122.21598 29.267317 
L 121.86855 29.325737 
L 121.521121 29.385029 
L 121.173692 29.445199 
L 120.826262 29.506252 
L 120.478833 29.568195 
L 120.131404 29.631032 
L 119.783974 29.694821 
L 119.436545 29.759698 
L 119.089115 29.825667 
L 118.741686 29.892729 
L 118.394257 29.960885 
L 118.046827 30.030133 
L 117.699398 30.100474 
L 117.351969 30.171907 
L 117.004539 30.244432 
L 116.65711 30.318049 
L 116.30968 30.392758 
L 115.962251 30.468558 
L 115.614822 30.54545 
L 115.267392 30.623433 
L 114.919963 30.702515 
L 114.572534 30.782908 
L 114.225104 30.864699 
L 113.877675 30.947879 
L 113.530245 31.032438 
L 113.182816 31.118367 
L 112.835387 31.205656 
L 112.487957 31.294296 
L 112.140528 31.384277 
L 111.793099 31.475591 
L 111.445669 31.568227 
L 111.09824 31.662176 
L 110.750811 31.757428 
L 110.403381 31.853975 
L 110.055952 31.951806 
L 109.708522 32.051035 
L 109.361093 32.151992 
L 109.013664 32.254696 
L 108.666234 32.359147 
L 108.318805 32.465344 
L 107.971376 32.573288 
L 107.623946 32.682977 
L 107.276517 32.794413 
L 106.929087 32.907595 
L 106.581658 33.022522 
L 106.234229 33.139195 
L 105.886799 33.257613 
L 105.53937 33.377777 
L 105.191941 33.499729 
L 104.844511 33.623622 
L 104.497082 33.749481 
L 104.149652 33.87732 
L 103.802223 34.007153 
L 103.454794 34.138995 
L 103.107364 34.27286 
L 102.759935 34.40876 
L 102.412506 34.546712 
L 102.065076 34.686727 
L 101.717647 34.828822 
L 101.370217 34.973009 
L 101.022788 35.119303 
L 100.675359 35.267718 
L 100.327929 35.418273 
L 99.9805 35.571311 
L 99.633071 35.727012 
L 99.285641 35.885356 
L 98.938212 36.046327 
L 98.590782 36.209906 
L 98.243353 36.376077 
L 97.895924 36.54482 
L 97.548494 36.716119 
L 97.201065 36.889956 
L 96.853636 37.066312 
L 96.506206 37.24517 
L 96.158777 37.426513 
L 95.811347 37.610322 
L 95.463918 37.796579 
L 95.116489 37.98566 
L 94.769059 38.178844 
L 94.42163 38.376016 
L 94.074201 38.576932 
L 93.726771 38.781347 
L 93.379342 38.989017 
L 93.031913 39.199698 
L 92.684483 39.413145 
L 92.337054 39.629114 
L 91.989624 39.847361 
L 91.642195 40.067641 
L 91.294766 40.289711 
L 90.947336 40.513325 
L 90.599907 40.774357 
L 90.252478 40.848268 
L 89.905048 37.170467 
L 89.557619 36.638768 
L 89.210189 36.663104 
L 88.86276 36.702622 
L 88.515331 36.752162 
L 88.167901 36.806563 
L 87.820472 36.860666 
L 87.473043 36.909311 
L 87.125613 36.948555 
L 86.778184 36.985005 
L 86.430754 37.020573 
L 86.083325 37.055231 
L 85.735896 37.088952 
L 85.388466 37.121708 
L 85.041037 37.153472 
L 84.693608 37.184221 
L 84.346178 37.214166 
L 83.998749 37.243387 
L 83.651319 37.271831 
L 83.30389 37.299441 
L 82.956461 37.326164 
L 82.609031 37.351945 
L 82.261602 37.37673 
L 81.914173 37.400681 
L 81.566743 37.424026 
L 81.219314 37.446689 
L 80.871884 37.468589 
L 80.524455 37.489646 
L 80.177026 37.50978 
L 79.829596 37.528912 
L 79.482167 37.547106 
L 79.134738 37.564757 
L 78.787308 37.581807 
L 78.439879 37.598163 
L 78.092449 37.61373 
L 77.74502 37.628414 
L 77.397591 37.642122 
L 77.050161 37.654816 
L 76.702732 37.66693 
L 76.355303 37.678519 
L 76.007873 37.689516 
L 75.660444 37.699858 
L 75.313014 37.709478 
L 74.965585 37.718311 
L 74.618156 37.726295 
L 74.270726 37.733549 
L 73.923297 37.74024 
L 73.575868 37.746466 
L 73.228438 37.752326 
L 72.881009 37.757919 
L 72.53358 37.763344 
L 72.18615 37.768701 
L 71.838721 37.773781 
L 71.491291 37.778324 
L 71.143862 37.78258 
L 70.796433 37.786799 
L 70.449003 37.791236 
L 70.101574 37.796141 
L 69.754145 37.801769 
L 69.406715 37.808278 
L 69.059286 37.815577 
L 68.711856 37.823852 
L 68.364427 37.833319 
L 68.016998 37.844189 
L 67.669568 37.856679 
L 67.322139 37.871601 
L 66.97471 37.890091 
L 66.62728 37.912104 
L 66.279851 37.937572 
L 65.932421 37.966427 
L 65.584992 37.998602 
L 65.237563 38.034028 
L 64.890133 38.073829 
L 64.542704 38.122904 
L 64.195275 38.18134 
L 63.847845 38.248614 
L 63.500416 38.324203 
L 63.152986 38.407583 
L 62.805557 38.498231 
L 62.458128 38.596366 
L 62.110698 38.711106 
L 61.763269 38.844516 
L 61.41584 38.995589 
L 61.06841 39.163316 
L 60.720981 39.346691 
L 60.373551 39.544706 
L 60.026122 39.756418 
L 59.678693 39.993267 
L 59.331263 40.263045 
L 58.983834 40.564037 
L 58.636405 40.894526 
L 58.288975 41.252794 
L 57.941546 41.637126 
L 57.594116 42.045805 
L 57.246687 42.488142 
L 56.899258 42.982897 
L 56.551828 43.527733 
L 56.204399 44.119786 
L 55.85697 44.756195 
L 55.50954 45.434097 
L 55.162111 46.150629 
L 54.814681 46.909421 
L 54.467252 47.737911 
L 54.119823 48.637553 
L 53.772393 49.60604 
L 53.424964 50.641064 
L 53.077535 51.740318 
L 52.730105 52.901497 
L 52.382676 54.117142 
L 52.035247 55.328841 
L 51.687817 56.570959 
L 51.340388 57.90799 
L 50.992958 59.404428 
L 50.645529 61.124769 
L 50.2981 63.133506 
L 49.95067 65.495196 
L 49.603241 68.323505 
L 49.255812 71.832189 
L 48.908382 76.242154 
L 48.560953 81.774306 
L 48.213523 88.64955 
L 47.866094 97.088794 
L 47.518665 107.312942 
L 47.171235 128.45346 
L 46.823806 175.794803 
L 46.476377 244.431055 
L 46.128947 328.887705 
L 45.781518 423.690239 
L 45.434088 523.364145 
z
" clip-path="url(#p81c6d16b4c)" style="fill: #e731a6; fill-opacity: 0.2"/>
   </g>
   <g id="matplotlib.axis_1">
    <g id="xtick_1">
     <g id="line2d_1">
      <defs>
       <path id="m75bd50bc2a" d="M 0 0 
L 0 3.5 
" style="stroke: #000000; stroke-width: 0.8"/>
      </defs>
      <g>
       <use xlink:href="#m75bd50bc2a" x="44.93" y="124" style="stroke: #000000; stroke-width: 0.8"/>
      </g>
     </g>
     <g id="text_1">
      <!-- 0 -->
      <g transform="translate(42.428281 137.561563) scale(0.09 -0.09)">
       <defs>
        <path id="NimbusSans-Regular-30" d="M 1760 4627 
C 1338 4627 954 4435 717 4122 
C 422 3712 275 3098 275 2240 
C 275 678 787 -147 1760 -147 
C 2720 -147 3245 678 3245 2202 
C 3245 3098 3104 3699 2803 4122 
C 2566 4442 2189 4627 1760 4627 
z
M 1760 4128 
C 2368 4128 2669 3507 2669 2253 
C 2669 934 2374 320 1747 320 
C 1152 320 851 960 851 2234 
C 851 3507 1152 4128 1760 4128 
z
" transform="scale(0.015625)"/>
       </defs>
       <use xlink:href="#NimbusSans-Regular-30"/>
      </g>
     </g>
    </g>
    <g id="xtick_2">
     <g id="line2d_2">
      <g>
       <use xlink:href="#m75bd50bc2a" x="95.338844" y="124" style="stroke: #000000; stroke-width: 0.8"/>
      </g>
     </g>
     <g id="text_2">
      <!-- 100 -->
      <g transform="translate(87.833687 137.561563) scale(0.09 -0.09)">
       <defs>
        <path id="NimbusSans-Regular-31" d="M 1658 3296 
L 1658 0 
L 2221 0 
L 2221 4627 
L 1850 4627 
C 1651 3917 1523 3821 653 3706 
L 653 3296 
L 1658 3296 
z
" transform="scale(0.015625)"/>
       </defs>
       <use xlink:href="#NimbusSans-Regular-31"/>
       <use xlink:href="#NimbusSans-Regular-30" transform="translate(55.599991 0)"/>
       <use xlink:href="#NimbusSans-Regular-30" transform="translate(111.199982 0)"/>
      </g>
     </g>
    </g>
    <g id="xtick_3">
     <g id="line2d_3">
      <g>
       <use xlink:href="#m75bd50bc2a" x="145.747687" y="124" style="stroke: #000000; stroke-width: 0.8"/>
      </g>
     </g>
     <g id="text_3">
      <!-- 200 -->
      <g transform="translate(138.242531 137.561563) scale(0.09 -0.09)">
       <defs>
        <path id="NimbusSans-Regular-32" d="M 3238 557 
L 851 557 
C 909 941 1114 1184 1670 1523 
L 2310 1882 
C 2944 2234 3270 2707 3270 3277 
C 3270 3661 3117 4019 2848 4269 
C 2579 4512 2246 4627 1818 4627 
C 1242 4627 813 4422 563 4026 
C 403 3782 333 3494 320 3027 
L 883 3027 
C 902 3341 941 3526 1018 3680 
C 1165 3962 1459 4134 1798 4134 
C 2310 4134 2694 3763 2694 3264 
C 2694 2893 2483 2573 2080 2342 
L 1491 1997 
C 544 1453 269 1018 218 6 
L 3238 6 
L 3238 557 
z
" transform="scale(0.015625)"/>
       </defs>
       <use xlink:href="#NimbusSans-Regular-32"/>
       <use xlink:href="#NimbusSans-Regular-30" transform="translate(55.599991 0)"/>
       <use xlink:href="#NimbusSans-Regular-30" transform="translate(111.199982 0)"/>
      </g>
     </g>
    </g>
    <g id="text_4">
     <!-- Sample size -->
     <g transform="translate(73.35327 150.191719) scale(0.09 -0.09)">
      <defs>
       <path id="NimbusSans-Regular-53" d="M 3814 3296 
C 3814 3616 3795 3706 3693 3923 
C 3437 4461 2893 4742 2106 4742 
C 1082 4742 448 4218 448 3373 
C 448 2803 749 2445 1363 2285 
L 2522 1978 
C 3117 1824 3379 1587 3379 1222 
C 3379 973 3245 717 3046 576 
C 2861 442 2566 378 2189 378 
C 1677 378 1338 499 1114 768 
C 941 973 864 1197 870 1485 
L 307 1485 
C 314 1056 397 774 582 518 
C 902 77 1440 -147 2150 -147 
C 2707 -147 3162 -19 3462 211 
C 3776 461 3974 877 3974 1280 
C 3974 1856 3616 2278 2982 2451 
L 1811 2765 
C 1248 2918 1043 3098 1043 3456 
C 1043 3930 1459 4243 2086 4243 
C 2829 4243 3245 3910 3251 3296 
L 3814 3296 
z
" transform="scale(0.015625)"/>
       <path id="NimbusSans-Regular-61" d="M 3424 314 
C 3366 301 3341 301 3309 301 
C 3123 301 3021 397 3021 563 
L 3021 2534 
C 3021 3130 2586 3450 1760 3450 
C 1267 3450 877 3309 646 3059 
C 493 2886 429 2694 416 2362 
L 954 2362 
C 998 2771 1242 2957 1741 2957 
C 2227 2957 2490 2778 2490 2458 
L 2490 2317 
C 2483 2086 2368 2003 1933 1946 
C 1178 1850 1062 1824 858 1741 
C 467 1574 269 1280 269 845 
C 269 237 691 -147 1370 -147 
C 1792 -147 2131 0 2509 346 
C 2547 0 2714 -147 3059 -147 
C 3174 -147 3245 -134 3424 -90 
L 3424 314 
z
M 2490 1056 
C 2490 877 2438 768 2278 621 
C 2061 422 1798 320 1485 320 
C 1069 320 826 518 826 858 
C 826 1210 1056 1389 1632 1472 
C 2202 1549 2310 1574 2490 1658 
L 2490 1056 
z
" transform="scale(0.015625)"/>
       <path id="NimbusSans-Regular-6d" d="M 448 3354 
L 448 0 
L 986 0 
L 986 2106 
C 986 2592 1338 2982 1773 2982 
C 2170 2982 2394 2739 2394 2310 
L 2394 0 
L 2931 0 
L 2931 2106 
C 2931 2592 3283 2982 3718 2982 
C 4109 2982 4339 2733 4339 2310 
L 4339 0 
L 4877 0 
L 4877 2515 
C 4877 3117 4531 3450 3904 3450 
C 3456 3450 3187 3315 2874 2938 
C 2675 3296 2406 3450 1971 3450 
C 1523 3450 1222 3283 941 2880 
L 941 3354 
L 448 3354 
z
" transform="scale(0.015625)"/>
       <path id="NimbusSans-Regular-70" d="M 346 -1395 
L 883 -1395 
L 883 352 
C 1165 6 1478 -147 1914 -147 
C 2784 -147 3347 550 3347 1619 
C 3347 2746 2797 3450 1907 3450 
C 1453 3450 1088 3245 838 2848 
L 838 3354 
L 346 3354 
L 346 -1395 
z
M 1818 2950 
C 2406 2950 2790 2432 2790 1632 
C 2790 870 2400 352 1818 352 
C 1248 352 883 864 883 1651 
C 883 2438 1248 2950 1818 2950 
z
" transform="scale(0.015625)"/>
       <path id="NimbusSans-Regular-6c" d="M 973 4666 
L 435 4666 
L 435 0 
L 973 0 
L 973 4666 
z
" transform="scale(0.015625)"/>
       <path id="NimbusSans-Regular-65" d="M 3283 1498 
C 3283 2010 3245 2317 3149 2566 
C 2931 3117 2419 3450 1792 3450 
C 858 3450 256 2739 256 1632 
C 256 525 832 -147 1779 -147 
C 2547 -147 3078 288 3213 1018 
L 2675 1018 
C 2528 576 2227 346 1798 346 
C 1459 346 1171 499 992 781 
C 864 973 819 1165 813 1498 
L 3283 1498 
z
M 826 1933 
C 870 2554 1248 2957 1786 2957 
C 2330 2957 2707 2534 2707 1933 
L 826 1933 
z
" transform="scale(0.015625)"/>
       <path id="NimbusSans-Regular-20" transform="scale(0.015625)"/>
       <path id="NimbusSans-Regular-73" d="M 2803 2419 
C 2797 3078 2362 3450 1587 3450 
C 806 3450 301 3046 301 2426 
C 301 1901 570 1651 1363 1459 
L 1862 1338 
C 2234 1248 2381 1114 2381 877 
C 2381 557 2067 346 1600 346 
C 1312 346 1069 429 934 570 
C 851 666 813 762 781 998 
L 218 998 
C 243 224 678 -147 1555 -147 
C 2400 -147 2938 269 2938 915 
C 2938 1414 2656 1690 1990 1850 
L 1478 1971 
C 1043 2074 858 2214 858 2451 
C 858 2765 1133 2957 1568 2957 
C 1997 2957 2227 2771 2240 2419 
L 2803 2419 
z
" transform="scale(0.015625)"/>
       <path id="NimbusSans-Regular-69" d="M 960 3354 
L 429 3354 
L 429 0 
L 960 0 
L 960 3354 
z
M 960 4666 
L 422 4666 
L 422 3994 
L 960 3994 
L 960 4666 
z
" transform="scale(0.015625)"/>
       <path id="NimbusSans-Regular-7a" d="M 2835 3354 
L 333 3354 
L 333 2886 
L 2202 2886 
L 198 480 
L 198 0 
L 2925 0 
L 2925 467 
L 845 467 
L 2835 2880 
L 2835 3354 
z
" transform="scale(0.015625)"/>
      </defs>
      <use xlink:href="#NimbusSans-Regular-53"/>
      <use xlink:href="#NimbusSans-Regular-61" transform="translate(66.699997 0)"/>
      <use xlink:href="#NimbusSans-Regular-6d" transform="translate(122.299988 0)"/>
      <use xlink:href="#NimbusSans-Regular-70" transform="translate(205.599976 0)"/>
      <use xlink:href="#NimbusSans-Regular-6c" transform="translate(261.199966 0)"/>
      <use xlink:href="#NimbusSans-Regular-65" transform="translate(283.399963 0)"/>
      <use xlink:href="#NimbusSans-Regular-20" transform="translate(338.999954 0)"/>
      <use xlink:href="#NimbusSans-Regular-73" transform="translate(366.799942 0)"/>
      <use xlink:href="#NimbusSans-Regular-69" transform="translate(416.799927 0)"/>
      <use xlink:href="#NimbusSans-Regular-7a" transform="translate(438.999924 0)"/>
      <use xlink:href="#NimbusSans-Regular-65" transform="translate(488.999908 0)"/>
     </g>
    </g>
   </g>
   <g id="matplotlib.axis_2">
    <g id="ytick_1">
     <g id="line2d_4">
      <defs>
       <path id="ma9e5293bf7" d="M 0 0 
L -3.5 0 
" style="stroke: #000000; stroke-width: 0.8"/>
      </defs>
      <g>
       <use xlink:href="#ma9e5293bf7" x="44.93" y="124" style="stroke: #000000; stroke-width: 0.8"/>
      </g>
     </g>
     <g id="text_5">
      <!-- 0.90 -->
      <g transform="translate(22.36375 126.91625) scale(0.08 -0.08)">
       <defs>
        <path id="NimbusSans-Regular-2e" d="M 1222 666 
L 557 666 
L 557 0 
L 1222 0 
L 1222 666 
z
" transform="scale(0.015625)"/>
        <path id="NimbusSans-Regular-39" d="M 339 1056 
C 448 301 934 -147 1626 -147 
C 2131 -147 2579 96 2848 512 
C 3130 966 3258 1530 3258 2368 
C 3258 3149 3142 3642 2874 4051 
C 2624 4429 2227 4627 1728 4627 
C 864 4627 243 3981 243 3085 
C 243 2234 819 1632 1638 1632 
C 2067 1632 2387 1786 2675 2138 
C 2669 986 2310 352 1664 352 
C 1267 352 992 608 902 1056 
L 339 1056 
z
M 1722 4134 
C 2246 4134 2643 3693 2643 3098 
C 2643 2528 2259 2131 1702 2131 
C 1158 2131 819 2515 819 3130 
C 819 3712 1197 4134 1722 4134 
z
" transform="scale(0.015625)"/>
       </defs>
       <use xlink:href="#NimbusSans-Regular-30"/>
       <use xlink:href="#NimbusSans-Regular-2e" transform="translate(55.599991 0)"/>
       <use xlink:href="#NimbusSans-Regular-39" transform="translate(83.399979 0)"/>
       <use xlink:href="#NimbusSans-Regular-30" transform="translate(138.999969 0)"/>
      </g>
     </g>
    </g>
    <g id="ytick_2">
     <g id="line2d_5">
      <g>
       <use xlink:href="#ma9e5293bf7" x="44.93" y="104.32381" style="stroke: #000000; stroke-width: 0.8"/>
      </g>
     </g>
     <g id="text_6">
      <!-- 0.92 -->
      <g transform="translate(22.36375 107.24006) scale(0.08 -0.08)">
       <use xlink:href="#NimbusSans-Regular-30"/>
       <use xlink:href="#NimbusSans-Regular-2e" transform="translate(55.599991 0)"/>
       <use xlink:href="#NimbusSans-Regular-39" transform="translate(83.399979 0)"/>
       <use xlink:href="#NimbusSans-Regular-32" transform="translate(138.999969 0)"/>
      </g>
     </g>
    </g>
    <g id="ytick_3">
     <g id="line2d_6">
      <g>
       <use xlink:href="#ma9e5293bf7" x="44.93" y="84.647619" style="stroke: #000000; stroke-width: 0.8"/>
      </g>
     </g>
     <g id="text_7">
      <!-- 0.94 -->
      <g transform="translate(22.36375 87.563869) scale(0.08 -0.08)">
       <defs>
        <path id="NimbusSans-Regular-34" d="M 2093 1120 
L 2093 0 
L 2656 0 
L 2656 1120 
L 3328 1120 
L 3328 1626 
L 2656 1626 
L 2656 4627 
L 2240 4627 
L 179 1715 
L 179 1120 
L 2093 1120 
z
M 2093 1626 
L 672 1626 
L 2093 3667 
L 2093 1626 
z
" transform="scale(0.015625)"/>
       </defs>
       <use xlink:href="#NimbusSans-Regular-30"/>
       <use xlink:href="#NimbusSans-Regular-2e" transform="translate(55.599991 0)"/>
       <use xlink:href="#NimbusSans-Regular-39" transform="translate(83.399979 0)"/>
       <use xlink:href="#NimbusSans-Regular-34" transform="translate(138.999969 0)"/>
      </g>
     </g>
    </g>
    <g id="ytick_4">
     <g id="line2d_7">
      <g>
       <use xlink:href="#ma9e5293bf7" x="44.93" y="64.971429" style="stroke: #000000; stroke-width: 0.8"/>
      </g>
     </g>
     <g id="text_8">
      <!-- 0.96 -->
      <g transform="translate(22.36375 67.887679) scale(0.08 -0.08)">
       <defs>
        <path id="NimbusSans-Regular-36" d="M 3187 3424 
C 3078 4179 2592 4627 1901 4627 
C 1402 4627 954 4384 685 3968 
C 397 3514 275 2950 275 2112 
C 275 1331 384 838 659 429 
C 902 51 1299 -147 1798 -147 
C 2662 -147 3283 499 3283 1402 
C 3283 2253 2707 2854 1894 2854 
C 1446 2854 1094 2688 851 2349 
C 858 3494 1216 4128 1862 4128 
C 2259 4128 2534 3872 2624 3424 
L 3187 3424 
z
M 1824 2355 
C 2368 2355 2707 1971 2707 1357 
C 2707 774 2323 352 1805 352 
C 1280 352 883 794 883 1382 
C 883 1958 1267 2355 1824 2355 
z
" transform="scale(0.015625)"/>
       </defs>
       <use xlink:href="#NimbusSans-Regular-30"/>
       <use xlink:href="#NimbusSans-Regular-2e" transform="translate(55.599991 0)"/>
       <use xlink:href="#NimbusSans-Regular-39" transform="translate(83.399979 0)"/>
       <use xlink:href="#NimbusSans-Regular-36" transform="translate(138.999969 0)"/>
      </g>
     </g>
    </g>
    <g id="ytick_5">
     <g id="line2d_8">
      <g>
       <use xlink:href="#ma9e5293bf7" x="44.93" y="45.295238" style="stroke: #000000; stroke-width: 0.8"/>
      </g>
     </g>
     <g id="text_9">
      <!-- 0.98 -->
      <g transform="translate(22.36375 48.211488) scale(0.08 -0.08)">
       <defs>
        <path id="NimbusSans-Regular-38" d="M 2502 2438 
C 2976 2726 3123 2957 3123 3392 
C 3123 4122 2566 4627 1760 4627 
C 960 4627 397 4122 397 3398 
C 397 2957 544 2733 1011 2438 
C 493 2176 237 1798 237 1286 
C 237 442 858 -147 1760 -147 
C 2656 -147 3283 442 3283 1286 
C 3283 1798 3027 2176 2502 2438 
z
M 1760 4128 
C 2240 4128 2547 3840 2547 3379 
C 2547 2944 2234 2656 1760 2656 
C 1280 2656 973 2944 973 3392 
C 973 3840 1280 4128 1760 4128 
z
M 1760 2182 
C 2323 2182 2707 1811 2707 1274 
C 2707 717 2330 352 1747 352 
C 1197 352 813 730 813 1267 
C 813 1818 1190 2182 1760 2182 
z
" transform="scale(0.015625)"/>
       </defs>
       <use xlink:href="#NimbusSans-Regular-30"/>
       <use xlink:href="#NimbusSans-Regular-2e" transform="translate(55.599991 0)"/>
       <use xlink:href="#NimbusSans-Regular-39" transform="translate(83.399979 0)"/>
       <use xlink:href="#NimbusSans-Regular-38" transform="translate(138.999969 0)"/>
      </g>
     </g>
    </g>
    <g id="ytick_6">
     <g id="line2d_9">
      <g>
       <use xlink:href="#ma9e5293bf7" x="44.93" y="25.619048" style="stroke: #000000; stroke-width: 0.8"/>
      </g>
     </g>
     <g id="text_10">
      <!-- 1.00 -->
      <g transform="translate(22.36375 28.535298) scale(0.08 -0.08)">
       <use xlink:href="#NimbusSans-Regular-31"/>
       <use xlink:href="#NimbusSans-Regular-2e" transform="translate(55.599991 0)"/>
       <use xlink:href="#NimbusSans-Regular-30" transform="translate(83.399979 0)"/>
       <use xlink:href="#NimbusSans-Regular-30" transform="translate(138.999969 0)"/>
      </g>
     </g>
    </g>
    <g id="text_11">
     <!-- Sample coverage -->
     <g transform="translate(16.402031 107.362109) rotate(-90) scale(0.09 -0.09)">
      <defs>
       <path id="NimbusSans-Regular-63" d="M 3014 2227 
C 2989 2554 2918 2765 2790 2950 
C 2560 3264 2157 3450 1690 3450 
C 781 3450 198 2733 198 1619 
C 198 538 774 -147 1683 -147 
C 2483 -147 2989 333 3053 1152 
L 2515 1152 
C 2426 614 2150 346 1696 346 
C 1107 346 755 826 755 1619 
C 755 2458 1101 2957 1683 2957 
C 2131 2957 2413 2694 2477 2227 
L 3014 2227 
z
" transform="scale(0.015625)"/>
       <path id="NimbusSans-Regular-6f" d="M 1741 3450 
C 794 3450 230 2778 230 1651 
C 230 518 794 -147 1747 -147 
C 2694 -147 3264 525 3264 1626 
C 3264 2790 2714 3450 1741 3450 
z
M 1747 2957 
C 2349 2957 2707 2464 2707 1632 
C 2707 838 2336 346 1747 346 
C 1152 346 787 838 787 1651 
C 787 2464 1152 2957 1747 2957 
z
" transform="scale(0.015625)"/>
       <path id="NimbusSans-Regular-76" d="M 1824 0 
L 3110 3354 
L 2509 3354 
L 1562 634 
L 666 3354 
L 64 3354 
L 1242 0 
L 1824 0 
z
" transform="scale(0.015625)"/>
       <path id="NimbusSans-Regular-72" d="M 442 3354 
L 442 0 
L 979 0 
L 979 1741 
C 986 2547 1318 2906 2054 2886 
L 2054 3430 
C 1965 3443 1914 3450 1850 3450 
C 1504 3450 1242 3245 934 2746 
L 934 3354 
L 442 3354 
z
" transform="scale(0.015625)"/>
       <path id="NimbusSans-Regular-67" d="M 2586 3354 
L 2586 2867 
C 2317 3270 2022 3450 1600 3450 
C 787 3450 224 2694 224 1619 
C 224 1056 358 646 646 307 
C 896 13 1216 -147 1562 -147 
C 1965 -147 2253 32 2534 454 
L 2534 282 
C 2534 -614 2285 -947 1619 -947 
C 1165 -947 928 -768 877 -384 
L 333 -384 
C 384 -1005 877 -1395 1606 -1395 
C 2099 -1395 2509 -1235 2726 -966 
C 2982 -653 3078 -237 3078 550 
L 3078 3354 
L 2586 3354 
z
M 1651 2957 
C 2214 2957 2534 2483 2534 1632 
C 2534 819 2208 346 1651 346 
C 1101 346 781 826 781 1651 
C 781 2470 1101 2957 1651 2957 
z
" transform="scale(0.015625)"/>
      </defs>
      <use xlink:href="#NimbusSans-Regular-53"/>
      <use xlink:href="#NimbusSans-Regular-61" transform="translate(66.699997 0)"/>
      <use xlink:href="#NimbusSans-Regular-6d" transform="translate(122.299988 0)"/>
      <use xlink:href="#NimbusSans-Regular-70" transform="translate(205.599976 0)"/>
      <use xlink:href="#NimbusSans-Regular-6c" transform="translate(261.199966 0)"/>
      <use xlink:href="#NimbusSans-Regular-65" transform="translate(283.399963 0)"/>
      <use xlink:href="#NimbusSans-Regular-20" transform="translate(338.999954 0)"/>
      <use xlink:href="#NimbusSans-Regular-63" transform="translate(366.799942 0)"/>
      <use xlink:href="#NimbusSans-Regular-6f" transform="translate(416.799927 0)"/>
      <use xlink:href="#NimbusSans-Regular-76" transform="translate(472.399918 0)"/>
      <use xlink:href="#NimbusSans-Regular-65" transform="translate(522.399902 0)"/>
      <use xlink:href="#NimbusSans-Regular-72" transform="translate(577.999893 0)"/>
      <use xlink:href="#NimbusSans-Regular-61" transform="translate(611.299881 0)"/>
      <use xlink:href="#NimbusSans-Regular-67" transform="translate(666.899872 0)"/>
      <use xlink:href="#NimbusSans-Regular-65" transform="translate(722.499863 0)"/>
     </g>
    </g>
   </g>
   <g id="line2d_10">
    <path d="M 48.549748 163 
L 48.908382 132.667223 
L 49.603241 93.958981 
L 49.95067 85.734266 
L 50.992958 76.091559 
L 52.035247 69.141625 
L 53.077535 64.161163 
L 54.119823 60.440276 
L 55.85697 55.346932 
L 57.246687 52.068759 
L 58.636405 49.462487 
L 60.026122 47.409508 
L 61.41584 45.757704 
L 62.805557 44.400074 
L 64.542704 43.047206 
L 66.62728 41.783471 
L 69.059286 40.625574 
L 71.838721 39.571008 
L 75.660444 38.407048 
L 80.524455 37.17656 
L 86.778184 35.820763 
L 93.726771 34.533564 
L 101.022788 33.41046 
L 108.318805 32.517431 
L 115.962251 31.830102 
L 122.910839 31.424301 
L 130.206855 31.242845 
L 132.98629 31.212977 
L 133.33372 29.450526 
L 133.33372 29.450526 
" clip-path="url(#p81c6d16b4c)" style="fill: none; stroke: #000000; stroke-width: 1.5; stroke-linecap: square"/>
   </g>
   <g id="line2d_11">
    <path d="M 133.681149 25.619048 
L 163 25.619048 
L 163 25.619048 
" clip-path="url(#p81c6d16b4c)" style="fill: none; stroke-dasharray: 1.5,2.475; stroke-dashoffset: 0; stroke: #000000; stroke-width: 1.5"/>
   </g>
   <g id="line2d_12">
    <path d="M 50.364495 163 
L 51.340388 136.631372 
L 52.382676 116.043604 
L 53.424964 99.844229 
L 54.467252 86.794797 
L 55.50954 76.773696 
L 56.551828 69.461634 
L 57.594116 63.605431 
L 58.636405 58.964803 
L 59.678693 55.483243 
L 60.720981 52.769062 
L 61.763269 50.565458 
L 62.805557 48.832133 
L 64.195275 47.090452 
L 65.584992 45.746844 
L 66.97471 44.716599 
L 68.711856 43.728762 
L 70.796433 42.813732 
L 73.575868 41.877679 
L 77.397591 40.830044 
L 84.346178 39.152435 
L 110.403381 33.084507 
L 110.403381 33.084507 
" clip-path="url(#p81c6d16b4c)" style="fill: none; stroke: #1e8ada; stroke-width: 1.5; stroke-linecap: square"/>
   </g>
   <g id="line2d_13">
    <path d="M 110.750811 33.005516 
L 117.004539 31.722686 
L 123.605697 30.608886 
L 130.901714 29.612421 
L 138.89259 28.748386 
L 147.925753 27.994422 
L 158.348635 27.347147 
L 163 27.1183 
L 163 27.1183 
" clip-path="url(#p81c6d16b4c)" style="fill: none; stroke-dasharray: 1.5,2.475; stroke-dashoffset: 0; stroke: #1e8ada; stroke-width: 1.5"/>
   </g>
   <g id="line2d_14">
    <path d="M 47.305736 163 
L 47.518665 147.477568 
L 48.213523 121.592488 
L 48.908382 103.977636 
L 49.603241 92.578411 
L 50.2981 85.26626 
L 50.992958 80.007578 
L 52.035247 74.332444 
L 53.424964 68.385865 
L 54.467252 64.888183 
L 55.85697 61.032962 
L 57.246687 57.907071 
L 58.636405 55.426221 
L 60.026122 53.447123 
L 61.41584 51.901327 
L 62.805557 50.707164 
L 64.195275 49.787979 
L 65.584992 49.107251 
L 67.322139 48.491304 
L 69.406715 48.022271 
L 72.18615 47.692625 
L 76.007873 47.524217 
L 83.30389 47.481745 
L 89.905048 47.439689 
L 90.252478 47.047501 
L 90.252478 47.047501 
" clip-path="url(#p81c6d16b4c)" style="fill: none; stroke: #e731a6; stroke-width: 1.5; stroke-linecap: square"/>
   </g>
   <g id="line2d_15">
    <path d="M 90.599907 46.716246 
L 93.726771 44.007692 
L 96.506206 41.884642 
L 99.633071 39.786418 
L 102.759935 37.964368 
L 106.234229 36.209465 
L 109.708522 34.705141 
L 113.530245 33.296739 
L 117.699398 32.007776 
L 122.21598 30.855001 
L 127.079991 29.843269 
L 132.638861 28.925807 
L 138.89259 28.128681 
L 146.188607 27.438383 
L 154.526911 26.878902 
L 163 26.486238 
L 163 26.486238 
" clip-path="url(#p81c6d16b4c)" style="fill: none; stroke-dasharray: 1.5,2.475; stroke-dashoffset: 0; stroke: #e731a6; stroke-width: 1.5"/>
   </g>
   <g id="patch_3">
    <path d="M 44.93 124 
L 44.93 20.7 
" style="fill: none; stroke: #000000; stroke-width: 0.8; stroke-linejoin: miter; stroke-linecap: square"/>
   </g>
   <g id="patch_4">
    <path d="M 44.93 124 
L 150.788571 124 
" style="fill: none; stroke: #000000; stroke-width: 0.8; stroke-linejoin: miter; stroke-linecap: square"/>
   </g>
   <g id="PathCollection_1">
    <defs>
     <path id="m025cb3349a" d="M 0 1.118034 
C 0.296506 1.118034 0.580908 1.000231 0.790569 0.790569 
C 1.000231 0.580908 1.118034 0.296506 1.118034 0 
C 1.118034 -0.296506 1.000231 -0.580908 0.790569 -0.790569 
C 0.580908 -1.000231 0.296506 -1.118034 0 -1.118034 
C -0.296506 -1.118034 -0.580908 -1.000231 -0.790569 -0.790569 
C -1.000231 -0.580908 -1.118034 -0.296506 -1.118034 0 
C -1.118034 0.296506 -1.000231 0.580908 -0.790569 0.790569 
C -0.580908 1.000231 -0.296506 1.118034 0 1.118034 
z
" style="stroke: #000000"/>
    </defs>
    <g clip-path="url(#p81c6d16b4c)">
     <use xlink:href="#m025cb3349a" x="133.649565" y="25.619048" style="stroke: #000000"/>
    </g>
   </g>
   <g id="text_12">
    <!-- 87 -->
    <g transform="translate(84.735823 15.780952) scale(0.07 -0.07)">
     <defs>
      <path id="NimbusSans-Regular-37" d="M 3328 4538 
L 294 4538 
L 294 3981 
L 2746 3981 
C 1664 2438 1222 1491 883 0 
L 1485 0 
C 1734 1453 2304 2701 3328 4064 
L 3328 4538 
z
" transform="scale(0.015625)"/>
     </defs>
     <use xlink:href="#NimbusSans-Regular-38"/>
     <use xlink:href="#NimbusSans-Regular-37" transform="translate(55.599991 0)"/>
    </g>
   </g>
   <g id="PathCollection_2">
    <defs>
     <path id="mf89be8ad88" d="M 0 1.118034 
C 0.296506 1.118034 0.580908 1.000231 0.790569 0.790569 
C 1.000231 0.580908 1.118034 0.296506 1.118034 0 
C 1.118034 -0.296506 1.000231 -0.580908 0.790569 -0.790569 
C 0.580908 -1.000231 0.296506 -1.118034 0 -1.118034 
C -0.296506 -1.118034 -0.580908 -1.000231 -0.790569 -0.790569 
C -1.000231 -0.580908 -1.118034 -0.296506 -1.118034 0 
C -1.118034 0.296506 -1.000231 0.580908 -0.790569 0.790569 
C -0.580908 1.000231 -0.296506 1.118034 0 1.118034 
z
" style="stroke: #1e8ada"/>
    </defs>
    <g clip-path="url(#p81c6d16b4c)">
     <use xlink:href="#mf89be8ad88" x="110.461497" y="33.071275" style="fill: #1e8ada; stroke: #1e8ada"/>
    </g>
   </g>
   <g id="text_13">
    <!-- 110 -->
    <g style="fill: #1e8ada" transform="translate(94.365952 15.780952) scale(0.07 -0.07)">
     <use xlink:href="#NimbusSans-Regular-31"/>
     <use xlink:href="#NimbusSans-Regular-31" transform="translate(55.599991 0)"/>
     <use xlink:href="#NimbusSans-Regular-30" transform="translate(111.199982 0)"/>
    </g>
   </g>
   <g id="PathCollection_3">
    <defs>
     <path id="m3837be2a24" d="M 0 1.118034 
C 0.296506 1.118034 0.580908 1.000231 0.790569 0.790569 
C 1.000231 0.580908 1.118034 0.296506 1.118034 0 
C 1.118034 -0.296506 1.000231 -0.580908 0.790569 -0.790569 
C 0.580908 -1.000231 0.296506 -1.118034 0 -1.118034 
C -0.296506 -1.118034 -0.580908 -1.000231 -0.790569 -0.790569 
C -1.000231 -0.580908 -1.118034 -0.296506 -1.118034 0 
C -1.118034 0.296506 -1.000231 0.580908 -0.790569 0.790569 
C -0.580908 1.000231 -0.296506 1.118034 0 1.118034 
z
" style="stroke: #e731a6"/>
    </defs>
    <g clip-path="url(#p81c6d16b4c)">
     <use xlink:href="#m3837be2a24" x="90.297959" y="47.000988" style="fill: #e731a6; stroke: #e731a6"/>
    </g>
   </g>
   <g id="text_14">
    <!-- 125 -->
    <g style="fill: #e731a6" transform="translate(102.06489 15.780952) scale(0.07 -0.07)">
     <defs>
      <path id="NimbusSans-Regular-35" d="M 3046 4538 
L 704 4538 
L 365 2067 
L 883 2067 
C 1146 2381 1363 2490 1722 2490 
C 2330 2490 2707 2074 2707 1402 
C 2707 749 2330 352 1715 352 
C 1222 352 922 602 787 1114 
L 224 1114 
C 301 742 365 563 499 397 
C 755 51 1216 -147 1728 -147 
C 2643 -147 3283 518 3283 1478 
C 3283 2374 2688 2989 1818 2989 
C 1498 2989 1242 2906 979 2714 
L 1158 3981 
L 3046 3981 
L 3046 4538 
z
" transform="scale(0.015625)"/>
     </defs>
     <use xlink:href="#NimbusSans-Regular-31"/>
     <use xlink:href="#NimbusSans-Regular-32" transform="translate(55.599991 0)"/>
     <use xlink:href="#NimbusSans-Regular-35" transform="translate(111.199982 0)"/>
    </g>
   </g>
   <g id="PathCollection_4">
    <defs>
     <path id="mc7b6072701" d="M -0 1.581139 
L 1.581139 -1.581139 
L -1.581139 -1.581139 
z
" style="stroke: #000000"/>
    </defs>
    <g clip-path="url(#p81c6d16b4c)">
     <use xlink:href="#mc7b6072701" x="88.627386" y="25.619048" style="stroke: #000000"/>
    </g>
   </g>
   <g id="PathCollection_5">
    <defs>
     <path id="m3ecee55553" d="M -0 1.581139 
L 1.581139 -1.581139 
L -1.581139 -1.581139 
z
" style="stroke: #1e8ada"/>
    </defs>
    <g clip-path="url(#p81c6d16b4c)">
     <use xlink:href="#m3ecee55553" x="100.203295" y="25.619048" style="fill: #1e8ada; stroke: #1e8ada"/>
    </g>
   </g>
   <g id="PathCollection_6">
    <defs>
     <path id="ma925768bc8" d="M -0 1.581139 
L 1.581139 -1.581139 
L -1.581139 -1.581139 
z
" style="stroke: #e731a6"/>
    </defs>
    <g clip-path="url(#p81c6d16b4c)">
     <use xlink:href="#ma925768bc8" x="107.902234" y="25.619048" style="fill: #e731a6; stroke: #e731a6"/>
    </g>
   </g>
  </g>
 </g>
 <defs>
  <clipPath id="p81c6d16b4c">
   <rect x="44.93" y="20.7" width="105.858571" height="103.3"/>
  </clipPath>
 </defs>
</svg>
