<?xml version="1.0" encoding="utf-8" standalone="no"?>
<!DOCTYPE svg PUBLIC "-//W3C//DTD SVG 1.1//EN"
  "http://www.w3.org/Graphics/SVG/1.1/DTD/svg11.dtd">
<svg xmlns:xlink="http://www.w3.org/1999/xlink" width="237.6pt" height="144pt" viewBox="0 0 237.6 144" xmlns="http://www.w3.org/2000/svg" version="1.1">
 <metadata>
  <rdf:RDF xmlns:dc="http://purl.org/dc/elements/1.1/" xmlns:cc="http://creativecommons.org/ns#" xmlns:rdf="http://www.w3.org/1999/02/22-rdf-syntax-ns#">
   <cc:Work>
    <dc:type rdf:resource="http://purl.org/dc/dcmitype/StillImage"/>
    <dc:date>2025-12-04T11:47:24.227120</dc:date>
    <dc:format>image/svg+xml</dc:format>
    <dc:creator>
     <cc:Agent>
      <dc:title>Matplotlib v3.10.7, https://matplotlib.org/</dc:title>
     </cc:Agent>
    </dc:creator>
   </cc:Work>
  </rdf:RDF>
 </metadata>
 <defs>
  <style type="text/css">*{stroke-linejoin: round; stroke-linecap: butt}</style>
 </defs>
 <g id="figure_1">
  <g id="patch_1">
   <path d="M 0 144 
L 237.6 144 
L 237.6 0 
L 0 0 
z
" style="fill: #ffffff"/>
  </g>
  <g id="axes_1">
   <g id="patch_2">
    <path d="M 48.62 102.04 
L 221.265 102.04 
L 221.265 14.76 
L 48.62 14.76 
z
" style="fill: #ffffff"/>
   </g>
   <g id="matplotlib.axis_1">
    <g id="xtick_1">
     <g id="line2d_1">
      <defs>
       <path id="m1e96eda4d3" d="M 0 0 
L 0 3.5 
" style="stroke: #000000; stroke-width: 0.8"/>
      </defs>
      <g>
       <use xlink:href="#m1e96eda4d3" x="48.62" y="102.04" style="stroke: #000000; stroke-width: 0.8"/>
      </g>
     </g>
     <g id="text_1">
      <!-- 0 -->
      <g transform="translate(45.840313 116.330625) scale(0.1 -0.1)">
       <defs>
        <path id="NimbusSans-Regular-30" d="M 1760 4627 
C 1338 4627 954 4435 717 4122 
C 422 3712 275 3098 275 2240 
C 275 678 787 -147 1760 -147 
C 2720 -147 3245 678 3245 2202 
C 3245 3098 3104 3699 2803 4122 
C 2566 4442 2189 4627 1760 4627 
z
M 1760 4128 
C 2368 4128 2669 3507 2669 2253 
C 2669 934 2374 320 1747 320 
C 1152 320 851 960 851 2234 
C 851 3507 1152 4128 1760 4128 
z
" transform="scale(0.015625)"/>
       </defs>
       <use xlink:href="#NimbusSans-Regular-30"/>
      </g>
     </g>
    </g>
    <g id="xtick_2">
     <g id="line2d_2">
      <g>
       <use xlink:href="#m1e96eda4d3" x="58.211389" y="102.04" style="stroke: #000000; stroke-width: 0.8"/>
      </g>
     </g>
    </g>
    <g id="xtick_3">
     <g id="line2d_3">
      <g>
       <use xlink:href="#m1e96eda4d3" x="67.802778" y="102.04" style="stroke: #000000; stroke-width: 0.8"/>
      </g>
     </g>
     <g id="text_2">
      <!-- 2 -->
      <g transform="translate(65.02309 116.330625) scale(0.1 -0.1)">
       <defs>
        <path id="NimbusSans-Regular-32" d="M 3238 557 
L 851 557 
C 909 941 1114 1184 1670 1523 
L 2310 1882 
C 2944 2234 3270 2707 3270 3277 
C 3270 3661 3117 4019 2848 4269 
C 2579 4512 2246 4627 1818 4627 
C 1242 4627 813 4422 563 4026 
C 403 3782 333 3494 320 3027 
L 883 3027 
C 902 3341 941 3526 1018 3680 
C 1165 3962 1459 4134 1798 4134 
C 2310 4134 2694 3763 2694 3264 
C 2694 2893 2483 2573 2080 2342 
L 1491 1997 
C 544 1453 269 1018 218 6 
L 3238 6 
L 3238 557 
z
" transform="scale(0.015625)"/>
       </defs>
       <use xlink:href="#NimbusSans-Regular-32"/>
      </g>
     </g>
    </g>
    <g id="xtick_4">
     <g id="line2d_4">
      <g>
       <use xlink:href="#m1e96eda4d3" x="77.394167" y="102.04" style="stroke: #000000; stroke-width: 0.8"/>
      </g>
     </g>
    </g>
    <g id="xtick_5">
     <g id="line2d_5">
      <g>
       <use xlink:href="#m1e96eda4d3" x="86.985556" y="102.04" style="stroke: #000000; stroke-width: 0.8"/>
      </g>
     </g>
     <g id="text_3">
      <!-- 4 -->
      <g transform="translate(84.205868 116.330625) scale(0.1 -0.1)">
       <defs>
        <path id="NimbusSans-Regular-34" d="M 2093 1120 
L 2093 0 
L 2656 0 
L 2656 1120 
L 3328 1120 
L 3328 1626 
L 2656 1626 
L 2656 4627 
L 2240 4627 
L 179 1715 
L 179 1120 
L 2093 1120 
z
M 2093 1626 
L 672 1626 
L 2093 3667 
L 2093 1626 
z
" transform="scale(0.015625)"/>
       </defs>
       <use xlink:href="#NimbusSans-Regular-34"/>
      </g>
     </g>
    </g>
    <g id="xtick_6">
     <g id="line2d_6">
      <g>
       <use xlink:href="#m1e96eda4d3" x="96.576944" y="102.04" style="stroke: #000000; stroke-width: 0.8"/>
      </g>
     </g>
    </g>
    <g id="xtick_7">
     <g id="line2d_7">
      <g>
       <use xlink:href="#m1e96eda4d3" x="106.168333" y="102.04" style="stroke: #000000; stroke-width: 0.8"/>
      </g>
     </g>
     <g id="text_4">
      <!-- 6 -->
      <g transform="translate(103.388646 116.330625) scale(0.1 -0.1)">
       <defs>
        <path id="NimbusSans-Regular-36" d="M 3187 3424 
C 3078 4179 2592 4627 1901 4627 
C 1402 4627 954 4384 685 3968 
C 397 3514 275 2950 275 2112 
C 275 1331 384 838 659 429 
C 902 51 1299 -147 1798 -147 
C 2662 -147 3283 499 3283 1402 
C 3283 2253 2707 2854 1894 2854 
C 1446 2854 1094 2688 851 2349 
C 858 3494 1216 4128 1862 4128 
C 2259 4128 2534 3872 2624 3424 
L 3187 3424 
z
M 1824 2355 
C 2368 2355 2707 1971 2707 1357 
C 2707 774 2323 352 1805 352 
C 1280 352 883 794 883 1382 
C 883 1958 1267 2355 1824 2355 
z
" transform="scale(0.015625)"/>
       </defs>
       <use xlink:href="#NimbusSans-Regular-36"/>
      </g>
     </g>
    </g>
    <g id="xtick_8">
     <g id="line2d_8">
      <g>
       <use xlink:href="#m1e96eda4d3" x="115.759722" y="102.04" style="stroke: #000000; stroke-width: 0.8"/>
      </g>
     </g>
    </g>
    <g id="xtick_9">
     <g id="line2d_9">
      <g>
       <use xlink:href="#m1e96eda4d3" x="125.351111" y="102.04" style="stroke: #000000; stroke-width: 0.8"/>
      </g>
     </g>
     <g id="text_5">
      <!-- 8 -->
      <g transform="translate(122.571424 116.330625) scale(0.1 -0.1)">
       <defs>
        <path id="NimbusSans-Regular-38" d="M 2502 2438 
C 2976 2726 3123 2957 3123 3392 
C 3123 4122 2566 4627 1760 4627 
C 960 4627 397 4122 397 3398 
C 397 2957 544 2733 1011 2438 
C 493 2176 237 1798 237 1286 
C 237 442 858 -147 1760 -147 
C 2656 -147 3283 442 3283 1286 
C 3283 1798 3027 2176 2502 2438 
z
M 1760 4128 
C 2240 4128 2547 3840 2547 3379 
C 2547 2944 2234 2656 1760 2656 
C 1280 2656 973 2944 973 3392 
C 973 3840 1280 4128 1760 4128 
z
M 1760 2182 
C 2323 2182 2707 1811 2707 1274 
C 2707 717 2330 352 1747 352 
C 1197 352 813 730 813 1267 
C 813 1818 1190 2182 1760 2182 
z
" transform="scale(0.015625)"/>
       </defs>
       <use xlink:href="#NimbusSans-Regular-38"/>
      </g>
     </g>
    </g>
    <g id="xtick_10">
     <g id="line2d_10">
      <g>
       <use xlink:href="#m1e96eda4d3" x="134.9425" y="102.04" style="stroke: #000000; stroke-width: 0.8"/>
      </g>
     </g>
    </g>
    <g id="xtick_11">
     <g id="line2d_11">
      <g>
       <use xlink:href="#m1e96eda4d3" x="144.533889" y="102.04" style="stroke: #000000; stroke-width: 0.8"/>
      </g>
     </g>
     <g id="text_6">
      <!-- 10 -->
      <g transform="translate(138.974514 116.330625) scale(0.1 -0.1)">
       <defs>
        <path id="NimbusSans-Regular-31" d="M 1658 3296 
L 1658 0 
L 2221 0 
L 2221 4627 
L 1850 4627 
C 1651 3917 1523 3821 653 3706 
L 653 3296 
L 1658 3296 
z
" transform="scale(0.015625)"/>
       </defs>
       <use xlink:href="#NimbusSans-Regular-31"/>
       <use xlink:href="#NimbusSans-Regular-30" transform="translate(55.599991 0)"/>
      </g>
     </g>
    </g>
    <g id="xtick_12">
     <g id="line2d_12">
      <g>
       <use xlink:href="#m1e96eda4d3" x="154.125278" y="102.04" style="stroke: #000000; stroke-width: 0.8"/>
      </g>
     </g>
    </g>
    <g id="xtick_13">
     <g id="line2d_13">
      <g>
       <use xlink:href="#m1e96eda4d3" x="163.716667" y="102.04" style="stroke: #000000; stroke-width: 0.8"/>
      </g>
     </g>
     <g id="text_7">
      <!-- 12 -->
      <g transform="translate(158.157292 116.330625) scale(0.1 -0.1)">
       <use xlink:href="#NimbusSans-Regular-31"/>
       <use xlink:href="#NimbusSans-Regular-32" transform="translate(55.599991 0)"/>
      </g>
     </g>
    </g>
    <g id="xtick_14">
     <g id="line2d_14">
      <g>
       <use xlink:href="#m1e96eda4d3" x="173.308056" y="102.04" style="stroke: #000000; stroke-width: 0.8"/>
      </g>
     </g>
    </g>
    <g id="xtick_15">
     <g id="line2d_15">
      <g>
       <use xlink:href="#m1e96eda4d3" x="182.899444" y="102.04" style="stroke: #000000; stroke-width: 0.8"/>
      </g>
     </g>
     <g id="text_8">
      <!-- 14 -->
      <g transform="translate(177.340069 116.330625) scale(0.1 -0.1)">
       <use xlink:href="#NimbusSans-Regular-31"/>
       <use xlink:href="#NimbusSans-Regular-34" transform="translate(55.599991 0)"/>
      </g>
     </g>
    </g>
    <g id="xtick_16">
     <g id="line2d_16">
      <g>
       <use xlink:href="#m1e96eda4d3" x="192.490833" y="102.04" style="stroke: #000000; stroke-width: 0.8"/>
      </g>
     </g>
    </g>
    <g id="xtick_17">
     <g id="line2d_17">
      <g>
       <use xlink:href="#m1e96eda4d3" x="202.082222" y="102.04" style="stroke: #000000; stroke-width: 0.8"/>
      </g>
     </g>
     <g id="text_9">
      <!-- 16 -->
      <g transform="translate(196.522847 116.330625) scale(0.1 -0.1)">
       <use xlink:href="#NimbusSans-Regular-31"/>
       <use xlink:href="#NimbusSans-Regular-36" transform="translate(55.599991 0)"/>
      </g>
     </g>
    </g>
    <g id="xtick_18">
     <g id="line2d_18">
      <g>
       <use xlink:href="#m1e96eda4d3" x="211.673611" y="102.04" style="stroke: #000000; stroke-width: 0.8"/>
      </g>
     </g>
    </g>
    <g id="xtick_19">
     <g id="line2d_19">
      <g>
       <use xlink:href="#m1e96eda4d3" x="221.265" y="102.04" style="stroke: #000000; stroke-width: 0.8"/>
      </g>
     </g>
     <g id="text_10">
      <!-- 18 -->
      <g transform="translate(215.705625 116.330625) scale(0.1 -0.1)">
       <use xlink:href="#NimbusSans-Regular-31"/>
       <use xlink:href="#NimbusSans-Regular-38" transform="translate(55.599991 0)"/>
      </g>
     </g>
    </g>
    <g id="text_11">
     <!-- Day -->
     <g transform="translate(126.052656 129.800938) scale(0.1 -0.1)">
      <defs>
       <path id="NimbusSans-Regular-44" d="M 570 0 
L 2368 0 
C 3546 0 4269 883 4269 2336 
C 4269 3782 3552 4666 2368 4666 
L 570 4666 
L 570 0 
z
M 1165 525 
L 1165 4141 
L 2266 4141 
C 3187 4141 3674 3520 3674 2330 
C 3674 1146 3187 525 2266 525 
L 1165 525 
z
" transform="scale(0.015625)"/>
       <path id="NimbusSans-Regular-61" d="M 3424 314 
C 3366 301 3341 301 3309 301 
C 3123 301 3021 397 3021 563 
L 3021 2534 
C 3021 3130 2586 3450 1760 3450 
C 1267 3450 877 3309 646 3059 
C 493 2886 429 2694 416 2362 
L 954 2362 
C 998 2771 1242 2957 1741 2957 
C 2227 2957 2490 2778 2490 2458 
L 2490 2317 
C 2483 2086 2368 2003 1933 1946 
C 1178 1850 1062 1824 858 1741 
C 467 1574 269 1280 269 845 
C 269 237 691 -147 1370 -147 
C 1792 -147 2131 0 2509 346 
C 2547 0 2714 -147 3059 -147 
C 3174 -147 3245 -134 3424 -90 
L 3424 314 
z
M 2490 1056 
C 2490 877 2438 768 2278 621 
C 2061 422 1798 320 1485 320 
C 1069 320 826 518 826 858 
C 826 1210 1056 1389 1632 1472 
C 2202 1549 2310 1574 2490 1658 
L 2490 1056 
z
" transform="scale(0.015625)"/>
       <path id="NimbusSans-Regular-79" d="M 2483 3354 
L 1555 742 
L 698 3354 
L 128 3354 
L 1261 -13 
L 1056 -544 
C 966 -781 851 -870 627 -870 
C 538 -870 461 -858 346 -832 
L 346 -1312 
C 454 -1370 563 -1395 704 -1395 
C 877 -1395 1062 -1338 1203 -1235 
C 1370 -1114 1466 -973 1568 -704 
L 3059 3354 
L 2483 3354 
z
" transform="scale(0.015625)"/>
      </defs>
      <use xlink:href="#NimbusSans-Regular-44"/>
      <use xlink:href="#NimbusSans-Regular-61" transform="translate(72.199982 0)"/>
      <use xlink:href="#NimbusSans-Regular-79" transform="translate(127.799973 0)"/>
     </g>
    </g>
   </g>
   <g id="matplotlib.axis_2">
    <g id="ytick_1">
     <g id="line2d_20">
      <defs>
       <path id="m38d5520723" d="M 0 0 
L -3.5 0 
" style="stroke: #000000; stroke-width: 0.8"/>
      </defs>
      <g>
       <use xlink:href="#m38d5520723" x="48.62" y="98.925863" style="stroke: #000000; stroke-width: 0.8"/>
      </g>
     </g>
     <g id="text_12">
      <!-- 0 -->
      <g transform="translate(36.060625 102.571176) scale(0.1 -0.1)">
       <use xlink:href="#NimbusSans-Regular-30"/>
      </g>
     </g>
    </g>
    <g id="ytick_2">
     <g id="line2d_21">
      <g>
       <use xlink:href="#m38d5520723" x="48.62" y="90.509277" style="stroke: #000000; stroke-width: 0.8"/>
      </g>
     </g>
    </g>
    <g id="ytick_3">
     <g id="line2d_22">
      <g>
       <use xlink:href="#m38d5520723" x="48.62" y="82.09269" style="stroke: #000000; stroke-width: 0.8"/>
      </g>
     </g>
     <g id="text_13">
      <!-- 20 -->
      <g transform="translate(30.50125 85.738003) scale(0.1 -0.1)">
       <use xlink:href="#NimbusSans-Regular-32"/>
       <use xlink:href="#NimbusSans-Regular-30" transform="translate(55.599991 0)"/>
      </g>
     </g>
    </g>
    <g id="ytick_4">
     <g id="line2d_23">
      <g>
       <use xlink:href="#m38d5520723" x="48.62" y="73.676104" style="stroke: #000000; stroke-width: 0.8"/>
      </g>
     </g>
    </g>
    <g id="ytick_5">
     <g id="line2d_24">
      <g>
       <use xlink:href="#m38d5520723" x="48.62" y="65.259518" style="stroke: #000000; stroke-width: 0.8"/>
      </g>
     </g>
     <g id="text_14">
      <!-- 40 -->
      <g transform="translate(30.50125 68.90483) scale(0.1 -0.1)">
       <use xlink:href="#NimbusSans-Regular-34"/>
       <use xlink:href="#NimbusSans-Regular-30" transform="translate(55.599991 0)"/>
      </g>
     </g>
    </g>
    <g id="ytick_6">
     <g id="line2d_25">
      <g>
       <use xlink:href="#m38d5520723" x="48.62" y="56.842932" style="stroke: #000000; stroke-width: 0.8"/>
      </g>
     </g>
    </g>
    <g id="ytick_7">
     <g id="line2d_26">
      <g>
       <use xlink:href="#m38d5520723" x="48.62" y="48.426345" style="stroke: #000000; stroke-width: 0.8"/>
      </g>
     </g>
     <g id="text_15">
      <!-- 60 -->
      <g transform="translate(30.50125 52.071658) scale(0.1 -0.1)">
       <use xlink:href="#NimbusSans-Regular-36"/>
       <use xlink:href="#NimbusSans-Regular-30" transform="translate(55.599991 0)"/>
      </g>
     </g>
    </g>
    <g id="ytick_8">
     <g id="line2d_27">
      <g>
       <use xlink:href="#m38d5520723" x="48.62" y="40.009759" style="stroke: #000000; stroke-width: 0.8"/>
      </g>
     </g>
    </g>
    <g id="ytick_9">
     <g id="line2d_28">
      <g>
       <use xlink:href="#m38d5520723" x="48.62" y="31.593173" style="stroke: #000000; stroke-width: 0.8"/>
      </g>
     </g>
     <g id="text_16">
      <!-- 80 -->
      <g transform="translate(30.50125 35.238485) scale(0.1 -0.1)">
       <use xlink:href="#NimbusSans-Regular-38"/>
       <use xlink:href="#NimbusSans-Regular-30" transform="translate(55.599991 0)"/>
      </g>
     </g>
    </g>
    <g id="ytick_10">
     <g id="line2d_29">
      <g>
       <use xlink:href="#m38d5520723" x="48.62" y="23.176586" style="stroke: #000000; stroke-width: 0.8"/>
      </g>
     </g>
    </g>
    <g id="ytick_11">
     <g id="line2d_30">
      <g>
       <use xlink:href="#m38d5520723" x="48.62" y="14.76" style="stroke: #000000; stroke-width: 0.8"/>
      </g>
     </g>
     <g id="text_17">
      <!-- 100 -->
      <g transform="translate(24.941875 18.405312) scale(0.1 -0.1)">
       <use xlink:href="#NimbusSans-Regular-31"/>
       <use xlink:href="#NimbusSans-Regular-30" transform="translate(55.599991 0)"/>
       <use xlink:href="#NimbusSans-Regular-30" transform="translate(111.199982 0)"/>
      </g>
     </g>
    </g>
    <g id="text_18">
     <!-- Cumulative visits -->
     <g transform="translate(18.762188 95.903906) rotate(-90) scale(0.1 -0.1)">
      <defs>
       <path id="NimbusSans-Regular-43" d="M 4237 3219 
C 4051 4243 3462 4742 2438 4742 
C 1811 4742 1306 4544 960 4160 
C 538 3699 307 3034 307 2278 
C 307 1510 544 851 979 397 
C 1344 26 1805 -147 2413 -147 
C 3552 -147 4192 467 4333 1702 
L 3718 1702 
C 3667 1382 3603 1165 3507 979 
C 3315 595 2918 378 2419 378 
C 1491 378 902 1120 902 2285 
C 902 3482 1459 4218 2368 4218 
C 2746 4218 3098 4109 3290 3923 
C 3462 3763 3558 3571 3629 3219 
L 4237 3219 
z
" transform="scale(0.015625)"/>
       <path id="NimbusSans-Regular-75" d="M 3085 0 
L 3085 3354 
L 2554 3354 
L 2554 1453 
C 2554 768 2195 320 1638 320 
C 1216 320 947 576 947 979 
L 947 3354 
L 416 3354 
L 416 768 
C 416 211 832 -147 1485 -147 
C 1978 -147 2291 26 2605 467 
L 2605 0 
L 3085 0 
z
" transform="scale(0.015625)"/>
       <path id="NimbusSans-Regular-6d" d="M 448 3354 
L 448 0 
L 986 0 
L 986 2106 
C 986 2592 1338 2982 1773 2982 
C 2170 2982 2394 2739 2394 2310 
L 2394 0 
L 2931 0 
L 2931 2106 
C 2931 2592 3283 2982 3718 2982 
C 4109 2982 4339 2733 4339 2310 
L 4339 0 
L 4877 0 
L 4877 2515 
C 4877 3117 4531 3450 3904 3450 
C 3456 3450 3187 3315 2874 2938 
C 2675 3296 2406 3450 1971 3450 
C 1523 3450 1222 3283 941 2880 
L 941 3354 
L 448 3354 
z
" transform="scale(0.015625)"/>
       <path id="NimbusSans-Regular-6c" d="M 973 4666 
L 435 4666 
L 435 0 
L 973 0 
L 973 4666 
z
" transform="scale(0.015625)"/>
       <path id="NimbusSans-Regular-74" d="M 1626 3354 
L 1075 3354 
L 1075 4275 
L 544 4275 
L 544 3354 
L 90 3354 
L 90 2918 
L 544 2918 
L 544 384 
C 544 38 774 -147 1190 -147 
C 1331 -147 1446 -134 1626 -102 
L 1626 346 
C 1549 326 1478 320 1370 320 
C 1139 320 1075 384 1075 621 
L 1075 2918 
L 1626 2918 
L 1626 3354 
z
" transform="scale(0.015625)"/>
       <path id="NimbusSans-Regular-69" d="M 960 3354 
L 429 3354 
L 429 0 
L 960 0 
L 960 3354 
z
M 960 4666 
L 422 4666 
L 422 3994 
L 960 3994 
L 960 4666 
z
" transform="scale(0.015625)"/>
       <path id="NimbusSans-Regular-76" d="M 1824 0 
L 3110 3354 
L 2509 3354 
L 1562 634 
L 666 3354 
L 64 3354 
L 1242 0 
L 1824 0 
z
" transform="scale(0.015625)"/>
       <path id="NimbusSans-Regular-65" d="M 3283 1498 
C 3283 2010 3245 2317 3149 2566 
C 2931 3117 2419 3450 1792 3450 
C 858 3450 256 2739 256 1632 
C 256 525 832 -147 1779 -147 
C 2547 -147 3078 288 3213 1018 
L 2675 1018 
C 2528 576 2227 346 1798 346 
C 1459 346 1171 499 992 781 
C 864 973 819 1165 813 1498 
L 3283 1498 
z
M 826 1933 
C 870 2554 1248 2957 1786 2957 
C 2330 2957 2707 2534 2707 1933 
L 826 1933 
z
" transform="scale(0.015625)"/>
       <path id="NimbusSans-Regular-20" transform="scale(0.015625)"/>
       <path id="NimbusSans-Regular-73" d="M 2803 2419 
C 2797 3078 2362 3450 1587 3450 
C 806 3450 301 3046 301 2426 
C 301 1901 570 1651 1363 1459 
L 1862 1338 
C 2234 1248 2381 1114 2381 877 
C 2381 557 2067 346 1600 346 
C 1312 346 1069 429 934 570 
C 851 666 813 762 781 998 
L 218 998 
C 243 224 678 -147 1555 -147 
C 2400 -147 2938 269 2938 915 
C 2938 1414 2656 1690 1990 1850 
L 1478 1971 
C 1043 2074 858 2214 858 2451 
C 858 2765 1133 2957 1568 2957 
C 1997 2957 2227 2771 2240 2419 
L 2803 2419 
z
" transform="scale(0.015625)"/>
      </defs>
      <use xlink:href="#NimbusSans-Regular-43"/>
      <use xlink:href="#NimbusSans-Regular-75" transform="translate(72.199982 0)"/>
      <use xlink:href="#NimbusSans-Regular-6d" transform="translate(127.799973 0)"/>
      <use xlink:href="#NimbusSans-Regular-75" transform="translate(211.09996 0)"/>
      <use xlink:href="#NimbusSans-Regular-6c" transform="translate(266.699951 0)"/>
      <use xlink:href="#NimbusSans-Regular-61" transform="translate(288.899948 0)"/>
      <use xlink:href="#NimbusSans-Regular-74" transform="translate(344.499939 0)"/>
      <use xlink:href="#NimbusSans-Regular-69" transform="translate(372.299927 0)"/>
      <use xlink:href="#NimbusSans-Regular-76" transform="translate(394.499924 0)"/>
      <use xlink:href="#NimbusSans-Regular-65" transform="translate(444.499908 0)"/>
      <use xlink:href="#NimbusSans-Regular-20" transform="translate(500.099899 0)"/>
      <use xlink:href="#NimbusSans-Regular-76" transform="translate(527.899887 0)"/>
      <use xlink:href="#NimbusSans-Regular-69" transform="translate(577.899872 0)"/>
      <use xlink:href="#NimbusSans-Regular-73" transform="translate(600.099869 0)"/>
      <use xlink:href="#NimbusSans-Regular-69" transform="translate(650.099854 0)"/>
      <use xlink:href="#NimbusSans-Regular-74" transform="translate(672.29985 0)"/>
      <use xlink:href="#NimbusSans-Regular-73" transform="translate(700.099838 0)"/>
     </g>
    </g>
   </g>
   <g id="line2d_31">
    <path d="M 58.211389 98.084204 
L 67.802778 97.242546 
L 77.394167 94.71757 
L 86.985556 91.350935 
L 96.576944 89.667618 
L 115.759722 87.984301 
L 125.351111 85.459325 
L 144.533889 83.776008 
L 154.125278 82.09269 
L 173.308056 77.042739 
L 182.899444 74.517763 
L 192.490833 72.834446 
L 202.082222 70.30947 
L 211.673611 68.626152 
" clip-path="url(#p9af00bd02a)" style="fill: none; stroke: #0000ff; stroke-width: 1.5; stroke-linecap: square"/>
   </g>
   <g id="line2d_32">
    <path d="M 58.211389 96.400887 
L 67.802778 94.71757 
L 77.394167 93.875911 
L 86.985556 88.825959 
L 96.576944 85.459325 
L 115.759722 82.09269 
L 125.351111 77.884397 
L 144.533889 73.676104 
L 154.125278 71.992787 
L 173.308056 67.784494 
L 182.899444 62.734542 
L 192.490833 58.526249 
L 202.082222 56.842932 
L 211.673611 54.317956 
L 221.265 53.476297 
" clip-path="url(#p9af00bd02a)" style="fill: none; stroke: #00bfbf; stroke-width: 1.5; stroke-linecap: square"/>
   </g>
   <g id="line2d_33">
    <path d="M 58.211389 84.617666 
L 67.802778 76.20108 
L 77.394167 65.259518 
L 86.985556 57.68459 
L 96.576944 46.743028 
L 115.759722 44.218052 
L 125.351111 41.693076 
L 144.533889 34.959807 
L 154.125278 29.068197 
L 173.308056 26.543221 
L 182.899444 25.701562 
L 192.490833 22.334928 
L 202.082222 21.493269 
L 211.673611 19.809952 
L 221.265 18.968293 
" clip-path="url(#p9af00bd02a)" style="fill: none; stroke: #bf00bf; stroke-width: 1.5; stroke-linecap: square"/>
   </g>
   <g id="line2d_34">
    <path d="M 58.211389 95.559229 
L 67.802778 92.192594 
L 77.394167 87.984301 
L 86.985556 82.934349 
L 96.576944 78.726056 
L 106.168333 75.359421 
L 125.351111 73.676104 
L 134.9425 70.30947 
L 144.533889 63.576201 
L 154.125278 56.001273 
L 163.716667 48.426345 
L 173.308056 46.743028 
L 182.899444 45.901369 
L 192.490833 43.376393 
L 202.082222 42.534735 
L 211.673611 40.851418 
L 221.265 40.009759 
" clip-path="url(#p9af00bd02a)" style="fill: none; stroke: #008000; stroke-width: 1.5; stroke-linecap: square"/>
   </g>
   <g id="line2d_35">
    <path d="M 58.211389 95.559229 
L 67.802778 94.71757 
L 77.394167 93.875911 
L 86.985556 93.034253 
L 96.576944 90.509277 
L 106.168333 89.667618 
L 115.759722 87.984301 
L 125.351111 86.300984 
L 134.9425 83.776008 
L 154.125278 77.884397 
L 163.716667 76.20108 
L 173.308056 75.359421 
L 182.899444 74.517763 
L 192.490833 73.676104 
L 202.082222 71.151128 
L 211.673611 70.30947 
L 221.265 69.467811 
" clip-path="url(#p9af00bd02a)" style="fill: none; stroke: #bfbf00; stroke-width: 1.5; stroke-linecap: square"/>
   </g>
   <g id="patch_3">
    <path d="M 48.62 102.04 
L 48.62 14.76 
" style="fill: none; stroke: #000000; stroke-width: 0.8; stroke-linejoin: miter; stroke-linecap: square"/>
   </g>
   <g id="patch_4">
    <path d="M 48.62 102.04 
L 221.265 102.04 
" style="fill: none; stroke: #000000; stroke-width: 0.8; stroke-linejoin: miter; stroke-linecap: square"/>
   </g>
  </g>
 </g>
 <defs>
  <clipPath id="p9af00bd02a">
   <rect x="48.62" y="14.76" width="172.645" height="87.28"/>
  </clipPath>
 </defs>
</svg>
