<?xml version="1.0" encoding="utf-8" standalone="no"?>
<!DOCTYPE svg PUBLIC "-//W3C//DTD SVG 1.1//EN"
  "http://www.w3.org/Graphics/SVG/1.1/DTD/svg11.dtd">
<svg xmlns:xlink="http://www.w3.org/1999/xlink" width="468pt" height="144pt" viewBox="0 0 468 144" xmlns="http://www.w3.org/2000/svg" version="1.1">
 <metadata>
  <rdf:RDF xmlns:dc="http://purl.org/dc/elements/1.1/" xmlns:cc="http://creativecommons.org/ns#" xmlns:rdf="http://www.w3.org/1999/02/22-rdf-syntax-ns#">
   <cc:Work>
    <dc:type rdf:resource="http://purl.org/dc/dcmitype/StillImage"/>
    <dc:date>2025-12-04T16:41:16.478294</dc:date>
    <dc:format>image/svg+xml</dc:format>
    <dc:creator>
     <cc:Agent>
      <dc:title>Matplotlib v3.10.7, https://matplotlib.org/</dc:title>
     </cc:Agent>
    </dc:creator>
   </cc:Work>
  </rdf:RDF>
 </metadata>
 <defs>
  <style type="text/css">*{stroke-linejoin: round; stroke-linecap: butt}</style>
 </defs>
 <g id="figure_1">
  <g id="patch_1">
   <path d="M 0 144 
L 468 144 
L 468 0 
L 0 0 
z
" style="fill: #ffffff"/>
  </g>
  <g id="axes_1">
   <g id="patch_2">
    <path d="M 58.67 107.44 
L 169.409951 107.44 
L 169.409951 22.2 
L 58.67 22.2 
z
" style="fill: #ffffff"/>
   </g>
   <g id="patch_3">
    <path d="M 58.67 26.074545 
L 164.980353 26.074545 
L 164.980353 30.917727 
L 58.67 30.917727 
z
" clip-path="url(#p5581ae1e63)" style="fill: #e731a6"/>
   </g>
   <g id="patch_4">
    <path d="M 58.67 38.1825 
L 101.858581 38.1825 
L 101.858581 43.025682 
L 58.67 43.025682 
z
" clip-path="url(#p5581ae1e63)" style="fill: #e731a6"/>
   </g>
   <g id="patch_5">
    <path d="M 58.67 50.290455 
L 66.421797 50.290455 
L 66.421797 55.133636 
L 58.67 55.133636 
z
" clip-path="url(#p5581ae1e63)" style="fill: #e731a6"/>
   </g>
   <g id="patch_6">
    <path d="M 58.67 62.398409 
L 59.7774 62.398409 
L 59.7774 67.241591 
L 58.67 67.241591 
z
" clip-path="url(#p5581ae1e63)" style="fill: #e731a6"/>
   </g>
   <g id="patch_7">
    <path d="M 58.67 74.506364 
L 59.7774 74.506364 
L 59.7774 79.349545 
L 58.67 79.349545 
z
" clip-path="url(#p5581ae1e63)" style="fill: #e731a6"/>
   </g>
   <g id="patch_8">
    <path d="M 58.67 86.614318 
L 59.7774 86.614318 
L 59.7774 91.4575 
L 58.67 91.4575 
z
" clip-path="url(#p5581ae1e63)" style="fill: #e731a6"/>
   </g>
   <g id="patch_9">
    <path d="M 58.67 98.722273 
L 58.67 98.722273 
L 58.67 103.565455 
L 58.67 103.565455 
z
" clip-path="url(#p5581ae1e63)" style="fill: #e731a6"/>
   </g>
   <g id="matplotlib.axis_1">
    <g id="xtick_1">
     <g id="line2d_1">
      <defs>
       <path id="m3b6aa83440" d="M 0 0 
L 0 3.5 
" style="stroke: #000000; stroke-width: 0.8"/>
      </defs>
      <g>
       <use xlink:href="#m3b6aa83440" x="58.67" y="107.44" style="stroke: #000000; stroke-width: 0.8"/>
      </g>
     </g>
     <g id="text_1">
      <!-- 0.0 -->
      <g transform="translate(52.415703 121.001563) scale(0.09 -0.09)">
       <defs>
        <path id="NimbusSans-Regular-30" d="M 1760 4627 
C 1338 4627 954 4435 717 4122 
C 422 3712 275 3098 275 2240 
C 275 678 787 -147 1760 -147 
C 2720 -147 3245 678 3245 2202 
C 3245 3098 3104 3699 2803 4122 
C 2566 4442 2189 4627 1760 4627 
z
M 1760 4128 
C 2368 4128 2669 3507 2669 2253 
C 2669 934 2374 320 1747 320 
C 1152 320 851 960 851 2234 
C 851 3507 1152 4128 1760 4128 
z
" transform="scale(0.015625)"/>
        <path id="NimbusSans-Regular-2e" d="M 1222 666 
L 557 666 
L 557 0 
L 1222 0 
L 1222 666 
z
" transform="scale(0.015625)"/>
       </defs>
       <use xlink:href="#NimbusSans-Regular-30"/>
       <use xlink:href="#NimbusSans-Regular-2e" transform="translate(55.599991 0)"/>
       <use xlink:href="#NimbusSans-Regular-30" transform="translate(83.399979 0)"/>
      </g>
     </g>
    </g>
    <g id="xtick_2">
     <g id="line2d_2">
      <g>
       <use xlink:href="#m3b6aa83440" x="114.039975" y="107.44" style="stroke: #000000; stroke-width: 0.8"/>
      </g>
     </g>
     <g id="text_2">
      <!-- 0.5 -->
      <g transform="translate(107.785679 121.001563) scale(0.09 -0.09)">
       <defs>
        <path id="NimbusSans-Regular-35" d="M 3046 4538 
L 704 4538 
L 365 2067 
L 883 2067 
C 1146 2381 1363 2490 1722 2490 
C 2330 2490 2707 2074 2707 1402 
C 2707 749 2330 352 1715 352 
C 1222 352 922 602 787 1114 
L 224 1114 
C 301 742 365 563 499 397 
C 755 51 1216 -147 1728 -147 
C 2643 -147 3283 518 3283 1478 
C 3283 2374 2688 2989 1818 2989 
C 1498 2989 1242 2906 979 2714 
L 1158 3981 
L 3046 3981 
L 3046 4538 
z
" transform="scale(0.015625)"/>
       </defs>
       <use xlink:href="#NimbusSans-Regular-30"/>
       <use xlink:href="#NimbusSans-Regular-2e" transform="translate(55.599991 0)"/>
       <use xlink:href="#NimbusSans-Regular-35" transform="translate(83.399979 0)"/>
      </g>
     </g>
    </g>
    <g id="xtick_3">
     <g id="line2d_3">
      <g>
       <use xlink:href="#m3b6aa83440" x="169.409951" y="107.44" style="stroke: #000000; stroke-width: 0.8"/>
      </g>
     </g>
     <g id="text_3">
      <!-- 1.0 -->
      <g transform="translate(163.155654 121.001563) scale(0.09 -0.09)">
       <defs>
        <path id="NimbusSans-Regular-31" d="M 1658 3296 
L 1658 0 
L 2221 0 
L 2221 4627 
L 1850 4627 
C 1651 3917 1523 3821 653 3706 
L 653 3296 
L 1658 3296 
z
" transform="scale(0.015625)"/>
       </defs>
       <use xlink:href="#NimbusSans-Regular-31"/>
       <use xlink:href="#NimbusSans-Regular-2e" transform="translate(55.599991 0)"/>
       <use xlink:href="#NimbusSans-Regular-30" transform="translate(83.399979 0)"/>
      </g>
     </g>
    </g>
    <g id="text_4">
     <!-- Count/Trap Day -->
     <g transform="translate(85.809975 132.890781) scale(0.08 -0.08)">
      <defs>
       <path id="NimbusSans-Regular-43" d="M 4237 3219 
C 4051 4243 3462 4742 2438 4742 
C 1811 4742 1306 4544 960 4160 
C 538 3699 307 3034 307 2278 
C 307 1510 544 851 979 397 
C 1344 26 1805 -147 2413 -147 
C 3552 -147 4192 467 4333 1702 
L 3718 1702 
C 3667 1382 3603 1165 3507 979 
C 3315 595 2918 378 2419 378 
C 1491 378 902 1120 902 2285 
C 902 3482 1459 4218 2368 4218 
C 2746 4218 3098 4109 3290 3923 
C 3462 3763 3558 3571 3629 3219 
L 4237 3219 
z
" transform="scale(0.015625)"/>
       <path id="NimbusSans-Regular-6f" d="M 1741 3450 
C 794 3450 230 2778 230 1651 
C 230 518 794 -147 1747 -147 
C 2694 -147 3264 525 3264 1626 
C 3264 2790 2714 3450 1741 3450 
z
M 1747 2957 
C 2349 2957 2707 2464 2707 1632 
C 2707 838 2336 346 1747 346 
C 1152 346 787 838 787 1651 
C 787 2464 1152 2957 1747 2957 
z
" transform="scale(0.015625)"/>
       <path id="NimbusSans-Regular-75" d="M 3085 0 
L 3085 3354 
L 2554 3354 
L 2554 1453 
C 2554 768 2195 320 1638 320 
C 1216 320 947 576 947 979 
L 947 3354 
L 416 3354 
L 416 768 
C 416 211 832 -147 1485 -147 
C 1978 -147 2291 26 2605 467 
L 2605 0 
L 3085 0 
z
" transform="scale(0.015625)"/>
       <path id="NimbusSans-Regular-6e" d="M 448 3354 
L 448 0 
L 986 0 
L 986 1850 
C 986 2534 1344 2982 1894 2982 
C 2317 2982 2586 2726 2586 2323 
L 2586 0 
L 3117 0 
L 3117 2534 
C 3117 3091 2701 3450 2054 3450 
C 1555 3450 1235 3258 941 2790 
L 941 3354 
L 448 3354 
z
" transform="scale(0.015625)"/>
       <path id="NimbusSans-Regular-74" d="M 1626 3354 
L 1075 3354 
L 1075 4275 
L 544 4275 
L 544 3354 
L 90 3354 
L 90 2918 
L 544 2918 
L 544 384 
C 544 38 774 -147 1190 -147 
C 1331 -147 1446 -134 1626 -102 
L 1626 346 
C 1549 326 1478 320 1370 320 
C 1139 320 1075 384 1075 621 
L 1075 2918 
L 1626 2918 
L 1626 3354 
z
" transform="scale(0.015625)"/>
       <path id="NimbusSans-Regular-2f" d="M 1466 4666 
L -51 -128 
L 301 -128 
L 1818 4666 
L 1466 4666 
z
" transform="scale(0.015625)"/>
       <path id="NimbusSans-Regular-54" d="M 2266 4141 
L 3795 4141 
L 3795 4666 
L 134 4666 
L 134 4141 
L 1670 4141 
L 1670 0 
L 2266 0 
L 2266 4141 
z
" transform="scale(0.015625)"/>
       <path id="NimbusSans-Regular-72" d="M 442 3354 
L 442 0 
L 979 0 
L 979 1741 
C 986 2547 1318 2906 2054 2886 
L 2054 3430 
C 1965 3443 1914 3450 1850 3450 
C 1504 3450 1242 3245 934 2746 
L 934 3354 
L 442 3354 
z
" transform="scale(0.015625)"/>
       <path id="NimbusSans-Regular-61" d="M 3424 314 
C 3366 301 3341 301 3309 301 
C 3123 301 3021 397 3021 563 
L 3021 2534 
C 3021 3130 2586 3450 1760 3450 
C 1267 3450 877 3309 646 3059 
C 493 2886 429 2694 416 2362 
L 954 2362 
C 998 2771 1242 2957 1741 2957 
C 2227 2957 2490 2778 2490 2458 
L 2490 2317 
C 2483 2086 2368 2003 1933 1946 
C 1178 1850 1062 1824 858 1741 
C 467 1574 269 1280 269 845 
C 269 237 691 -147 1370 -147 
C 1792 -147 2131 0 2509 346 
C 2547 0 2714 -147 3059 -147 
C 3174 -147 3245 -134 3424 -90 
L 3424 314 
z
M 2490 1056 
C 2490 877 2438 768 2278 621 
C 2061 422 1798 320 1485 320 
C 1069 320 826 518 826 858 
C 826 1210 1056 1389 1632 1472 
C 2202 1549 2310 1574 2490 1658 
L 2490 1056 
z
" transform="scale(0.015625)"/>
       <path id="NimbusSans-Regular-70" d="M 346 -1395 
L 883 -1395 
L 883 352 
C 1165 6 1478 -147 1914 -147 
C 2784 -147 3347 550 3347 1619 
C 3347 2746 2797 3450 1907 3450 
C 1453 3450 1088 3245 838 2848 
L 838 3354 
L 346 3354 
L 346 -1395 
z
M 1818 2950 
C 2406 2950 2790 2432 2790 1632 
C 2790 870 2400 352 1818 352 
C 1248 352 883 864 883 1651 
C 883 2438 1248 2950 1818 2950 
z
" transform="scale(0.015625)"/>
       <path id="NimbusSans-Regular-20" transform="scale(0.015625)"/>
       <path id="NimbusSans-Regular-44" d="M 570 0 
L 2368 0 
C 3546 0 4269 883 4269 2336 
C 4269 3782 3552 4666 2368 4666 
L 570 4666 
L 570 0 
z
M 1165 525 
L 1165 4141 
L 2266 4141 
C 3187 4141 3674 3520 3674 2330 
C 3674 1146 3187 525 2266 525 
L 1165 525 
z
" transform="scale(0.015625)"/>
       <path id="NimbusSans-Regular-79" d="M 2483 3354 
L 1555 742 
L 698 3354 
L 128 3354 
L 1261 -13 
L 1056 -544 
C 966 -781 851 -870 627 -870 
C 538 -870 461 -858 346 -832 
L 346 -1312 
C 454 -1370 563 -1395 704 -1395 
C 877 -1395 1062 -1338 1203 -1235 
C 1370 -1114 1466 -973 1568 -704 
L 3059 3354 
L 2483 3354 
z
" transform="scale(0.015625)"/>
      </defs>
      <use xlink:href="#NimbusSans-Regular-43"/>
      <use xlink:href="#NimbusSans-Regular-6f" transform="translate(72.199982 0)"/>
      <use xlink:href="#NimbusSans-Regular-75" transform="translate(127.799973 0)"/>
      <use xlink:href="#NimbusSans-Regular-6e" transform="translate(183.399963 0)"/>
      <use xlink:href="#NimbusSans-Regular-74" transform="translate(238.999954 0)"/>
      <use xlink:href="#NimbusSans-Regular-2f" transform="translate(266.799942 0)"/>
      <use xlink:href="#NimbusSans-Regular-54" transform="translate(294.59993 0)"/>
      <use xlink:href="#NimbusSans-Regular-72" transform="translate(355.699921 0)"/>
      <use xlink:href="#NimbusSans-Regular-61" transform="translate(388.999908 0)"/>
      <use xlink:href="#NimbusSans-Regular-70" transform="translate(444.599899 0)"/>
      <use xlink:href="#NimbusSans-Regular-20" transform="translate(500.19989 0)"/>
      <use xlink:href="#NimbusSans-Regular-44" transform="translate(527.999878 0)"/>
      <use xlink:href="#NimbusSans-Regular-61" transform="translate(600.19986 0)"/>
      <use xlink:href="#NimbusSans-Regular-79" transform="translate(655.79985 0)"/>
     </g>
    </g>
   </g>
   <g id="matplotlib.axis_2">
    <g id="ytick_1">
     <g id="line2d_4"/>
     <g id="text_5">
      <!-- vosnesenskii -->
      <g transform="translate(9.38 31.412386) scale(0.08 -0.08)">
       <defs>
        <path id="NimbusSans-Italic-76" d="M 1837 0 
L 3827 3354 
L 3245 3354 
L 1683 653 
L 1370 3354 
L 781 3354 
L 1254 0 
L 1837 0 
z
" transform="scale(0.015625)"/>
        <path id="NimbusSans-Italic-6f" d="M 2458 3450 
C 1491 3450 845 2829 582 1651 
C 538 1440 512 1242 512 1050 
C 512 339 1005 -147 1722 -147 
C 2336 -147 2822 102 3181 595 
C 3475 998 3686 1696 3686 2253 
C 3686 2733 3437 3162 3046 3334 
C 2867 3411 2688 3450 2458 3450 
z
M 2374 2957 
C 2701 2957 2963 2790 3059 2528 
C 3104 2406 3123 2285 3123 2131 
C 3123 1402 2784 704 2304 461 
C 2150 384 1997 346 1811 346 
C 1498 346 1248 506 1146 774 
C 1101 902 1075 1037 1075 1178 
C 1075 1478 1146 1805 1267 2106 
C 1414 2458 1619 2694 1901 2842 
C 2054 2918 2202 2957 2374 2957 
z
" transform="scale(0.015625)"/>
        <path id="NimbusSans-Italic-73" d="M 3290 2419 
C 3322 2554 3328 2611 3328 2694 
C 3328 3142 2906 3450 2278 3450 
C 1824 3450 1434 3315 1171 3066 
C 934 2842 787 2509 787 2208 
C 787 1818 1011 1632 1670 1459 
L 2144 1338 
C 2355 1280 2451 1242 2509 1171 
C 2554 1114 2592 1018 2592 960 
C 2592 883 2528 723 2470 646 
C 2368 518 2176 416 1946 371 
C 1856 352 1766 346 1677 346 
C 1293 346 1069 467 1005 704 
C 992 749 986 794 986 838 
C 986 877 992 934 998 998 
L 429 998 
C 397 851 390 774 390 672 
C 390 288 653 6 1101 -96 
C 1254 -128 1414 -147 1581 -147 
C 2534 -147 3155 346 3155 1107 
C 3155 1498 2944 1702 2381 1843 
L 1894 1965 
C 1594 2042 1414 2144 1363 2272 
C 1357 2291 1350 2317 1350 2349 
C 1350 2477 1427 2637 1542 2746 
C 1696 2893 1888 2957 2170 2957 
C 2470 2957 2656 2867 2733 2701 
C 2752 2662 2758 2618 2758 2560 
C 2758 2522 2758 2470 2752 2419 
L 3290 2419 
z
" transform="scale(0.015625)"/>
        <path id="NimbusSans-Italic-6e" d="M 1158 3354 
L 448 0 
L 986 0 
L 1376 1850 
C 1530 2554 1978 2989 2554 2989 
C 2874 2989 3110 2765 3110 2470 
C 3110 2432 3098 2342 3072 2234 
L 2598 0 
L 3136 0 
L 3648 2406 
C 3667 2490 3674 2566 3674 2650 
C 3674 3021 3450 3322 3117 3411 
C 3021 3437 2918 3450 2803 3450 
C 2317 3450 1894 3277 1562 2938 
L 1645 3354 
L 1158 3354 
z
" transform="scale(0.015625)"/>
        <path id="NimbusSans-Italic-65" d="M 3603 1498 
C 3693 1997 3712 2150 3712 2355 
C 3712 2976 3181 3450 2490 3450 
C 1933 3450 1402 3187 1075 2758 
C 774 2355 538 1632 538 1107 
C 538 762 691 410 934 173 
C 1158 -45 1440 -147 1805 -147 
C 2573 -147 3232 326 3430 1018 
L 2893 1018 
C 2662 576 2323 346 1894 346 
C 1389 346 1101 659 1101 1203 
C 1101 1344 1107 1402 1133 1498 
L 3603 1498 
z
M 1248 1958 
C 1414 2547 1888 2957 2406 2957 
C 2797 2957 3053 2746 3130 2362 
C 3142 2298 3149 2234 3149 2170 
C 3149 2112 3142 2061 3130 1958 
L 1248 1958 
z
" transform="scale(0.015625)"/>
        <path id="NimbusSans-Italic-6b" d="M 1901 4666 
L 1363 4666 
L 371 0 
L 909 0 
L 1184 1299 
L 1869 1862 
L 2598 0 
L 3213 0 
L 2317 2195 
L 3738 3354 
L 3046 3354 
L 1325 1958 
L 1901 4666 
z
" transform="scale(0.015625)"/>
        <path id="NimbusSans-Italic-69" d="M 1670 3354 
L 1133 3354 
L 422 0 
L 960 0 
L 1670 3354 
z
M 1952 4666 
L 1414 4666 
L 1274 4006 
L 1811 4006 
L 1952 4666 
z
" transform="scale(0.015625)"/>
       </defs>
       <use xlink:href="#NimbusSans-Italic-76"/>
       <use xlink:href="#NimbusSans-Italic-6f" transform="translate(49.999985 0)"/>
       <use xlink:href="#NimbusSans-Italic-73" transform="translate(105.599976 0)"/>
       <use xlink:href="#NimbusSans-Italic-6e" transform="translate(155.59996 0)"/>
       <use xlink:href="#NimbusSans-Italic-65" transform="translate(211.199951 0)"/>
       <use xlink:href="#NimbusSans-Italic-73" transform="translate(266.799942 0)"/>
       <use xlink:href="#NimbusSans-Italic-65" transform="translate(316.799927 0)"/>
       <use xlink:href="#NimbusSans-Italic-6e" transform="translate(372.399918 0)"/>
       <use xlink:href="#NimbusSans-Italic-73" transform="translate(427.999908 0)"/>
       <use xlink:href="#NimbusSans-Italic-6b" transform="translate(477.999893 0)"/>
       <use xlink:href="#NimbusSans-Italic-69" transform="translate(527.999878 0)"/>
       <use xlink:href="#NimbusSans-Italic-69" transform="translate(550.199875 0)"/>
      </g>
     </g>
    </g>
    <g id="ytick_2">
     <g id="line2d_5"/>
     <g id="text_6">
      <!-- fervidus -->
      <g transform="translate(27.16375 43.520341) scale(0.08 -0.08)">
       <defs>
        <path id="NimbusSans-Italic-66" d="M 2368 3354 
L 1818 3354 
L 1914 3795 
C 1984 4122 2093 4224 2374 4224 
C 2419 4224 2464 4224 2547 4211 
L 2643 4653 
C 2528 4678 2458 4685 2355 4685 
C 1862 4685 1504 4397 1402 3923 
L 1280 3354 
L 832 3354 
L 742 2925 
L 1190 2925 
L 570 0 
L 1107 0 
L 1728 2925 
L 2278 2925 
L 2368 3354 
z
" transform="scale(0.015625)"/>
        <path id="NimbusSans-Italic-72" d="M 1152 3354 
L 442 0 
L 979 0 
L 1350 1741 
C 1510 2496 1939 2886 2611 2886 
L 2675 2886 
L 2790 3430 
L 2752 3437 
C 2694 3443 2643 3450 2586 3450 
C 2214 3450 1933 3283 1530 2829 
L 1638 3354 
L 1152 3354 
z
" transform="scale(0.015625)"/>
        <path id="NimbusSans-Italic-64" d="M 4160 4666 
L 3622 4666 
L 3238 2867 
C 3085 3187 2925 3334 2662 3405 
C 2554 3437 2438 3450 2323 3450 
C 1261 3450 467 2438 467 1088 
C 467 339 896 -147 1562 -147 
C 1843 -147 2131 -64 2387 96 
C 2579 211 2662 307 2752 486 
L 2650 0 
L 3168 0 
L 4160 4666 
z
M 2272 2957 
C 2573 2957 2842 2797 2944 2560 
C 3002 2426 3027 2278 3027 2093 
C 3027 1709 2925 1325 2733 992 
C 2483 563 2170 346 1779 346 
C 1466 346 1229 493 1120 742 
C 1062 883 1030 1043 1030 1216 
C 1030 1920 1389 2643 1850 2867 
C 1984 2931 2099 2957 2272 2957 
z
" transform="scale(0.015625)"/>
        <path id="NimbusSans-Italic-75" d="M 3091 0 
L 3802 3354 
L 3264 3354 
L 2861 1453 
C 2714 762 2266 314 1715 314 
C 1414 314 1210 448 1158 685 
C 1152 723 1146 768 1146 806 
C 1146 858 1152 915 1165 979 
L 1670 3354 
L 1133 3354 
L 582 768 
C 570 704 563 634 563 550 
C 563 211 774 -38 1133 -115 
C 1229 -134 1338 -147 1446 -147 
C 1946 -147 2310 6 2682 365 
L 2605 0 
L 3091 0 
z
" transform="scale(0.015625)"/>
       </defs>
       <use xlink:href="#NimbusSans-Italic-66"/>
       <use xlink:href="#NimbusSans-Italic-65" transform="translate(27.799988 0)"/>
       <use xlink:href="#NimbusSans-Italic-72" transform="translate(83.399979 0)"/>
       <use xlink:href="#NimbusSans-Italic-76" transform="translate(116.699966 0)"/>
       <use xlink:href="#NimbusSans-Italic-69" transform="translate(166.699951 0)"/>
       <use xlink:href="#NimbusSans-Italic-64" transform="translate(188.899948 0)"/>
       <use xlink:href="#NimbusSans-Italic-75" transform="translate(244.499939 0)"/>
       <use xlink:href="#NimbusSans-Italic-73" transform="translate(300.09993 0)"/>
      </g>
     </g>
    </g>
    <g id="ytick_3">
     <g id="line2d_6"/>
     <g id="text_7">
      <!-- griseocollis -->
      <g transform="translate(15.61125 55.628295) scale(0.08 -0.08)">
       <defs>
        <path id="NimbusSans-Italic-67" d="M 3360 3354 
L 3251 2854 
C 3110 3155 2950 3309 2682 3398 
C 2579 3430 2470 3450 2362 3450 
C 1869 3450 1370 3206 1056 2810 
C 710 2381 474 1670 474 1075 
C 474 576 698 186 1088 0 
C 1242 -70 1408 -109 1581 -109 
C 1984 -109 2355 64 2682 403 
L 2656 282 
C 2470 -589 2131 -934 1446 -934 
C 1011 -934 755 -762 755 -474 
L 755 -435 
L 755 -384 
L 218 -384 
C 211 -499 205 -563 205 -582 
C 205 -928 461 -1229 832 -1331 
C 986 -1376 1158 -1395 1338 -1395 
C 1850 -1395 2298 -1242 2586 -966 
C 2906 -659 3078 -269 3251 544 
L 3846 3354 
L 3360 3354 
z
M 2323 2957 
C 2592 2957 2835 2797 2931 2566 
C 2976 2445 3002 2323 3002 2170 
C 3002 1773 2886 1306 2707 986 
C 2496 595 2118 352 1734 352 
C 1306 352 1037 666 1037 1178 
C 1037 1498 1101 1811 1235 2118 
C 1389 2477 1581 2694 1856 2842 
C 2016 2925 2144 2957 2323 2957 
z
" transform="scale(0.015625)"/>
        <path id="NimbusSans-Italic-63" d="M 3526 2227 
L 3533 2323 
C 3539 2419 3546 2490 3546 2509 
C 3546 2874 3258 3258 2906 3379 
C 2765 3424 2611 3450 2438 3450 
C 1862 3450 1344 3206 1005 2765 
C 704 2374 486 1677 486 1088 
C 486 576 768 102 1165 -58 
C 1312 -115 1491 -147 1683 -147 
C 2208 -147 2650 38 2944 384 
C 3110 576 3213 794 3315 1152 
L 2778 1152 
C 2586 627 2234 346 1773 346 
C 1504 346 1274 467 1165 672 
C 1088 813 1050 979 1050 1158 
C 1050 1568 1184 2054 1395 2387 
C 1638 2765 1952 2957 2342 2957 
C 2669 2957 2886 2822 2963 2573 
C 2982 2502 2995 2438 2995 2368 
C 2995 2330 2995 2285 2989 2227 
L 3526 2227 
z
" transform="scale(0.015625)"/>
        <path id="NimbusSans-Italic-6c" d="M 1965 4666 
L 1427 4666 
L 435 0 
L 973 0 
L 1965 4666 
z
" transform="scale(0.015625)"/>
       </defs>
       <use xlink:href="#NimbusSans-Italic-67"/>
       <use xlink:href="#NimbusSans-Italic-72" transform="translate(55.599991 0)"/>
       <use xlink:href="#NimbusSans-Italic-69" transform="translate(88.899979 0)"/>
       <use xlink:href="#NimbusSans-Italic-73" transform="translate(111.099976 0)"/>
       <use xlink:href="#NimbusSans-Italic-65" transform="translate(161.09996 0)"/>
       <use xlink:href="#NimbusSans-Italic-6f" transform="translate(216.699951 0)"/>
       <use xlink:href="#NimbusSans-Italic-63" transform="translate(272.299942 0)"/>
       <use xlink:href="#NimbusSans-Italic-6f" transform="translate(322.299927 0)"/>
       <use xlink:href="#NimbusSans-Italic-6c" transform="translate(377.899918 0)"/>
       <use xlink:href="#NimbusSans-Italic-6c" transform="translate(400.099915 0)"/>
       <use xlink:href="#NimbusSans-Italic-69" transform="translate(422.299911 0)"/>
       <use xlink:href="#NimbusSans-Italic-73" transform="translate(444.499908 0)"/>
      </g>
     </g>
    </g>
    <g id="ytick_4">
     <g id="line2d_7"/>
     <g id="text_8">
      <!-- nevadensis -->
      <g transform="translate(14.70875 67.73625) scale(0.08 -0.08)">
       <defs>
        <path id="NimbusSans-Italic-61" d="M 3533 326 
C 3475 314 3450 314 3424 314 
C 3290 314 3206 358 3187 435 
C 3181 454 3181 474 3181 499 
C 3181 518 3181 544 3187 563 
L 3597 2490 
C 3635 2662 3635 2662 3635 2726 
C 3635 3040 3373 3309 2989 3398 
C 2842 3430 2682 3450 2522 3450 
C 1626 3450 1088 3072 966 2362 
L 1504 2362 
C 1562 2541 1606 2630 1696 2720 
C 1837 2867 2106 2957 2381 2957 
C 2669 2957 2912 2861 3014 2701 
C 3046 2656 3059 2605 3059 2547 
C 3059 2522 3053 2477 3046 2426 
L 3027 2310 
C 2982 2061 2842 1971 2381 1933 
C 1741 1875 1459 1830 1229 1741 
C 813 1581 544 1299 448 928 
C 429 845 416 755 416 672 
C 416 307 595 32 909 -77 
C 1037 -122 1184 -147 1331 -147 
C 1568 -147 1824 -102 2061 -19 
C 2259 51 2362 115 2624 346 
L 2624 301 
L 2624 275 
C 2624 90 2720 -58 2874 -109 
C 2944 -134 3027 -147 3110 -147 
C 3187 -147 3206 -147 3360 -109 
C 3379 -102 3411 -96 3450 -90 
L 3533 326 
z
M 2758 1050 
C 2675 653 2112 314 1549 314 
C 1325 314 1158 371 1069 474 
C 1011 544 979 634 979 736 
C 979 947 1101 1158 1293 1274 
C 1446 1370 1632 1421 1952 1466 
C 2598 1555 2605 1555 2886 1651 
L 2758 1050 
z
" transform="scale(0.015625)"/>
       </defs>
       <use xlink:href="#NimbusSans-Italic-6e"/>
       <use xlink:href="#NimbusSans-Italic-65" transform="translate(55.599991 0)"/>
       <use xlink:href="#NimbusSans-Italic-76" transform="translate(111.199982 0)"/>
       <use xlink:href="#NimbusSans-Italic-61" transform="translate(161.199966 0)"/>
       <use xlink:href="#NimbusSans-Italic-64" transform="translate(216.799957 0)"/>
       <use xlink:href="#NimbusSans-Italic-65" transform="translate(272.399948 0)"/>
       <use xlink:href="#NimbusSans-Italic-6e" transform="translate(327.999939 0)"/>
       <use xlink:href="#NimbusSans-Italic-73" transform="translate(383.59993 0)"/>
       <use xlink:href="#NimbusSans-Italic-69" transform="translate(433.599915 0)"/>
       <use xlink:href="#NimbusSans-Italic-73" transform="translate(455.799911 0)"/>
      </g>
     </g>
    </g>
    <g id="ytick_5">
     <g id="line2d_8"/>
     <g id="text_9">
      <!-- appositus -->
      <g transform="translate(20.9325 79.844205) scale(0.08 -0.08)">
       <defs>
        <path id="NimbusSans-Italic-70" d="M 45 -1363 
L 582 -1363 
L 966 435 
C 1114 122 1274 -32 1542 -102 
C 1651 -134 1760 -147 1882 -147 
C 2381 -147 2861 83 3187 480 
C 3533 909 3750 1568 3750 2202 
C 3750 2970 3322 3450 2637 3450 
C 2138 3450 1626 3174 1453 2816 
L 1568 3354 
L 1050 3354 
L 45 -1363 
z
M 2426 2957 
C 2739 2957 2976 2816 3091 2560 
C 3155 2413 3187 2259 3187 2074 
C 3187 1792 3117 1472 2995 1178 
C 2835 806 2624 563 2355 435 
C 2221 371 2086 346 1933 346 
C 1459 346 1171 666 1171 1178 
C 1171 1907 1536 2637 2016 2867 
C 2144 2931 2272 2957 2426 2957 
z
" transform="scale(0.015625)"/>
        <path id="NimbusSans-Italic-74" d="M 2342 3354 
L 1773 3354 
L 1971 4275 
L 1434 4275 
L 1235 3354 
L 781 3354 
L 691 2925 
L 1146 2925 
L 640 557 
C 627 493 621 422 621 358 
C 621 102 730 -45 979 -115 
C 1050 -134 1120 -147 1190 -147 
C 1325 -147 1510 -128 1606 -102 
L 1709 365 
C 1498 314 1485 314 1402 314 
C 1280 314 1203 358 1178 442 
C 1171 461 1171 467 1171 486 
C 1171 506 1178 538 1184 576 
L 1683 2925 
L 2253 2925 
L 2342 3354 
z
" transform="scale(0.015625)"/>
       </defs>
       <use xlink:href="#NimbusSans-Italic-61"/>
       <use xlink:href="#NimbusSans-Italic-70" transform="translate(55.599991 0)"/>
       <use xlink:href="#NimbusSans-Italic-70" transform="translate(111.199982 0)"/>
       <use xlink:href="#NimbusSans-Italic-6f" transform="translate(166.799973 0)"/>
       <use xlink:href="#NimbusSans-Italic-73" transform="translate(222.399963 0)"/>
       <use xlink:href="#NimbusSans-Italic-69" transform="translate(272.399948 0)"/>
       <use xlink:href="#NimbusSans-Italic-74" transform="translate(294.599945 0)"/>
       <use xlink:href="#NimbusSans-Italic-75" transform="translate(322.399933 0)"/>
       <use xlink:href="#NimbusSans-Italic-73" transform="translate(377.999924 0)"/>
      </g>
     </g>
    </g>
    <g id="ytick_6">
     <g id="line2d_9"/>
     <g id="text_10">
      <!-- mixtus -->
      <g transform="translate(32.05875 91.952159) scale(0.08 -0.08)">
       <defs>
        <path id="NimbusSans-Italic-6d" d="M 1165 3354 
L 454 0 
L 992 0 
L 1440 2106 
C 1542 2592 1978 2989 2406 2989 
C 2682 2989 2893 2842 2925 2637 
C 2931 2611 2931 2586 2931 2547 
C 2931 2477 2918 2394 2906 2310 
L 2413 0 
L 2950 0 
L 3398 2106 
C 3501 2605 3942 2989 4403 2989 
C 4704 2989 4890 2803 4890 2496 
C 4890 2400 4890 2400 4832 2182 
L 4371 0 
L 4909 0 
L 5414 2387 
C 5434 2458 5453 2669 5453 2739 
C 5453 2912 5376 3091 5248 3232 
C 5107 3386 4941 3450 4640 3450 
C 4218 3450 3859 3283 3482 2918 
C 3418 3149 3283 3309 3091 3386 
C 2982 3430 2854 3450 2707 3450 
C 2266 3450 1978 3322 1568 2938 
L 1651 3354 
L 1165 3354 
z
" transform="scale(0.015625)"/>
        <path id="NimbusSans-Italic-78" d="M 2240 1709 
L 3731 3354 
L 3110 3354 
L 2042 2125 
L 1478 3354 
L 883 3354 
L 1638 1709 
L 109 0 
L 736 0 
L 1850 1280 
L 2426 0 
L 3027 0 
L 2240 1709 
z
" transform="scale(0.015625)"/>
       </defs>
       <use xlink:href="#NimbusSans-Italic-6d"/>
       <use xlink:href="#NimbusSans-Italic-69" transform="translate(83.299988 0)"/>
       <use xlink:href="#NimbusSans-Italic-78" transform="translate(105.499985 0)"/>
       <use xlink:href="#NimbusSans-Italic-74" transform="translate(155.499969 0)"/>
       <use xlink:href="#NimbusSans-Italic-75" transform="translate(183.299957 0)"/>
       <use xlink:href="#NimbusSans-Italic-73" transform="translate(238.899948 0)"/>
      </g>
     </g>
    </g>
    <g id="ytick_7">
     <g id="line2d_10"/>
     <g id="text_11">
      <!-- caliginosus -->
      <g transform="translate(15.60375 104.060114) scale(0.08 -0.08)">
       <use xlink:href="#NimbusSans-Italic-63"/>
       <use xlink:href="#NimbusSans-Italic-61" transform="translate(49.999985 0)"/>
       <use xlink:href="#NimbusSans-Italic-6c" transform="translate(105.599976 0)"/>
       <use xlink:href="#NimbusSans-Italic-69" transform="translate(127.799973 0)"/>
       <use xlink:href="#NimbusSans-Italic-67" transform="translate(149.999969 0)"/>
       <use xlink:href="#NimbusSans-Italic-69" transform="translate(205.59996 0)"/>
       <use xlink:href="#NimbusSans-Italic-6e" transform="translate(227.799957 0)"/>
       <use xlink:href="#NimbusSans-Italic-6f" transform="translate(283.399948 0)"/>
       <use xlink:href="#NimbusSans-Italic-73" transform="translate(338.999939 0)"/>
       <use xlink:href="#NimbusSans-Italic-75" transform="translate(388.999924 0)"/>
       <use xlink:href="#NimbusSans-Italic-73" transform="translate(444.599915 0)"/>
      </g>
     </g>
    </g>
   </g>
   <g id="patch_10">
    <path d="M 58.67 107.44 
L 169.409951 107.44 
" style="fill: none; stroke: #000000; stroke-width: 0.8; stroke-linejoin: miter; stroke-linecap: square"/>
   </g>
   <g id="text_12">
    <!-- 0.96 -->
    <g transform="translate(170.51735 30.284964) scale(0.07 -0.07)">
     <defs>
      <path id="NimbusSans-Regular-39" d="M 339 1056 
C 448 301 934 -147 1626 -147 
C 2131 -147 2579 96 2848 512 
C 3130 966 3258 1530 3258 2368 
C 3258 3149 3142 3642 2874 4051 
C 2624 4429 2227 4627 1728 4627 
C 864 4627 243 3981 243 3085 
C 243 2234 819 1632 1638 1632 
C 2067 1632 2387 1786 2675 2138 
C 2669 986 2310 352 1664 352 
C 1267 352 992 608 902 1056 
L 339 1056 
z
M 1722 4134 
C 2246 4134 2643 3693 2643 3098 
C 2643 2528 2259 2131 1702 2131 
C 1158 2131 819 2515 819 3130 
C 819 3712 1197 4134 1722 4134 
z
" transform="scale(0.015625)"/>
      <path id="NimbusSans-Regular-36" d="M 3187 3424 
C 3078 4179 2592 4627 1901 4627 
C 1402 4627 954 4384 685 3968 
C 397 3514 275 2950 275 2112 
C 275 1331 384 838 659 429 
C 902 51 1299 -147 1798 -147 
C 2662 -147 3283 499 3283 1402 
C 3283 2253 2707 2854 1894 2854 
C 1446 2854 1094 2688 851 2349 
C 858 3494 1216 4128 1862 4128 
C 2259 4128 2534 3872 2624 3424 
L 3187 3424 
z
M 1824 2355 
C 2368 2355 2707 1971 2707 1357 
C 2707 774 2323 352 1805 352 
C 1280 352 883 794 883 1382 
C 883 1958 1267 2355 1824 2355 
z
" transform="scale(0.015625)"/>
     </defs>
     <use xlink:href="#NimbusSans-Regular-30"/>
     <use xlink:href="#NimbusSans-Regular-2e" transform="translate(55.599991 0)"/>
     <use xlink:href="#NimbusSans-Regular-39" transform="translate(83.399979 0)"/>
     <use xlink:href="#NimbusSans-Regular-36" transform="translate(138.999969 0)"/>
    </g>
   </g>
   <g id="text_13">
    <!-- 0.39 -->
    <g transform="translate(107.395578 42.392919) scale(0.07 -0.07)">
     <defs>
      <path id="NimbusSans-Regular-33" d="M 1414 2131 
L 1485 2131 
L 1722 2131 
C 2336 2131 2662 1843 2662 1286 
C 2662 704 2310 352 1728 352 
C 1107 352 806 666 768 1344 
L 205 1344 
C 230 973 294 730 403 525 
C 640 77 1082 -147 1702 -147 
C 2637 -147 3238 416 3238 1293 
C 3238 1882 3014 2202 2470 2394 
C 2893 2566 3104 2886 3104 3354 
C 3104 4147 2586 4627 1722 4627 
C 806 4627 320 4115 301 3136 
L 864 3136 
C 870 3418 896 3578 966 3718 
C 1094 3981 1376 4134 1728 4134 
C 2227 4134 2528 3834 2528 3334 
C 2528 3008 2413 2810 2163 2701 
C 2010 2637 1805 2611 1414 2605 
L 1414 2131 
z
" transform="scale(0.015625)"/>
     </defs>
     <use xlink:href="#NimbusSans-Regular-30"/>
     <use xlink:href="#NimbusSans-Regular-2e" transform="translate(55.599991 0)"/>
     <use xlink:href="#NimbusSans-Regular-33" transform="translate(83.399979 0)"/>
     <use xlink:href="#NimbusSans-Regular-39" transform="translate(138.999969 0)"/>
    </g>
   </g>
   <g id="text_14">
    <!-- 0.07 -->
    <g transform="translate(71.958794 54.500874) scale(0.07 -0.07)">
     <defs>
      <path id="NimbusSans-Regular-37" d="M 3328 4538 
L 294 4538 
L 294 3981 
L 2746 3981 
C 1664 2438 1222 1491 883 0 
L 1485 0 
C 1734 1453 2304 2701 3328 4064 
L 3328 4538 
z
" transform="scale(0.015625)"/>
     </defs>
     <use xlink:href="#NimbusSans-Regular-30"/>
     <use xlink:href="#NimbusSans-Regular-2e" transform="translate(55.599991 0)"/>
     <use xlink:href="#NimbusSans-Regular-30" transform="translate(83.399979 0)"/>
     <use xlink:href="#NimbusSans-Regular-37" transform="translate(138.999969 0)"/>
    </g>
   </g>
   <g id="text_15">
    <!-- 0.01 -->
    <g transform="translate(65.314397 66.608828) scale(0.07 -0.07)">
     <use xlink:href="#NimbusSans-Regular-30"/>
     <use xlink:href="#NimbusSans-Regular-2e" transform="translate(55.599991 0)"/>
     <use xlink:href="#NimbusSans-Regular-30" transform="translate(83.399979 0)"/>
     <use xlink:href="#NimbusSans-Regular-31" transform="translate(138.999969 0)"/>
    </g>
   </g>
   <g id="text_16">
    <!-- 0.01 -->
    <g transform="translate(65.314397 78.716783) scale(0.07 -0.07)">
     <use xlink:href="#NimbusSans-Regular-30"/>
     <use xlink:href="#NimbusSans-Regular-2e" transform="translate(55.599991 0)"/>
     <use xlink:href="#NimbusSans-Regular-30" transform="translate(83.399979 0)"/>
     <use xlink:href="#NimbusSans-Regular-31" transform="translate(138.999969 0)"/>
    </g>
   </g>
   <g id="text_17">
    <!-- 0.01 -->
    <g transform="translate(65.314397 90.824737) scale(0.07 -0.07)">
     <use xlink:href="#NimbusSans-Regular-30"/>
     <use xlink:href="#NimbusSans-Regular-2e" transform="translate(55.599991 0)"/>
     <use xlink:href="#NimbusSans-Regular-30" transform="translate(83.399979 0)"/>
     <use xlink:href="#NimbusSans-Regular-31" transform="translate(138.999969 0)"/>
    </g>
   </g>
   <g id="text_18">
    <!-- Camera Traps -->
    <g transform="translate(85.287085 16.2) scale(0.09 -0.09)">
     <defs>
      <path id="NimbusSans-Regular-6d" d="M 448 3354 
L 448 0 
L 986 0 
L 986 2106 
C 986 2592 1338 2982 1773 2982 
C 2170 2982 2394 2739 2394 2310 
L 2394 0 
L 2931 0 
L 2931 2106 
C 2931 2592 3283 2982 3718 2982 
C 4109 2982 4339 2733 4339 2310 
L 4339 0 
L 4877 0 
L 4877 2515 
C 4877 3117 4531 3450 3904 3450 
C 3456 3450 3187 3315 2874 2938 
C 2675 3296 2406 3450 1971 3450 
C 1523 3450 1222 3283 941 2880 
L 941 3354 
L 448 3354 
z
" transform="scale(0.015625)"/>
      <path id="NimbusSans-Regular-65" d="M 3283 1498 
C 3283 2010 3245 2317 3149 2566 
C 2931 3117 2419 3450 1792 3450 
C 858 3450 256 2739 256 1632 
C 256 525 832 -147 1779 -147 
C 2547 -147 3078 288 3213 1018 
L 2675 1018 
C 2528 576 2227 346 1798 346 
C 1459 346 1171 499 992 781 
C 864 973 819 1165 813 1498 
L 3283 1498 
z
M 826 1933 
C 870 2554 1248 2957 1786 2957 
C 2330 2957 2707 2534 2707 1933 
L 826 1933 
z
" transform="scale(0.015625)"/>
      <path id="NimbusSans-Regular-73" d="M 2803 2419 
C 2797 3078 2362 3450 1587 3450 
C 806 3450 301 3046 301 2426 
C 301 1901 570 1651 1363 1459 
L 1862 1338 
C 2234 1248 2381 1114 2381 877 
C 2381 557 2067 346 1600 346 
C 1312 346 1069 429 934 570 
C 851 666 813 762 781 998 
L 218 998 
C 243 224 678 -147 1555 -147 
C 2400 -147 2938 269 2938 915 
C 2938 1414 2656 1690 1990 1850 
L 1478 1971 
C 1043 2074 858 2214 858 2451 
C 858 2765 1133 2957 1568 2957 
C 1997 2957 2227 2771 2240 2419 
L 2803 2419 
z
" transform="scale(0.015625)"/>
     </defs>
     <use xlink:href="#NimbusSans-Regular-43"/>
     <use xlink:href="#NimbusSans-Regular-61" transform="translate(72.199982 0)"/>
     <use xlink:href="#NimbusSans-Regular-6d" transform="translate(127.799973 0)"/>
     <use xlink:href="#NimbusSans-Regular-65" transform="translate(211.09996 0)"/>
     <use xlink:href="#NimbusSans-Regular-72" transform="translate(266.699951 0)"/>
     <use xlink:href="#NimbusSans-Regular-61" transform="translate(299.999939 0)"/>
     <use xlink:href="#NimbusSans-Regular-20" transform="translate(355.59993 0)"/>
     <use xlink:href="#NimbusSans-Regular-54" transform="translate(383.399918 0)"/>
     <use xlink:href="#NimbusSans-Regular-72" transform="translate(444.499908 0)"/>
     <use xlink:href="#NimbusSans-Regular-61" transform="translate(477.799896 0)"/>
     <use xlink:href="#NimbusSans-Regular-70" transform="translate(533.399887 0)"/>
     <use xlink:href="#NimbusSans-Regular-73" transform="translate(588.999878 0)"/>
    </g>
   </g>
  </g>
  <g id="axes_2">
   <g id="patch_11">
    <path d="M 199.198627 107.44 
L 309.938578 107.44 
L 309.938578 22.2 
L 199.198627 22.2 
z
" style="fill: #ffffff"/>
   </g>
   <g id="patch_12">
    <path d="M 199.198627 26.074545 
L 308.277479 26.074545 
L 308.277479 30.917727 
L 199.198627 30.917727 
z
" clip-path="url(#p4e941dd79a)" style="fill: #1e8ada"/>
   </g>
   <g id="patch_13">
    <path d="M 199.198627 38.1825 
L 218.301269 38.1825 
L 218.301269 43.025682 
L 199.198627 43.025682 
z
" clip-path="url(#p4e941dd79a)" style="fill: #1e8ada"/>
   </g>
   <g id="patch_14">
    <path d="M 199.198627 50.290455 
L 235.465961 50.290455 
L 235.465961 55.133636 
L 199.198627 55.133636 
z
" clip-path="url(#p4e941dd79a)" style="fill: #1e8ada"/>
   </g>
   <g id="patch_15">
    <path d="M 199.198627 62.398409 
L 230.205814 62.398409 
L 230.205814 67.241591 
L 199.198627 67.241591 
z
" clip-path="url(#p4e941dd79a)" style="fill: #1e8ada"/>
   </g>
   <g id="patch_16">
    <path d="M 199.198627 74.506364 
L 223.561417 74.506364 
L 223.561417 79.349545 
L 199.198627 79.349545 
z
" clip-path="url(#p4e941dd79a)" style="fill: #1e8ada"/>
   </g>
   <g id="patch_17">
    <path d="M 199.198627 86.614318 
L 200.859727 86.614318 
L 200.859727 91.4575 
L 199.198627 91.4575 
z
" clip-path="url(#p4e941dd79a)" style="fill: #1e8ada"/>
   </g>
   <g id="patch_18">
    <path d="M 199.198627 98.722273 
L 202.520826 98.722273 
L 202.520826 103.565455 
L 199.198627 103.565455 
z
" clip-path="url(#p4e941dd79a)" style="fill: #1e8ada"/>
   </g>
   <g id="matplotlib.axis_3">
    <g id="xtick_4">
     <g id="line2d_11">
      <g>
       <use xlink:href="#m3b6aa83440" x="199.198627" y="107.44" style="stroke: #000000; stroke-width: 0.8"/>
      </g>
     </g>
     <g id="text_19">
      <!-- 0 -->
      <g transform="translate(196.696909 121.001563) scale(0.09 -0.09)">
       <use xlink:href="#NimbusSans-Regular-30"/>
      </g>
     </g>
    </g>
    <g id="xtick_5">
     <g id="line2d_12">
      <g>
       <use xlink:href="#m3b6aa83440" x="226.883615" y="107.44" style="stroke: #000000; stroke-width: 0.8"/>
      </g>
     </g>
     <g id="text_20">
      <!-- 1 -->
      <g transform="translate(224.381896 121.001563) scale(0.09 -0.09)">
       <use xlink:href="#NimbusSans-Regular-31"/>
      </g>
     </g>
    </g>
    <g id="xtick_6">
     <g id="line2d_13">
      <g>
       <use xlink:href="#m3b6aa83440" x="254.568603" y="107.44" style="stroke: #000000; stroke-width: 0.8"/>
      </g>
     </g>
     <g id="text_21">
      <!-- 2 -->
      <g transform="translate(252.066884 121.001563) scale(0.09 -0.09)">
       <defs>
        <path id="NimbusSans-Regular-32" d="M 3238 557 
L 851 557 
C 909 941 1114 1184 1670 1523 
L 2310 1882 
C 2944 2234 3270 2707 3270 3277 
C 3270 3661 3117 4019 2848 4269 
C 2579 4512 2246 4627 1818 4627 
C 1242 4627 813 4422 563 4026 
C 403 3782 333 3494 320 3027 
L 883 3027 
C 902 3341 941 3526 1018 3680 
C 1165 3962 1459 4134 1798 4134 
C 2310 4134 2694 3763 2694 3264 
C 2694 2893 2483 2573 2080 2342 
L 1491 1997 
C 544 1453 269 1018 218 6 
L 3238 6 
L 3238 557 
z
" transform="scale(0.015625)"/>
       </defs>
       <use xlink:href="#NimbusSans-Regular-32"/>
      </g>
     </g>
    </g>
    <g id="xtick_7">
     <g id="line2d_14">
      <g>
       <use xlink:href="#m3b6aa83440" x="282.253591" y="107.44" style="stroke: #000000; stroke-width: 0.8"/>
      </g>
     </g>
     <g id="text_22">
      <!-- 3 -->
      <g transform="translate(279.751872 121.001563) scale(0.09 -0.09)">
       <use xlink:href="#NimbusSans-Regular-33"/>
      </g>
     </g>
    </g>
    <g id="xtick_8">
     <g id="line2d_15">
      <g>
       <use xlink:href="#m3b6aa83440" x="309.938578" y="107.44" style="stroke: #000000; stroke-width: 0.8"/>
      </g>
     </g>
     <g id="text_23">
      <!-- 4 -->
      <g transform="translate(307.43686 121.001563) scale(0.09 -0.09)">
       <defs>
        <path id="NimbusSans-Regular-34" d="M 2093 1120 
L 2093 0 
L 2656 0 
L 2656 1120 
L 3328 1120 
L 3328 1626 
L 2656 1626 
L 2656 4627 
L 2240 4627 
L 179 1715 
L 179 1120 
L 2093 1120 
z
M 2093 1626 
L 672 1626 
L 2093 3667 
L 2093 1626 
z
" transform="scale(0.015625)"/>
       </defs>
       <use xlink:href="#NimbusSans-Regular-34"/>
      </g>
     </g>
    </g>
    <g id="text_24">
     <!-- Count/Trap Day -->
     <g transform="translate(226.338603 132.890781) scale(0.08 -0.08)">
      <use xlink:href="#NimbusSans-Regular-43"/>
      <use xlink:href="#NimbusSans-Regular-6f" transform="translate(72.199982 0)"/>
      <use xlink:href="#NimbusSans-Regular-75" transform="translate(127.799973 0)"/>
      <use xlink:href="#NimbusSans-Regular-6e" transform="translate(183.399963 0)"/>
      <use xlink:href="#NimbusSans-Regular-74" transform="translate(238.999954 0)"/>
      <use xlink:href="#NimbusSans-Regular-2f" transform="translate(266.799942 0)"/>
      <use xlink:href="#NimbusSans-Regular-54" transform="translate(294.59993 0)"/>
      <use xlink:href="#NimbusSans-Regular-72" transform="translate(355.699921 0)"/>
      <use xlink:href="#NimbusSans-Regular-61" transform="translate(388.999908 0)"/>
      <use xlink:href="#NimbusSans-Regular-70" transform="translate(444.599899 0)"/>
      <use xlink:href="#NimbusSans-Regular-20" transform="translate(500.19989 0)"/>
      <use xlink:href="#NimbusSans-Regular-44" transform="translate(527.999878 0)"/>
      <use xlink:href="#NimbusSans-Regular-61" transform="translate(600.19986 0)"/>
      <use xlink:href="#NimbusSans-Regular-79" transform="translate(655.79985 0)"/>
     </g>
    </g>
   </g>
   <g id="matplotlib.axis_4">
    <g id="ytick_8">
     <g id="line2d_16"/>
    </g>
    <g id="ytick_9">
     <g id="line2d_17"/>
    </g>
    <g id="ytick_10">
     <g id="line2d_18"/>
    </g>
    <g id="ytick_11">
     <g id="line2d_19"/>
    </g>
    <g id="ytick_12">
     <g id="line2d_20"/>
    </g>
    <g id="ytick_13">
     <g id="line2d_21"/>
    </g>
    <g id="ytick_14">
     <g id="line2d_22"/>
    </g>
   </g>
   <g id="patch_19">
    <path d="M 199.198627 107.44 
L 309.938578 107.44 
" style="fill: none; stroke: #000000; stroke-width: 0.8; stroke-linejoin: miter; stroke-linecap: square"/>
   </g>
   <g id="text_25">
    <!-- 3.94 -->
    <g transform="translate(313.814477 30.284964) scale(0.07 -0.07)">
     <use xlink:href="#NimbusSans-Regular-33"/>
     <use xlink:href="#NimbusSans-Regular-2e" transform="translate(55.599991 0)"/>
     <use xlink:href="#NimbusSans-Regular-39" transform="translate(83.399979 0)"/>
     <use xlink:href="#NimbusSans-Regular-34" transform="translate(138.999969 0)"/>
    </g>
   </g>
   <g id="text_26">
    <!-- 0.69 -->
    <g transform="translate(223.838267 42.392919) scale(0.07 -0.07)">
     <use xlink:href="#NimbusSans-Regular-30"/>
     <use xlink:href="#NimbusSans-Regular-2e" transform="translate(55.599991 0)"/>
     <use xlink:href="#NimbusSans-Regular-36" transform="translate(83.399979 0)"/>
     <use xlink:href="#NimbusSans-Regular-39" transform="translate(138.999969 0)"/>
    </g>
   </g>
   <g id="text_27">
    <!-- 1.31 -->
    <g transform="translate(241.002959 54.500874) scale(0.07 -0.07)">
     <use xlink:href="#NimbusSans-Regular-31"/>
     <use xlink:href="#NimbusSans-Regular-2e" transform="translate(55.599991 0)"/>
     <use xlink:href="#NimbusSans-Regular-33" transform="translate(83.399979 0)"/>
     <use xlink:href="#NimbusSans-Regular-31" transform="translate(138.999969 0)"/>
    </g>
   </g>
   <g id="text_28">
    <!-- 1.12 -->
    <g transform="translate(235.742811 66.608828) scale(0.07 -0.07)">
     <use xlink:href="#NimbusSans-Regular-31"/>
     <use xlink:href="#NimbusSans-Regular-2e" transform="translate(55.599991 0)"/>
     <use xlink:href="#NimbusSans-Regular-31" transform="translate(83.399979 0)"/>
     <use xlink:href="#NimbusSans-Regular-32" transform="translate(138.999969 0)"/>
    </g>
   </g>
   <g id="text_29">
    <!-- 0.88 -->
    <g transform="translate(229.098414 78.716783) scale(0.07 -0.07)">
     <defs>
      <path id="NimbusSans-Regular-38" d="M 2502 2438 
C 2976 2726 3123 2957 3123 3392 
C 3123 4122 2566 4627 1760 4627 
C 960 4627 397 4122 397 3398 
C 397 2957 544 2733 1011 2438 
C 493 2176 237 1798 237 1286 
C 237 442 858 -147 1760 -147 
C 2656 -147 3283 442 3283 1286 
C 3283 1798 3027 2176 2502 2438 
z
M 1760 4128 
C 2240 4128 2547 3840 2547 3379 
C 2547 2944 2234 2656 1760 2656 
C 1280 2656 973 2944 973 3392 
C 973 3840 1280 4128 1760 4128 
z
M 1760 2182 
C 2323 2182 2707 1811 2707 1274 
C 2707 717 2330 352 1747 352 
C 1197 352 813 730 813 1267 
C 813 1818 1190 2182 1760 2182 
z
" transform="scale(0.015625)"/>
     </defs>
     <use xlink:href="#NimbusSans-Regular-30"/>
     <use xlink:href="#NimbusSans-Regular-2e" transform="translate(55.599991 0)"/>
     <use xlink:href="#NimbusSans-Regular-38" transform="translate(83.399979 0)"/>
     <use xlink:href="#NimbusSans-Regular-38" transform="translate(138.999969 0)"/>
    </g>
   </g>
   <g id="text_30">
    <!-- 0.06 -->
    <g transform="translate(206.396724 90.824737) scale(0.07 -0.07)">
     <use xlink:href="#NimbusSans-Regular-30"/>
     <use xlink:href="#NimbusSans-Regular-2e" transform="translate(55.599991 0)"/>
     <use xlink:href="#NimbusSans-Regular-30" transform="translate(83.399979 0)"/>
     <use xlink:href="#NimbusSans-Regular-36" transform="translate(138.999969 0)"/>
    </g>
   </g>
   <g id="text_31">
    <!-- 0.12 -->
    <g transform="translate(208.057824 102.932692) scale(0.07 -0.07)">
     <use xlink:href="#NimbusSans-Regular-30"/>
     <use xlink:href="#NimbusSans-Regular-2e" transform="translate(55.599991 0)"/>
     <use xlink:href="#NimbusSans-Regular-31" transform="translate(83.399979 0)"/>
     <use xlink:href="#NimbusSans-Regular-32" transform="translate(138.999969 0)"/>
    </g>
   </g>
   <g id="text_32">
    <!-- Blue Vane Traps -->
    <g transform="translate(221.054853 16.2) scale(0.09 -0.09)">
     <defs>
      <path id="NimbusSans-Regular-42" d="M 506 0 
L 2611 0 
C 3053 0 3379 122 3629 390 
C 3859 634 3987 966 3987 1331 
C 3987 1894 3731 2234 3136 2464 
C 3565 2662 3782 3002 3782 3482 
C 3782 3827 3654 4122 3411 4339 
C 3162 4563 2848 4666 2400 4666 
L 506 4666 
L 506 0 
z
M 1101 2656 
L 1101 4141 
L 2253 4141 
C 2586 4141 2771 4096 2931 3974 
C 3098 3846 3187 3654 3187 3398 
C 3187 3142 3098 2950 2931 2822 
C 2771 2701 2586 2656 2253 2656 
L 1101 2656 
z
M 1101 525 
L 1101 2131 
L 2554 2131 
C 3078 2131 3392 1830 3392 1325 
C 3392 826 3078 525 2554 525 
L 1101 525 
z
" transform="scale(0.015625)"/>
      <path id="NimbusSans-Regular-6c" d="M 973 4666 
L 435 4666 
L 435 0 
L 973 0 
L 973 4666 
z
" transform="scale(0.015625)"/>
      <path id="NimbusSans-Regular-56" d="M 2509 0 
L 4128 4666 
L 3494 4666 
L 2202 717 
L 832 4666 
L 192 4666 
L 1869 0 
L 2509 0 
z
" transform="scale(0.015625)"/>
     </defs>
     <use xlink:href="#NimbusSans-Regular-42"/>
     <use xlink:href="#NimbusSans-Regular-6c" transform="translate(66.699997 0)"/>
     <use xlink:href="#NimbusSans-Regular-75" transform="translate(88.899994 0)"/>
     <use xlink:href="#NimbusSans-Regular-65" transform="translate(144.499985 0)"/>
     <use xlink:href="#NimbusSans-Regular-20" transform="translate(200.099976 0)"/>
     <use xlink:href="#NimbusSans-Regular-56" transform="translate(227.899963 0)"/>
     <use xlink:href="#NimbusSans-Regular-61" transform="translate(294.59996 0)"/>
     <use xlink:href="#NimbusSans-Regular-6e" transform="translate(350.199951 0)"/>
     <use xlink:href="#NimbusSans-Regular-65" transform="translate(405.799942 0)"/>
     <use xlink:href="#NimbusSans-Regular-20" transform="translate(461.399933 0)"/>
     <use xlink:href="#NimbusSans-Regular-54" transform="translate(489.199921 0)"/>
     <use xlink:href="#NimbusSans-Regular-72" transform="translate(550.299911 0)"/>
     <use xlink:href="#NimbusSans-Regular-61" transform="translate(583.599899 0)"/>
     <use xlink:href="#NimbusSans-Regular-70" transform="translate(639.19989 0)"/>
     <use xlink:href="#NimbusSans-Regular-73" transform="translate(694.799881 0)"/>
    </g>
   </g>
  </g>
  <g id="axes_3">
   <g id="patch_20">
    <path d="M 339.727255 107.44 
L 450.467206 107.44 
L 450.467206 22.2 
L 339.727255 22.2 
z
" style="fill: #ffffff"/>
   </g>
   <g id="patch_21">
    <path d="M 339.727255 26.074545 
L 441.60801 26.074545 
L 441.60801 30.917727 
L 339.727255 30.917727 
z
" clip-path="url(#p05479a689b)"/>
   </g>
   <g id="patch_22">
    <path d="M 339.727255 38.1825 
L 410.600824 38.1825 
L 410.600824 43.025682 
L 339.727255 43.025682 
z
" clip-path="url(#p05479a689b)"/>
   </g>
   <g id="patch_23">
    <path d="M 339.727255 50.290455 
L 343.049453 50.290455 
L 343.049453 55.133636 
L 339.727255 55.133636 
z
" clip-path="url(#p05479a689b)"/>
   </g>
   <g id="patch_24">
    <path d="M 339.727255 62.398409 
L 340.834654 62.398409 
L 340.834654 67.241591 
L 339.727255 67.241591 
z
" clip-path="url(#p05479a689b)"/>
   </g>
   <g id="patch_25">
    <path d="M 339.727255 74.506364 
L 357.445647 74.506364 
L 357.445647 79.349545 
L 339.727255 79.349545 
z
" clip-path="url(#p05479a689b)"/>
   </g>
   <g id="patch_26">
    <path d="M 339.727255 86.614318 
L 339.727255 86.614318 
L 339.727255 91.4575 
L 339.727255 91.4575 
z
" clip-path="url(#p05479a689b)"/>
   </g>
   <g id="patch_27">
    <path d="M 339.727255 98.722273 
L 339.727255 98.722273 
L 339.727255 103.565455 
L 339.727255 103.565455 
z
" clip-path="url(#p05479a689b)"/>
   </g>
   <g id="matplotlib.axis_5">
    <g id="xtick_9">
     <g id="line2d_23">
      <g>
       <use xlink:href="#m3b6aa83440" x="339.727255" y="107.44" style="stroke: #000000; stroke-width: 0.8"/>
      </g>
     </g>
     <g id="text_33">
      <!-- 0.0 -->
      <g transform="translate(333.472958 121.001563) scale(0.09 -0.09)">
       <use xlink:href="#NimbusSans-Regular-30"/>
       <use xlink:href="#NimbusSans-Regular-2e" transform="translate(55.599991 0)"/>
       <use xlink:href="#NimbusSans-Regular-30" transform="translate(83.399979 0)"/>
      </g>
     </g>
    </g>
    <g id="xtick_10">
     <g id="line2d_24">
      <g>
       <use xlink:href="#m3b6aa83440" x="367.412243" y="107.44" style="stroke: #000000; stroke-width: 0.8"/>
      </g>
     </g>
     <g id="text_34">
      <!-- 0.5 -->
      <g transform="translate(361.157946 121.001563) scale(0.09 -0.09)">
       <use xlink:href="#NimbusSans-Regular-30"/>
       <use xlink:href="#NimbusSans-Regular-2e" transform="translate(55.599991 0)"/>
       <use xlink:href="#NimbusSans-Regular-35" transform="translate(83.399979 0)"/>
      </g>
     </g>
    </g>
    <g id="xtick_11">
     <g id="line2d_25">
      <g>
       <use xlink:href="#m3b6aa83440" x="395.09723" y="107.44" style="stroke: #000000; stroke-width: 0.8"/>
      </g>
     </g>
     <g id="text_35">
      <!-- 1.0 -->
      <g transform="translate(388.842934 121.001563) scale(0.09 -0.09)">
       <use xlink:href="#NimbusSans-Regular-31"/>
       <use xlink:href="#NimbusSans-Regular-2e" transform="translate(55.599991 0)"/>
       <use xlink:href="#NimbusSans-Regular-30" transform="translate(83.399979 0)"/>
      </g>
     </g>
    </g>
    <g id="xtick_12">
     <g id="line2d_26">
      <g>
       <use xlink:href="#m3b6aa83440" x="422.782218" y="107.44" style="stroke: #000000; stroke-width: 0.8"/>
      </g>
     </g>
     <g id="text_36">
      <!-- 1.5 -->
      <g transform="translate(416.527921 121.001563) scale(0.09 -0.09)">
       <use xlink:href="#NimbusSans-Regular-31"/>
       <use xlink:href="#NimbusSans-Regular-2e" transform="translate(55.599991 0)"/>
       <use xlink:href="#NimbusSans-Regular-35" transform="translate(83.399979 0)"/>
      </g>
     </g>
    </g>
    <g id="xtick_13">
     <g id="line2d_27">
      <g>
       <use xlink:href="#m3b6aa83440" x="450.467206" y="107.44" style="stroke: #000000; stroke-width: 0.8"/>
      </g>
     </g>
     <g id="text_37">
      <!-- 2.0 -->
      <g transform="translate(444.212909 121.001563) scale(0.09 -0.09)">
       <use xlink:href="#NimbusSans-Regular-32"/>
       <use xlink:href="#NimbusSans-Regular-2e" transform="translate(55.599991 0)"/>
       <use xlink:href="#NimbusSans-Regular-30" transform="translate(83.399979 0)"/>
      </g>
     </g>
    </g>
    <g id="text_38">
     <!-- Count/Sampling Minute -->
     <g transform="translate(353.527855 132.890781) scale(0.08 -0.08)">
      <defs>
       <path id="NimbusSans-Regular-53" d="M 3814 3296 
C 3814 3616 3795 3706 3693 3923 
C 3437 4461 2893 4742 2106 4742 
C 1082 4742 448 4218 448 3373 
C 448 2803 749 2445 1363 2285 
L 2522 1978 
C 3117 1824 3379 1587 3379 1222 
C 3379 973 3245 717 3046 576 
C 2861 442 2566 378 2189 378 
C 1677 378 1338 499 1114 768 
C 941 973 864 1197 870 1485 
L 307 1485 
C 314 1056 397 774 582 518 
C 902 77 1440 -147 2150 -147 
C 2707 -147 3162 -19 3462 211 
C 3776 461 3974 877 3974 1280 
C 3974 1856 3616 2278 2982 2451 
L 1811 2765 
C 1248 2918 1043 3098 1043 3456 
C 1043 3930 1459 4243 2086 4243 
C 2829 4243 3245 3910 3251 3296 
L 3814 3296 
z
" transform="scale(0.015625)"/>
       <path id="NimbusSans-Regular-69" d="M 960 3354 
L 429 3354 
L 429 0 
L 960 0 
L 960 3354 
z
M 960 4666 
L 422 4666 
L 422 3994 
L 960 3994 
L 960 4666 
z
" transform="scale(0.015625)"/>
       <path id="NimbusSans-Regular-67" d="M 2586 3354 
L 2586 2867 
C 2317 3270 2022 3450 1600 3450 
C 787 3450 224 2694 224 1619 
C 224 1056 358 646 646 307 
C 896 13 1216 -147 1562 -147 
C 1965 -147 2253 32 2534 454 
L 2534 282 
C 2534 -614 2285 -947 1619 -947 
C 1165 -947 928 -768 877 -384 
L 333 -384 
C 384 -1005 877 -1395 1606 -1395 
C 2099 -1395 2509 -1235 2726 -966 
C 2982 -653 3078 -237 3078 550 
L 3078 3354 
L 2586 3354 
z
M 1651 2957 
C 2214 2957 2534 2483 2534 1632 
C 2534 819 2208 346 1651 346 
C 1101 346 781 826 781 1651 
C 781 2470 1101 2957 1651 2957 
z
" transform="scale(0.015625)"/>
       <path id="NimbusSans-Regular-4d" d="M 2995 0 
L 4307 3910 
L 4307 0 
L 4870 0 
L 4870 4666 
L 4045 4666 
L 2688 602 
L 1306 4666 
L 480 4666 
L 480 0 
L 1043 0 
L 1043 3910 
L 2368 0 
L 2995 0 
z
" transform="scale(0.015625)"/>
      </defs>
      <use xlink:href="#NimbusSans-Regular-43"/>
      <use xlink:href="#NimbusSans-Regular-6f" transform="translate(72.199982 0)"/>
      <use xlink:href="#NimbusSans-Regular-75" transform="translate(127.799973 0)"/>
      <use xlink:href="#NimbusSans-Regular-6e" transform="translate(183.399963 0)"/>
      <use xlink:href="#NimbusSans-Regular-74" transform="translate(238.999954 0)"/>
      <use xlink:href="#NimbusSans-Regular-2f" transform="translate(266.799942 0)"/>
      <use xlink:href="#NimbusSans-Regular-53" transform="translate(294.59993 0)"/>
      <use xlink:href="#NimbusSans-Regular-61" transform="translate(361.299927 0)"/>
      <use xlink:href="#NimbusSans-Regular-6d" transform="translate(416.899918 0)"/>
      <use xlink:href="#NimbusSans-Regular-70" transform="translate(500.199905 0)"/>
      <use xlink:href="#NimbusSans-Regular-6c" transform="translate(555.799896 0)"/>
      <use xlink:href="#NimbusSans-Regular-69" transform="translate(577.999893 0)"/>
      <use xlink:href="#NimbusSans-Regular-6e" transform="translate(600.19989 0)"/>
      <use xlink:href="#NimbusSans-Regular-67" transform="translate(655.799881 0)"/>
      <use xlink:href="#NimbusSans-Regular-20" transform="translate(711.399872 0)"/>
      <use xlink:href="#NimbusSans-Regular-4d" transform="translate(739.19986 0)"/>
      <use xlink:href="#NimbusSans-Regular-69" transform="translate(822.499847 0)"/>
      <use xlink:href="#NimbusSans-Regular-6e" transform="translate(844.699844 0)"/>
      <use xlink:href="#NimbusSans-Regular-75" transform="translate(900.299835 0)"/>
      <use xlink:href="#NimbusSans-Regular-74" transform="translate(955.899826 0)"/>
      <use xlink:href="#NimbusSans-Regular-65" transform="translate(983.699814 0)"/>
     </g>
    </g>
   </g>
   <g id="matplotlib.axis_6">
    <g id="ytick_15">
     <g id="line2d_28"/>
    </g>
    <g id="ytick_16">
     <g id="line2d_29"/>
    </g>
    <g id="ytick_17">
     <g id="line2d_30"/>
    </g>
    <g id="ytick_18">
     <g id="line2d_31"/>
    </g>
    <g id="ytick_19">
     <g id="line2d_32"/>
    </g>
    <g id="ytick_20">
     <g id="line2d_33"/>
    </g>
    <g id="ytick_21">
     <g id="line2d_34"/>
    </g>
   </g>
   <g id="patch_28">
    <path d="M 339.727255 107.44 
L 450.467206 107.44 
" style="fill: none; stroke: #000000; stroke-width: 0.8; stroke-linejoin: miter; stroke-linecap: square"/>
   </g>
   <g id="text_39">
    <!-- 1.84 -->
    <g transform="translate(444.376509 30.284964) scale(0.07 -0.07)">
     <use xlink:href="#NimbusSans-Regular-31"/>
     <use xlink:href="#NimbusSans-Regular-2e" transform="translate(55.599991 0)"/>
     <use xlink:href="#NimbusSans-Regular-38" transform="translate(83.399979 0)"/>
     <use xlink:href="#NimbusSans-Regular-34" transform="translate(138.999969 0)"/>
    </g>
   </g>
   <g id="text_40">
    <!-- 1.28 -->
    <g transform="translate(413.369322 42.392919) scale(0.07 -0.07)">
     <use xlink:href="#NimbusSans-Regular-31"/>
     <use xlink:href="#NimbusSans-Regular-2e" transform="translate(55.599991 0)"/>
     <use xlink:href="#NimbusSans-Regular-32" transform="translate(83.399979 0)"/>
     <use xlink:href="#NimbusSans-Regular-38" transform="translate(138.999969 0)"/>
    </g>
   </g>
   <g id="text_41">
    <!-- 0.06 -->
    <g transform="translate(345.817952 54.500874) scale(0.07 -0.07)">
     <use xlink:href="#NimbusSans-Regular-30"/>
     <use xlink:href="#NimbusSans-Regular-2e" transform="translate(55.599991 0)"/>
     <use xlink:href="#NimbusSans-Regular-30" transform="translate(83.399979 0)"/>
     <use xlink:href="#NimbusSans-Regular-36" transform="translate(138.999969 0)"/>
    </g>
   </g>
   <g id="text_42">
    <!-- 0.02 -->
    <g transform="translate(343.603153 66.608828) scale(0.07 -0.07)">
     <use xlink:href="#NimbusSans-Regular-30"/>
     <use xlink:href="#NimbusSans-Regular-2e" transform="translate(55.599991 0)"/>
     <use xlink:href="#NimbusSans-Regular-30" transform="translate(83.399979 0)"/>
     <use xlink:href="#NimbusSans-Regular-32" transform="translate(138.999969 0)"/>
    </g>
   </g>
   <g id="text_43">
    <!-- 0.32 -->
    <g transform="translate(360.214146 78.716783) scale(0.07 -0.07)">
     <use xlink:href="#NimbusSans-Regular-30"/>
     <use xlink:href="#NimbusSans-Regular-2e" transform="translate(55.599991 0)"/>
     <use xlink:href="#NimbusSans-Regular-33" transform="translate(83.399979 0)"/>
     <use xlink:href="#NimbusSans-Regular-32" transform="translate(138.999969 0)"/>
    </g>
   </g>
   <g id="text_44">
    <!-- Hand Netting -->
    <g transform="translate(368.836918 16.2) scale(0.09 -0.09)">
     <defs>
      <path id="NimbusSans-Regular-48" d="M 3526 2125 
L 3526 0 
L 4122 0 
L 4122 4666 
L 3526 4666 
L 3526 2650 
L 1126 2650 
L 1126 4666 
L 531 4666 
L 531 0 
L 1126 0 
L 1126 2125 
L 3526 2125 
z
" transform="scale(0.015625)"/>
      <path id="NimbusSans-Regular-64" d="M 3168 4666 
L 2637 4666 
L 2637 2931 
C 2413 3270 2054 3450 1606 3450 
C 736 3450 166 2752 166 1683 
C 166 550 717 -147 1626 -147 
C 2086 -147 2406 26 2694 442 
L 2694 0 
L 3168 0 
L 3168 4666 
z
M 1696 2950 
C 2272 2950 2637 2445 2637 1638 
C 2637 864 2266 352 1702 352 
C 1114 352 723 870 723 1651 
C 723 2432 1114 2950 1696 2950 
z
" transform="scale(0.015625)"/>
      <path id="NimbusSans-Regular-4e" d="M 4134 4666 
L 3571 4666 
L 3571 851 
L 1133 4666 
L 486 4666 
L 486 0 
L 1050 0 
L 1050 3782 
L 3462 0 
L 4134 0 
L 4134 4666 
z
" transform="scale(0.015625)"/>
     </defs>
     <use xlink:href="#NimbusSans-Regular-48"/>
     <use xlink:href="#NimbusSans-Regular-61" transform="translate(72.199982 0)"/>
     <use xlink:href="#NimbusSans-Regular-6e" transform="translate(127.799973 0)"/>
     <use xlink:href="#NimbusSans-Regular-64" transform="translate(183.399963 0)"/>
     <use xlink:href="#NimbusSans-Regular-20" transform="translate(238.999954 0)"/>
     <use xlink:href="#NimbusSans-Regular-4e" transform="translate(266.799942 0)"/>
     <use xlink:href="#NimbusSans-Regular-65" transform="translate(338.999924 0)"/>
     <use xlink:href="#NimbusSans-Regular-74" transform="translate(394.599915 0)"/>
     <use xlink:href="#NimbusSans-Regular-74" transform="translate(422.399902 0)"/>
     <use xlink:href="#NimbusSans-Regular-69" transform="translate(450.19989 0)"/>
     <use xlink:href="#NimbusSans-Regular-6e" transform="translate(472.399887 0)"/>
     <use xlink:href="#NimbusSans-Regular-67" transform="translate(527.999878 0)"/>
    </g>
   </g>
  </g>
 </g>
 <defs>
  <clipPath id="p5581ae1e63">
   <rect x="58.67" y="22.2" width="110.739951" height="85.24"/>
  </clipPath>
  <clipPath id="p4e941dd79a">
   <rect x="199.198627" y="22.2" width="110.739951" height="85.24"/>
  </clipPath>
  <clipPath id="p05479a689b">
   <rect x="339.727255" y="22.2" width="110.739951" height="85.24"/>
  </clipPath>
 </defs>
</svg>
