<?xml version="1.0" encoding="utf-8" standalone="no"?>
<!DOCTYPE svg PUBLIC "-//W3C//DTD SVG 1.1//EN"
  "http://www.w3.org/Graphics/SVG/1.1/DTD/svg11.dtd">
<svg xmlns:xlink="http://www.w3.org/1999/xlink" width="180pt" height="144pt" viewBox="0 0 180 144" xmlns="http://www.w3.org/2000/svg" version="1.1">
 <metadata>
  <rdf:RDF xmlns:dc="http://purl.org/dc/elements/1.1/" xmlns:cc="http://creativecommons.org/ns#" xmlns:rdf="http://www.w3.org/1999/02/22-rdf-syntax-ns#">
   <cc:Work>
    <dc:type rdf:resource="http://purl.org/dc/dcmitype/StillImage"/>
    <dc:date>2025-12-04T11:42:47.870743</dc:date>
    <dc:format>image/svg+xml</dc:format>
    <dc:creator>
     <cc:Agent>
      <dc:title>Matplotlib v3.10.7, https://matplotlib.org/</dc:title>
     </cc:Agent>
    </dc:creator>
   </cc:Work>
  </rdf:RDF>
 </metadata>
 <defs>
  <style type="text/css">*{stroke-linejoin: round; stroke-linecap: butt}</style>
 </defs>
 <g id="figure_1">
  <g id="patch_1">
   <path d="M 0 144 
L 180 144 
L 180 0 
L 0 0 
z
" style="fill: #ffffff"/>
  </g>
  <g id="axes_1">
   <g id="patch_2">
    <path d="M 22.5 128.16 
L 162 128.16 
L 162 17.28 
L 22.5 17.28 
z
" style="fill: #ffffff"/>
   </g>
   <g id="PathCollection_1">
    <defs>
     <path id="m6a68c22c00" d="M -0 3.535534 
L 3.535534 -3.535534 
L -3.535534 -3.535534 
z
" style="stroke: #ff0000"/>
    </defs>
    <g clip-path="url(#p89419a0d1f)">
     <use xlink:href="#m6a68c22c00" x="32.464286" y="17.28" style="fill: #ff0000; stroke: #ff0000"/>
    </g>
   </g>
   <g id="matplotlib.axis_1">
    <g id="xtick_1">
     <g id="line2d_1">
      <defs>
       <path id="m054336c0a8" d="M 0 0 
L 0 3.5 
" style="stroke: #000000; stroke-width: 0.8"/>
      </defs>
      <g>
       <use xlink:href="#m054336c0a8" x="29.142857" y="128.16" style="stroke: #000000; stroke-width: 0.8"/>
      </g>
     </g>
     <g id="text_1">
      <!-- 400 -->
      <g transform="translate(20.803795 142.450625) scale(0.1 -0.1)">
       <defs>
        <path id="NimbusSans-Regular-34" d="M 2093 1120 
L 2093 0 
L 2656 0 
L 2656 1120 
L 3328 1120 
L 3328 1626 
L 2656 1626 
L 2656 4627 
L 2240 4627 
L 179 1715 
L 179 1120 
L 2093 1120 
z
M 2093 1626 
L 672 1626 
L 2093 3667 
L 2093 1626 
z
" transform="scale(0.015625)"/>
        <path id="NimbusSans-Regular-30" d="M 1760 4627 
C 1338 4627 954 4435 717 4122 
C 422 3712 275 3098 275 2240 
C 275 678 787 -147 1760 -147 
C 2720 -147 3245 678 3245 2202 
C 3245 3098 3104 3699 2803 4122 
C 2566 4442 2189 4627 1760 4627 
z
M 1760 4128 
C 2368 4128 2669 3507 2669 2253 
C 2669 934 2374 320 1747 320 
C 1152 320 851 960 851 2234 
C 851 3507 1152 4128 1760 4128 
z
" transform="scale(0.015625)"/>
       </defs>
       <use xlink:href="#NimbusSans-Regular-34"/>
       <use xlink:href="#NimbusSans-Regular-30" transform="translate(55.599991 0)"/>
       <use xlink:href="#NimbusSans-Regular-30" transform="translate(111.199982 0)"/>
      </g>
     </g>
    </g>
    <g id="xtick_2">
     <g id="line2d_2">
      <g>
       <use xlink:href="#m054336c0a8" x="95.571429" y="128.16" style="stroke: #000000; stroke-width: 0.8"/>
      </g>
     </g>
     <g id="text_2">
      <!-- 500 -->
      <g transform="translate(87.232366 142.450625) scale(0.1 -0.1)">
       <defs>
        <path id="NimbusSans-Regular-35" d="M 3046 4538 
L 704 4538 
L 365 2067 
L 883 2067 
C 1146 2381 1363 2490 1722 2490 
C 2330 2490 2707 2074 2707 1402 
C 2707 749 2330 352 1715 352 
C 1222 352 922 602 787 1114 
L 224 1114 
C 301 742 365 563 499 397 
C 755 51 1216 -147 1728 -147 
C 2643 -147 3283 518 3283 1478 
C 3283 2374 2688 2989 1818 2989 
C 1498 2989 1242 2906 979 2714 
L 1158 3981 
L 3046 3981 
L 3046 4538 
z
" transform="scale(0.015625)"/>
       </defs>
       <use xlink:href="#NimbusSans-Regular-35"/>
       <use xlink:href="#NimbusSans-Regular-30" transform="translate(55.599991 0)"/>
       <use xlink:href="#NimbusSans-Regular-30" transform="translate(111.199982 0)"/>
      </g>
     </g>
    </g>
    <g id="xtick_3">
     <g id="line2d_3">
      <g>
       <use xlink:href="#m054336c0a8" x="162" y="128.16" style="stroke: #000000; stroke-width: 0.8"/>
      </g>
     </g>
     <g id="text_3">
      <!-- 600 -->
      <g transform="translate(153.660938 142.450625) scale(0.1 -0.1)">
       <defs>
        <path id="NimbusSans-Regular-36" d="M 3187 3424 
C 3078 4179 2592 4627 1901 4627 
C 1402 4627 954 4384 685 3968 
C 397 3514 275 2950 275 2112 
C 275 1331 384 838 659 429 
C 902 51 1299 -147 1798 -147 
C 2662 -147 3283 499 3283 1402 
C 3283 2253 2707 2854 1894 2854 
C 1446 2854 1094 2688 851 2349 
C 858 3494 1216 4128 1862 4128 
C 2259 4128 2534 3872 2624 3424 
L 3187 3424 
z
M 1824 2355 
C 2368 2355 2707 1971 2707 1357 
C 2707 774 2323 352 1805 352 
C 1280 352 883 794 883 1382 
C 883 1958 1267 2355 1824 2355 
z
" transform="scale(0.015625)"/>
       </defs>
       <use xlink:href="#NimbusSans-Regular-36"/>
       <use xlink:href="#NimbusSans-Regular-30" transform="translate(55.599991 0)"/>
       <use xlink:href="#NimbusSans-Regular-30" transform="translate(111.199982 0)"/>
      </g>
     </g>
    </g>
    <g id="text_4">
     <!-- Wavelength (nm) -->
     <g transform="translate(54.1875 155.920938) scale(0.1 -0.1)">
      <defs>
       <path id="NimbusSans-Regular-57" d="M 4762 0 
L 5946 4666 
L 5280 4666 
L 4422 877 
L 3360 4666 
L 2720 4666 
L 1683 877 
L 806 4666 
L 141 4666 
L 1338 0 
L 1990 0 
L 3034 3834 
L 4109 0 
L 4762 0 
z
" transform="scale(0.015625)"/>
       <path id="NimbusSans-Regular-61" d="M 3424 314 
C 3366 301 3341 301 3309 301 
C 3123 301 3021 397 3021 563 
L 3021 2534 
C 3021 3130 2586 3450 1760 3450 
C 1267 3450 877 3309 646 3059 
C 493 2886 429 2694 416 2362 
L 954 2362 
C 998 2771 1242 2957 1741 2957 
C 2227 2957 2490 2778 2490 2458 
L 2490 2317 
C 2483 2086 2368 2003 1933 1946 
C 1178 1850 1062 1824 858 1741 
C 467 1574 269 1280 269 845 
C 269 237 691 -147 1370 -147 
C 1792 -147 2131 0 2509 346 
C 2547 0 2714 -147 3059 -147 
C 3174 -147 3245 -134 3424 -90 
L 3424 314 
z
M 2490 1056 
C 2490 877 2438 768 2278 621 
C 2061 422 1798 320 1485 320 
C 1069 320 826 518 826 858 
C 826 1210 1056 1389 1632 1472 
C 2202 1549 2310 1574 2490 1658 
L 2490 1056 
z
" transform="scale(0.015625)"/>
       <path id="NimbusSans-Regular-76" d="M 1824 0 
L 3110 3354 
L 2509 3354 
L 1562 634 
L 666 3354 
L 64 3354 
L 1242 0 
L 1824 0 
z
" transform="scale(0.015625)"/>
       <path id="NimbusSans-Regular-65" d="M 3283 1498 
C 3283 2010 3245 2317 3149 2566 
C 2931 3117 2419 3450 1792 3450 
C 858 3450 256 2739 256 1632 
C 256 525 832 -147 1779 -147 
C 2547 -147 3078 288 3213 1018 
L 2675 1018 
C 2528 576 2227 346 1798 346 
C 1459 346 1171 499 992 781 
C 864 973 819 1165 813 1498 
L 3283 1498 
z
M 826 1933 
C 870 2554 1248 2957 1786 2957 
C 2330 2957 2707 2534 2707 1933 
L 826 1933 
z
" transform="scale(0.015625)"/>
       <path id="NimbusSans-Regular-6c" d="M 973 4666 
L 435 4666 
L 435 0 
L 973 0 
L 973 4666 
z
" transform="scale(0.015625)"/>
       <path id="NimbusSans-Regular-6e" d="M 448 3354 
L 448 0 
L 986 0 
L 986 1850 
C 986 2534 1344 2982 1894 2982 
C 2317 2982 2586 2726 2586 2323 
L 2586 0 
L 3117 0 
L 3117 2534 
C 3117 3091 2701 3450 2054 3450 
C 1555 3450 1235 3258 941 2790 
L 941 3354 
L 448 3354 
z
" transform="scale(0.015625)"/>
       <path id="NimbusSans-Regular-67" d="M 2586 3354 
L 2586 2867 
C 2317 3270 2022 3450 1600 3450 
C 787 3450 224 2694 224 1619 
C 224 1056 358 646 646 307 
C 896 13 1216 -147 1562 -147 
C 1965 -147 2253 32 2534 454 
L 2534 282 
C 2534 -614 2285 -947 1619 -947 
C 1165 -947 928 -768 877 -384 
L 333 -384 
C 384 -1005 877 -1395 1606 -1395 
C 2099 -1395 2509 -1235 2726 -966 
C 2982 -653 3078 -237 3078 550 
L 3078 3354 
L 2586 3354 
z
M 1651 2957 
C 2214 2957 2534 2483 2534 1632 
C 2534 819 2208 346 1651 346 
C 1101 346 781 826 781 1651 
C 781 2470 1101 2957 1651 2957 
z
" transform="scale(0.015625)"/>
       <path id="NimbusSans-Regular-74" d="M 1626 3354 
L 1075 3354 
L 1075 4275 
L 544 4275 
L 544 3354 
L 90 3354 
L 90 2918 
L 544 2918 
L 544 384 
C 544 38 774 -147 1190 -147 
C 1331 -147 1446 -134 1626 -102 
L 1626 346 
C 1549 326 1478 320 1370 320 
C 1139 320 1075 384 1075 621 
L 1075 2918 
L 1626 2918 
L 1626 3354 
z
" transform="scale(0.015625)"/>
       <path id="NimbusSans-Regular-68" d="M 448 4666 
L 448 0 
L 979 0 
L 979 1850 
C 979 2534 1338 2982 1888 2982 
C 2067 2982 2234 2931 2362 2835 
C 2515 2720 2579 2560 2579 2323 
L 2579 0 
L 3110 0 
L 3110 2534 
C 3110 3098 2707 3450 2054 3450 
C 1581 3450 1293 3302 979 2893 
L 979 4666 
L 448 4666 
z
" transform="scale(0.015625)"/>
       <path id="NimbusSans-Regular-20" transform="scale(0.015625)"/>
       <path id="NimbusSans-Regular-28" d="M 1510 4666 
C 870 3827 467 2662 467 1658 
C 467 646 870 -518 1510 -1357 
L 1862 -1357 
C 1299 -442 986 634 986 1658 
C 986 2675 1299 3757 1862 4666 
L 1510 4666 
z
" transform="scale(0.015625)"/>
       <path id="NimbusSans-Regular-6d" d="M 448 3354 
L 448 0 
L 986 0 
L 986 2106 
C 986 2592 1338 2982 1773 2982 
C 2170 2982 2394 2739 2394 2310 
L 2394 0 
L 2931 0 
L 2931 2106 
C 2931 2592 3283 2982 3718 2982 
C 4109 2982 4339 2733 4339 2310 
L 4339 0 
L 4877 0 
L 4877 2515 
C 4877 3117 4531 3450 3904 3450 
C 3456 3450 3187 3315 2874 2938 
C 2675 3296 2406 3450 1971 3450 
C 1523 3450 1222 3283 941 2880 
L 941 3354 
L 448 3354 
z
" transform="scale(0.015625)"/>
       <path id="NimbusSans-Regular-29" d="M 595 -1357 
C 1235 -518 1638 646 1638 1651 
C 1638 2662 1235 3827 595 4666 
L 243 4666 
C 806 3750 1120 2675 1120 1651 
C 1120 634 806 -448 243 -1357 
L 595 -1357 
z
" transform="scale(0.015625)"/>
      </defs>
      <use xlink:href="#NimbusSans-Regular-57"/>
      <use xlink:href="#NimbusSans-Regular-61" transform="translate(94.399994 0)"/>
      <use xlink:href="#NimbusSans-Regular-76" transform="translate(149.999985 0)"/>
      <use xlink:href="#NimbusSans-Regular-65" transform="translate(199.999969 0)"/>
      <use xlink:href="#NimbusSans-Regular-6c" transform="translate(255.59996 0)"/>
      <use xlink:href="#NimbusSans-Regular-65" transform="translate(277.799957 0)"/>
      <use xlink:href="#NimbusSans-Regular-6e" transform="translate(333.399948 0)"/>
      <use xlink:href="#NimbusSans-Regular-67" transform="translate(388.999939 0)"/>
      <use xlink:href="#NimbusSans-Regular-74" transform="translate(444.59993 0)"/>
      <use xlink:href="#NimbusSans-Regular-68" transform="translate(472.399918 0)"/>
      <use xlink:href="#NimbusSans-Regular-20" transform="translate(527.999908 0)"/>
      <use xlink:href="#NimbusSans-Regular-28" transform="translate(555.799896 0)"/>
      <use xlink:href="#NimbusSans-Regular-6e" transform="translate(589.099884 0)"/>
      <use xlink:href="#NimbusSans-Regular-6d" transform="translate(644.699875 0)"/>
      <use xlink:href="#NimbusSans-Regular-29" transform="translate(727.999863 0)"/>
     </g>
    </g>
   </g>
   <g id="matplotlib.axis_2">
    <g id="ytick_1">
     <g id="line2d_4">
      <defs>
       <path id="mf125b3513e" d="M 0 0 
L -3.5 0 
" style="stroke: #000000; stroke-width: 0.8"/>
      </defs>
      <g>
       <use xlink:href="#mf125b3513e" x="22.5" y="128.16" style="stroke: #000000; stroke-width: 0.8"/>
      </g>
     </g>
     <g id="text_5">
      <!-- 0.0 -->
      <g transform="translate(1.601562 131.805313) scale(0.1 -0.1)">
       <defs>
        <path id="NimbusSans-Regular-2e" d="M 1222 666 
L 557 666 
L 557 0 
L 1222 0 
L 1222 666 
z
" transform="scale(0.015625)"/>
       </defs>
       <use xlink:href="#NimbusSans-Regular-30"/>
       <use xlink:href="#NimbusSans-Regular-2e" transform="translate(55.599991 0)"/>
       <use xlink:href="#NimbusSans-Regular-30" transform="translate(83.399979 0)"/>
      </g>
     </g>
    </g>
    <g id="ytick_2">
     <g id="line2d_5">
      <g>
       <use xlink:href="#mf125b3513e" x="22.5" y="105.984" style="stroke: #000000; stroke-width: 0.8"/>
      </g>
     </g>
     <g id="text_6">
      <!-- 0.2 -->
      <g transform="translate(1.601562 109.629312) scale(0.1 -0.1)">
       <defs>
        <path id="NimbusSans-Regular-32" d="M 3238 557 
L 851 557 
C 909 941 1114 1184 1670 1523 
L 2310 1882 
C 2944 2234 3270 2707 3270 3277 
C 3270 3661 3117 4019 2848 4269 
C 2579 4512 2246 4627 1818 4627 
C 1242 4627 813 4422 563 4026 
C 403 3782 333 3494 320 3027 
L 883 3027 
C 902 3341 941 3526 1018 3680 
C 1165 3962 1459 4134 1798 4134 
C 2310 4134 2694 3763 2694 3264 
C 2694 2893 2483 2573 2080 2342 
L 1491 1997 
C 544 1453 269 1018 218 6 
L 3238 6 
L 3238 557 
z
" transform="scale(0.015625)"/>
       </defs>
       <use xlink:href="#NimbusSans-Regular-30"/>
       <use xlink:href="#NimbusSans-Regular-2e" transform="translate(55.599991 0)"/>
       <use xlink:href="#NimbusSans-Regular-32" transform="translate(83.399979 0)"/>
      </g>
     </g>
    </g>
    <g id="ytick_3">
     <g id="line2d_6">
      <g>
       <use xlink:href="#mf125b3513e" x="22.5" y="83.808" style="stroke: #000000; stroke-width: 0.8"/>
      </g>
     </g>
     <g id="text_7">
      <!-- 0.4 -->
      <g transform="translate(1.601562 87.453313) scale(0.1 -0.1)">
       <use xlink:href="#NimbusSans-Regular-30"/>
       <use xlink:href="#NimbusSans-Regular-2e" transform="translate(55.599991 0)"/>
       <use xlink:href="#NimbusSans-Regular-34" transform="translate(83.399979 0)"/>
      </g>
     </g>
    </g>
    <g id="ytick_4">
     <g id="line2d_7">
      <g>
       <use xlink:href="#mf125b3513e" x="22.5" y="61.632" style="stroke: #000000; stroke-width: 0.8"/>
      </g>
     </g>
     <g id="text_8">
      <!-- 0.6 -->
      <g transform="translate(1.601562 65.277312) scale(0.1 -0.1)">
       <use xlink:href="#NimbusSans-Regular-30"/>
       <use xlink:href="#NimbusSans-Regular-2e" transform="translate(55.599991 0)"/>
       <use xlink:href="#NimbusSans-Regular-36" transform="translate(83.399979 0)"/>
      </g>
     </g>
    </g>
    <g id="ytick_5">
     <g id="line2d_8">
      <g>
       <use xlink:href="#mf125b3513e" x="22.5" y="39.456" style="stroke: #000000; stroke-width: 0.8"/>
      </g>
     </g>
     <g id="text_9">
      <!-- 0.8 -->
      <g transform="translate(1.601562 43.101312) scale(0.1 -0.1)">
       <defs>
        <path id="NimbusSans-Regular-38" d="M 2502 2438 
C 2976 2726 3123 2957 3123 3392 
C 3123 4122 2566 4627 1760 4627 
C 960 4627 397 4122 397 3398 
C 397 2957 544 2733 1011 2438 
C 493 2176 237 1798 237 1286 
C 237 442 858 -147 1760 -147 
C 2656 -147 3283 442 3283 1286 
C 3283 1798 3027 2176 2502 2438 
z
M 1760 4128 
C 2240 4128 2547 3840 2547 3379 
C 2547 2944 2234 2656 1760 2656 
C 1280 2656 973 2944 973 3392 
C 973 3840 1280 4128 1760 4128 
z
M 1760 2182 
C 2323 2182 2707 1811 2707 1274 
C 2707 717 2330 352 1747 352 
C 1197 352 813 730 813 1267 
C 813 1818 1190 2182 1760 2182 
z
" transform="scale(0.015625)"/>
       </defs>
       <use xlink:href="#NimbusSans-Regular-30"/>
       <use xlink:href="#NimbusSans-Regular-2e" transform="translate(55.599991 0)"/>
       <use xlink:href="#NimbusSans-Regular-38" transform="translate(83.399979 0)"/>
      </g>
     </g>
    </g>
    <g id="ytick_6">
     <g id="line2d_9">
      <g>
       <use xlink:href="#mf125b3513e" x="22.5" y="17.28" style="stroke: #000000; stroke-width: 0.8"/>
      </g>
     </g>
     <g id="text_10">
      <!-- 1.0 -->
      <g transform="translate(1.601562 20.925313) scale(0.1 -0.1)">
       <defs>
        <path id="NimbusSans-Regular-31" d="M 1658 3296 
L 1658 0 
L 2221 0 
L 2221 4627 
L 1850 4627 
C 1651 3917 1523 3821 653 3706 
L 653 3296 
L 1658 3296 
z
" transform="scale(0.015625)"/>
       </defs>
       <use xlink:href="#NimbusSans-Regular-31"/>
       <use xlink:href="#NimbusSans-Regular-2e" transform="translate(55.599991 0)"/>
       <use xlink:href="#NimbusSans-Regular-30" transform="translate(83.399979 0)"/>
      </g>
     </g>
    </g>
    <g id="text_11">
     <!-- Normalized -->
     <g transform="translate(-15.506563 97.998906) rotate(-90) scale(0.1 -0.1)">
      <defs>
       <path id="NimbusSans-Regular-4e" d="M 4134 4666 
L 3571 4666 
L 3571 851 
L 1133 4666 
L 486 4666 
L 486 0 
L 1050 0 
L 1050 3782 
L 3462 0 
L 4134 0 
L 4134 4666 
z
" transform="scale(0.015625)"/>
       <path id="NimbusSans-Regular-6f" d="M 1741 3450 
C 794 3450 230 2778 230 1651 
C 230 518 794 -147 1747 -147 
C 2694 -147 3264 525 3264 1626 
C 3264 2790 2714 3450 1741 3450 
z
M 1747 2957 
C 2349 2957 2707 2464 2707 1632 
C 2707 838 2336 346 1747 346 
C 1152 346 787 838 787 1651 
C 787 2464 1152 2957 1747 2957 
z
" transform="scale(0.015625)"/>
       <path id="NimbusSans-Regular-72" d="M 442 3354 
L 442 0 
L 979 0 
L 979 1741 
C 986 2547 1318 2906 2054 2886 
L 2054 3430 
C 1965 3443 1914 3450 1850 3450 
C 1504 3450 1242 3245 934 2746 
L 934 3354 
L 442 3354 
z
" transform="scale(0.015625)"/>
       <path id="NimbusSans-Regular-69" d="M 960 3354 
L 429 3354 
L 429 0 
L 960 0 
L 960 3354 
z
M 960 4666 
L 422 4666 
L 422 3994 
L 960 3994 
L 960 4666 
z
" transform="scale(0.015625)"/>
       <path id="NimbusSans-Regular-7a" d="M 2835 3354 
L 333 3354 
L 333 2886 
L 2202 2886 
L 198 480 
L 198 0 
L 2925 0 
L 2925 467 
L 845 467 
L 2835 2880 
L 2835 3354 
z
" transform="scale(0.015625)"/>
       <path id="NimbusSans-Regular-64" d="M 3168 4666 
L 2637 4666 
L 2637 2931 
C 2413 3270 2054 3450 1606 3450 
C 736 3450 166 2752 166 1683 
C 166 550 717 -147 1626 -147 
C 2086 -147 2406 26 2694 442 
L 2694 0 
L 3168 0 
L 3168 4666 
z
M 1696 2950 
C 2272 2950 2637 2445 2637 1638 
C 2637 864 2266 352 1702 352 
C 1114 352 723 870 723 1651 
C 723 2432 1114 2950 1696 2950 
z
" transform="scale(0.015625)"/>
      </defs>
      <use xlink:href="#NimbusSans-Regular-4e"/>
      <use xlink:href="#NimbusSans-Regular-6f" transform="translate(72.199982 0)"/>
      <use xlink:href="#NimbusSans-Regular-72" transform="translate(127.799973 0)"/>
      <use xlink:href="#NimbusSans-Regular-6d" transform="translate(161.09996 0)"/>
      <use xlink:href="#NimbusSans-Regular-61" transform="translate(244.399948 0)"/>
      <use xlink:href="#NimbusSans-Regular-6c" transform="translate(299.999939 0)"/>
      <use xlink:href="#NimbusSans-Regular-69" transform="translate(322.199936 0)"/>
      <use xlink:href="#NimbusSans-Regular-7a" transform="translate(344.399933 0)"/>
      <use xlink:href="#NimbusSans-Regular-65" transform="translate(394.399918 0)"/>
      <use xlink:href="#NimbusSans-Regular-64" transform="translate(449.999908 0)"/>
     </g>
     <!-- Photoluminescence -->
     <g transform="translate(-4.578125 116.347344) rotate(-90) scale(0.1 -0.1)">
      <defs>
       <path id="NimbusSans-Regular-50" d="M 1178 1978 
L 2643 1978 
C 3008 1978 3296 2086 3546 2310 
C 3827 2566 3949 2867 3949 3296 
C 3949 4173 3430 4666 2509 4666 
L 582 4666 
L 582 0 
L 1178 0 
L 1178 1978 
z
M 1178 2502 
L 1178 4141 
L 2419 4141 
C 2989 4141 3328 3834 3328 3322 
C 3328 2810 2989 2502 2419 2502 
L 1178 2502 
z
" transform="scale(0.015625)"/>
       <path id="NimbusSans-Regular-75" d="M 3085 0 
L 3085 3354 
L 2554 3354 
L 2554 1453 
C 2554 768 2195 320 1638 320 
C 1216 320 947 576 947 979 
L 947 3354 
L 416 3354 
L 416 768 
C 416 211 832 -147 1485 -147 
C 1978 -147 2291 26 2605 467 
L 2605 0 
L 3085 0 
z
" transform="scale(0.015625)"/>
       <path id="NimbusSans-Regular-73" d="M 2803 2419 
C 2797 3078 2362 3450 1587 3450 
C 806 3450 301 3046 301 2426 
C 301 1901 570 1651 1363 1459 
L 1862 1338 
C 2234 1248 2381 1114 2381 877 
C 2381 557 2067 346 1600 346 
C 1312 346 1069 429 934 570 
C 851 666 813 762 781 998 
L 218 998 
C 243 224 678 -147 1555 -147 
C 2400 -147 2938 269 2938 915 
C 2938 1414 2656 1690 1990 1850 
L 1478 1971 
C 1043 2074 858 2214 858 2451 
C 858 2765 1133 2957 1568 2957 
C 1997 2957 2227 2771 2240 2419 
L 2803 2419 
z
" transform="scale(0.015625)"/>
       <path id="NimbusSans-Regular-63" d="M 3014 2227 
C 2989 2554 2918 2765 2790 2950 
C 2560 3264 2157 3450 1690 3450 
C 781 3450 198 2733 198 1619 
C 198 538 774 -147 1683 -147 
C 2483 -147 2989 333 3053 1152 
L 2515 1152 
C 2426 614 2150 346 1696 346 
C 1107 346 755 826 755 1619 
C 755 2458 1101 2957 1683 2957 
C 2131 2957 2413 2694 2477 2227 
L 3014 2227 
z
" transform="scale(0.015625)"/>
      </defs>
      <use xlink:href="#NimbusSans-Regular-50"/>
      <use xlink:href="#NimbusSans-Regular-68" transform="translate(66.699997 0)"/>
      <use xlink:href="#NimbusSans-Regular-6f" transform="translate(122.299988 0)"/>
      <use xlink:href="#NimbusSans-Regular-74" transform="translate(177.899979 0)"/>
      <use xlink:href="#NimbusSans-Regular-6f" transform="translate(205.699966 0)"/>
      <use xlink:href="#NimbusSans-Regular-6c" transform="translate(261.299957 0)"/>
      <use xlink:href="#NimbusSans-Regular-75" transform="translate(283.499954 0)"/>
      <use xlink:href="#NimbusSans-Regular-6d" transform="translate(339.099945 0)"/>
      <use xlink:href="#NimbusSans-Regular-69" transform="translate(422.399933 0)"/>
      <use xlink:href="#NimbusSans-Regular-6e" transform="translate(444.59993 0)"/>
      <use xlink:href="#NimbusSans-Regular-65" transform="translate(500.199921 0)"/>
      <use xlink:href="#NimbusSans-Regular-73" transform="translate(555.799911 0)"/>
      <use xlink:href="#NimbusSans-Regular-63" transform="translate(605.799896 0)"/>
      <use xlink:href="#NimbusSans-Regular-65" transform="translate(655.799881 0)"/>
      <use xlink:href="#NimbusSans-Regular-6e" transform="translate(711.399872 0)"/>
      <use xlink:href="#NimbusSans-Regular-63" transform="translate(766.999863 0)"/>
      <use xlink:href="#NimbusSans-Regular-65" transform="translate(816.999847 0)"/>
     </g>
    </g>
   </g>
   <g id="line2d_10">
    <path d="M 35.791693 105.850382 
L 36.041464 104.02591 
L 36.291236 105.199171 
L 36.541671 101.773184 
L 36.791443 105.160455 
L 37.041214 104.483856 
L 37.29165 104.406689 
L 37.791193 101.127423 
L 38.040964 100.959872 
L 38.290736 99.439447 
L 38.540507 99.267498 
L 38.790279 99.430979 
L 39.04005 102.391871 
L 39.289821 101.105854 
L 39.539593 98.427737 
L 39.789364 97.746207 
L 40.038471 97.854745 
L 40.288243 94.871346 
L 40.538014 95.002935 
L 40.787121 93.62889 
L 41.036893 96.190302 
L 41.286664 92.790427 
L 41.535771 92.992355 
L 42.284421 89.806614 
L 43.032407 83.365389 
L 43.281514 77.645046 
L 43.530621 76.243682 
L 43.779729 80.006094 
L 44.0295 74.663595 
L 44.278607 78.097449 
L 44.527714 72.94637 
L 44.776821 74.989337 
L 45.025929 68.615723 
L 45.275036 69.386702 
L 45.524143 73.695484 
L 45.77325 67.12658 
L 46.021693 67.992421 
L 46.2708 53.53167 
L 46.519907 53.625632 
L 46.769014 49.308186 
L 47.017457 56.272939 
L 47.266564 53.753528 
L 47.515671 57.263045 
L 47.764114 49.945867 
L 48.013221 46.734953 
L 48.261664 46.399526 
L 48.510771 42.571876 
L 48.759214 46.287301 
L 49.505207 33.921034 
L 49.75365 34.347836 
L 50.002093 32.620996 
L 50.2512 42.807288 
L 50.499643 34.392727 
L 50.748086 32.230644 
L 50.996529 27.528521 
L 51.493414 40.116986 
L 51.741857 35.578237 
L 51.9903 35.570138 
L 52.238079 55.390756 
L 52.486521 58.888317 
L 52.734964 56.070209 
L 52.983407 57.932788 
L 53.231186 61.671133 
L 53.479629 17.28 
L 53.728071 17.9693 
L 53.97585 20.797119 
L 54.224293 32.565047 
L 54.472071 30.531439 
L 54.720514 33.549105 
L 54.968293 34.100568 
L 55.216736 33.953371 
L 55.464514 21.643408 
L 55.712293 33.46538 
L 55.960071 26.735879 
L 56.208514 29.485527 
L 56.456293 23.888645 
L 56.704071 27.975459 
L 56.95185 20.039962 
L 57.199629 24.924139 
L 57.447407 43.700646 
L 57.695186 43.41818 
L 57.942964 40.975419 
L 58.190743 43.955953 
L 58.438521 53.134789 
L 58.6863 54.251342 
L 58.933414 39.998625 
L 59.181193 41.308704 
L 59.428971 37.749148 
L 59.676086 46.27333 
L 59.923864 44.311073 
L 60.171643 35.108806 
L 60.418757 39.36466 
L 60.666536 36.609628 
L 60.91365 48.463416 
L 61.161429 39.393647 
L 61.408543 42.895408 
L 61.655657 43.86117 
L 61.903436 47.324414 
L 62.15055 45.192785 
L 62.397664 49.64271 
L 62.644779 46.201759 
L 62.891893 59.646755 
L 63.139007 59.246701 
L 63.633236 49.046696 
L 63.88035 49.987592 
L 64.127464 49.941351 
L 64.374579 49.600162 
L 64.868807 60.403827 
L 65.609486 52.171577 
L 65.8566 53.57099 
L 66.10305 51.233651 
L 66.350164 47.388628 
L 66.596614 57.523111 
L 66.843729 58.455427 
L 67.090179 52.515061 
L 67.583743 64.177015 
L 67.830193 65.953036 
L 68.077307 66.407434 
L 68.323757 63.223913 
L 68.570207 69.25509 
L 68.816657 63.973319 
L 69.063771 61.25649 
L 69.803121 65.032029 
L 70.049571 61.430292 
L 70.296021 66.170475 
L 70.541807 67.21186 
L 70.788257 73.462515 
L 71.034707 69.874953 
L 71.281157 69.994207 
L 71.773393 74.2738 
L 72.019843 74.123114 
L 72.266293 79.217659 
L 72.512079 78.058407 
L 72.758529 70.593273 
L 73.004314 74.949497 
L 73.250764 77.271719 
L 73.49655 78.398911 
L 73.742336 77.80774 
L 73.988786 75.649608 
L 74.234571 77.290636 
L 74.480357 77.053258 
L 74.726143 78.807604 
L 74.971929 78.974639 
L 75.218379 83.300501 
L 75.464164 82.095508 
L 75.70995 84.225991 
L 75.955736 83.49368 
L 76.201521 84.627945 
L 76.447307 84.089993 
L 76.692429 85.038465 
L 76.938214 85.528214 
L 77.184 90.639599 
L 77.675571 88.080073 
L 77.920693 90.835068 
L 78.166479 91.080016 
L 78.4116 90.881759 
L 78.657386 92.768162 
L 78.902507 92.073779 
L 79.148293 95.725528 
L 79.393414 94.338586 
L 79.6392 95.35468 
L 79.884321 94.937772 
L 80.129443 92.222668 
L 80.375229 94.587444 
L 80.62035 94.507014 
L 80.865471 95.500246 
L 81.110593 95.455613 
L 81.355714 95.978199 
L 81.600836 95.910784 
L 81.845957 96.651564 
L 82.091079 96.39252 
L 82.3362 96.651494 
L 82.581321 96.1435 
L 82.826443 98.984973 
L 83.071564 99.118547 
L 83.316686 99.391094 
L 83.561143 100.913666 
L 83.806264 100.418873 
L 84.051386 99.479547 
L 84.295843 100.79372 
L 84.540964 100.653415 
L 84.785421 103.111116 
L 85.030543 102.825713 
L 85.275 103.606917 
L 85.520121 102.614775 
L 85.764579 103.57552 
L 86.254157 104.534086 
L 86.498614 104.518527 
L 86.987529 105.336867 
L 87.23265 105.863357 
L 87.477107 106.003223 
L 87.966021 106.986081 
L 88.210479 107.683131 
L 88.454936 107.705804 
L 88.698729 108.142112 
L 88.943186 108.031454 
L 89.187643 108.880312 
L 89.4321 112.462948 
L 89.676557 112.797815 
L 89.92035 112.899363 
L 90.164807 110.97258 
L 90.4086 111.542744 
L 90.653057 111.262456 
L 90.89685 110.161358 
L 91.141307 110.333587 
L 91.3851 111.833917 
L 91.629557 111.536453 
L 91.87335 111.633579 
L 92.117143 109.589598 
L 92.3616 109.926088 
L 92.849186 111.45686 
L 93.092979 111.381114 
L 93.336771 112.567077 
L 93.580564 112.51247 
L 93.824357 113.027563 
L 94.06815 112.174927 
L 94.311943 112.244618 
L 94.555736 112.435506 
L 95.287114 113.646698 
L 95.530243 112.468747 
L 96.260957 114.347871 
L 96.50475 114.373888 
L 96.747879 114.865971 
L 96.991671 114.801685 
L 97.2348 114.905049 
L 97.721721 115.774049 
L 97.96485 115.768083 
L 98.208643 116.263675 
L 98.451771 116.139141 
L 98.6949 116.368481 
L 98.938029 116.774131 
L 99.181157 116.85249 
L 99.424286 117.456907 
L 99.667414 117.436909 
L 100.3968 117.897713 
L 100.639929 117.597276 
L 100.883057 117.561846 
L 101.126186 117.888506 
L 101.36865 118.597469 
L 101.611779 118.588924 
L 101.854907 118.912721 
L 102.097371 118.398209 
L 102.3405 118.69522 
L 102.582964 118.704098 
L 102.826093 118.368249 
L 103.068557 118.640685 
L 103.311686 119.382026 
L 103.55415 119.339695 
L 103.796614 119.601654 
L 104.039743 120.194821 
L 104.524671 120.310751 
L 104.767136 120.179907 
L 105.0096 120.273854 
L 105.252729 120.508769 
L 105.495193 120.992935 
L 105.737657 121.132958 
L 105.979457 121.067774 
L 106.221921 121.119058 
L 106.464386 121.292772 
L 106.70685 121.274881 
L 106.949314 121.480813 
L 107.191779 121.424143 
L 107.433579 121.999286 
L 107.918507 122.283465 
L 108.160307 122.373151 
L 108.402771 122.608796 
L 108.644571 122.437838 
L 108.887036 122.619464 
L 109.8549 122.786602 
L 110.0967 124.037597 
L 110.3385 124.011267 
L 110.580964 124.175862 
L 110.822764 123.509052 
L 111.064564 123.599002 
L 111.306364 123.824664 
L 111.789964 123.836758 
L 112.031764 123.437339 
L 112.273564 123.708473 
L 112.5147 123.789272 
L 112.7565 123.701717 
L 113.2401 123.794025 
L 113.723036 123.773208 
L 113.964171 124.20746 
L 114.447107 124.305718 
L 114.688907 123.829856 
L 114.930043 124.108592 
L 115.171843 124.214659 
L 115.412979 124.173102 
L 115.654114 124.255038 
L 115.89525 124.473947 
L 116.378186 124.444254 
L 116.619321 125.118824 
L 117.101593 125.089678 
L 117.342729 124.670061 
L 117.825 124.721372 
L 118.066136 124.505156 
L 118.788879 124.905374 
L 119.030014 124.882604 
L 119.270486 124.676789 
L 120.474836 124.946032 
L 120.715307 125.414301 
L 121.196914 125.506694 
L 121.437386 125.352941 
L 121.678521 125.409377 
L 122.159464 125.359719 
L 122.399936 125.432695 
L 122.640407 125.186432 
L 123.12135 125.339784 
L 123.361821 125.694758 
L 123.602293 125.788877 
L 124.563514 125.733161 
L 125.043793 125.834873 
L 125.284264 126.048872 
L 125.524736 125.991726 
L 126.484629 126.254593 
L 126.7251 126.035591 
L 127.204714 126.117203 
L 128.404414 126.198353 
L 128.644221 126.284421 
L 129.123836 126.277498 
L 129.60345 126.410348 
L 130.0824 126.429224 
L 130.801157 126.554767 
L 132.716957 126.703387 
L 133.195243 126.709584 
L 133.673529 126.760855 
L 135.82515 126.99627 
L 136.303436 127.034999 
L 138.929357 127.306377 
L 139.167836 127.089452 
L 139.406314 127.232996 
L 139.644793 127.183008 
L 139.883271 127.382329 
L 140.598707 127.338721 
L 142.980836 127.607121 
L 143.695607 127.493824 
L 144.40905 127.6186 
L 145.123157 127.729336 
L 145.598786 127.720206 
L 146.549379 127.816443 
L 147.025007 127.798479 
L 148.4499 127.804542 
L 149.162014 127.85875 
L 150.585579 127.896184 
L 151.771329 127.928266 
L 152.008479 127.841124 
L 152.482114 127.888901 
L 152.956414 127.905088 
L 155.7969 127.972445 
L 156.269871 127.976728 
L 156.979329 127.95203 
L 157.4523 128.003317 
L 158.869886 128.082762 
L 159.578014 128.10828 
L 160.994271 128.118302 
L 161.937557 128.130859 
L 161.937557 128.130859 
" clip-path="url(#p89419a0d1f)" style="fill: none; stroke: #bf00bf; stroke-width: 1.5; stroke-linecap: square"/>
   </g>
   <g id="line2d_11">
    <path d="M 35.792357 105.353628 
L 36.044786 105.472566 
L 36.290571 103.807434 
L 36.543 103.985841 
L 36.788786 103.272212 
L 37.041214 100.715044 
L 37.293643 100.68531 
L 37.539429 98.276814 
L 37.791857 97.355044 
L 38.037643 95.511504 
L 38.290071 94.708673 
L 39.040714 89.207788 
L 39.2865 88.494159 
L 39.538929 86.055929 
L 39.791357 85.99646 
L 40.037143 83.350088 
L 40.289571 82.398584 
L 40.535357 83.23115 
L 40.787786 76.986903 
L 41.040214 77.076106 
L 41.286 75.975929 
L 41.538429 72.794336 
L 41.784214 71.753628 
L 42.036643 66.16354 
L 42.282429 66.401416 
L 42.534857 64.022655 
L 43.278857 52.72354 
L 43.531286 54.656283 
L 43.777071 53.64531 
L 44.0295 44.457345 
L 44.275286 50.166372 
L 44.527714 41.751504 
L 44.7735 41.72177 
L 45.025929 44.189735 
L 45.271714 44.635752 
L 45.524143 37.677876 
L 45.769929 34.615221 
L 46.022357 28.043894 
L 46.268143 31.017345 
L 46.766357 29.738761 
L 47.018786 28.816991 
L 47.264571 29.173805 
L 47.517 25.754336 
L 47.762786 24.089204 
L 48.015214 28.133097 
L 48.513429 17.28 
L 48.759214 25.605664 
L 49.257429 21.829381 
L 49.503214 24.059469 
L 49.755643 24.475752 
L 50.001429 22.186195 
L 50.499643 28.370973 
L 50.745429 26.349027 
L 50.997857 25.486726 
L 51.243643 28.043894 
L 51.496071 27.627611 
L 51.741857 24.267611 
L 51.987643 24.178407 
L 52.240071 31.64177 
L 52.485857 34.347611 
L 52.738286 33.009558 
L 52.984071 29.173805 
L 53.229857 33.75292 
L 53.482286 33.842124 
L 53.728071 37.469735 
L 53.973857 37.202124 
L 54.226286 42.792212 
L 54.472071 37.410265 
L 54.717857 39.105133 
L 54.970286 39.55115 
L 55.216071 37.915752 
L 55.461857 35.507257 
L 55.960071 38.421239 
L 56.205857 37.886018 
L 56.704071 45.379115 
L 56.949857 38.094159 
L 57.202286 37.291327 
L 57.448071 41.067611 
L 57.693857 40.383717 
L 57.946286 42.613805 
L 58.192071 39.015929 
L 58.437857 43.862655 
L 58.683643 44.962832 
L 58.936071 38.926726 
L 59.181857 43.297699 
L 59.427643 38.837522 
L 59.673429 41.870442 
L 59.925857 40.175575 
L 60.171643 36.993982 
L 60.417429 42.792212 
L 60.663214 42.375929 
L 60.915643 43.595044 
L 61.161429 37.529204 
L 61.407214 42.554336 
L 61.653 38.867257 
L 62.151214 38.332035 
L 62.397 42.554336 
L 62.895214 38.807788 
L 63.141 35.655929 
L 63.386786 35.715398 
L 63.632571 34.526018 
L 63.878357 37.291327 
L 64.130786 34.644956 
L 64.376571 34.020531 
L 64.622357 41.008142 
L 64.868143 40.502655 
L 65.359714 33.306903 
L 65.612143 33.515044 
L 65.857929 31.760708 
L 66.3495 37.588673 
L 66.595286 36.101947 
L 66.841071 41.12708 
L 67.0935 41.989381 
L 67.339286 40.502655 
L 67.585071 39.907965 
L 67.830857 41.364956 
L 68.076643 37.648142 
L 68.322429 41.008142 
L 68.568214 47.133451 
L 68.814 45.170973 
L 69.066429 44.427611 
L 69.558 42.346195 
L 69.803786 47.490265 
L 70.049571 43.030088 
L 70.295357 44.546549 
L 70.786929 54.864425 
L 71.2785 51.623363 
L 71.524286 52.812743 
L 72.0225 58.908319 
L 72.268286 60.662655 
L 72.514071 57.00531 
L 72.759857 55.48885 
L 73.005643 58.670442 
L 73.251429 56.410619 
L 73.497214 59.71115 
L 73.988786 61.584425 
L 74.234571 62.030442 
L 74.480357 60.722124 
L 74.726143 61.970973 
L 74.971929 62.060177 
L 75.217714 62.268319 
L 75.4635 67.233982 
L 75.709286 65.271504 
L 75.955071 66.550088 
L 76.200857 69.404602 
L 76.446643 69.583009 
L 76.692429 70.564248 
L 76.938214 72.199646 
L 77.184 71.902301 
L 77.429786 70.921062 
L 77.675571 73.448496 
L 77.921357 72.407788 
L 78.658714 78.35469 
L 78.9045 78.116814 
L 79.150286 78.443894 
L 79.396071 76.094867 
L 79.641857 78.027611 
L 79.887643 77.403186 
L 80.372571 79.365664 
L 80.618357 77.551858 
L 80.864143 77.16531 
L 81.109929 77.016637 
L 81.355714 80.168496 
L 81.6015 80.911858 
L 81.847286 81.149735 
L 82.093071 81.803894 
L 82.584643 80.317168 
L 82.823786 82.130973 
L 83.069571 82.398584 
L 83.315357 81.655221 
L 83.561143 84.48 
L 83.806929 83.141947 
L 84.052714 84.242124 
L 84.2985 83.944779 
L 84.537643 85.253097 
L 84.783429 85.490973 
L 85.029214 85.044956 
L 85.275 85.818053 
L 85.520786 85.818053 
L 86.012357 87.423717 
L 86.2515 86.947965 
L 86.497286 87.958938 
L 86.743071 88.077876 
L 86.988857 87.810265 
L 87.473786 88.404956 
L 87.719571 88.553628 
L 88.211143 90.337699 
L 88.696071 91.140531 
L 88.941857 92.002832 
L 89.187643 92.419115 
L 89.433429 91.913628 
L 89.918357 94.143717 
L 90.164143 93.221947 
L 90.409929 93.905841 
L 90.655714 95.392566 
L 90.894857 95.184425 
L 91.140643 95.749381 
L 91.632214 96.314336 
L 91.871357 97.979469 
L 92.117143 97.860531 
L 92.847857 99.376991 
L 93.093643 99.793274 
L 93.339429 100.506903 
L 93.578571 100.506903 
L 93.824357 100.744779 
L 94.309286 102.380177 
L 94.555071 102.52885 
L 95.531571 104.550796 
L 95.777357 104.580531 
L 96.0165 105.621239 
L 96.262286 105.829381 
L 96.747214 106.870088 
L 96.993 107.464779 
L 97.232143 107.316106 
L 97.723714 108.416283 
L 97.962857 108.386549 
L 98.208643 108.802832 
L 98.454429 109.51646 
L 98.693571 109.51646 
L 98.939357 110.378761 
L 99.1785 110.230088 
L 99.424286 111.211327 
L 99.670071 111.181593 
L 100.394143 111.568142 
L 100.639929 112.400708 
L 100.885714 112.519646 
L 101.124857 112.460177 
L 101.370643 112.995398 
L 101.609786 113.114336 
L 102.094714 113.79823 
L 102.3405 113.917168 
L 102.586286 113.857699 
L 102.825429 114.898407 
L 103.071214 114.273982 
L 103.310357 115.136283 
L 104.041071 115.552566 
L 104.280214 116.176991 
L 104.526 115.849912 
L 104.765143 116.682478 
L 105.010929 116.266195 
L 105.495857 116.950088 
L 105.735 116.920354 
L 105.980786 117.069027 
L 106.219929 117.396106 
L 106.465714 117.425841 
L 106.704857 117.574513 
L 106.950643 117.901593 
L 107.189786 117.842124 
L 107.435571 118.40708 
L 107.9205 118.40708 
L 108.159643 118.882832 
L 108.405429 118.555752 
L 108.644571 119.090973 
L 108.883714 118.67469 
L 109.1295 119.209912 
L 109.368643 119.180177 
L 110.099357 119.655929 
L 110.3385 119.209912 
L 110.577643 119.566726 
L 110.823429 120.310088 
L 111.062571 120.339823 
L 111.308357 119.953274 
L 111.786643 120.339823 
L 112.032429 120.756106 
L 112.271571 120.577699 
L 112.517357 120.785841 
L 112.7565 120.666903 
L 112.995643 121.231858 
L 113.241429 121.291327 
L 113.480571 121.142655 
L 113.719714 121.350796 
L 113.9655 121.261593 
L 114.450429 121.588673 
L 115.1745 121.826549 
L 115.898571 122.302301 
L 116.376857 122.183363 
L 116.616 122.540177 
L 116.861786 122.599646 
L 117.100929 122.867257 
L 117.585857 122.837522 
L 117.825 122.659115 
L 118.064143 123.224071 
L 118.788214 123.402478 
L 119.027357 123.134867 
L 119.273143 123.729558 
L 119.751429 123.461947 
L 120.714643 123.997168 
L 120.953786 123.818761 
L 121.438714 124.353982 
L 121.677857 123.967434 
L 121.917 124.353982 
L 122.156143 124.443186 
L 122.401929 124.294513 
L 122.880214 124.383717 
L 123.119357 124.621593 
L 123.365143 124.502655 
L 123.604286 124.770265 
L 123.843429 124.8 
L 124.082571 124.710796 
L 124.321714 125.097345 
L 124.560857 124.770265 
L 125.284929 125.067611 
L 125.524071 124.948673 
L 125.763214 125.305487 
L 126.002357 125.156814 
L 126.2415 125.216283 
L 126.487286 125.454159 
L 127.204714 125.246018 
L 127.443857 125.513628 
L 127.683 125.454159 
L 127.922143 125.692035 
L 128.161286 125.305487 
L 128.407071 125.72177 
L 128.646214 125.602832 
L 128.885357 125.781239 
L 129.363643 125.751504 
L 129.602786 126.078584 
L 129.841929 125.959646 
L 130.081071 125.662301 
L 130.320214 125.543363 
L 130.559357 125.929912 
L 130.7985 125.840708 
L 131.037643 126.256991 
L 131.283429 125.989381 
L 131.761714 126.256991 
L 132.000857 126.138053 
L 132.24 126.405664 
L 132.479143 126.167788 
L 132.718286 126.256991 
L 132.957429 126.167788 
L 133.196571 126.346195 
L 133.435714 126.732743 
L 133.674857 126.31646 
L 133.914 126.405664 
L 134.631429 126.375929 
L 135.109714 126.584071 
L 135.588 126.435398 
L 135.827143 126.673274 
L 136.066286 126.673274 
L 136.544571 126.940885 
L 137.022857 126.554336 
L 137.255357 127.000354 
L 137.733643 126.881416 
L 137.972786 126.703009 
L 138.211929 126.732743 
L 138.451071 126.64354 
L 139.1685 126.970619 
L 139.407643 127.089558 
L 139.646786 126.851681 
L 139.885929 127.267965 
L 140.125071 126.940885 
L 140.357571 127.149027 
L 140.596714 127.030088 
L 140.835857 127.267965 
L 141.075 127.030088 
L 141.553286 127.208496 
L 141.792429 126.940885 
L 142.264071 127.178761 
L 142.742357 127.030088 
L 142.9815 127.23823 
L 143.459786 127.23823 
L 143.692286 127.386903 
L 143.931429 127.119292 
L 144.170571 127.208496 
L 144.409714 127.446372 
L 144.648857 127.357168 
L 145.1205 127.535575 
L 145.359643 127.178761 
L 145.598786 127.446372 
L 145.837929 127.357168 
L 146.077071 127.446372 
L 146.309571 127.297699 
L 146.548714 127.624779 
L 146.787857 127.416637 
L 147.498643 127.56531 
L 147.737786 127.535575 
L 147.976929 127.357168 
L 148.209429 127.357168 
L 148.448571 127.56531 
L 148.926857 127.624779 
L 149.3985 127.505841 
L 149.637643 127.684248 
L 150.109286 127.56531 
L 150.348429 127.713982 
L 151.059214 127.56531 
L 151.298357 127.713982 
L 151.77 127.684248 
L 152.248286 127.862655 
L 152.719929 127.773451 
L 152.959071 127.624779 
L 153.191571 127.803186 
L 154.1415 127.743717 
L 154.613143 127.713982 
L 155.084786 127.892389 
L 155.323929 127.654513 
L 155.563071 127.803186 
L 155.795571 127.654513 
L 156.034714 127.83292 
L 156.267214 127.773451 
L 156.506357 127.922124 
L 157.217143 127.892389 
L 157.449643 127.803186 
L 157.927929 127.951858 
L 158.160429 127.862655 
L 158.399571 128.100531 
L 158.632071 127.922124 
L 158.871214 128.011327 
L 159.103714 127.743717 
L 159.575357 128.16 
L 159.8145 127.951858 
L 160.047 127.922124 
L 160.525286 128.130265 
L 160.757786 127.803186 
L 160.996929 127.981593 
L 161.229429 127.922124 
L 161.701071 128.041062 
L 161.940214 127.951858 
L 161.940214 127.951858 
" clip-path="url(#p89419a0d1f)" style="fill: none; stroke: #00bfbf; stroke-width: 1.5; stroke-linecap: square"/>
   </g>
   <g id="patch_3">
    <path d="M 22.5 128.16 
L 22.5 17.28 
" style="fill: none; stroke: #000000; stroke-width: 0.8; stroke-linejoin: miter; stroke-linecap: square"/>
   </g>
   <g id="patch_4">
    <path d="M 22.5 128.16 
L 162 128.16 
" style="fill: none; stroke: #000000; stroke-width: 0.8; stroke-linejoin: miter; stroke-linecap: square"/>
   </g>
  </g>
 </g>
 <defs>
  <clipPath id="p89419a0d1f">
   <rect x="22.5" y="17.28" width="139.5" height="110.88"/>
  </clipPath>
 </defs>
</svg>
