<?xml version="1.0" encoding="utf-8" standalone="no"?>
<!DOCTYPE svg PUBLIC "-//W3C//DTD SVG 1.1//EN"
  "http://www.w3.org/Graphics/SVG/1.1/DTD/svg11.dtd">
<svg xmlns:xlink="http://www.w3.org/1999/xlink" width="144pt" height="237.6pt" viewBox="0 0 144 237.6" xmlns="http://www.w3.org/2000/svg" version="1.1">
 <metadata>
  <rdf:RDF xmlns:dc="http://purl.org/dc/elements/1.1/" xmlns:cc="http://creativecommons.org/ns#" xmlns:rdf="http://www.w3.org/1999/02/22-rdf-syntax-ns#">
   <cc:Work>
    <dc:type rdf:resource="http://purl.org/dc/dcmitype/StillImage"/>
    <dc:date>2025-12-04T11:43:00.035480</dc:date>
    <dc:format>image/svg+xml</dc:format>
    <dc:creator>
     <cc:Agent>
      <dc:title>Matplotlib v3.10.7, https://matplotlib.org/</dc:title>
     </cc:Agent>
    </dc:creator>
   </cc:Work>
  </rdf:RDF>
 </metadata>
 <defs>
  <style type="text/css">*{stroke-linejoin: round; stroke-linecap: butt}</style>
 </defs>
 <g id="figure_1">
  <g id="patch_1">
   <path d="M 0 237.6 
L 144 237.6 
L 144 0 
L 0 0 
z
" style="fill: #ffffff"/>
  </g>
  <g id="axes_1">
   <g id="patch_2">
    <path d="M 41.87 97.1 
L 128.025 97.1 
L 128.025 12.96 
L 41.87 12.96 
z
" style="fill: #ffffff"/>
   </g>
   <g id="matplotlib.axis_1">
    <g id="xtick_1">
     <g id="line2d_1">
      <defs>
       <path id="m597dfac340" d="M 0 0 
L 0 3.5 
" style="stroke: #000000; stroke-width: 0.8"/>
      </defs>
      <g>
       <use xlink:href="#m597dfac340" x="45.972619" y="97.1" style="stroke: #000000; stroke-width: 0.8"/>
      </g>
     </g>
    </g>
    <g id="xtick_2">
     <g id="line2d_2">
      <g>
       <use xlink:href="#m597dfac340" x="86.99881" y="97.1" style="stroke: #000000; stroke-width: 0.8"/>
      </g>
     </g>
    </g>
    <g id="xtick_3">
     <g id="line2d_3">
      <g>
       <use xlink:href="#m597dfac340" x="128.025" y="97.1" style="stroke: #000000; stroke-width: 0.8"/>
      </g>
     </g>
    </g>
   </g>
   <g id="matplotlib.axis_2">
    <g id="ytick_1">
     <g id="line2d_4">
      <defs>
       <path id="m4997c1e406" d="M 0 0 
L -3.5 0 
" style="stroke: #000000; stroke-width: 0.8"/>
      </defs>
      <g>
       <use xlink:href="#m4997c1e406" x="41.87" y="97.1" style="stroke: #000000; stroke-width: 0.8"/>
      </g>
     </g>
     <g id="text_1">
      <!-- 0.0 -->
      <g transform="translate(22.361406 100.380781) scale(0.09 -0.09)">
       <defs>
        <path id="NimbusSans-Regular-30" d="M 1760 4627 
C 1338 4627 954 4435 717 4122 
C 422 3712 275 3098 275 2240 
C 275 678 787 -147 1760 -147 
C 2720 -147 3245 678 3245 2202 
C 3245 3098 3104 3699 2803 4122 
C 2566 4442 2189 4627 1760 4627 
z
M 1760 4128 
C 2368 4128 2669 3507 2669 2253 
C 2669 934 2374 320 1747 320 
C 1152 320 851 960 851 2234 
C 851 3507 1152 4128 1760 4128 
z
" transform="scale(0.015625)"/>
        <path id="NimbusSans-Regular-2e" d="M 1222 666 
L 557 666 
L 557 0 
L 1222 0 
L 1222 666 
z
" transform="scale(0.015625)"/>
       </defs>
       <use xlink:href="#NimbusSans-Regular-30"/>
       <use xlink:href="#NimbusSans-Regular-2e" transform="translate(55.599991 0)"/>
       <use xlink:href="#NimbusSans-Regular-30" transform="translate(83.399979 0)"/>
      </g>
     </g>
    </g>
    <g id="ytick_2">
     <g id="line2d_5">
      <g>
       <use xlink:href="#m4997c1e406" x="41.87" y="55.03" style="stroke: #000000; stroke-width: 0.8"/>
      </g>
     </g>
     <g id="text_2">
      <!-- 0.5 -->
      <g transform="translate(22.361406 58.310781) scale(0.09 -0.09)">
       <defs>
        <path id="NimbusSans-Regular-35" d="M 3046 4538 
L 704 4538 
L 365 2067 
L 883 2067 
C 1146 2381 1363 2490 1722 2490 
C 2330 2490 2707 2074 2707 1402 
C 2707 749 2330 352 1715 352 
C 1222 352 922 602 787 1114 
L 224 1114 
C 301 742 365 563 499 397 
C 755 51 1216 -147 1728 -147 
C 2643 -147 3283 518 3283 1478 
C 3283 2374 2688 2989 1818 2989 
C 1498 2989 1242 2906 979 2714 
L 1158 3981 
L 3046 3981 
L 3046 4538 
z
" transform="scale(0.015625)"/>
       </defs>
       <use xlink:href="#NimbusSans-Regular-30"/>
       <use xlink:href="#NimbusSans-Regular-2e" transform="translate(55.599991 0)"/>
       <use xlink:href="#NimbusSans-Regular-35" transform="translate(83.399979 0)"/>
      </g>
     </g>
    </g>
    <g id="ytick_3">
     <g id="line2d_6">
      <g>
       <use xlink:href="#m4997c1e406" x="41.87" y="12.96" style="stroke: #000000; stroke-width: 0.8"/>
      </g>
     </g>
     <g id="text_3">
      <!-- 1.0 -->
      <g transform="translate(22.361406 16.240781) scale(0.09 -0.09)">
       <defs>
        <path id="NimbusSans-Regular-31" d="M 1658 3296 
L 1658 0 
L 2221 0 
L 2221 4627 
L 1850 4627 
C 1651 3917 1523 3821 653 3706 
L 653 3296 
L 1658 3296 
z
" transform="scale(0.015625)"/>
       </defs>
       <use xlink:href="#NimbusSans-Regular-31"/>
       <use xlink:href="#NimbusSans-Regular-2e" transform="translate(55.599991 0)"/>
       <use xlink:href="#NimbusSans-Regular-30" transform="translate(83.399979 0)"/>
      </g>
     </g>
    </g>
    <g id="text_4">
     <!-- Recall -->
     <g transform="translate(16.399688 67.530859) rotate(-90) scale(0.09 -0.09)">
      <defs>
       <path id="NimbusSans-Regular-52" d="M 1190 2010 
L 2726 2010 
C 3258 2010 3494 1754 3494 1178 
L 3488 762 
C 3488 474 3539 192 3622 0 
L 4346 0 
L 4346 147 
C 4122 301 4077 467 4064 1088 
C 4058 1856 3936 2086 3430 2304 
C 3955 2566 4166 2880 4166 3418 
C 4166 4224 3667 4666 2746 4666 
L 595 4666 
L 595 0 
L 1190 0 
L 1190 2010 
z
M 1190 2534 
L 1190 4141 
L 2630 4141 
C 2963 4141 3155 4090 3302 3962 
C 3462 3827 3546 3616 3546 3341 
C 3546 2784 3264 2534 2630 2534 
L 1190 2534 
z
" transform="scale(0.015625)"/>
       <path id="NimbusSans-Regular-65" d="M 3283 1498 
C 3283 2010 3245 2317 3149 2566 
C 2931 3117 2419 3450 1792 3450 
C 858 3450 256 2739 256 1632 
C 256 525 832 -147 1779 -147 
C 2547 -147 3078 288 3213 1018 
L 2675 1018 
C 2528 576 2227 346 1798 346 
C 1459 346 1171 499 992 781 
C 864 973 819 1165 813 1498 
L 3283 1498 
z
M 826 1933 
C 870 2554 1248 2957 1786 2957 
C 2330 2957 2707 2534 2707 1933 
L 826 1933 
z
" transform="scale(0.015625)"/>
       <path id="NimbusSans-Regular-63" d="M 3014 2227 
C 2989 2554 2918 2765 2790 2950 
C 2560 3264 2157 3450 1690 3450 
C 781 3450 198 2733 198 1619 
C 198 538 774 -147 1683 -147 
C 2483 -147 2989 333 3053 1152 
L 2515 1152 
C 2426 614 2150 346 1696 346 
C 1107 346 755 826 755 1619 
C 755 2458 1101 2957 1683 2957 
C 2131 2957 2413 2694 2477 2227 
L 3014 2227 
z
" transform="scale(0.015625)"/>
       <path id="NimbusSans-Regular-61" d="M 3424 314 
C 3366 301 3341 301 3309 301 
C 3123 301 3021 397 3021 563 
L 3021 2534 
C 3021 3130 2586 3450 1760 3450 
C 1267 3450 877 3309 646 3059 
C 493 2886 429 2694 416 2362 
L 954 2362 
C 998 2771 1242 2957 1741 2957 
C 2227 2957 2490 2778 2490 2458 
L 2490 2317 
C 2483 2086 2368 2003 1933 1946 
C 1178 1850 1062 1824 858 1741 
C 467 1574 269 1280 269 845 
C 269 237 691 -147 1370 -147 
C 1792 -147 2131 0 2509 346 
C 2547 0 2714 -147 3059 -147 
C 3174 -147 3245 -134 3424 -90 
L 3424 314 
z
M 2490 1056 
C 2490 877 2438 768 2278 621 
C 2061 422 1798 320 1485 320 
C 1069 320 826 518 826 858 
C 826 1210 1056 1389 1632 1472 
C 2202 1549 2310 1574 2490 1658 
L 2490 1056 
z
" transform="scale(0.015625)"/>
       <path id="NimbusSans-Regular-6c" d="M 973 4666 
L 435 4666 
L 435 0 
L 973 0 
L 973 4666 
z
" transform="scale(0.015625)"/>
      </defs>
      <use xlink:href="#NimbusSans-Regular-52"/>
      <use xlink:href="#NimbusSans-Regular-65" transform="translate(72.199982 0)"/>
      <use xlink:href="#NimbusSans-Regular-63" transform="translate(127.799973 0)"/>
      <use xlink:href="#NimbusSans-Regular-61" transform="translate(177.799957 0)"/>
      <use xlink:href="#NimbusSans-Regular-6c" transform="translate(233.399948 0)"/>
      <use xlink:href="#NimbusSans-Regular-6c" transform="translate(255.599945 0)"/>
     </g>
    </g>
   </g>
   <g id="line2d_7">
    <path d="M 45.972619 13.355643 
L 46.054754 13.355643 
L 46.219023 13.487524 
L 46.629695 13.487524 
L 46.793964 13.619404 
L 47.286771 13.619404 
L 47.45104 13.751285 
L 47.943847 13.751285 
L 48.190251 14.015047 
L 48.518789 14.080714 
L 48.847327 14.146928 
L 54.678878 14.25546 
L 55.99303 14.278809 
L 58.457065 14.383156 
L 60.099756 14.41069 
L 62.317388 14.521016 
L 63.960078 14.606358 
L 77.1016 15.070094 
L 80.222712 15.173337 
L 81.618999 15.295221 
L 89.503912 16.007078 
L 90.243123 16.257022 
L 90.407392 16.405769 
L 91.228737 16.609686 
L 91.63941 16.974748 
L 92.296486 17.119279 
L 92.707158 17.189501 
L 92.953562 17.44395 
L 93.774907 17.567437 
L 94.021311 17.7847 
L 94.18558 17.984601 
L 98.045902 18.643548 
L 99.27792 19.025251 
L 99.606458 19.19807 
L 101.906224 19.679271 
L 102.070493 19.99069 
L 103.138242 20.345328 
L 103.631049 20.786843 
L 104.288125 21.000006 
L 104.452394 21.152793 
L 106.834295 21.524549 
L 107.080699 21.746104 
L 107.65564 22.127882 
L 108.066313 22.349173 
L 108.641254 22.576186 
L 108.887658 22.96219 
L 109.29833 23.2023 
L 109.544734 23.41493 
L 110.448214 23.978133 
L 110.694617 24.631786 
L 111.187424 25.019434 
L 111.515962 25.087952 
L 111.680231 25.259786 
L 112.173039 25.47874 
L 112.501577 25.943341 
L 112.583711 25.993516 
L 112.830115 26.333817 
L 113.158653 26.63252 
L 114.801343 28.11794 
L 115.212016 28.921399 
L 115.622688 29.239213 
L 116.033361 29.99855 
L 116.526168 30.839302 
L 116.772571 31.475552 
L 117.347513 33.780289 
L 117.593917 34.979458 
L 117.84032 35.603102 
L 118.415262 38.698922 
L 118.7438 39.681467 
L 119.48301 45.020824 
L 120.222221 53.341157 
L 121.947046 87.166541 
L 122.193449 92.156954 
L 122.604122 95.220569 
L 122.686256 95.335823 
L 122.93266 96.243592 
L 123.261198 96.802407 
L 123.425467 97.1 
L 128.025 97.1 
L 128.025 97.1 
" clip-path="url(#pd03cd902a6)" style="fill: none; stroke: #c99422; stroke-width: 1.5; stroke-linecap: square"/>
   </g>
   <g id="line2d_8">
    <path d="M 45.972619 13.240467 
L 46.136888 13.240467 
L 46.383292 13.8014 
L 46.465426 13.931281 
L 46.71183 15.203733 
L 46.876099 15.4842 
L 47.040368 15.593206 
L 47.204637 16.3256 
L 47.533175 16.3256 
L 47.861713 16.886533 
L 48.025982 16.991441 
L 48.108116 17.079526 
L 48.272385 17.447467 
L 48.683058 17.727933 
L 49.093731 17.727933 
L 49.340134 18.208171 
L 49.504403 18.288867 
L 52.050573 18.394285 
L 56.075164 18.569333 
L 56.650106 18.669111 
L 57.553586 18.920321 
L 57.717855 19.143206 
L 60.756832 19.410733 
L 61.906715 19.575465 
L 64.863558 19.908937 
L 67.491862 20.279231 
L 69.709494 20.645197 
L 73.569816 20.951549 
L 81.208326 21.469466 
L 81.372595 21.67407 
L 83.508093 22.261837 
L 83.918765 22.532889 
L 85.397186 23.000779 
L 85.807859 23.091744 
L 87.943356 23.426668 
L 88.600433 23.869778 
L 90.160988 24.741867 
L 95.499732 25.388472 
L 95.82827 25.641753 
L 96.485346 25.933036 
L 96.73175 26.149323 
L 99.770727 26.520742 
L 99.934996 26.72259 
L 101.002744 26.988177 
L 101.167013 27.300501 
L 101.741955 27.541551 
L 101.906224 27.894677 
L 102.645435 28.154875 
L 104.205991 28.480553 
L 104.452394 28.65738 
L 104.616663 28.967814 
L 106.834295 29.624251 
L 107.080699 29.801999 
L 108.969792 30.140419 
L 109.544734 30.660528 
L 109.955407 30.895946 
L 110.366079 32.233935 
L 111.351693 33.35977 
L 111.515962 33.808075 
L 112.337308 34.657759 
L 112.74798 35.49822 
L 113.322922 36.169558 
L 113.815729 37.530456 
L 114.965612 40.883237 
L 116.526168 46.389009 
L 116.93684 48.561597 
L 117.183244 50.325785 
L 117.347513 51.006617 
L 117.922455 57.906558 
L 118.004589 58.090556 
L 118.168858 59.835557 
L 118.250993 59.977331 
L 118.497396 61.547452 
L 118.579531 61.729262 
L 118.990203 64.506208 
L 119.154472 65.276958 
L 120.222221 74.523745 
L 120.632894 80.96242 
L 121.125701 85.311563 
L 121.372104 86.753501 
L 121.618508 88.699896 
L 122.111315 92.077715 
L 122.193449 92.228204 
L 122.439853 93.640875 
L 122.768391 94.211701 
L 123.096929 95.237001 
L 123.425467 95.924107 
L 123.83614 96.262166 
L 124.821754 96.686339 
L 124.903888 96.753805 
L 125.068157 97.1 
L 128.025 97.1 
L 128.025 97.1 
" clip-path="url(#pd03cd902a6)" style="fill: none; stroke: #6483a6; stroke-width: 1.5; stroke-linecap: square"/>
   </g>
   <g id="patch_3">
    <path d="M 41.87 97.1 
L 41.87 12.96 
" style="fill: none; stroke: #000000; stroke-width: 0.8; stroke-linejoin: miter; stroke-linecap: square"/>
   </g>
   <g id="patch_4">
    <path d="M 41.87 97.1 
L 128.025 97.1 
" style="fill: none; stroke: #000000; stroke-width: 0.8; stroke-linejoin: miter; stroke-linecap: square"/>
   </g>
  </g>
  <g id="axes_2">
   <g id="patch_5">
    <path d="M 41.87 199.6 
L 128.025 199.6 
L 128.025 115.46 
L 41.87 115.46 
z
" style="fill: #ffffff"/>
   </g>
   <g id="matplotlib.axis_3">
    <g id="xtick_4">
     <g id="line2d_9">
      <g>
       <use xlink:href="#m597dfac340" x="45.972619" y="199.6" style="stroke: #000000; stroke-width: 0.8"/>
      </g>
     </g>
     <g id="text_5">
      <!-- 0.0 -->
      <g transform="translate(39.718322 213.161562) scale(0.09 -0.09)">
       <use xlink:href="#NimbusSans-Regular-30"/>
       <use xlink:href="#NimbusSans-Regular-2e" transform="translate(55.599991 0)"/>
       <use xlink:href="#NimbusSans-Regular-30" transform="translate(83.399979 0)"/>
      </g>
     </g>
    </g>
    <g id="xtick_5">
     <g id="line2d_10">
      <g>
       <use xlink:href="#m597dfac340" x="86.99881" y="199.6" style="stroke: #000000; stroke-width: 0.8"/>
      </g>
     </g>
     <g id="text_6">
      <!-- 0.5 -->
      <g transform="translate(80.744513 213.161562) scale(0.09 -0.09)">
       <use xlink:href="#NimbusSans-Regular-30"/>
       <use xlink:href="#NimbusSans-Regular-2e" transform="translate(55.599991 0)"/>
       <use xlink:href="#NimbusSans-Regular-35" transform="translate(83.399979 0)"/>
      </g>
     </g>
    </g>
    <g id="xtick_6">
     <g id="line2d_11">
      <g>
       <use xlink:href="#m597dfac340" x="128.025" y="199.6" style="stroke: #000000; stroke-width: 0.8"/>
      </g>
     </g>
     <g id="text_7">
      <!-- 1.0 -->
      <g transform="translate(121.770703 213.161562) scale(0.09 -0.09)">
       <use xlink:href="#NimbusSans-Regular-31"/>
       <use xlink:href="#NimbusSans-Regular-2e" transform="translate(55.599991 0)"/>
       <use xlink:href="#NimbusSans-Regular-30" transform="translate(83.399979 0)"/>
      </g>
     </g>
    </g>
    <g id="text_8">
     <!-- Confidence -->
     <g transform="translate(62.188047 225.684844) scale(0.09 -0.09)">
      <defs>
       <path id="NimbusSans-Regular-43" d="M 4237 3219 
C 4051 4243 3462 4742 2438 4742 
C 1811 4742 1306 4544 960 4160 
C 538 3699 307 3034 307 2278 
C 307 1510 544 851 979 397 
C 1344 26 1805 -147 2413 -147 
C 3552 -147 4192 467 4333 1702 
L 3718 1702 
C 3667 1382 3603 1165 3507 979 
C 3315 595 2918 378 2419 378 
C 1491 378 902 1120 902 2285 
C 902 3482 1459 4218 2368 4218 
C 2746 4218 3098 4109 3290 3923 
C 3462 3763 3558 3571 3629 3219 
L 4237 3219 
z
" transform="scale(0.015625)"/>
       <path id="NimbusSans-Regular-6f" d="M 1741 3450 
C 794 3450 230 2778 230 1651 
C 230 518 794 -147 1747 -147 
C 2694 -147 3264 525 3264 1626 
C 3264 2790 2714 3450 1741 3450 
z
M 1747 2957 
C 2349 2957 2707 2464 2707 1632 
C 2707 838 2336 346 1747 346 
C 1152 346 787 838 787 1651 
C 787 2464 1152 2957 1747 2957 
z
" transform="scale(0.015625)"/>
       <path id="NimbusSans-Regular-6e" d="M 448 3354 
L 448 0 
L 986 0 
L 986 1850 
C 986 2534 1344 2982 1894 2982 
C 2317 2982 2586 2726 2586 2323 
L 2586 0 
L 3117 0 
L 3117 2534 
C 3117 3091 2701 3450 2054 3450 
C 1555 3450 1235 3258 941 2790 
L 941 3354 
L 448 3354 
z
" transform="scale(0.015625)"/>
       <path id="NimbusSans-Regular-66" d="M 1651 3354 
L 1094 3354 
L 1094 3878 
C 1094 4102 1216 4218 1466 4218 
C 1510 4218 1530 4218 1651 4211 
L 1651 4653 
C 1530 4678 1459 4685 1350 4685 
C 858 4685 563 4403 563 3923 
L 563 3354 
L 115 3354 
L 115 2918 
L 563 2918 
L 563 0 
L 1094 0 
L 1094 2918 
L 1651 2918 
L 1651 3354 
z
" transform="scale(0.015625)"/>
       <path id="NimbusSans-Regular-69" d="M 960 3354 
L 429 3354 
L 429 0 
L 960 0 
L 960 3354 
z
M 960 4666 
L 422 4666 
L 422 3994 
L 960 3994 
L 960 4666 
z
" transform="scale(0.015625)"/>
       <path id="NimbusSans-Regular-64" d="M 3168 4666 
L 2637 4666 
L 2637 2931 
C 2413 3270 2054 3450 1606 3450 
C 736 3450 166 2752 166 1683 
C 166 550 717 -147 1626 -147 
C 2086 -147 2406 26 2694 442 
L 2694 0 
L 3168 0 
L 3168 4666 
z
M 1696 2950 
C 2272 2950 2637 2445 2637 1638 
C 2637 864 2266 352 1702 352 
C 1114 352 723 870 723 1651 
C 723 2432 1114 2950 1696 2950 
z
" transform="scale(0.015625)"/>
      </defs>
      <use xlink:href="#NimbusSans-Regular-43"/>
      <use xlink:href="#NimbusSans-Regular-6f" transform="translate(72.199982 0)"/>
      <use xlink:href="#NimbusSans-Regular-6e" transform="translate(127.799973 0)"/>
      <use xlink:href="#NimbusSans-Regular-66" transform="translate(183.399963 0)"/>
      <use xlink:href="#NimbusSans-Regular-69" transform="translate(211.199951 0)"/>
      <use xlink:href="#NimbusSans-Regular-64" transform="translate(233.399948 0)"/>
      <use xlink:href="#NimbusSans-Regular-65" transform="translate(288.999939 0)"/>
      <use xlink:href="#NimbusSans-Regular-6e" transform="translate(344.59993 0)"/>
      <use xlink:href="#NimbusSans-Regular-63" transform="translate(400.199921 0)"/>
      <use xlink:href="#NimbusSans-Regular-65" transform="translate(450.199905 0)"/>
     </g>
    </g>
   </g>
   <g id="matplotlib.axis_4">
    <g id="ytick_4">
     <g id="line2d_12">
      <g>
       <use xlink:href="#m4997c1e406" x="41.87" y="199.6" style="stroke: #000000; stroke-width: 0.8"/>
      </g>
     </g>
     <g id="text_9">
      <!-- 0.0 -->
      <g transform="translate(22.361406 202.880781) scale(0.09 -0.09)">
       <use xlink:href="#NimbusSans-Regular-30"/>
       <use xlink:href="#NimbusSans-Regular-2e" transform="translate(55.599991 0)"/>
       <use xlink:href="#NimbusSans-Regular-30" transform="translate(83.399979 0)"/>
      </g>
     </g>
    </g>
    <g id="ytick_5">
     <g id="line2d_13">
      <g>
       <use xlink:href="#m4997c1e406" x="41.87" y="157.53" style="stroke: #000000; stroke-width: 0.8"/>
      </g>
     </g>
     <g id="text_10">
      <!-- 0.5 -->
      <g transform="translate(22.361406 160.810781) scale(0.09 -0.09)">
       <use xlink:href="#NimbusSans-Regular-30"/>
       <use xlink:href="#NimbusSans-Regular-2e" transform="translate(55.599991 0)"/>
       <use xlink:href="#NimbusSans-Regular-35" transform="translate(83.399979 0)"/>
      </g>
     </g>
    </g>
    <g id="ytick_6">
     <g id="line2d_14">
      <g>
       <use xlink:href="#m4997c1e406" x="41.87" y="115.46" style="stroke: #000000; stroke-width: 0.8"/>
      </g>
     </g>
     <g id="text_11">
      <!-- 1.0 -->
      <g transform="translate(22.361406 118.740781) scale(0.09 -0.09)">
       <use xlink:href="#NimbusSans-Regular-31"/>
       <use xlink:href="#NimbusSans-Regular-2e" transform="translate(55.599991 0)"/>
       <use xlink:href="#NimbusSans-Regular-30" transform="translate(83.399979 0)"/>
      </g>
     </g>
    </g>
    <g id="text_12">
     <!-- F1 Score -->
     <g transform="translate(16.399688 175.785234) rotate(-90) scale(0.09 -0.09)">
      <defs>
       <path id="NimbusSans-Regular-46" d="M 1171 2125 
L 3398 2125 
L 3398 2650 
L 1171 2650 
L 1171 4141 
L 3706 4141 
L 3706 4666 
L 576 4666 
L 576 0 
L 1171 0 
L 1171 2125 
z
" transform="scale(0.015625)"/>
       <path id="NimbusSans-Regular-20" transform="scale(0.015625)"/>
       <path id="NimbusSans-Regular-53" d="M 3814 3296 
C 3814 3616 3795 3706 3693 3923 
C 3437 4461 2893 4742 2106 4742 
C 1082 4742 448 4218 448 3373 
C 448 2803 749 2445 1363 2285 
L 2522 1978 
C 3117 1824 3379 1587 3379 1222 
C 3379 973 3245 717 3046 576 
C 2861 442 2566 378 2189 378 
C 1677 378 1338 499 1114 768 
C 941 973 864 1197 870 1485 
L 307 1485 
C 314 1056 397 774 582 518 
C 902 77 1440 -147 2150 -147 
C 2707 -147 3162 -19 3462 211 
C 3776 461 3974 877 3974 1280 
C 3974 1856 3616 2278 2982 2451 
L 1811 2765 
C 1248 2918 1043 3098 1043 3456 
C 1043 3930 1459 4243 2086 4243 
C 2829 4243 3245 3910 3251 3296 
L 3814 3296 
z
" transform="scale(0.015625)"/>
       <path id="NimbusSans-Regular-72" d="M 442 3354 
L 442 0 
L 979 0 
L 979 1741 
C 986 2547 1318 2906 2054 2886 
L 2054 3430 
C 1965 3443 1914 3450 1850 3450 
C 1504 3450 1242 3245 934 2746 
L 934 3354 
L 442 3354 
z
" transform="scale(0.015625)"/>
      </defs>
      <use xlink:href="#NimbusSans-Regular-46"/>
      <use xlink:href="#NimbusSans-Regular-31" transform="translate(61.099991 0)"/>
      <use xlink:href="#NimbusSans-Regular-20" transform="translate(116.699982 0)"/>
      <use xlink:href="#NimbusSans-Regular-53" transform="translate(144.499969 0)"/>
      <use xlink:href="#NimbusSans-Regular-63" transform="translate(211.199966 0)"/>
      <use xlink:href="#NimbusSans-Regular-6f" transform="translate(261.199951 0)"/>
      <use xlink:href="#NimbusSans-Regular-72" transform="translate(316.799942 0)"/>
      <use xlink:href="#NimbusSans-Regular-65" transform="translate(350.09993 0)"/>
     </g>
    </g>
   </g>
   <g id="line2d_15">
    <path d="M 45.972619 126.006474 
L 46.054754 126.006474 
L 46.301157 120.496972 
L 46.547561 119.376176 
L 46.71183 119.109718 
L 46.958233 118.532896 
L 47.533175 118.086402 
L 48.35452 117.740337 
L 48.518789 117.704029 
L 48.683058 117.687624 
L 49.915076 117.277166 
L 52.296977 117.004371 
L 54.514609 116.888447 
L 55.664492 116.838344 
L 58.5392 116.835292 
L 59.278411 116.764642 
L 60.264025 116.687649 
L 63.467271 116.674058 
L 73.980489 116.805448 
L 74.719699 116.80561 
L 78.744291 116.801035 
L 81.45473 116.834908 
L 89.914585 117.268397 
L 90.160988 117.301704 
L 90.325257 117.344482 
L 91.310872 117.512604 
L 92.050082 117.704421 
L 93.857042 117.920292 
L 94.349849 118.127861 
L 99.113651 118.599139 
L 99.852861 118.79463 
L 101.906224 119.025135 
L 102.070493 119.19438 
L 103.220376 119.439689 
L 103.713183 119.642399 
L 107.573506 120.334 
L 108.148447 120.510565 
L 108.641254 120.625143 
L 108.887658 120.842756 
L 110.037541 121.300849 
L 110.448214 121.420607 
L 110.694617 121.796353 
L 111.187424 122.020673 
L 111.926635 122.213336 
L 112.337308 122.433515 
L 112.74798 122.763505 
L 113.569325 123.135314 
L 113.815729 123.330864 
L 114.308536 123.525957 
L 114.965612 124.049613 
L 115.29415 124.303146 
L 115.622688 124.471354 
L 116.115495 125.008286 
L 116.444033 125.330419 
L 116.93684 126.212433 
L 117.183244 127.029878 
L 117.347513 127.339985 
L 117.593917 128.127238 
L 117.84032 128.541785 
L 118.415262 130.653325 
L 118.7438 131.342789 
L 119.318741 134.237819 
L 120.140087 140.991473 
L 120.550759 147.486006 
L 121.043566 156.171875 
L 121.700642 172.55903 
L 122.111315 188.986432 
L 122.604122 195.923266 
L 122.686256 196.144106 
L 122.93266 197.904442 
L 123.261198 199.006911 
L 123.425467 199.6 
L 128.025 199.6 
L 128.025 199.6 
" clip-path="url(#pee5f468684)" style="fill: none; stroke: #c99422; stroke-width: 1.5; stroke-linecap: square"/>
   </g>
   <g id="line2d_16">
    <path d="M 45.972619 129.910637 
L 46.054754 129.853435 
L 46.219023 121.422832 
L 46.547561 119.48152 
L 46.71183 119.412379 
L 46.958233 118.577491 
L 47.040368 118.580857 
L 47.204637 118.93425 
L 47.697444 118.708087 
L 47.861713 118.790147 
L 48.025982 118.767448 
L 48.108116 118.813659 
L 48.190251 119.006898 
L 48.272385 118.917053 
L 48.929462 118.830817 
L 49.093731 118.746427 
L 49.340134 119.000501 
L 49.504403 118.895225 
L 51.229228 118.793178 
L 55.418088 118.841906 
L 56.732241 118.841818 
L 57.553586 118.967558 
L 57.717855 119.087451 
L 60.346159 119.161876 
L 61.249639 119.128574 
L 67.245459 119.510764 
L 67.491862 119.425726 
L 70.530839 119.674918 
L 75.45891 119.857147 
L 81.208326 120.080933 
L 81.372595 120.194547 
L 83.590227 120.564052 
L 84.083034 120.697254 
L 88.518298 121.405667 
L 89.914585 121.748542 
L 90.900199 121.837699 
L 95.499732 122.169794 
L 95.910404 122.335259 
L 96.567481 122.549285 
L 96.813884 122.619899 
L 99.770727 122.834653 
L 99.934996 122.9542 
L 101.002744 123.111973 
L 101.167013 123.298208 
L 101.741955 123.44246 
L 101.906224 123.654601 
L 102.891838 123.835603 
L 104.37026 124.080314 
L 104.452394 124.116147 
L 104.616663 124.305328 
L 106.91643 124.763073 
L 107.244968 124.832306 
L 109.051927 125.088432 
L 109.544734 125.350607 
L 109.955407 125.497846 
L 110.366079 126.343509 
L 111.351693 127.066938 
L 111.515962 127.358081 
L 112.337308 127.914779 
L 112.74798 128.47182 
L 113.322922 128.921407 
L 113.897863 129.994741 
L 114.637074 131.286961 
L 114.801343 131.664122 
L 115.129881 132.560653 
L 115.622688 133.580103 
L 115.786957 134.142984 
L 116.854706 137.652531 
L 117.347513 140.040813 
L 118.168858 147.947356 
L 118.250993 148.083711 
L 118.497396 149.615411 
L 118.579531 149.795372 
L 119.072338 152.89652 
L 119.647279 157.199643 
L 119.893683 160.147016 
L 120.38649 167.315003 
L 120.632894 172.518852 
L 121.207835 179.521744 
L 121.28997 179.904495 
L 121.700642 185.373556 
L 121.782777 185.738001 
L 122.357718 192.747451 
L 122.768391 194.015117 
L 123.096929 195.954715 
L 123.425467 197.280629 
L 123.83614 197.940854 
L 124.739619 198.643216 
L 124.903888 198.910447 
L 125.068157 199.6 
L 128.025 199.6 
L 128.025 199.6 
" clip-path="url(#pee5f468684)" style="fill: none; stroke: #6483a6; stroke-width: 1.5; stroke-linecap: square"/>
   </g>
   <g id="patch_6">
    <path d="M 41.87 199.6 
L 41.87 115.46 
" style="fill: none; stroke: #000000; stroke-width: 0.8; stroke-linejoin: miter; stroke-linecap: square"/>
   </g>
   <g id="patch_7">
    <path d="M 41.87 199.6 
L 128.025 199.6 
" style="fill: none; stroke: #000000; stroke-width: 0.8; stroke-linejoin: miter; stroke-linecap: square"/>
   </g>
  </g>
 </g>
 <defs>
  <clipPath id="pd03cd902a6">
   <rect x="41.87" y="12.96" width="86.155" height="84.14"/>
  </clipPath>
  <clipPath id="pee5f468684">
   <rect x="41.87" y="115.46" width="86.155" height="84.14"/>
  </clipPath>
 </defs>
</svg>
