<?xml version="1.0" encoding="utf-8" standalone="no"?>
<!DOCTYPE svg PUBLIC "-//W3C//DTD SVG 1.1//EN"
  "http://www.w3.org/Graphics/SVG/1.1/DTD/svg11.dtd">
<svg xmlns:xlink="http://www.w3.org/1999/xlink" width="234pt" height="129.6pt" viewBox="0 0 234 129.6" xmlns="http://www.w3.org/2000/svg" version="1.1">
 <metadata>
  <rdf:RDF xmlns:dc="http://purl.org/dc/elements/1.1/" xmlns:cc="http://creativecommons.org/ns#" xmlns:rdf="http://www.w3.org/1999/02/22-rdf-syntax-ns#">
   <cc:Work>
    <dc:type rdf:resource="http://purl.org/dc/dcmitype/StillImage"/>
    <dc:date>2025-12-04T13:38:12.174633</dc:date>
    <dc:format>image/svg+xml</dc:format>
    <dc:creator>
     <cc:Agent>
      <dc:title>Matplotlib v3.10.7, https://matplotlib.org/</dc:title>
     </cc:Agent>
    </dc:creator>
   </cc:Work>
  </rdf:RDF>
 </metadata>
 <defs>
  <style type="text/css">*{stroke-linejoin: round; stroke-linecap: butt}</style>
 </defs>
 <g id="figure_1">
  <g id="patch_1">
   <path d="M 0 129.6 
L 234 129.6 
L 234 0 
L 0 0 
z
" style="fill: #ffffff"/>
  </g>
  <g id="axes_1">
   <g id="patch_2">
    <path d="M 55.51 87.64 
L 214.83 87.64 
L 214.83 10.8 
L 55.51 10.8 
z
" style="fill: #ffffff"/>
   </g>
   <g id="matplotlib.axis_1">
    <g id="xtick_1">
     <g id="line2d_1">
      <defs>
       <path id="me22a3cc6c9" d="M 0 0 
L 0 3.5 
" style="stroke: #000000; stroke-width: 0.8"/>
      </defs>
      <g>
       <use xlink:href="#me22a3cc6c9" x="55.51" y="87.64" style="stroke: #000000; stroke-width: 0.8"/>
      </g>
     </g>
     <g id="text_1">
      <!-- 30 -->
      <g transform="translate(49.950625 101.930625) scale(0.1 -0.1)">
       <defs>
        <path id="NimbusSans-Regular-33" d="M 1414 2131 
L 1485 2131 
L 1722 2131 
C 2336 2131 2662 1843 2662 1286 
C 2662 704 2310 352 1728 352 
C 1107 352 806 666 768 1344 
L 205 1344 
C 230 973 294 730 403 525 
C 640 77 1082 -147 1702 -147 
C 2637 -147 3238 416 3238 1293 
C 3238 1882 3014 2202 2470 2394 
C 2893 2566 3104 2886 3104 3354 
C 3104 4147 2586 4627 1722 4627 
C 806 4627 320 4115 301 3136 
L 864 3136 
C 870 3418 896 3578 966 3718 
C 1094 3981 1376 4134 1728 4134 
C 2227 4134 2528 3834 2528 3334 
C 2528 3008 2413 2810 2163 2701 
C 2010 2637 1805 2611 1414 2605 
L 1414 2131 
z
" transform="scale(0.015625)"/>
        <path id="NimbusSans-Regular-30" d="M 1760 4627 
C 1338 4627 954 4435 717 4122 
C 422 3712 275 3098 275 2240 
C 275 678 787 -147 1760 -147 
C 2720 -147 3245 678 3245 2202 
C 3245 3098 3104 3699 2803 4122 
C 2566 4442 2189 4627 1760 4627 
z
M 1760 4128 
C 2368 4128 2669 3507 2669 2253 
C 2669 934 2374 320 1747 320 
C 1152 320 851 960 851 2234 
C 851 3507 1152 4128 1760 4128 
z
" transform="scale(0.015625)"/>
       </defs>
       <use xlink:href="#NimbusSans-Regular-33"/>
       <use xlink:href="#NimbusSans-Regular-30" transform="translate(55.599991 0)"/>
      </g>
     </g>
    </g>
    <g id="xtick_2">
     <g id="line2d_2">
      <g>
       <use xlink:href="#me22a3cc6c9" x="66.89" y="87.64" style="stroke: #000000; stroke-width: 0.8"/>
      </g>
     </g>
    </g>
    <g id="xtick_3">
     <g id="line2d_3">
      <g>
       <use xlink:href="#me22a3cc6c9" x="78.27" y="87.64" style="stroke: #000000; stroke-width: 0.8"/>
      </g>
     </g>
     <g id="text_2">
      <!-- 40 -->
      <g transform="translate(72.710625 101.930625) scale(0.1 -0.1)">
       <defs>
        <path id="NimbusSans-Regular-34" d="M 2093 1120 
L 2093 0 
L 2656 0 
L 2656 1120 
L 3328 1120 
L 3328 1626 
L 2656 1626 
L 2656 4627 
L 2240 4627 
L 179 1715 
L 179 1120 
L 2093 1120 
z
M 2093 1626 
L 672 1626 
L 2093 3667 
L 2093 1626 
z
" transform="scale(0.015625)"/>
       </defs>
       <use xlink:href="#NimbusSans-Regular-34"/>
       <use xlink:href="#NimbusSans-Regular-30" transform="translate(55.599991 0)"/>
      </g>
     </g>
    </g>
    <g id="xtick_4">
     <g id="line2d_4">
      <g>
       <use xlink:href="#me22a3cc6c9" x="89.65" y="87.64" style="stroke: #000000; stroke-width: 0.8"/>
      </g>
     </g>
    </g>
    <g id="xtick_5">
     <g id="line2d_5">
      <g>
       <use xlink:href="#me22a3cc6c9" x="101.03" y="87.64" style="stroke: #000000; stroke-width: 0.8"/>
      </g>
     </g>
     <g id="text_3">
      <!-- 50 -->
      <g transform="translate(95.470625 101.930625) scale(0.1 -0.1)">
       <defs>
        <path id="NimbusSans-Regular-35" d="M 3046 4538 
L 704 4538 
L 365 2067 
L 883 2067 
C 1146 2381 1363 2490 1722 2490 
C 2330 2490 2707 2074 2707 1402 
C 2707 749 2330 352 1715 352 
C 1222 352 922 602 787 1114 
L 224 1114 
C 301 742 365 563 499 397 
C 755 51 1216 -147 1728 -147 
C 2643 -147 3283 518 3283 1478 
C 3283 2374 2688 2989 1818 2989 
C 1498 2989 1242 2906 979 2714 
L 1158 3981 
L 3046 3981 
L 3046 4538 
z
" transform="scale(0.015625)"/>
       </defs>
       <use xlink:href="#NimbusSans-Regular-35"/>
       <use xlink:href="#NimbusSans-Regular-30" transform="translate(55.599991 0)"/>
      </g>
     </g>
    </g>
    <g id="xtick_6">
     <g id="line2d_6">
      <g>
       <use xlink:href="#me22a3cc6c9" x="112.41" y="87.64" style="stroke: #000000; stroke-width: 0.8"/>
      </g>
     </g>
    </g>
    <g id="xtick_7">
     <g id="line2d_7">
      <g>
       <use xlink:href="#me22a3cc6c9" x="123.79" y="87.64" style="stroke: #000000; stroke-width: 0.8"/>
      </g>
     </g>
     <g id="text_4">
      <!-- 60 -->
      <g transform="translate(118.230625 101.930625) scale(0.1 -0.1)">
       <defs>
        <path id="NimbusSans-Regular-36" d="M 3187 3424 
C 3078 4179 2592 4627 1901 4627 
C 1402 4627 954 4384 685 3968 
C 397 3514 275 2950 275 2112 
C 275 1331 384 838 659 429 
C 902 51 1299 -147 1798 -147 
C 2662 -147 3283 499 3283 1402 
C 3283 2253 2707 2854 1894 2854 
C 1446 2854 1094 2688 851 2349 
C 858 3494 1216 4128 1862 4128 
C 2259 4128 2534 3872 2624 3424 
L 3187 3424 
z
M 1824 2355 
C 2368 2355 2707 1971 2707 1357 
C 2707 774 2323 352 1805 352 
C 1280 352 883 794 883 1382 
C 883 1958 1267 2355 1824 2355 
z
" transform="scale(0.015625)"/>
       </defs>
       <use xlink:href="#NimbusSans-Regular-36"/>
       <use xlink:href="#NimbusSans-Regular-30" transform="translate(55.599991 0)"/>
      </g>
     </g>
    </g>
    <g id="xtick_8">
     <g id="line2d_8">
      <g>
       <use xlink:href="#me22a3cc6c9" x="135.17" y="87.64" style="stroke: #000000; stroke-width: 0.8"/>
      </g>
     </g>
    </g>
    <g id="xtick_9">
     <g id="line2d_9">
      <g>
       <use xlink:href="#me22a3cc6c9" x="146.55" y="87.64" style="stroke: #000000; stroke-width: 0.8"/>
      </g>
     </g>
     <g id="text_5">
      <!-- 70 -->
      <g transform="translate(140.990625 101.930625) scale(0.1 -0.1)">
       <defs>
        <path id="NimbusSans-Regular-37" d="M 3328 4538 
L 294 4538 
L 294 3981 
L 2746 3981 
C 1664 2438 1222 1491 883 0 
L 1485 0 
C 1734 1453 2304 2701 3328 4064 
L 3328 4538 
z
" transform="scale(0.015625)"/>
       </defs>
       <use xlink:href="#NimbusSans-Regular-37"/>
       <use xlink:href="#NimbusSans-Regular-30" transform="translate(55.599991 0)"/>
      </g>
     </g>
    </g>
    <g id="xtick_10">
     <g id="line2d_10">
      <g>
       <use xlink:href="#me22a3cc6c9" x="157.93" y="87.64" style="stroke: #000000; stroke-width: 0.8"/>
      </g>
     </g>
    </g>
    <g id="xtick_11">
     <g id="line2d_11">
      <g>
       <use xlink:href="#me22a3cc6c9" x="169.31" y="87.64" style="stroke: #000000; stroke-width: 0.8"/>
      </g>
     </g>
     <g id="text_6">
      <!-- 80 -->
      <g transform="translate(163.750625 101.930625) scale(0.1 -0.1)">
       <defs>
        <path id="NimbusSans-Regular-38" d="M 2502 2438 
C 2976 2726 3123 2957 3123 3392 
C 3123 4122 2566 4627 1760 4627 
C 960 4627 397 4122 397 3398 
C 397 2957 544 2733 1011 2438 
C 493 2176 237 1798 237 1286 
C 237 442 858 -147 1760 -147 
C 2656 -147 3283 442 3283 1286 
C 3283 1798 3027 2176 2502 2438 
z
M 1760 4128 
C 2240 4128 2547 3840 2547 3379 
C 2547 2944 2234 2656 1760 2656 
C 1280 2656 973 2944 973 3392 
C 973 3840 1280 4128 1760 4128 
z
M 1760 2182 
C 2323 2182 2707 1811 2707 1274 
C 2707 717 2330 352 1747 352 
C 1197 352 813 730 813 1267 
C 813 1818 1190 2182 1760 2182 
z
" transform="scale(0.015625)"/>
       </defs>
       <use xlink:href="#NimbusSans-Regular-38"/>
       <use xlink:href="#NimbusSans-Regular-30" transform="translate(55.599991 0)"/>
      </g>
     </g>
    </g>
    <g id="xtick_12">
     <g id="line2d_12">
      <g>
       <use xlink:href="#me22a3cc6c9" x="180.69" y="87.64" style="stroke: #000000; stroke-width: 0.8"/>
      </g>
     </g>
    </g>
    <g id="xtick_13">
     <g id="line2d_13">
      <g>
       <use xlink:href="#me22a3cc6c9" x="192.07" y="87.64" style="stroke: #000000; stroke-width: 0.8"/>
      </g>
     </g>
     <g id="text_7">
      <!-- 90 -->
      <g transform="translate(186.510625 101.930625) scale(0.1 -0.1)">
       <defs>
        <path id="NimbusSans-Regular-39" d="M 339 1056 
C 448 301 934 -147 1626 -147 
C 2131 -147 2579 96 2848 512 
C 3130 966 3258 1530 3258 2368 
C 3258 3149 3142 3642 2874 4051 
C 2624 4429 2227 4627 1728 4627 
C 864 4627 243 3981 243 3085 
C 243 2234 819 1632 1638 1632 
C 2067 1632 2387 1786 2675 2138 
C 2669 986 2310 352 1664 352 
C 1267 352 992 608 902 1056 
L 339 1056 
z
M 1722 4134 
C 2246 4134 2643 3693 2643 3098 
C 2643 2528 2259 2131 1702 2131 
C 1158 2131 819 2515 819 3130 
C 819 3712 1197 4134 1722 4134 
z
" transform="scale(0.015625)"/>
       </defs>
       <use xlink:href="#NimbusSans-Regular-39"/>
       <use xlink:href="#NimbusSans-Regular-30" transform="translate(55.599991 0)"/>
      </g>
     </g>
    </g>
    <g id="xtick_14">
     <g id="line2d_14">
      <g>
       <use xlink:href="#me22a3cc6c9" x="203.45" y="87.64" style="stroke: #000000; stroke-width: 0.8"/>
      </g>
     </g>
    </g>
    <g id="xtick_15">
     <g id="line2d_15">
      <g>
       <use xlink:href="#me22a3cc6c9" x="214.83" y="87.64" style="stroke: #000000; stroke-width: 0.8"/>
      </g>
     </g>
     <g id="text_8">
      <!-- 100 -->
      <g transform="translate(206.490937 101.930625) scale(0.1 -0.1)">
       <defs>
        <path id="NimbusSans-Regular-31" d="M 1658 3296 
L 1658 0 
L 2221 0 
L 2221 4627 
L 1850 4627 
C 1651 3917 1523 3821 653 3706 
L 653 3296 
L 1658 3296 
z
" transform="scale(0.015625)"/>
       </defs>
       <use xlink:href="#NimbusSans-Regular-31"/>
       <use xlink:href="#NimbusSans-Regular-30" transform="translate(55.599991 0)"/>
       <use xlink:href="#NimbusSans-Regular-30" transform="translate(111.199982 0)"/>
      </g>
     </g>
    </g>
    <g id="text_9">
     <!-- Number of visits -->
     <g transform="translate(99.331719 115.400937) scale(0.1 -0.1)">
      <defs>
       <path id="NimbusSans-Regular-4e" d="M 4134 4666 
L 3571 4666 
L 3571 851 
L 1133 4666 
L 486 4666 
L 486 0 
L 1050 0 
L 1050 3782 
L 3462 0 
L 4134 0 
L 4134 4666 
z
" transform="scale(0.015625)"/>
       <path id="NimbusSans-Regular-75" d="M 3085 0 
L 3085 3354 
L 2554 3354 
L 2554 1453 
C 2554 768 2195 320 1638 320 
C 1216 320 947 576 947 979 
L 947 3354 
L 416 3354 
L 416 768 
C 416 211 832 -147 1485 -147 
C 1978 -147 2291 26 2605 467 
L 2605 0 
L 3085 0 
z
" transform="scale(0.015625)"/>
       <path id="NimbusSans-Regular-6d" d="M 448 3354 
L 448 0 
L 986 0 
L 986 2106 
C 986 2592 1338 2982 1773 2982 
C 2170 2982 2394 2739 2394 2310 
L 2394 0 
L 2931 0 
L 2931 2106 
C 2931 2592 3283 2982 3718 2982 
C 4109 2982 4339 2733 4339 2310 
L 4339 0 
L 4877 0 
L 4877 2515 
C 4877 3117 4531 3450 3904 3450 
C 3456 3450 3187 3315 2874 2938 
C 2675 3296 2406 3450 1971 3450 
C 1523 3450 1222 3283 941 2880 
L 941 3354 
L 448 3354 
z
" transform="scale(0.015625)"/>
       <path id="NimbusSans-Regular-62" d="M 346 4666 
L 346 0 
L 826 0 
L 826 429 
C 1082 38 1421 -147 1888 -147 
C 2771 -147 3347 576 3347 1690 
C 3347 2778 2803 3450 1914 3450 
C 1453 3450 1126 3277 877 2899 
L 877 4666 
L 346 4666 
z
M 1811 2950 
C 2406 2950 2790 2432 2790 1632 
C 2790 870 2394 352 1811 352 
C 1242 352 877 864 877 1651 
C 877 2438 1242 2950 1811 2950 
z
" transform="scale(0.015625)"/>
       <path id="NimbusSans-Regular-65" d="M 3283 1498 
C 3283 2010 3245 2317 3149 2566 
C 2931 3117 2419 3450 1792 3450 
C 858 3450 256 2739 256 1632 
C 256 525 832 -147 1779 -147 
C 2547 -147 3078 288 3213 1018 
L 2675 1018 
C 2528 576 2227 346 1798 346 
C 1459 346 1171 499 992 781 
C 864 973 819 1165 813 1498 
L 3283 1498 
z
M 826 1933 
C 870 2554 1248 2957 1786 2957 
C 2330 2957 2707 2534 2707 1933 
L 826 1933 
z
" transform="scale(0.015625)"/>
       <path id="NimbusSans-Regular-72" d="M 442 3354 
L 442 0 
L 979 0 
L 979 1741 
C 986 2547 1318 2906 2054 2886 
L 2054 3430 
C 1965 3443 1914 3450 1850 3450 
C 1504 3450 1242 3245 934 2746 
L 934 3354 
L 442 3354 
z
" transform="scale(0.015625)"/>
       <path id="NimbusSans-Regular-20" transform="scale(0.015625)"/>
       <path id="NimbusSans-Regular-6f" d="M 1741 3450 
C 794 3450 230 2778 230 1651 
C 230 518 794 -147 1747 -147 
C 2694 -147 3264 525 3264 1626 
C 3264 2790 2714 3450 1741 3450 
z
M 1747 2957 
C 2349 2957 2707 2464 2707 1632 
C 2707 838 2336 346 1747 346 
C 1152 346 787 838 787 1651 
C 787 2464 1152 2957 1747 2957 
z
" transform="scale(0.015625)"/>
       <path id="NimbusSans-Regular-66" d="M 1651 3354 
L 1094 3354 
L 1094 3878 
C 1094 4102 1216 4218 1466 4218 
C 1510 4218 1530 4218 1651 4211 
L 1651 4653 
C 1530 4678 1459 4685 1350 4685 
C 858 4685 563 4403 563 3923 
L 563 3354 
L 115 3354 
L 115 2918 
L 563 2918 
L 563 0 
L 1094 0 
L 1094 2918 
L 1651 2918 
L 1651 3354 
z
" transform="scale(0.015625)"/>
       <path id="NimbusSans-Regular-76" d="M 1824 0 
L 3110 3354 
L 2509 3354 
L 1562 634 
L 666 3354 
L 64 3354 
L 1242 0 
L 1824 0 
z
" transform="scale(0.015625)"/>
       <path id="NimbusSans-Regular-69" d="M 960 3354 
L 429 3354 
L 429 0 
L 960 0 
L 960 3354 
z
M 960 4666 
L 422 4666 
L 422 3994 
L 960 3994 
L 960 4666 
z
" transform="scale(0.015625)"/>
       <path id="NimbusSans-Regular-73" d="M 2803 2419 
C 2797 3078 2362 3450 1587 3450 
C 806 3450 301 3046 301 2426 
C 301 1901 570 1651 1363 1459 
L 1862 1338 
C 2234 1248 2381 1114 2381 877 
C 2381 557 2067 346 1600 346 
C 1312 346 1069 429 934 570 
C 851 666 813 762 781 998 
L 218 998 
C 243 224 678 -147 1555 -147 
C 2400 -147 2938 269 2938 915 
C 2938 1414 2656 1690 1990 1850 
L 1478 1971 
C 1043 2074 858 2214 858 2451 
C 858 2765 1133 2957 1568 2957 
C 1997 2957 2227 2771 2240 2419 
L 2803 2419 
z
" transform="scale(0.015625)"/>
       <path id="NimbusSans-Regular-74" d="M 1626 3354 
L 1075 3354 
L 1075 4275 
L 544 4275 
L 544 3354 
L 90 3354 
L 90 2918 
L 544 2918 
L 544 384 
C 544 38 774 -147 1190 -147 
C 1331 -147 1446 -134 1626 -102 
L 1626 346 
C 1549 326 1478 320 1370 320 
C 1139 320 1075 384 1075 621 
L 1075 2918 
L 1626 2918 
L 1626 3354 
z
" transform="scale(0.015625)"/>
      </defs>
      <use xlink:href="#NimbusSans-Regular-4e"/>
      <use xlink:href="#NimbusSans-Regular-75" transform="translate(72.199982 0)"/>
      <use xlink:href="#NimbusSans-Regular-6d" transform="translate(127.799973 0)"/>
      <use xlink:href="#NimbusSans-Regular-62" transform="translate(211.09996 0)"/>
      <use xlink:href="#NimbusSans-Regular-65" transform="translate(266.699951 0)"/>
      <use xlink:href="#NimbusSans-Regular-72" transform="translate(322.299942 0)"/>
      <use xlink:href="#NimbusSans-Regular-20" transform="translate(355.59993 0)"/>
      <use xlink:href="#NimbusSans-Regular-6f" transform="translate(383.399918 0)"/>
      <use xlink:href="#NimbusSans-Regular-66" transform="translate(438.999908 0)"/>
      <use xlink:href="#NimbusSans-Regular-20" transform="translate(466.799896 0)"/>
      <use xlink:href="#NimbusSans-Regular-76" transform="translate(494.599884 0)"/>
      <use xlink:href="#NimbusSans-Regular-69" transform="translate(544.599869 0)"/>
      <use xlink:href="#NimbusSans-Regular-73" transform="translate(566.799866 0)"/>
      <use xlink:href="#NimbusSans-Regular-69" transform="translate(616.79985 0)"/>
      <use xlink:href="#NimbusSans-Regular-74" transform="translate(638.999847 0)"/>
      <use xlink:href="#NimbusSans-Regular-73" transform="translate(666.799835 0)"/>
     </g>
    </g>
   </g>
   <g id="matplotlib.axis_2">
    <g id="ytick_1">
     <g id="line2d_16">
      <defs>
       <path id="m3521d7c85d" d="M 0 0 
L -3.5 0 
" style="stroke: #000000; stroke-width: 0.8"/>
      </defs>
      <g>
       <use xlink:href="#m3521d7c85d" x="55.51" y="84.147273" style="stroke: #000000; stroke-width: 0.8"/>
      </g>
     </g>
     <g id="text_10">
      <!-- Yellow -->
      <g transform="translate(19.06 87.792585) scale(0.1 -0.1)">
       <defs>
        <path id="NimbusSans-Regular-59" d="M 2477 1830 
L 4230 4666 
L 3520 4666 
L 2189 2394 
L 819 4666 
L 83 4666 
L 1882 1830 
L 1882 0 
L 2477 0 
L 2477 1830 
z
" transform="scale(0.015625)"/>
        <path id="NimbusSans-Regular-6c" d="M 973 4666 
L 435 4666 
L 435 0 
L 973 0 
L 973 4666 
z
" transform="scale(0.015625)"/>
        <path id="NimbusSans-Regular-77" d="M 3546 0 
L 4531 3354 
L 3930 3354 
L 3264 742 
L 2605 3354 
L 1952 3354 
L 1312 742 
L 627 3354 
L 38 3354 
L 1011 0 
L 1613 0 
L 2259 2630 
L 2938 0 
L 3546 0 
z
" transform="scale(0.015625)"/>
       </defs>
       <use xlink:href="#NimbusSans-Regular-59"/>
       <use xlink:href="#NimbusSans-Regular-65" transform="translate(66.699997 0)"/>
       <use xlink:href="#NimbusSans-Regular-6c" transform="translate(122.299988 0)"/>
       <use xlink:href="#NimbusSans-Regular-6c" transform="translate(144.499985 0)"/>
       <use xlink:href="#NimbusSans-Regular-6f" transform="translate(166.699982 0)"/>
       <use xlink:href="#NimbusSans-Regular-77" transform="translate(222.299973 0)"/>
      </g>
     </g>
    </g>
    <g id="ytick_2">
     <g id="line2d_17">
      <g>
       <use xlink:href="#m3521d7c85d" x="55.51" y="68.27124" style="stroke: #000000; stroke-width: 0.8"/>
      </g>
     </g>
     <g id="text_11">
      <!-- Blue -->
      <g transform="translate(28.500625 71.916552) scale(0.1 -0.1)">
       <defs>
        <path id="NimbusSans-Regular-42" d="M 506 0 
L 2611 0 
C 3053 0 3379 122 3629 390 
C 3859 634 3987 966 3987 1331 
C 3987 1894 3731 2234 3136 2464 
C 3565 2662 3782 3002 3782 3482 
C 3782 3827 3654 4122 3411 4339 
C 3162 4563 2848 4666 2400 4666 
L 506 4666 
L 506 0 
z
M 1101 2656 
L 1101 4141 
L 2253 4141 
C 2586 4141 2771 4096 2931 3974 
C 3098 3846 3187 3654 3187 3398 
C 3187 3142 3098 2950 2931 2822 
C 2771 2701 2586 2656 2253 2656 
L 1101 2656 
z
M 1101 525 
L 1101 2131 
L 2554 2131 
C 3078 2131 3392 1830 3392 1325 
C 3392 826 3078 525 2554 525 
L 1101 525 
z
" transform="scale(0.015625)"/>
       </defs>
       <use xlink:href="#NimbusSans-Regular-42"/>
       <use xlink:href="#NimbusSans-Regular-6c" transform="translate(66.699997 0)"/>
       <use xlink:href="#NimbusSans-Regular-75" transform="translate(88.899994 0)"/>
       <use xlink:href="#NimbusSans-Regular-65" transform="translate(144.499985 0)"/>
      </g>
     </g>
    </g>
    <g id="ytick_3">
     <g id="line2d_18">
      <g>
       <use xlink:href="#m3521d7c85d" x="55.51" y="52.395207" style="stroke: #000000; stroke-width: 0.8"/>
      </g>
     </g>
     <g id="text_12">
      <!-- Blue$_{F}$ -->
      <g transform="translate(24.01 56.040519) scale(0.1 -0.1)">
       <defs>
        <path id="DejaVuSans-Oblique-46" d="M 1081 4666 
L 3756 4666 
L 3653 4134 
L 1606 4134 
L 1338 2759 
L 3188 2759 
L 3084 2228 
L 1234 2228 
L 800 0 
L 172 0 
L 1081 4666 
z
" transform="scale(0.015625)"/>
       </defs>
       <use xlink:href="#NimbusSans-Regular-42" transform="translate(0 0.09375)"/>
       <use xlink:href="#NimbusSans-Regular-6c" transform="translate(66.699997 0.09375)"/>
       <use xlink:href="#NimbusSans-Regular-75" transform="translate(88.899994 0.09375)"/>
       <use xlink:href="#NimbusSans-Regular-65" transform="translate(144.499985 0.09375)"/>
       <use xlink:href="#DejaVuSans-Oblique-46" transform="translate(201.057007 -16.3125) scale(0.7)"/>
      </g>
     </g>
    </g>
    <g id="ytick_4">
     <g id="line2d_19">
      <g>
       <use xlink:href="#m3521d7c85d" x="55.51" y="36.519174" style="stroke: #000000; stroke-width: 0.8"/>
      </g>
     </g>
     <g id="text_13">
      <!-- Green -->
      <g transform="translate(20.7225 40.164486) scale(0.1 -0.1)">
       <defs>
        <path id="NimbusSans-Regular-47" d="M 4538 2464 
L 2592 2464 
L 2592 1939 
L 4013 1939 
L 4013 1811 
C 4013 979 3398 378 2547 378 
C 2074 378 1645 550 1370 851 
C 1062 1184 877 1741 877 2317 
C 877 3462 1530 4218 2515 4218 
C 3226 4218 3738 3853 3866 3251 
L 4474 3251 
C 4307 4198 3590 4742 2522 4742 
C 1952 4742 1491 4595 1126 4294 
C 582 3846 282 3123 282 2285 
C 282 851 1158 -147 2419 -147 
C 3053 -147 3552 90 4013 595 
L 4160 -26 
L 4538 -26 
L 4538 2464 
z
" transform="scale(0.015625)"/>
        <path id="NimbusSans-Regular-6e" d="M 448 3354 
L 448 0 
L 986 0 
L 986 1850 
C 986 2534 1344 2982 1894 2982 
C 2317 2982 2586 2726 2586 2323 
L 2586 0 
L 3117 0 
L 3117 2534 
C 3117 3091 2701 3450 2054 3450 
C 1555 3450 1235 3258 941 2790 
L 941 3354 
L 448 3354 
z
" transform="scale(0.015625)"/>
       </defs>
       <use xlink:href="#NimbusSans-Regular-47"/>
       <use xlink:href="#NimbusSans-Regular-72" transform="translate(77.799988 0)"/>
       <use xlink:href="#NimbusSans-Regular-65" transform="translate(111.099976 0)"/>
       <use xlink:href="#NimbusSans-Regular-65" transform="translate(166.699966 0)"/>
       <use xlink:href="#NimbusSans-Regular-6e" transform="translate(222.299957 0)"/>
      </g>
     </g>
    </g>
    <g id="ytick_5">
     <g id="line2d_20">
      <g>
       <use xlink:href="#m3521d7c85d" x="55.51" y="20.64314" style="stroke: #000000; stroke-width: 0.8"/>
      </g>
     </g>
     <g id="text_14">
      <!-- Bullseye -->
      <g transform="translate(10.720937 24.288453) scale(0.1 -0.1)">
       <defs>
        <path id="NimbusSans-Regular-79" d="M 2483 3354 
L 1555 742 
L 698 3354 
L 128 3354 
L 1261 -13 
L 1056 -544 
C 966 -781 851 -870 627 -870 
C 538 -870 461 -858 346 -832 
L 346 -1312 
C 454 -1370 563 -1395 704 -1395 
C 877 -1395 1062 -1338 1203 -1235 
C 1370 -1114 1466 -973 1568 -704 
L 3059 3354 
L 2483 3354 
z
" transform="scale(0.015625)"/>
       </defs>
       <use xlink:href="#NimbusSans-Regular-42"/>
       <use xlink:href="#NimbusSans-Regular-75" transform="translate(66.699997 0)"/>
       <use xlink:href="#NimbusSans-Regular-6c" transform="translate(122.299988 0)"/>
       <use xlink:href="#NimbusSans-Regular-6c" transform="translate(144.499985 0)"/>
       <use xlink:href="#NimbusSans-Regular-73" transform="translate(166.699982 0)"/>
       <use xlink:href="#NimbusSans-Regular-65" transform="translate(216.699966 0)"/>
       <use xlink:href="#NimbusSans-Regular-79" transform="translate(272.299957 0)"/>
       <use xlink:href="#NimbusSans-Regular-65" transform="translate(322.299942 0)"/>
      </g>
     </g>
    </g>
   </g>
   <g id="LineCollection_1">
    <path d="M 80.546 84.147273 
L 139.722 84.147273 
" clip-path="url(#pb879f5eb5d)" style="fill: none; stroke: #bfbf00; stroke-width: 2"/>
   </g>
   <g id="line2d_21">
    <path d="M 66.89 77.79686 
" clip-path="url(#pb879f5eb5d)" style="fill: none; stroke: #bfbf00; stroke-width: 1.5; stroke-linecap: square"/>
    <defs>
     <path id="m45176933e5" d="M -0 3 
L 3 -3 
L -3 -3 
z
" style="stroke: #bfbf00; stroke-linejoin: miter"/>
    </defs>
    <g clip-path="url(#pb879f5eb5d)">
     <use xlink:href="#m45176933e5" x="66.89" y="77.79686" style="fill: #bfbf00; stroke: #bfbf00; stroke-linejoin: miter"/>
    </g>
   </g>
   <g id="LineCollection_2">
    <path d="M 57.786 68.27124 
L 110.134 68.27124 
" clip-path="url(#pb879f5eb5d)" style="fill: none; stroke: #0000ff; stroke-width: 2"/>
   </g>
   <g id="line2d_22">
    <path d="M 69.166 61.920826 
" clip-path="url(#pb879f5eb5d)" style="fill: none; stroke: #0000ff; stroke-width: 1.5; stroke-linecap: square"/>
    <defs>
     <path id="m1ec567dcf7" d="M -0 3 
L 3 -3 
L -3 -3 
z
" style="stroke: #0000ff; stroke-linejoin: miter"/>
    </defs>
    <g clip-path="url(#pb879f5eb5d)">
     <use xlink:href="#m1ec567dcf7" x="69.166" y="61.920826" style="fill: #0000ff; stroke: #0000ff; stroke-linejoin: miter"/>
    </g>
   </g>
   <g id="LineCollection_3">
    <path d="M 64.614 52.395207 
L 119.238 52.395207 
" clip-path="url(#pb879f5eb5d)" style="fill: none; stroke: #00bfbf; stroke-width: 2"/>
   </g>
   <g id="line2d_23">
    <path d="M 110.134 46.044793 
" clip-path="url(#pb879f5eb5d)" style="fill: none; stroke: #00bfbf; stroke-width: 1.5; stroke-linecap: square"/>
    <defs>
     <path id="mb008440997" d="M -0 3 
L 3 -3 
L -3 -3 
z
" style="stroke: #00bfbf; stroke-linejoin: miter"/>
    </defs>
    <g clip-path="url(#pb879f5eb5d)">
     <use xlink:href="#mb008440997" x="110.134" y="46.044793" style="fill: #00bfbf; stroke: #00bfbf; stroke-linejoin: miter"/>
    </g>
   </g>
   <g id="LineCollection_4">
    <path d="M 80.546 36.519174 
L 139.722 36.519174 
" clip-path="url(#pb879f5eb5d)" style="fill: none; stroke: #008000; stroke-width: 2"/>
   </g>
   <g id="line2d_24">
    <path d="M 148.826 30.16876 
" clip-path="url(#pb879f5eb5d)" style="fill: none; stroke: #008000; stroke-width: 1.5; stroke-linecap: square"/>
    <defs>
     <path id="m4180eeaadd" d="M -0 3 
L 3 -3 
L -3 -3 
z
" style="stroke: #008000; stroke-linejoin: miter"/>
    </defs>
    <g clip-path="url(#pb879f5eb5d)">
     <use xlink:href="#m4180eeaadd" x="148.826" y="30.16876" style="fill: #008000; stroke: #008000; stroke-linejoin: miter"/>
    </g>
   </g>
   <g id="LineCollection_5">
    <path d="M 85.098 20.64314 
L 141.998 20.64314 
" clip-path="url(#pb879f5eb5d)" style="fill: none; stroke: #bf00bf; stroke-width: 2"/>
   </g>
   <g id="line2d_25">
    <path d="M 203.45 14.292727 
" clip-path="url(#pb879f5eb5d)" style="fill: none; stroke: #bf00bf; stroke-width: 1.5; stroke-linecap: square"/>
    <defs>
     <path id="m0651cdb6d5" d="M -0 3 
L 3 -3 
L -3 -3 
z
" style="stroke: #bf00bf; stroke-linejoin: miter"/>
    </defs>
    <g clip-path="url(#pb879f5eb5d)">
     <use xlink:href="#m0651cdb6d5" x="203.45" y="14.292727" style="fill: #bf00bf; stroke: #bf00bf; stroke-linejoin: miter"/>
    </g>
   </g>
   <g id="patch_3">
    <path d="M 55.51 87.64 
L 55.51 10.8 
" style="fill: none; stroke: #000000; stroke-width: 0.8; stroke-linejoin: miter; stroke-linecap: square"/>
   </g>
   <g id="patch_4">
    <path d="M 55.51 87.64 
L 214.83 87.64 
" style="fill: none; stroke: #000000; stroke-width: 0.8; stroke-linejoin: miter; stroke-linecap: square"/>
   </g>
  </g>
 </g>
 <defs>
  <clipPath id="pb879f5eb5d">
   <rect x="55.51" y="10.8" width="159.32" height="76.84"/>
  </clipPath>
 </defs>
</svg>
